<svg id="Layer_1" data-name="Layer 1" xmlns="http://www.w3.org/2000/svg" viewBox="0 0 793.02 617.95"><defs><style>.cls-1{fill:#433120;}.cls-2{fill:#e3ffff;}.cls-3{fill:#5e878e;opacity:0.6;}.cls-4{fill:#fff;}.cls-5{fill:#e4f2f2;}.cls-6{fill:#7e9398;}.cls-7{fill:#ccd9db;}.cls-8{fill:#e6962b;}.cls-9{fill:#61828e;opacity:0.32;}.cls-10{fill:#3f3023;}.cls-11{fill:#dcebf0;}.cls-12{fill:#ddecf1;}.cls-13{fill:#dceaee;}.cls-14{fill:#ebae58;}.cls-15{fill:#e6c08a;}.cls-16{fill:#f5bb69;}.cls-17{fill:#ecc99c;}.cls-18{fill:#e6d2b8;}.cls-19{fill:#e2d9c8;}.cls-20{fill:#f1b258;}.cls-21{fill:#ebc595;}.cls-22{fill:#e9bd86;}.cls-23{fill:#ebb15a;}.cls-24{fill:#e2c09d;}.cls-25{fill:#eab374;}.cls-26{fill:#deb682;}.cls-27{fill:#e6ae6f;}.cls-28{fill:#664024;}</style></defs><title>coffee</title><rect id="background" class="cls-1" width="793.02" height="617.95"/><ellipse id="plate" class="cls-2" cx="403.58" cy="317.5" rx="195.5" ry="178"/><path id="plate_rim" data-name="plate rim" class="cls-3" d="M368,138.33c-.09-.35-16.46,2.29-35,8.67a202.33,202.33,0,0,0-32,14.17,196,196,0,0,0-44,33.16,183.14,183.14,0,0,0-23.5,28.84,168.5,168.5,0,0,0-24.17,120.16,177.34,177.34,0,0,0,22.17,57.5,179.15,179.15,0,0,0,20.33,26.84,191.49,191.49,0,0,0,36.5,31A204,204,0,0,0,329.5,479a189.73,189.73,0,0,0,36.5,9.5c13.79,2,26.3,2.08,26.33,1.67,0-.22-3.33-.6-19.33-2.84-4.51-.63-12.89-1.8-15.33-2.16-14.93-2.25-27.24-7.46-37.17-11.67a190.34,190.34,0,0,1-36.67-20,184.09,184.09,0,0,1-35.5-32.5,175.78,175.78,0,0,1-18.16-26.17,165.51,165.51,0,0,1-18.67-112,164.79,164.79,0,0,1,15.67-45,169.58,169.58,0,0,1,31.33-42.16,187.7,187.7,0,0,1,33-26.67,197.55,197.55,0,0,1,31.33-16c8.58-3.46,16.73-6,24.5-8.5C360.75,140.26,368.06,138.57,368,138.33Z" transform="translate(1.58 4)"/><path id="plate_rim-2" data-name="plate rim" class="cls-3" d="M527.33,176.89a197.88,197.88,0,0,0-29.74-18.7,187.91,187.91,0,0,0-31.38-12.86c-14.3-4.57-26.41-6.54-26.5-6.16s11.64,2.73,28.17,9a262,262,0,0,1,27.33,12.33,221.12,221.12,0,0,1,30.17,18.33A188,188,0,0,1,545,195.67c2,2.06,3.05,3.1,3.13,3.28s.09.2.21.22a5.61,5.61,0,0,0,2.47-1.08C551.12,197.34,540.25,187.17,527.33,176.89Z" transform="translate(1.58 4)"/><path id="plate_highlight" data-name="plate highlight" class="cls-4" d="M464,393.5a113.36,113.36,0,0,1-21,9.5c-21.2,7.09-41.32,6.78-41.5,5.5-.13-.93,10.39-1.29,26.5-7,23.16-8.22,41.21-22.71,43.83-19.83C472.59,382.49,478.13,385.17,464,393.5Z" transform="translate(1.58 4)"/><path id="plate_highlight-2" data-name="plate highlight" class="cls-4" d="M583,285a150.72,150.72,0,0,1,1,48c-10.09,70.79-72.33,131.92-139,145-34.16,6.7-66.81.26-70.5-.5-32.91-6.77-55.25-21.36-56.5-19-1.08,2,14.55,14.34,34,21.5a116.59,116.59,0,0,0,21.5,5.5c5.86,1,21,3.39,43.5,2,14-.87,33.19-2.05,56.5-10.5,24.16-8.76,40.17-20.75,51-29,12.61-9.61,28.18-21.46,42-41.5,0,0,37.39-54.23,24.5-119.5-1.93-9.79-2.25-11.75-8-27-1.91-5.07-2-11.49-6-13a7.1,7.1,0,0,0-7,1.5C568.33,250.24,574.25,255.83,583,285Z" transform="translate(1.58 4)"/><path id="plate_shadow" data-name="plate shadow" class="cls-5" d="M255.33,235.67c-4.19,7.77-34.92,67-7.66,125.33,19.57,41.93,58.22,60.22,81,71C360,446.83,394.15,453,396,448.33c2.83-7.17-75.94-24.69-116.33-85.66C251.21,319.71,251.36,269.63,255.33,235.67Z" transform="translate(1.58 4)"/><path id="cup_shadow" data-name="cup shadow" class="cls-6" d="M366.25,366a82,82,0,0,0,28.5,9c41.31,4.86,76.58-25.07,76.75-24.75s-14,8.25-27.83,14.08c-3.7,1.56-28,8.22-49.67,6.67A132.26,132.26,0,0,1,366.25,366Z" transform="translate(1.58 4)"/><ellipse id="cup" class="cls-4" cx="404.58" cy="265.33" rx="115" ry="110.17"/><path id="cup_shadow_at_rim" data-name="cup shadow at rim" class="cls-7" d="M487.3,325.1c-8.74,4.92-29.26,17.66-42.36,23.14-8.18,3.42-31.17,8.19-61.67,5.5-11.54-1-43.33-14.1-43.57-13.34s14.74,11.83,44.9,17.2c22.19,3.94,45.15,2,70.33-9.34C472.14,340.5,482.54,328.94,487.3,325.1Z" transform="translate(1.58 4)"/><ellipse id="rim" class="cls-5" cx="403.83" cy="248.58" rx="125.08" ry="110.75"/><ellipse id="coffee" class="cls-8" cx="405.08" cy="245.5" rx="118" ry="101"/><g id="handle_bottom" data-name="handle bottom"><path class="cls-5" d="M586,252.75c-3.66,1.85-12.16,4.86-28.17,10-8.36,2.67-19.21,5.8-32.16,8.67,2.53-4.82,4.88-8.71,6.66-11.5,3.82-6,6.19-9.68,10.34-13.84a55.85,55.85,0,0,1,8-6.66,59.08,59.08,0,0,1,11.83-6.17,42.52,42.52,0,0,1,13-3.33c3-.24,5.39-.4,8.17.66,3.65,1.4,5.68,4.07,7.16,6a24.79,24.79,0,0,1,4.59,10.25C593.08,249.25,589.68,250.89,586,252.75Z" transform="translate(1.58 4)"/><path class="cls-9" d="M524,273.33q6.88-1.32,14.17-3.16a245,245,0,0,0,46.33-17,34.69,34.69,0,0,1-32-4.5,32.59,32.59,0,0,1-10.17,5.66c-3.83,1.29-6.38,1.28-9.66,3.67a18.56,18.56,0,0,0-4.5,4.83A25.42,25.42,0,0,0,524,273.33Z" transform="translate(1.58 4)"/></g><g id="handle_top" data-name="handle top"><path id="handle" class="cls-4" d="M510.29,301.06s5.19-6.79,12.46-20.81c4.81-9.29,6.07-11.93,9-16.5,4.45-6.93,8.36-14.31,17-20.87a55.79,55.79,0,0,1,21.25-10c5.3-1.21,9.26-2,13.5-.25,6,2.53,8.78,9.35,9.37,10.7a23.59,23.59,0,0,1,1.46,4.75c.93-1,1.95-2.54,3.42-4.2,7.83-8.88,6.24-20.54,5.83-22.71s-3.62-13.41-12-18.25a23,23,0,0,0-7.41-2.5c-19.17-2.79-25.67-.79-40.34-3.25a81.19,81.19,0,0,1-16.33-4.54,113.49,113.49,0,0,1-15-8c-13.66-8.59-21-18-21.62-18-2,0,20.87,16.25,30.12,43.25,4,11.71,5.84,27,6,32.62C528.08,280.83,509.37,299.67,510.29,301.06Z" transform="translate(1.58 4)"/><path id="handle_shadow" data-name="handle shadow" class="cls-7" d="M542.21,248.88a29.78,29.78,0,0,1,5.7-5.41A63.7,63.7,0,0,1,563,235.13c3.89-1.56,6.44-2.41,7-2.55a31.49,31.49,0,0,1,8.71-1c4.17.19,6.68,2.38,6.75,2.14s-2.8-2.43-6.37-2.95a22.61,22.61,0,0,0-8.13.5,48.39,48.39,0,0,0-10.62,3.5,50.57,50.57,0,0,0-8.5,4.38,29.93,29.93,0,0,0-6.19,5.28" transform="translate(1.58 4)"/></g><g id="bubbles_dark" data-name="bubbles dark"><circle class="cls-10" cx="509.26" cy="269.11" r="0.67"/><circle class="cls-10" cx="502.3" cy="267.97" r="0.47"/><circle class="cls-10" cx="511.96" cy="249" r="0.75"/><circle class="cls-10" cx="510.01" cy="252.82" r="0.75"/><path class="cls-10" d="M505.13,244.16a.6.6,0,0,1-.6.59.6.6,0,0,1,0-1.19A.6.6,0,0,1,505.13,244.16Z" transform="translate(1.58 4)"/><circle class="cls-10" cx="512.33" cy="243.63" r="0.37"/><path class="cls-10" d="M509.63,238.84a.41.41,0,0,1-.41.41.41.41,0,1,1,0-.81A.41.41,0,0,1,509.63,238.84Z" transform="translate(1.58 4)"/><circle class="cls-10" cx="509.63" cy="241.06" r="0.38"/><circle class="cls-10" cx="504.69" cy="273.48" r="0.61"/><path class="cls-10" d="M518,237.16a.47.47,0,1,1-.47-.47A.47.47,0,0,1,518,237.16Z" transform="translate(1.58 4)"/><path class="cls-10" d="M506.72,222.64a.64.64,0,0,1-.64.64.64.64,0,1,1,0-1.28A.64.64,0,0,1,506.72,222.64Z" transform="translate(1.58 4)"/><circle class="cls-10" cx="509.11" cy="230.9" r="0.52"/><circle class="cls-10" cx="505.71" cy="235.84" r="0.41"/><path class="cls-10" d="M509.63,230.84a.41.41,0,0,1-.41.41.41.41,0,1,1,0-.81A.41.41,0,0,1,509.63,230.84Z" transform="translate(1.58 4)"/><circle class="cls-10" cx="509.59" cy="232.84" r="0.34"/><path class="cls-10" d="M509.63,233a.42.42,0,0,1-.41.41.41.41,0,0,1-.41-.41.41.41,0,0,1,.41-.41A.41.41,0,0,1,509.63,233Z" transform="translate(1.58 4)"/><circle class="cls-10" cx="292.13" cy="228.88" r="0.88"/><circle class="cls-10" cx="293.83" cy="221.17" r="0.83"/><circle class="cls-10" cx="291.34" cy="232.59" r="0.68"/><circle class="cls-10" cx="318.23" cy="221.69" r="0.77"/><circle class="cls-10" cx="324.76" cy="212.34" r="0.59"/><circle class="cls-10" cx="313.46" cy="237.38" r="0.83"/><circle class="cls-10" cx="317.48" cy="228.27" r="0.6"/><circle class="cls-10" cx="321.07" cy="219.7" r="0.53"/><circle class="cls-10" cx="314.1" cy="228.35" r="0.35"/><circle class="cls-10" cx="313.04" cy="234.5" r="0.42"/><circle class="cls-10" cx="312.42" cy="248.04" r="0.54"/><circle class="cls-10" cx="290.97" cy="260.3" r="0.47"/><circle class="cls-10" cx="313.5" cy="254.75" r="0.54"/><circle class="cls-10" cx="310.65" cy="254.69" r="0.48"/><circle class="cls-10" cx="294.85" cy="275.23" r="0.56"/><circle class="cls-10" cx="318.94" cy="273.31" r="0.85"/><circle class="cls-10" cx="317.85" cy="269.48" r="0.4"/><circle class="cls-10" cx="306.08" cy="240.5" r="0.38"/><circle class="cls-10" cx="302.3" cy="242.43" r="0.3"/><circle class="cls-10" cx="314.96" cy="242.54" r="0.42"/><circle class="cls-10" cx="308.31" cy="193.1" r="0.77"/><circle class="cls-10" cx="304.88" cy="198" r="0.71"/><circle class="cls-10" cx="302.78" cy="200.74" r="0.61"/><circle class="cls-10" cx="301.69" cy="203.35" r="0.73"/><circle class="cls-10" cx="299" cy="207.75" r="0.54"/><circle class="cls-10" cx="298.48" cy="209.9" r="0.73"/><circle class="cls-10" cx="333.73" cy="203.15" r="1.15"/><circle class="cls-10" cx="327.71" cy="207.42" r="0.87"/><circle class="cls-10" cx="325.65" cy="176.98" r="0.89"/><circle class="cls-10" cx="367.21" cy="156.13" r="0.96"/></g><g id="milk"><path class="cls-11" d="M408.17,261.83c-1.37.38-5.62-10.5-13.67-22a17.45,17.45,0,0,0-8-6.5c-.79-.29-5.13-1.89-7,0-.8.81-.94,2-1.17,4a16.58,16.58,0,0,0,0,3.84c.77,6.34,5.3,12.07,5.5,12.33a29.56,29.56,0,0,0,5.67,5.33,35.18,35.18,0,0,0,7,4,47.34,47.34,0,0,1,13.67,10,15.07,15.07,0,0,0,6-2.5,33.91,33.91,0,0,0,4.91-4.41c3.05-3.74,2.47-2.56,7.59-7.59,3.8-3.73,5.69-5.6,7.16-7.83s4.9-7.6,4.67-14.83a27.58,27.58,0,0,0-1.83-8.5c-1.37-4-2.65-5.45-3-5.84-.92-1-3.09-3.42-6-3.33-.43,0-2,.11-5,2.67-1.87,1.6-3.24,3.29-5.84,7.33-3,4.61-4.91,8.24-5.5,9.33-2.16,4-3.73,8.27-4,10C408,257.63,409.32,261.51,408.17,261.83Z" transform="translate(1.58 4)"/><path class="cls-12" d="M404.75,253.63a139.62,139.62,0,0,1-4.25-18.25,50.39,50.39,0,0,1-.75-7.13,53.12,53.12,0,0,1,.25-6.5c.59-5.11,2.93-7.3,9.13-18.37,3.36-6,4.6-8.8,5.5-12.25a35.81,35.81,0,0,0,1.12-7c.24-4.7.5-9.65-2.62-13.75-2.53-3.32-6.07-4.51-9-5.5-3.14-1.06-5.74-1.94-8.75-.88-4.73,1.66-6.31,6.63-6.38,6.88-.37,1.23-.29,2.86-.12,6.12.2,4,.57,5,.75,8.63s0,6.73-.25,6.75-.22-4.59-2.5-10.13c-2-4.79-3.89-5.78-4.75-6.12a5.66,5.66,0,0,0-4.38,0c-1.91.9-2.58,2.89-3.12,4.5a12.79,12.79,0,0,0-.5,6.12c.82,5.12,10.43,16.75,10.87,17.54C394.92,222.33,394.72,226.38,404.75,253.63Z" transform="translate(1.58 4)"/><path class="cls-13" d="M415.88,275.25c-.92.24-6.51,0-10.55-.75a22,22,0,0,1-6-2.17,57.49,57.49,0,0,0-7.33-2.66c-5.88-2.22-12.92-7.91-17.83-15a36.38,36.38,0,0,1-6.5-14.34c-.81-4.12-2.55-13,2.16-19,1.89-2.42,3.57-2.8,4-5.16.49-2.68-1.22-5.21-4.66-10.17a30.4,30.4,0,0,0-4.84-6,19.35,19.35,0,0,0-9.83-5.17c-1.62-.25-5-.52-10.5,1.84-3.32,1.42-10.87,5.3-17.83,15.5-2.14,3.13-10.75,16.41-10.67,34.16.16,35.75,35.43,58.36,40.33,61.5a98.2,98.2,0,0,0,47.34,14.67c7.62.36,34.53,1.23,59.83-16.83a94.06,94.06,0,0,0,27.83-32.17c3.13-6,7.18-13.87,8.34-25.17a64.77,64.77,0,0,0-3.34-27,65.59,65.59,0,0,0-15.66-25.16c-8.54-8.42-16.91-11.86-24.17-14.84-9.75-4-13.27-3.38-15.5-2.5-6.2,2.48-8.48,9.55-9,11.17a19.75,19.75,0,0,0,.5,13.83c2.28,5.33,5.62,4.27,9.5,9.84,2.65,3.8,3.43,8.36,5,17.5,1.24,7.22.48,9.76.13,13.4-.13,1.24-3,7.34-7.63,13.95C429,272.81,416.88,275.35,415.88,275.25Z" transform="translate(1.58 4)"/><path class="cls-14" d="M365.5,238.75a55.69,55.69,0,0,1,.25-15.62,26.85,26.85,0,0,0,.38-6.38c-.16-2.62-.3-4.58-1.63-6.5a10,10,0,0,0-5.25-3.62,13.36,13.36,0,0,0-6.25-.5c-3.6.52-6.73,2.38-10.25,5.75a49.77,49.77,0,0,0-11.75,18,57.13,57.13,0,0,0-3.62,23.5c.82,14.27,7,24.28,10.62,30.12a63.33,63.33,0,0,0,10.63,13.25c8.42,7.93,16.85,11.25,26,14.75,6.85,2.62,16.91,6.38,30.87,7.25A92.88,92.88,0,0,0,438.25,315a87.94,87.94,0,0,0,18.13-7.87A96.72,96.72,0,0,0,469.13,298c4.47-3.62,9.24-7.95,9-8.25s-2.76,1.62-10,6.75l-15.38,10.88c-10.13,6.28-20.1,7.56-28.37,8.62a90.4,90.4,0,0,1-24.75-.25,99,99,0,0,1-25.25-7.62c-7-3.17-15.24-6.85-23.5-14.88a72.26,72.26,0,0,1-12-15.62c-3.9-6.5-6.67-11.1-8-18A45.21,45.21,0,0,1,333,236a54.88,54.88,0,0,1,6.63-13c3-4.57,4.63-7.37,7.75-9.5,3.67-2.51,6.21-2.42,6.87-2.37a9.78,9.78,0,0,1,5.25,2.12,11.23,11.23,0,0,1,3.38,4.38,15.06,15.06,0,0,1,1.25,6.62A84.56,84.56,0,0,0,365.5,238.75Z" transform="translate(1.58 4)"/><path class="cls-15" d="M372,257.38a86.17,86.17,0,0,1-12.37-13.63c-.73-1-1.89-2.72-3.4-2.68-2.48.06-4.79,4.72-5.1,8.81-.06.65-.14,2.41,1.12,6.62a50.52,50.52,0,0,0,5.63,12.38,44.9,44.9,0,0,0,7.37,9.12,67,67,0,0,0,8.5,6.38c7.23,4.94,10.36,6.41,10.25,6.62-.19.38-10.58-2.87-19.25-11.13a51.55,51.55,0,0,1-6.5-7.62,52.21,52.21,0,0,1-5.37-9.87c-3.85-9.32-3.69-16.37-3.63-17.88a16.09,16.09,0,0,1,1.63-6.87c.19-.39,2.78-5.43,5.25-5a4,4,0,0,1,1.62,1.29,2.74,2.74,0,0,1,.25.33,33.72,33.72,0,0,1,3.38,6.5c.91,2.7,2.19,4.76,4.75,8.88A52.54,52.54,0,0,0,372,257.38Z" transform="translate(1.58 4)"/><path class="cls-16" d="M355.13,230.63a3.34,3.34,0,0,0-1.75-1.38,4.15,4.15,0,0,0-3.38.88c-4.33,2.83-6.37,9.62-6.37,9.62A41.1,41.1,0,0,0,342.5,258a45.93,45.93,0,0,0,7.38,18,57.88,57.88,0,0,0,10.62,12,68.33,68.33,0,0,0,9.13,6.88A69.67,69.67,0,0,0,393.38,304a83.55,83.55,0,0,0,71.12-18.25c6.32-5.32,13-10.94,17.25-21a49.37,49.37,0,0,0,3.63-21c-.14-4.46-.46-14.65-3.88-18.62-2-2.29-2.18-3.53-2.62-6-.09-.47-.16-1.08.12-1.25.57-.36,2.2,1.31,2.75,1.87,4.44,4.54,5.63,13.75,5.63,13.75.69,5.35,1.59,12.34-.38,21.63a57.06,57.06,0,0,1-7.87,19.25c-4.82,7.24-10.13,11.24-15.88,15.5a84.11,84.11,0,0,1-66.25,17c-7.33-1.15-20.38-3.34-33.62-12.75-4.63-3.29-12.38-8.93-18.13-19.38a51.23,51.23,0,0,1-6.37-27,47.09,47.09,0,0,1,4.87-16.37c1-2,2.28-4.24,4.75-5.13a7.83,7.83,0,0,1,4.5-.12,8.15,8.15,0,0,1,3.5,2c1.88,1.78,3.16,4.63,2.5,5.25-.51.47-2.31-.26-3.25-1.5A4,4,0,0,1,355.13,230.63Z" transform="translate(1.58 4)"/><path class="cls-17" d="M450.25,217.5c.35-.1-.93-2.76.38-5a4.94,4.94,0,0,1,2.37-2c1-.4,3.64-1,9.25,3.38a44.9,44.9,0,0,1,12.5,15.75,43.72,43.72,0,0,1,1.88,29.5c-2.1,6.9-5.47,11.4-8.25,15.12a63.08,63.08,0,0,1-19.63,17.13c-10.35,5.78-19.6,7.09-25.5,7.87-19.12,2.52-33.91-2.11-34.12-1-.14.72,6,2.79,12,3.88a64.7,64.7,0,0,0,24.75-.63,80,80,0,0,0,24-8.62,74.26,74.26,0,0,0,16.37-12.38c4.22-4.3,9.3-9.48,12.63-18,1.39-3.58,5.18-13.67,2-25.75a41.53,41.53,0,0,0-9.13-16.62c-1.94-2.3-4.25-5.75-12-9.88-1-.51-2.61-1.93-5-2a6.07,6.07,0,0,0-4.87,1.88,5.22,5.22,0,0,0-1.13,3C448.56,215.55,449.94,217.59,450.25,217.5Z" transform="translate(1.58 4)"/><path class="cls-18" d="M433.5,278.13a26.84,26.84,0,0,0,8.25-3.88c4.71-3.32,6.81-7.22,7.13-7s-1.58,4.22-5.13,7.5a12.8,12.8,0,0,1-5.75,3.38A10.77,10.77,0,0,1,433.5,278.13Z" transform="translate(1.58 4)"/><path class="cls-19" d="M456,222.25a1.94,1.94,0,0,1,1-1.37c2.15-.8,6.52,5.49,8.63,9.25a36.05,36.05,0,0,1,5,19.62,36.71,36.71,0,0,1-5.5,17.38,44.53,44.53,0,0,1-15.88,15.5c-11.39,6.93-22.29,7.49-22.12,8.37.11.62,5.51.52,10.78-.84,6.64-1.7,11-4.85,14.72-7.53a49.24,49.24,0,0,0,12.75-12.88,35.32,35.32,0,0,0,5.75-29.37,43.46,43.46,0,0,0-4-11.25A23.84,23.84,0,0,0,461,221c-1.1-.92-3.24-2.69-4.37-2S455.92,221.69,456,222.25Z" transform="translate(1.58 4)"/><path class="cls-20" d="M435.38,192a9.49,9.49,0,0,1,2.5-4.87c1-1,2.71-2.23,6.12-2.75,8.13-1.25,17.05,2.74,17.88,3.12a58.13,58.13,0,0,1,19.75,15,61.75,61.75,0,0,1,13.12,28.88c2.71,14,.65,26.61-2.12,33.87-.35.91-.74,1.83-.74,1.83a56,56,0,0,1-11.51,17.3,9.38,9.38,0,0,0,3.59-2c11.25-13.15,14-29,14.16-34,.45-11.76-2.41-20.56-4.38-26.63-3.67-11.27-8.09-17.06-9.12-18.37A67.37,67.37,0,0,0,460.38,185a36.47,36.47,0,0,0-13.75-3c-3.52,0-6.4.55-8.88,2.25-1.16.79-3,2.07-3.25,4.25A5.32,5.32,0,0,0,435.38,192Z" transform="translate(1.58 4)"/><path class="cls-21" d="M445.38,210a13.56,13.56,0,0,1-1.25-8.87c.11-.55.83-3.94,2.87-5.75,5.19-4.61,19,.83,27.63,8.12a46.31,46.31,0,0,1,13.25,20.25c8.28,24.32-4,47.67-7.25,53.5a40.13,40.13,0,0,0,4.25-5.87,45.33,45.33,0,0,0,3.87-8.88,63.33,63.33,0,0,0,2.75-13.12c.61-5.67,1.37-12.81-.87-21.75a53.15,53.15,0,0,0-7.38-16.5A44.8,44.8,0,0,0,474.38,201a43.73,43.73,0,0,0-15-8c-5.27-1.61-8.6-2.62-11.88-.87-4,2.15-5.26,7-5.5,8a9.12,9.12,0,0,0,.13,6.12A8.32,8.32,0,0,0,445.38,210Z" transform="translate(1.58 4)"/><path class="cls-22" d="M340,231.13a51.61,51.61,0,0,0-4,24.25,53,53,0,0,0,6.5,21.25c6,10.83,14.21,16.58,19.38,20.12,15.19,10.42,30.26,12.46,37.62,13.38,9,1.11,28.51,3.27,49.5-7.13a80,80,0,0,0,26.25-21,51,51,0,0,1-5.37,7.75c-6.89,8.18-14.59,12-20,14.63a88.94,88.94,0,0,1-32.13,8.25,99.88,99.88,0,0,1-31.25-3.25A83.15,83.15,0,0,1,367.25,302a62.86,62.86,0,0,1-18.75-14.37A60.44,60.44,0,0,1,340.13,275a50,50,0,0,1-5.25-15.87c-.55-3.8-.45-6.58-.25-12.13.21-5.9.78-8.15,1.62-10.12A19.92,19.92,0,0,1,340,231.13Z" transform="translate(1.58 4)"/><path class="cls-23" d="M327.75,228.13a63.32,63.32,0,0,0-2,31.25,65.93,65.93,0,0,0,6.63,18.25c5,9.35,10.6,14.68,10.25,15s-4.45-3.45-8-8.38a51.81,51.81,0,0,1-5.75-10.5,70.76,70.76,0,0,1-4.38-13.62,109.77,109.77,0,0,1-1.5-11.38c-.74-7-.63-9.32-.5-10.87a23.2,23.2,0,0,1,1.88-8.5c.47-1,.45-.73,3-5.38.92-1.69,1.31-2.44,1.5-2.37S329.06,222.86,327.75,228.13Z" transform="translate(1.58 4)"/><path class="cls-24" d="M409.5,210.88c.66.19-.39,3.7-.37,8.87,0,7.65,2.37,12.58,1.87,12.75s-2.49-4-3.62-8.5c-1.27-5-.7-7.59-.5-8.37C407.5,213.13,408.93,210.71,409.5,210.88Z" transform="translate(1.58 4)"/><path class="cls-25" d="M381,173.67c-1.87-1.06-4.2-1.77-5-1.59-4.31,1-7.17,4.76-4.83,14.59a50.53,50.53,0,0,0,4.5,9.75,34.33,34.33,0,0,0,6,8.58c1.26,1.44,3.58,5.17,6.16,8a110.1,110.1,0,0,1-9-9.83,50,50,0,0,1-7.08-11.26,35.66,35.66,0,0,1-3-9.91,10.06,10.06,0,0,1,2.89-8.94c.7-.69,2.52-2.48,5.07-2.23A6.25,6.25,0,0,1,381,173.67Z" transform="translate(1.58 4)"/><path class="cls-26" d="M476,182c-.41.56,7.59,5.31,16.67,15.67,4.44,5.07,12.45,14.21,16.66,26.66,6.47,19.11.78,36.53-1.33,43-7.95,24.35-25.66,37.84-35.33,45-36.34,26.91-76.8,23.32-83,22.67-36.26-3.78-61-27.74-62.34-25.67-.9,1.43,10.81,12.18,25.67,19.67,22.51,11.35,43.39,10.77,54.33,10.33a127.66,127.66,0,0,0,61.34-18.66c9-5.57,22.44-14,33.33-30.67a87.91,87.91,0,0,0,14-38.33c.79-7.81,2.06-22.12-5.33-37A63.27,63.27,0,0,0,500.33,200C489.32,187.73,476.5,181.31,476,182Z" transform="translate(1.58 4)"/><path class="cls-27" d="M379.08,160.58a75.35,75.35,0,0,0-68.33,42.34,91.91,91.91,0,0,1,68.33-42.34Z" transform="translate(1.58 4)"/></g><g id="bubbles_light" data-name="bubbles light"><circle class="cls-28" cx="508.71" cy="237.37" r="0.4"/><circle class="cls-28" cx="508.71" cy="258.03" r="0.4"/><circle class="cls-28" cx="508.92" cy="259.66" r="0.34"/><circle class="cls-28" cx="507.13" cy="262.05" r="0.42"/><circle class="cls-28" cx="512.71" cy="256.13" r="0.38"/><circle class="cls-28" cx="508.71" cy="251.53" r="0.4"/><circle class="cls-28" cx="511.11" cy="245.16" r="0.34"/><circle class="cls-28" cx="507.13" cy="264.23" r="0.42"/><circle class="cls-28" cx="517.5" cy="228.07" r="0.79"/><circle class="cls-28" cx="520.21" cy="245.44" r="0.63"/><circle class="cls-28" cx="516.63" cy="225.14" r="0.86"/><circle class="cls-28" cx="509.09" cy="248.07" r="0.5"/><path class="cls-28" d="M509.91,256.19a.35.35,0,0,1-.35.34.34.34,0,0,1-.34-.34.35.35,0,0,1,.34-.35A.35.35,0,0,1,509.91,256.19Z" transform="translate(1.58 4)"/><circle class="cls-28" cx="511.05" cy="257.87" r="0.24"/><circle class="cls-28" cx="513.51" cy="254.98" r="0.2"/><circle class="cls-28" cx="509.55" cy="250.7" r="0.29"/><circle class="cls-28" cx="512.96" cy="246.78" r="0.25"/><path class="cls-28" d="M509.91,237.79a.35.35,0,0,1-.35.34.34.34,0,0,1-.34-.34.35.35,0,0,1,.34-.35A.35.35,0,0,1,509.91,237.79Z" transform="translate(1.58 4)"/><circle class="cls-28" cx="512.52" cy="240.88" r="0.19"/><circle class="cls-28" cx="514.22" cy="245.73" r="0.23"/><circle class="cls-28" cx="504.65" cy="250.6" r="0.2"/><path class="cls-28" d="M506.58,245.76a.19.19,0,0,1-.2.19.18.18,0,0,1-.19-.19.19.19,0,0,1,.19-.2A.2.2,0,0,1,506.58,245.76Z" transform="translate(1.58 4)"/><circle class="cls-28" cx="514.22" cy="248.82" r="0.23"/><circle class="cls-28" cx="504.4" cy="264.52" r="0.29"/><path class="cls-28" d="M509.18,258.34a.18.18,0,0,1-.18.18.18.18,0,1,1,0-.36A.18.18,0,0,1,509.18,258.34Z" transform="translate(1.58 4)"/><path class="cls-28" d="M506.34,262.25a.27.27,0,0,1-.28.28.28.28,0,1,1,0-.56A.27.27,0,0,1,506.34,262.25Z" transform="translate(1.58 4)"/><circle class="cls-28" cx="340.88" cy="196.13" r="0.71"/><circle class="cls-28" cx="350.17" cy="194.02" r="0.92"/><circle class="cls-28" cx="372.75" cy="204.67" r="0.58"/><circle class="cls-28" cx="317.71" cy="225.92" r="0.42"/><circle class="cls-28" cx="309.03" cy="234.82" r="0.32"/><circle class="cls-28" cx="315.17" cy="234.71" r="0.21"/><circle class="cls-28" cx="313.53" cy="244.45" r="0.57"/><circle class="cls-28" cx="312.31" cy="252.77" r="0.44"/><circle class="cls-28" cx="306.38" cy="251.58" r="0.29"/><circle class="cls-28" cx="308.65" cy="248.85" r="0.27"/><circle class="cls-28" cx="315.17" cy="246.17" r="0.21"/><circle class="cls-28" cx="313.82" cy="256.04" r="0.29"/><circle class="cls-28" cx="312.64" cy="259.32" r="0.32"/><circle class="cls-28" cx="312.15" cy="256.9" r="0.27"/><circle class="cls-28" cx="307.2" cy="257.28" r="0.11"/><circle class="cls-28" cx="305.5" cy="255.96" r="0.21"/><circle class="cls-28" cx="294.96" cy="240.21" r="0.29"/><circle class="cls-28" cx="308.21" cy="241.46" r="0.17"/><circle class="cls-28" cx="312.45" cy="250.05" r="0.3"/><circle class="cls-28" cx="312.93" cy="240.21" r="0.29"/><circle class="cls-28" cx="313.82" cy="238.99" r="0.29"/><circle class="cls-28" cx="307.38" cy="245.31" r="0.29"/><circle class="cls-28" cx="305.5" cy="247.13" r="0.21"/><circle class="cls-28" cx="313.84" cy="266.12" r="0.63"/><circle class="cls-28" cx="315.63" cy="266.5" r="0.25"/><circle class="cls-28" cx="314.26" cy="260.09" r="0.21"/><circle class="cls-28" cx="305.03" cy="269.88" r="0.4"/><circle class="cls-28" cx="322.08" cy="282.13" r="0.58"/><circle class="cls-28" cx="321.25" cy="279.67" r="0.42"/><circle class="cls-28" cx="319.31" cy="275.79" r="0.37"/><circle class="cls-28" cx="328.28" cy="292.32" r="0.41"/><circle class="cls-28" cx="325.9" cy="292.89" r="0.57"/><circle class="cls-28" cx="323.81" cy="286.02" r="0.6"/><circle class="cls-28" cx="317.44" cy="285.73" r="0.65"/><circle class="cls-28" cx="315.88" cy="274.38" r="0.5"/><circle class="cls-28" cx="330.58" cy="301" r="0.63"/><circle class="cls-28" cx="328.53" cy="303.03" r="0.66"/><circle class="cls-1" cx="433.79" cy="152.71" r="0.88"/><circle class="cls-1" cx="439.13" cy="154.38" r="0.79"/><path class="cls-1" d="M387.85,262.4a.59.59,0,0,1-.59.59.58.58,0,0,1-.59-.59.59.59,0,0,1,.59-.59A.6.6,0,0,1,387.85,262.4Z" transform="translate(1.58 4)"/></g></svg>