<svg xmlns="http://www.w3.org/2000/svg" xmlns:xlink="http://www.w3.org/1999/xlink" viewBox="0 0 620.72 792"><defs><style>.cls-1{fill:none;}.cls-2{clip-path:url(#clip-path);}.cls-3{fill:#0d1013;}.cls-4{fill:#2c2f1f;}.cls-5{fill:#2a3313;}.cls-6{fill:#272a19;}.cls-7{fill:#809730;}.cls-8{fill:#a2a584;}.cls-9{fill:#586329;}.cls-10{fill:#88a22e;}.cls-11{fill:#344a1b;}.cls-12{fill:#3f4356;}.cls-13{fill:#282f1b;}.cls-14{fill:#39581c;}.cls-15{fill:#243123;}.cls-16{fill:#688414;}.cls-17{fill:#90ab07;}.cls-18{fill:#93ae03;}.cls-19{fill:#8caa00;}.cls-20{fill:#d3e13d;}.cls-21{fill:#96b101;}.cls-22{fill:#e2dfaa;}.cls-23{fill:#9b9f1c;}.cls-24{fill:#9b9d52;}.cls-25{fill:#c1c774;}.cls-26{fill:#b9ba96;}.cls-27{fill:#c5c936;}.cls-28{fill:#c8d135;}.cls-29{fill:#909441;}.cls-30{fill:#aab53b;}.cls-31{fill:#79876f;}.cls-32{fill:#38433c;}.cls-33{fill:#27261c;}.cls-34{fill:#7d9d0d;}.cls-35{fill:#424f25;}.cls-36{fill:#ced9ca;}.cls-37{fill:#b7c1a8;}.cls-38{fill:#456326;}.cls-39{fill:#292b19;}.cls-40{fill:#4c2d65;}.cls-41{fill:#42354d;}.cls-42{fill:#a79df3;}.cls-43{fill:#6454b7;}.cls-44{fill:#372b69;}.cls-45{fill:#cfcfff;}.cls-46{fill:#3b1e57;}.cls-47{fill:#9388da;}.cls-48{fill:#45286f;}.cls-49{fill:#381b5c;}.cls-50{fill:#45255b;}.cls-51{fill:#402956;}.cls-52{fill:#3f336f;}.cls-53{fill:#3d2d68;}.cls-54{fill:#9d8cd9;}.cls-55{fill:#c5baff;}.cls-56{fill:#2b2050;}.cls-57{fill:#291c46;}.cls-58{fill:#c4c0ff;}.cls-59{fill:#837ed0;}.cls-60{fill:#ada9f5;}.cls-61{fill:#b8b1ff;}.cls-62{fill:#c5bdff;}.cls-63{fill:#8b8dd4;}.cls-64{fill:#7671b5;}.cls-65{fill:#4d4192;}.cls-66{fill:#44265c;}.cls-67{fill:#27185b;}.cls-68{fill:#5143ae;}.cls-69{fill:#dee2ff;}.cls-70{fill:#e4e6ff;}.cls-71{fill:#d9d9ff;}.cls-72{fill:#d8d9ff;}.cls-73{fill:#8f8cda;}.cls-74{fill:#b8b4fe;}.cls-75{fill:#60519c;}.cls-76{fill:#4b3679;}.cls-77{fill:#5241a1;}.cls-78{fill:#c3b7ff;}.cls-79{fill:#baaffa;}.cls-80{fill:#bab5ff;}.cls-81{fill:#372886;}.cls-82{fill:#322187;}.cls-83{fill:#433886;}.cls-84{fill:#d7c8ff;}.cls-85{fill:#3f308c;}.cls-86{fill:#3c2e8d;}.cls-87{fill:#3d2c8b;}.cls-88{fill:#221858;}.cls-89{fill:#453d97;}.cls-90{fill:#7e6fe6;}.cls-91{fill:#7d77d8;}.cls-92{fill:#a6a1ff;}.cls-93{fill:#9596e6;}.cls-94{fill:#5957c4;}.cls-95{fill:#b0b0ff;}.cls-96{fill:#2d2278;}.cls-97{fill:#231a3f;}.cls-98{fill:#5d428d;}.cls-99{fill:#bab4f9;}.cls-100{fill:#6a61be;}.cls-101{fill:#302174;}.cls-102{fill:#6e62a8;}.cls-103{fill:#6058a5;}.cls-104{fill:#7f7ecf;}.cls-105{fill:#bbf;}.cls-106{fill:#6756bb;}.cls-107{fill:#5848b0;}.cls-108{fill:#423983;}.cls-109{fill:#d6d1ff;}.cls-110{fill:#352b7e;}.cls-111{fill:#8169bf;}.cls-112{fill:#7669c9;}.cls-113{fill:#483a8e;}.cls-114{fill:#8883d2;}.cls-115{fill:#a79ef2;}.cls-116{fill:#9992de;}.cls-117{fill:#514279;}.cls-118{fill:#49417d;}.cls-119{fill:#5d60a2;}.cls-120{fill:#322f89;}.cls-121{fill:#d1d3ff;}.cls-122{fill:#dadcfe;}.cls-123{fill:#3e397e;}.cls-124{fill:#d4d3ff;}.cls-125{fill:#6463ad;}.cls-126{fill:#948fdf;}.cls-127{fill:#7670c4;}.cls-128{fill:#6d6ec4;}.cls-129{fill:#463da3;}.cls-130{fill:#372f85;}.cls-131{fill:#cfcaff;}.cls-132{fill:#bdb6ff;}.cls-133{fill:#ebe4ff;}.cls-134{fill:#f3ecff;}.cls-135{fill:#b6afff;}.cls-136{fill:#d2cfff;}.cls-137{fill:#2c1f42;}.cls-138{fill:#a399dc;}.cls-139{fill:#9287c8;}.cls-140{fill:#b3abed;}.cls-141{fill:#b1a6f3;}.cls-142{fill:#4b3e89;}.cls-143{fill:#403682;}.cls-144{fill:#bcb0f6;}.cls-145{fill:#8f82bd;}.cls-146{fill:#c3bdff;}.cls-147{fill:#bcb0fe;}.cls-148{fill:#9689c1;}.cls-149{fill:#6f597e;}.cls-150{fill:#7366b1;}.cls-151{fill:#4e408b;}.cls-152{fill:#7660c0;}.cls-153{fill:#9585cc;}.cls-154{fill:#3c2b6f;}.cls-155{fill:#3f2f74;}.cls-156{fill:#81628d;}.cls-157{fill:#9f93ea;}.cls-158{fill:#7268b2;}.cls-159{fill:#c6b9ff;}.cls-160{fill:#cec6ff;}.cls-161{fill:#4e4b8e;}.cls-162{fill:#9a96f4;}.cls-163{fill:#321e55;}.cls-164{fill:#dfd1ff;}.cls-165{fill:#ded0ff;}.cls-166{fill:#baabff;}.cls-167{fill:#c2b7ff;}.cls-168{fill:#d3ccff;}.cls-169{fill:#1f135f;}.cls-170{fill:#ccc4fd;}.cls-171{fill:#e1d8ff;}.cls-172{fill:#d8d0ff;}.cls-173{fill:#7f70b0;}.cls-174{fill:#9286c8;}.cls-175{fill:#c2c3ff;}.cls-176{fill:#c2bef3;}.cls-177{fill:#8484e6;}.cls-178{fill:#5c50c1;}.cls-179{fill:#151044;}.cls-180{fill:#cdceff;}.cls-181{fill:#392e70;}.cls-182{fill:#e2d9ff;}.cls-183{fill:#7166de;}.cls-184{fill:#8780e0;}.cls-185{fill:#968ce3;}.cls-186{fill:#261877;}.cls-187{fill:#57458f;}.cls-188{fill:#998bd6;}.cls-189{fill:#42327b;}.cls-190{fill:#50408b;}.cls-191{fill:#958ed9;}.cls-192{fill:#9d99ed;}.cls-193{fill:#817dd4;}.cls-194{fill:#a697e2;}.cls-195{fill:#44357d;}</style><clipPath id="clip-path" transform="translate(2.72 -0.48)"><rect class="cls-1" y="0.48" width="612" height="789.52"/></clipPath></defs><title>flowers</title><g id="Layer_6" data-name="Layer 6"><g class="cls-2"><rect id="background-2" data-name="background" class="cls-3" x="2.72" width="613.55" height="792"/><path class="cls-4" d="M141,413.75c6-7.18,16.12-17.16,19.46-21,7.48-8.6,11.11-12.49,15.57-19.25,3-4.6,17.14-15.48,18.47-18.14-5.62,1.58-7.38-6.62-13-5,.22,2.68-15.72,23.17-17.41,27.17-2.4,5.68-6.74,8.63-9.6,11-4.62,3.82-10.34,10.18-14.79,21.25C141.86,409.67,138.84,413.83,141,413.75Z" transform="translate(2.72 -0.48)"/><path class="cls-5" d="M169.83,349.27c-2.48-1.51-12-.84-17.29-.74-2.62.05-5.49.87-11,3-9,3.42-14.79,6-14.79,6-8,3.09-14.48,5.9-19.2,8-11,4.88-14,6.81-14,9.25s3,5,5.19,4.75,2.39-3.6,5.44-6.75c3.5-3.61,6.14-2,14.79-5.5,6.79-2.74,7.12-4.52,13.76-6.5,2.17-.65,9.34-2.79,10.63-.75.94,1.48-1.47,4.68-3.37,6.5-5.78,5.54-13.49,4.64-13.75,7-.16,1.42,2.44,3.47,5.19,3.75,5,.5,7-5.14,14.79-8.75,3.63-1.68,6.06-1.78,10.38-2.5,6.2-1,23.42-7.66,34.75-12.5C185.18,351.5,176,351.27,169.83,349.27Z" transform="translate(2.72 -0.48)"/><path class="cls-6" d="M139.7,417.53c7.34-4.3,28-20.55,30.62-24.28,5.13-7.28,6.58-12.15,10.9-15,27.23-18,29.77-13.44,32.43-11.5-3,3.93-29,22.56-33,26.75-7.85,8.3-32.63,26.77-39.7,31.75C140.39,422.83,140.31,419.94,139.7,417.53Z" transform="translate(2.72 -0.48)"/><path class="cls-7" d="M591.87,435a31.44,31.44,0,0,1,10.71-4.75c3.75-.87,7.47-1.73,9.4.25a4.66,4.66,0,0,1,1.07,2.38A7.84,7.84,0,0,1,612,438.5Z" transform="translate(2.72 -0.48)"/><path class="cls-8" d="M590.61,422.75c-3.08,1.79-7.72,4.34-13.57,7A191.28,191.28,0,0,1,558,437a85.29,85.29,0,0,0-30.65,18.83c1.48.84-3.47,6-2,6.8,2.55-1.08,15-7.39,19.58-9.63,5.91-2.89,8.67-4.56,14.62-7.75,9.24-4.95,10.28-5,18.28-9.25,4.53-2.38,11-5.95,18.8-10.75Z" transform="translate(2.72 -0.48)"/><path class="cls-9" d="M567.85,415c-8.07,2.81-12.4,6.77-14.88,10-4.82,6.28-4.28,11.88-9.92,14.75-4.07,2.07-9.56,1.79-10.45,0-.74-1.49,1.73-4,3.92-6.25,3.53-3.61,6.18-4.75,9.92-7.5a53.13,53.13,0,0,0,8.36-7.75c7.4-8.17,8.74-14.83,10.7-14.5C566.51,403.92,567.66,405.93,567.85,415Z" transform="translate(2.72 -0.48)"/><path class="cls-10" d="M579.08,441.25A32.2,32.2,0,0,1,592.4,439c5.09.26,8.5,1.75,9.66.25s-.46-4.49-2.35-6.25c-3.32-3.09-8.86-3.13-12.8-1.5C580.63,434.1,579.21,440.61,579.08,441.25Z" transform="translate(2.72 -0.48)"/><path class="cls-11" d="M595.27,478.5c-4-3.88-10.16-9.54-18-16C560,448.35,555.82,447.92,553,448.75c-6.69,1.95-10,12-10.44,13.5-1.59,4.88-.18,5.68-1.83,10-2.68,7-8.73,11-11.75,13-9,5.83-16.06,5.2-16.19,7.5-.15,2.59,8.64,6.16,17.49,6.75,17,1.13,30.58-9,31.86-10,6.94-5.34,7.31-8.81,13.58-11.25C582.82,475.47,590.2,476.89,595.27,478.5Z" transform="translate(2.72 -0.48)"/><path class="cls-12" d="M493.7,375.75l8.62,8.5c7.33,7.22,10.63,10.44,9.66,12.5a3.36,3.36,0,0,1-2.35,1.5,68.36,68.36,0,0,0-12-13.5,69.52,69.52,0,0,0-8.88-6.5Z" transform="translate(2.72 -0.48)"/><path class="cls-13" d="M516.94,447a21.77,21.77,0,0,1,1.3,9c-.26,3.6-1.36,5.53-4.44,12.5-4.61,10.45-3.82,9.92-5.74,13.25a55,55,0,0,1-8.88,11.5L507,500a94.74,94.74,0,0,0,11.75-13.75c3.18-4.56,6.51-9.39,8.87-16.5a36.79,36.79,0,0,0,2.35-11.5,33.82,33.82,0,0,0-5-18Z" transform="translate(2.72 -0.48)"/><path class="cls-14" d="M530.25,529.5a59.82,59.82,0,0,1-8.61,17.75c-4.57,6.43-9.22,10.27-14.62,14.75-6.94,5.74-11.75,9.72-19.33,12.75-7.26,2.9-15,6-22.71,3.5-6.41-2.1-5.66-1.9-20.63-21.75-7.83-10.39-9.68-14.71-11.49-18.75-4.24-9.5-3.92-18.4-3.65-26,.19-5.45.45-11.3,3.13-18.5a43.8,43.8,0,0,1,7.57-13.5c8.68-10.06,23.21-14.43,35.51-13.75,12.89.71,21.59,6.84,34.21,15.75,7.41,5.23,12,8.5,15.92,14.5C534,509.29,531.55,523.84,530.25,529.5Z" transform="translate(2.72 -0.48)"/><path class="cls-15" d="M330.25,472.25c14.5,8.82,24.76,10.36,31.59,10,3.26-.17,10.46-1,18.28,1.25,4.49,1.3,9.4,3.25,9.4,3.25,4.58,1.82,4.62,2.19,7.05,3,1.84.61,7.68,2.55,13.84,1.25,4.88-1,4.92-3,11.75-6,7.18-3.12,7.77-1.18,12-3.5,6.25-3.43,4.84-7.59,14.1-20,3.86-5.18,5.7-6.59,5.22-9-.84-4.24-7.77-6.28-13.84-8-11.67-3.31-14.84-1.11-26.37-3.75-9.22-2.11-8.24-3.75-18.54-6.25-7.4-1.8-14.67-3.56-23.5-2.25a46.88,46.88,0,0,0-22.45,10.25A53,53,0,0,0,330.25,472.25Z" transform="translate(2.72 -0.48)"/><path class="cls-16" d="M362.75,447.25c-.81-.67-6.62-5.31-12.75-3.5-3.83,1.13-6,4.27-9,8.5-2.06,2.94-3.09,4.4-3.25,6.5-.47,6.09,6.88,10.72,7.75,11.25a55.12,55.12,0,0,1,17.25-22.75Z" transform="translate(2.72 -0.48)"/><path class="cls-17" d="M341.75,378.75A24.25,24.25,0,0,0,333.5,385c-1.89,2.23-4.75,5.61-3.75,8.75a6.14,6.14,0,0,0,3,3.25c5.51,3.19,12.89.21,18.75-2.25,8.14-3.42,12.21-5.12,12.75-8.75.72-4.8-5-10.82-11.5-11.5C346.74,373.87,342.42,378.08,341.75,378.75Z" transform="translate(2.72 -0.48)"/><path class="cls-18" d="M254.25,374.5A65.53,65.53,0,0,1,243,363.25c-2.6-3.34-3.38-5-5.5-5.5-4.63-1-11.46,4.81-12,11.25-.07.87-.36,4.23,1.75,6.5,1,1.08,2,1.36,10,3,3.72.77,5.67,1.15,7.75,2.75.76.58,2.85,2.18,2.5,3.75a3.26,3.26,0,0,1-2.5,2c-2.76.67-4-2-7.75-2.75-2.62-.51-6.4-.06-8,2.25s-.45,5.47,0,6.75c2.89,8.2,13.39,12.85,15.75,10.75,1.29-1.15-.34-3.92,1.5-7.75l1.5-3h0c2,1.07,2.25,1.2,2.5,1.5.72.86.44,2,0,4.5-.67,3.84-1,5.78-.75,7.25.13.74.65,3.81,2.5,4.5,3,1.13,7.59-4.88,8.25-5.75a21.13,21.13,0,0,0,4.75-12.75C265.28,381.14,254.74,374.78,254.25,374.5Z" transform="translate(2.72 -0.48)"/><path class="cls-19" d="M233.25,354.25a9.63,9.63,0,0,1-7,.75c-3.87-1.32-5.44-5.69-7.25-11-2.52-7.37-1.59-9.73-4.5-19.5-1.4-4.7-2.4-6.78-4-8.75-3.09-3.81-6.14-3-8.5-6-3.42-4.34-2.95-12.66.5-14.75s8.79,2.94,19,8.5c12.08,6.57,14.82,4,26,10,5,2.66,18.35,9.78,17.25,15.25-.8,4-8.47,3.29-17.5,9.25A41.63,41.63,0,0,0,233.25,354.25Z" transform="translate(2.72 -0.48)"/><path class="cls-20" d="M263.25,281a63.79,63.79,0,0,0-7-12.75c-.7-1-8.82-12.34-11.5-11-1.48.74-.65,5,.75,12,2.35,11.7,3.7,18.4,7.5,19.25C257.14,289.42,261.92,282.86,263.25,281Z" transform="translate(2.72 -0.48)"/><path class="cls-21" d="M249,254.22c-.26.32-2.37,2.93-5.5,2.75a6.51,6.51,0,0,1-4.5-2.5c-3.18-4.11.07-11.41,2-15.75,2.3-5.19,5-11.3,11.75-14.75a18,18,0,0,1,12-2,13.79,13.79,0,0,1,7.25,3.75c2.46,2.51,3.12,5.36,3.75,8.25.79,3.63,1.83,8.38-.25,13.75a22.23,22.23,0,0,1-14.25,12c-2.13.62-3.22.48-4,0-2.21-1.36-1.23-5-3.25-6.25C253.2,253,251.75,252.8,249,254.22Z" transform="translate(2.72 -0.48)"/><path class="cls-22" d="M223.2,260.72c-3-7.84-4.55-11.77-5.5-12.5-3.6-2.76-9.9-3.46-12.5-.5-1.83,2.08-1.25,5.33-1,6.75.62,3.5,2.63,5.66,5.5,8.75,3.16,3.4,4.74,5.1,7.25,5.25,2.79.17,6-1.54,6.75-4A5.57,5.57,0,0,0,223.2,260.72Z" transform="translate(2.72 -0.48)"/><path class="cls-23" d="M249.35,212.18a8.94,8.94,0,0,0,4.75,3.25c2.18.58,6,.66,8-2a5.23,5.23,0,0,0,1-4c-.72-3.34-5.43-4.57-8-4.75-2.39-.16-6.7.33-7.5,2.75C247,209.18,248.55,211.15,249.35,212.18Z" transform="translate(2.72 -0.48)"/><path class="cls-24" d="M233.75,240.43a9.68,9.68,0,0,0-3.25-10.25,9.14,9.14,0,0,0-7-1.5,9,9,0,0,0-7,7.25c-.3,2.31.64,4.11,1.75,6.25,1.23,2.36,2.47,4.74,4.75,5.5C226.76,248.92,232.35,245.41,233.75,240.43Z" transform="translate(2.72 -0.48)"/><path class="cls-25" d="M245.58,202.5a25.75,25.75,0,0,1,4-11.5c2.07-3.11,4.2-4.64,4.25-7.75,0-.36,0-3.91-2.75-5.75a6.45,6.45,0,0,0-6-.5c-2.2,1-2.38,2.79-3.75,2.75s-1.6-2.15-4-4c-1.7-1.31-4.74-2.64-6.75-1.5-1.59.9-2,3-2.25,4.75-.77,4.56,1.13,7.05,0,8-1.37,1.17-4.33-2.43-8.5-1.75-3,.49-6,3-5.75,5,.29,2.43,5.34,1.92,11.5,6.75,2.18,1.71,4.14,3.24,5.5,6,2.26,4.58.56,7.84,3,9.75,1.92,1.51,4.87,1,6.5.25C244,211.49,246.15,207.25,245.58,202.5Z" transform="translate(2.72 -0.48)"/><path class="cls-26" d="M207.33,229.5c-4,1.65-5.13,1.39-6.5,3-2.61,3.08-1.53,7.8-1.25,9,.53,2.32,2.28,7.14,5,7.25,2.2.09,4-2.95,5.25-5,2.55-4.24,1.44-6,3.25-7.25,2.89-2.05,6.32,1.88,12,0a6.35,6.35,0,0,0,3.25-10.75c-3.29-3.72-10.09-1.82-11.25-1.5C213.06,225.38,213.35,227,207.33,229.5Z" transform="translate(2.72 -0.48)"/><path class="cls-27" d="M189.83,178.75a25.39,25.39,0,0,1,10.25,5.75,20.8,20.8,0,0,1,6,8.75,19.94,19.94,0,0,1,.75,9.75,19.83,19.83,0,0,1,4.25,3.75,22.15,22.15,0,0,1,4.25,8.75c1,3.75,2.74,10.32,0,12.25-2.28,1.61-6.71-.69-9-2.5-5.39-4.25-6-11.34-6.25-14.25a27.39,27.39,0,0,1,.75-9,24.58,24.58,0,0,1-8.75-5.5c-2.5-2.46-6.08-6-5.75-10.75A11.21,11.21,0,0,1,189.83,178.75Z" transform="translate(2.72 -0.48)"/><path class="cls-28" d="M220.33,187.5a21.2,21.2,0,0,1,4.75-5.5c4.17-3.38,7.49-3.31,7.75-5.25.3-2.2-3.57-5.44-7-5.25-2.8.16-4.57,2.56-5.25,2s1.81-3.3,1.25-6.75c-.4-2.51-2.41-5.09-4.5-5.25s-3.27,2-4,1.5c-1-.63,1.67-4.18.5-7.5-1.07-3-5.07-5.19-7.25-4.25s-1.94,4.45-3.25,4.5-1.38-3.1-4-4.5c-1.49-.8-3.92-1.1-5,0-1.86,1.9,2,6.18,0,9.5-1.24,2.06-3.21,1.21-5,3.5-2.13,2.72-1.43,6.59-1,9,.31,1.74,1.09,6.06,4.5,9.25,1.16,1.08,3.58,2.94,16.25,4.25C213.76,187.24,217.65,187.42,220.33,187.5Z" transform="translate(2.72 -0.48)"/><path class="cls-29" d="M212.69,213a23.14,23.14,0,0,0-11.93-4.75c-2.22-.18-4.71-.35-6.75,1.25-.14.12-3.18,2.57-2.33,5.75a4.88,4.88,0,0,0,3.37,3.5c2.07.48,3.11-1.2,5.45-1.5,1.1-.14,3,0,8,4,7,5.61,7.25,8.64,11.16,9.5,2.85.63,6.68-.11,7.52-2C228.16,226.67,225.84,222.41,212.69,213Z" transform="translate(2.72 -0.48)"/><path class="cls-30" d="M226.83,227.75a32.92,32.92,0,0,0,5.25-5.25c1.53-1.93,5.12-6.44,5.75-11.25,1.29-9.82-9.7-21.35-15.5-19.75-2.25.63-1.44,3.42-5.25,8.75-4.43,6.21-8.37,6.61-8.25,9.5.14,3.19,5,3.89,11.25,9.75A40.34,40.34,0,0,1,226.83,227.75Z" transform="translate(2.72 -0.48)"/><path class="cls-31" d="M217.54,255.25c-14.86-.46-21.15-4.79-24.13-8.75-2.85-3.79-3.85-8.78-7.78-9.5-3.09-.56-4,2.22-8.83,3.25-6.12,1.3-8.13-2.42-15.3-2-4,.23-10.95,1.84-11.94,5.75-.93,3.68,3.71,8.13,7.78,10,6.91,3.17,15.64.45,17.91-.25,2.72-.85,3.82-1.59,6.48-1.75,3.71-.22,5.86,1,10.12,2.5,9.53,3.4,9.91,1.38,15.57,4.25,5,2.53,5.19,4.34,9.86,5.75,3.72,1.12,8.87,1.56,9.6,0C227.28,263.65,226.69,261.51,217.54,255.25Z" transform="translate(2.72 -0.48)"/><path class="cls-32" d="M188.22,354.75C220,371,215.59,373.45,216,364.87c.25-5.29-50.23-31.93-52.95-35.62-12.32-16.71-33.35-26.14-35.54-23.75-1.21,1.32-1.75,4.35.51,7.25,4.77,6.1,14,11.46,22.06,17.25,18.48,13.32,19.26,14.89,18.94,15.5-.59,1.12-5.37,0-8.3-1-4.95-1.76-5.62-3.77-10.12-6-6-3-13.67-3.78-14.79-1.75-.59,1.07.7,2.77,1.82,4.25a18.07,18.07,0,0,0,7.78,5.75c7.51,2.91,14.58,2,21,2.25A55.06,55.06,0,0,1,188.22,354.75Z" transform="translate(2.72 -0.48)"/><path class="cls-33" d="M354.86,512.83c.83-1.66-.79-7.2-2.09-8.88-1.19-1.51,0,0-1.27-1.2-2.12-2,.09-6.1.25-10.75.14-4.26-1.82-7.67-5.75-14.5-5.72-9.94-8.93-10-9.5-15.25-.68-6.22,3.62-8.43,1.75-12.75-2.06-4.76-9-6-12-6.5-.9-.16-9.29-1.56-10.75,1.5-.74,1.55.89,3,2.5,6.75,2.4,5.59,1.24,8.06,2.5,13.5.72,3.1,1.26,3,7.25,13.75,4.71,8.44,7.06,12.66,10,18.5a89.47,89.47,0,0,0,5.5,9.5c4.81,7.24,6.73,7.84,8,7.75C353.78,514.07,354.72,513.1,354.86,512.83Z" transform="translate(2.72 -0.48)"/><path class="cls-34" d="M594.57,437c.24.72.58,1.68,1.06,2.8a35.55,35.55,0,0,0,5.21,8.53c3.17,3.87,8.15,10,11.14,9,4.51-1.43,7.23-19.77-1.74-24C605.9,431.29,599.67,433,594.57,437Z" transform="translate(2.72 -0.48)"/><path class="cls-35" d="M561.06,475.75a13.38,13.38,0,0,0,6.27,5.25c2.65,1,4.07.41,11,.25,7.29-.17,9.59.4,9.92-.5.53-1.45-5-4.47-9.14-6.75-4.41-2.42-6.67-3.63-9.14-3.5C565.26,470.74,562.08,474.46,561.06,475.75Z" transform="translate(2.72 -0.48)"/><path class="cls-36" d="M434.65,491.76a1.84,1.84,0,0,1,.36,1.64c-.82,3.11-3.49,7.46-2.51,12.6,2.57,13.5,1.4,32.6.43,32.75S428.38,527,428,517.5a63.75,63.75,0,0,1,1.75-16.75,67.54,67.54,0,0,1,3.5-10.75C433.72,490.59,434.19,491.17,434.65,491.76Z" transform="translate(2.72 -0.48)"/><path class="cls-15" d="M490.61,573.5a69.88,69.88,0,0,1-11.27,5,28.39,28.39,0,0,1-9.11,1.68c-1.74.08-5.12-.74-8.34-2.17a16.67,16.67,0,0,1-5.74-4.5c-1.47-1.57-2.4-2.59-2.09-3.5.44-1.3,2.82-.57,5-2.25.67-.53,1-1.07,3.13-6.5,1.58-4.09,1.58-4.3,2.09-4.75,1.2-1,2.58-1,9.4-.75,7.31.31,7.8.4,9.14,0,2.77-.83,3.6-2.08,6-2a9.09,9.09,0,0,1,5,2c2.29,1.55,5.75,5.13,9.4,9.62C499,568.37,495.21,571.32,490.61,573.5Z" transform="translate(2.72 -0.48)"/><path class="cls-37" d="M489.26,507.25a138.71,138.71,0,0,1-4.7,15.75c-2.64,7.28-4.52,10.55-6.79,16.25a111.07,111.07,0,0,0-6.26,22.5,68.29,68.29,0,0,1,1.56-22,74.13,74.13,0,0,1,5.22-14.5A93.6,93.6,0,0,1,489.26,507.25Z" transform="translate(2.72 -0.48)"/><path class="cls-38" d="M530,532.17c-1.7,2.32-4.55,2.57-5.74,1.5-.86-.78-1-2.36-.35-3.84a53.56,53.56,0,0,1-7.48-2.66c-4.62-2-7.42-4-11.84-7-3-2-7.45-4.91-13.06-8.34L488.91,515l8.71,4.83c7.55,4.18,9.42,5.2,10.79,7.67.82,1.49.26,1.34,1.91,6.5a74.68,74.68,0,0,0,2.79,7.5,56.79,56.79,0,0,0,5.39,9.5,36.43,36.43,0,0,0,5-5.33A36,36,0,0,0,530,532.17Z" transform="translate(2.72 -0.48)"/><path class="cls-39" d="M522.16,529.25c-5.62-3.26-10.22-5.81-13.32-7.5-11.11-6.06-13.31-6.78-17.32-9.92a45.46,45.46,0,0,0-5.91-4.08,57.66,57.66,0,0,0-6.79-3.25c-6-2.54-8.69-3-8.62-3.75s3.38-.8,8.09-2a41.82,41.82,0,0,0,9.14-3.5,41.75,41.75,0,0,0,9.66,9.25,55.65,55.65,0,0,0,14.36,6.75c5.78,1.8,7.28,1.3,9.14,3C524.08,517.44,523.59,523.59,522.16,529.25Z" transform="translate(2.72 -0.48)"/><path class="cls-40" d="M354.5,509.5c1.66,4.11,4.41,8.28,6.25,12.5,3.75,8.59,6.6,16.75,10.5,24.5l-5.5,5.25-16-39.25Z" transform="translate(2.72 -0.48)"/><path class="cls-41" d="M202.18,425.6a35.15,35.15,0,0,0-7.78,7.17c-1.84,2.3-2.24,3.44-6.92,12-2.54,4.64-3.84,7-5,8.83a85.46,85.46,0,0,1-7.44,9.67c-10,11.58-12.21,11.14-17.3,18.66-3,4.4-3,5.69-6.05,9.17a40.78,40.78,0,0,1-10.9,8.67l-3.28-3.5a46.86,46.86,0,0,0,9-7.4c3.72-4,4.18-5.91,8.33-11.6,4.4-6,4.9-5.25,11.07-13,3.74-4.69,6.38-8.53,9.35-12.84,3.86-5.61,7.34-11,8-12,5.42-8.47,6.62-11,10.21-14.16a34.16,34.16,0,0,1,8.13-5.34Z" transform="translate(2.72 -0.48)"/><path class="cls-42" d="M440.75,331.5a34.39,34.39,0,0,0-9.5-7c-5.16-2.55-7.15-1.86-11.25-3.75-4.56-2.1-4.62-4.13-13.5-14.25-8-9.11-8.18-7.72-13-14-4.56-5.93-5-8-8.5-10-5.71-3.33-12.12-2.29-14.5-1.75-5.47,1.25-8.79,4.3-15,10a51.13,51.13,0,0,0-8.75,9.75c-2.56,3.81-5.47,8.15-6.25,14.5-.29,2.38-1.08,8.81,2.5,14.5,2.78,4.42,6.87,6.29,12,8.5,14.37,6.18,21.4,9.6,28,11a92.59,92.59,0,0,0,30.5,1.25c1.48-.17,5.57-.94,13.75-2.5,13.44-2.56,16.24-3.41,17.25-5.75C444.93,341,445.85,337.85,440.75,331.5Z" transform="translate(2.72 -0.48)"/><path class="cls-43" d="M356,448.75a77.45,77.45,0,0,1,16.5-8.5c6-2.24,12-4.45,19.75-4.5,11.11-.07,18,4.35,20.25,1.25,1.52-2.08.13-6.36,0-6.75-1-3-2.61-3.17-2.75-5.25-.19-2.81,2.63-3.77,4-7.5a13.23,13.23,0,0,0,0-8c-2-8-9.76-11.77-11.25-12.5-7.07-3.45-13.83-2.15-19.75-1a49.5,49.5,0,0,0-26.25,13.75s-10.58,10.76-12,24.5c-.14,1.39-.56,5.86,1.5,7,.81.45,1.54.12,5.5-.5,4.4-.69,4.92-.5,5.25-.25C358.34,441.74,357,446,356,448.75Z" transform="translate(2.72 -0.48)"/><path class="cls-44" d="M202.5,515.5a39.61,39.61,0,0,1,6.5-10c2.64-2.95,8.64-9.68,13-8a5.79,5.79,0,0,1,3.25,4.75c.42,4.33-4.64,7.68-7,9.25A26.21,26.21,0,0,1,202.5,515.5Z" transform="translate(2.72 -0.48)"/><path class="cls-45" d="M103.38,357.5a43.14,43.14,0,0,1-17.91-10.25c-3.67-3.61-4.06-5.48-11.15-15.75-6.42-9.29-9.63-13.94-13-16.75S49.39,304.7,38,305.5c-9.74.68-16.26,6.79-21.28,11.5-5.48,5.15-7.06,9.2-7.52,10.5a22.16,22.16,0,0,0-1,10.75c.71,4.32,2.82,7.35,7,13.25s6.22,8.75,9.6,11.5c5.52,4.49,11.07,6.06,16.34,7.5A67.91,67.91,0,0,0,74.32,372,64.84,64.84,0,0,0,103.38,357.5Z" transform="translate(2.72 -0.48)"/><path class="cls-46" d="M224.81,436.75c-4.49,1-11.34,2.47-19.72,4.5-7.52,1.82-8.17,2.09-15.05,3.75-15.2,3.66-16.48,3.39-23.87,5.5-6.29,1.8-5.37,2-20,7.25-14,5-21,7.54-26.47,8.75-13.47,2.95-15.35.73-24.39,4.5-10.7,4.46-15,10.49-16.08,12a21.86,21.86,0,0,0,.51,27.25c6,7.85,15.1,9.53,18.95,10.25a33.27,33.27,0,0,0,15.56-.5c8.25-2.37,13-7.55,19.2-14.25,5.34-5.79,11.38-10.91,14.79-16.25,5-7.75,3.42-11.13,8.05-16.75,5.45-6.64,8.46-9,10.12-10,2.09-1.31,4.4-2.42,12.19-4.75,7.53-2.26,11.08-2.93,17.13-4.5,6.38-1.65,6.56-2,22.31-6.75,4.23-1.29,10.28-3.1,17.64-5.25l-2.07-7.25Z" transform="translate(2.72 -0.48)"/><path class="cls-47" d="M421.75,326.25a28.23,28.23,0,0,0-2-14.25c-2.84-6.48-6.82-8-19.75-19.25-11.06-9.61-10.22-10.29-15-13-7.87-4.47-15.23-5.51-22.75-6.5-10.68-1.41-10.32.38-23.5-.5-16.24-1.08-21.71-4.13-29.75-.25-4.33,2.09-8.63,5.82-8,8.25.71,2.72,6.9,1.17,12,5.75,3.92,3.52,4.83,8.56,5.5,12.25,1.46,8.08-1.58,9.09-.5,16.5,1.22,8.33,5.31,8.67,6.25,17.25.73,6.63-1.63,7.13-.5,12.75,1.17,5.79,4.57,9.67,9.25,15,5.82,6.63,7,5.46,11,11,1.6,2.21,3.57,5.89,7.5,13.25,4.08,7.65,3.85,7.64,4.75,8.75,1.32,1.64,4.7,5.25,18.25,8.5,12.71,3.05,19.06,4.58,26,2.25,5.7-1.91,9.49-5.35,16.25-11.5,4-3.62,3.59-3.94,10.75-11.25,9.76-10,10.88-9.78,12.5-13.25a24.3,24.3,0,0,0,0-20c-2.12-4.37-4.35-4.79-12.5-14.5C425,330.49,423,327.94,421.75,326.25Z" transform="translate(2.72 -0.48)"/><path class="cls-48" d="M223.16,480.5l-18.16,5c-11.21,3.09-14.55,4-19.2,5.83a111.46,111.46,0,0,0-13.84,6.5l2.6,3.84a81.84,81.84,0,0,1,23.35-8.5,115.22,115.22,0,0,0,11.93-2.5,78.84,78.84,0,0,0,15-6Z" transform="translate(2.72 -0.48)"/><path class="cls-49" d="M239.25,466c-5.16.37-9.33.47-12.11.5-6.63.07-7.57-.27-12.63,0s-5.54.7-11.41,1c-2.07.11-2.56.08-9.86.17-10.37.12-10.13.17-13.5.16-4.72,0-8-.13-13.49-.33-5.14-.19-11.83-.49-19.72-1l-.69,6a76.24,76.24,0,0,0,16.26,2.33c6.53.22,7.53-.62,18.51-.83,6.56-.13,6.95.15,14.88,0,3.09-.06,6.5-.21,13.31-.5,7.93-.34,11.9-.51,17-.83s9.48-.68,13.14-1Z" transform="translate(2.72 -0.48)"/><path class="cls-50" d="M238.56,458.67l-11.42,4c-2.72,2-6.46,4.95-10.72,8.66a102.92,102.92,0,0,0-8.83,8.34,83.79,83.79,0,0,0-8.64,11.5c-6.31,9.51-7.6,12.54-12.29,19.83-5.3,8.27-6.39,8.67-11.59,16.33a197.85,197.85,0,0,0-14,24.34l3.64,2a121.14,121.14,0,0,1,7.78-14.84C176,533,177.59,531.6,183,524c8.9-12.42,8.22-13.38,15.4-22.83a162.8,162.8,0,0,1,12.62-14.84A141.09,141.09,0,0,1,224.72,474a137.94,137.94,0,0,1,17.12-11.5Z" transform="translate(2.72 -0.48)"/><path class="cls-51" d="M240.17,447.16c-2.34,1-27.38,15.09-31,17.17-2.14,1.23-4.57,2.73-8.82,5.67-9.39,6.5-9.46,7.46-14.36,10.5-7.22,4.48-7.4,2.59-14,6.67-9.52,5.86-13.24,12.3-16.43,11-.79-.33-1.76-1.21-2.25-3.84a91.91,91.91,0,0,1,11.59-10,106.37,106.37,0,0,1,12.11-7.5c7.54-4.1,8.2-3.52,13.14-6.66,6.61-4.21,5.29-5.17,10.55-7.84,5.64-2.85,8.15-2.25,11.77-5.66a16.79,16.79,0,0,1,3.28-2C238,441,239.77,445,240.17,447.16Z" transform="translate(2.72 -0.48)"/><path class="cls-52" d="M391.75,599.75c.34,1.85,4.47,2,18.5,3.75,6.65.84,15.66,2.08,21.13-.25a47.24,47.24,0,0,0,4.62-2.37,21.5,21.5,0,0,0,4.75-3.38c1.94-2.08,2-4.27,2.75-8.37a67.4,67.4,0,0,1,3.63-13.25c2.15-5.26,3.3-4.91,5.12-10a42,42,0,0,0,2.13-10.63c.6-5.83.87-8.79-1-11a9.17,9.17,0,0,0-4.63-2.62c-1.6-.49-3.18-.61-7.25-.13-3.64.42-5.15,1.19-9.71,1.61-.9.09-1.51.12-1.91.14-3.22.14-5.43-.34-6.25-.25a20.81,20.81,0,0,0-11.75,5.63c-2,1.83-4.23,3.82-5.13,7.12-.5,1.85-.22,2.73-.12,7.38a75.63,75.63,0,0,1-.13,8.25c-.46,4.78-2,8.23-4,12.75a38.54,38.54,0,0,1-4.87,8.87C394.08,597.56,391.48,598.24,391.75,599.75Z" transform="translate(2.72 -0.48)"/><path class="cls-53" d="M281.25,442.75A124.12,124.12,0,0,0,275,472c-1.07,12.11-1.1,23.78,3.94,33.75,1.65,3.27,4.06,7,10.81,11,8.5,5.08,21.15,6.14,27,.5,2-2,1.6-3.15,5.5-7.5,3.51-3.91,4.9-4.11,7.25-7.5a21.45,21.45,0,0,0,3.74-8.37c.58-3.05-.09-3.72.51-8.13.65-4.77,2.08-4.8,1.25-6.5-4.62-9.5-5.74-3.74-7.75-10.37-1.25-4.13-4-4.38-6.5-7.63-1.94-2.53-5.18-5.72-21-12C295.06,447.39,288.8,445.07,281.25,442.75Z" transform="translate(2.72 -0.48)"/><path class="cls-54" d="M278.5,441.25a11.28,11.28,0,0,0-6.75-3.25c-2.55-.22-4.64.74-8.83,2.65-1.09.49-1.57.76-6.49,3.41l-2.25,1.21-.18.09h0l-3.5,1.89c-4.89,2.63-15.31,5.33-22.5,10a54.37,54.37,0,0,0-14,13.63c-4.47,6.25-5.86,9.32-5.5,14.12.29,3.88,5.74,12.77,8.38,15.5,3.72,3.86.47,7.5,7.62,11s-4.75,7.13,25.63,7.13c6.68,0,12.62-8.17,15.87-13.38a58.57,58.57,0,0,0,8.23-25c1.22-11.18,1.39-14.5,3.36-24.66C278.87,449.05,279.38,444.63,278.5,441.25Z" transform="translate(2.72 -0.48)"/><path class="cls-55" d="M392.38,597a13.88,13.88,0,0,1-3.5.63c-2.29.09-2.87-.48-4.25-.13-2.15.54-2.17,2.27-4,3-1.58.63-3.09,0-6.88-1.87-5.84-2.82-8.76-4.23-9.41-4.68a37.66,37.66,0,0,1-8.21-8.2,43.6,43.6,0,0,1-6.13-9.62,46.17,46.17,0,0,1-2.87-9c-1.28-5-1-5.91-.5-6.25,1-.75,2.72.93,7.37,1.37a5.31,5.31,0,0,0,2.75-.25c.35-.15,1.37-.63,2.88-3a17.49,17.49,0,0,0,2-4.12c1.19-3.67.22-4.69,1.5-6.13s2.71-1,3.4-2.54c.45-1,0-1.44.47-2.83a6.41,6.41,0,0,1,1.75-2.5,10.63,10.63,0,0,1,3.88-2.25,16.43,16.43,0,0,1,4.62-1.25c2.78-.32,2.77.45,5.63.12,1.91-.22,2.69-.66,4.37-.37a8.12,8.12,0,0,1,2.5.87c2.12,1.15,2.56,2.59,5,5.75,1.89,2.44,1.9,1.93,3.5,4.13a35.88,35.88,0,0,1,3.25,5.37,35.32,35.32,0,0,1,2.13,5.38,33.13,33.13,0,0,1,1.25,7.5,36.56,36.56,0,0,1-3.25,18,33.88,33.88,0,0,1-3.75,7.12A28.72,28.72,0,0,1,392.38,597Z" transform="translate(2.72 -0.48)"/><path class="cls-56" d="M382,601.25a13.24,13.24,0,0,1,3.13,7.13c.17,1.9-.25,2.88-.75,9,0,.39-.12,1.42-.26,2.81-.17,1.63-.33,2.92-.37,3.19-.15,1.11-.58,3-3.12,7.87a85,85,0,0,1-4.5,7.75c-1.5,2.27-2.62,3.72-4.75,6.5a22,22,0,0,1-3,3.5c-2.05,1.75-3.54,2-5.88,3.13-.83.39-1.29.68-7.25,5.25-6.38,4.88-6.3,4.91-7.87,6a44.1,44.1,0,0,1-8.38,4.75c-4.56,1.89-6.3,1.57-7.25,1.25a9.56,9.56,0,0,1-3.62-2.5c-1.68-1.75-1.4-2.63-2.88-3.75-1.85-1.4-2.95-.54-4-1.75-.77-.9-.41-1.63-.62-6.13-.14-2.74-.28-2.6-.25-4.12,0-2.63.07-4.11.87-5.75.51-1,.86-1.19,2.5-4,.79-1.35,1-1.87.88-2s-1.14.54-3.38,2c-2.61,1.69-3.12,1.8-3.62,1.75-1.36-.15-2.26-1.42-2.75-2.13a7.44,7.44,0,0,1-1.25-3.5c-.28-1.87.11-2.35.12-4.62,0-2.79-.58-2.89-.5-4.88.07-1.7.67-3.07,1.88-5.75,1.51-3.37,2.26-5,3.5-6.5a27.57,27.57,0,0,1,6.25-5.12,15.36,15.36,0,0,0,2.5-1.75,30.87,30.87,0,0,0,2.87-3.5,15.45,15.45,0,0,1,3.13-3.13,11.88,11.88,0,0,1,4.37-1.75,29.9,29.9,0,0,1,7.75-.75c3.91.07,5,.36,11.25.88,7.92.65,6.63.22,8.88.62s4.55,1,7.62.5c1-.16,1.33-.32,2.5-.5A20.72,20.72,0,0,1,382,601.25Z" transform="translate(2.72 -0.48)"/><path class="cls-57" d="M385.5,626.25a28.16,28.16,0,0,0,1.25,7,33.08,33.08,0,0,0,4.38,8.63,49.84,49.84,0,0,0,5.75,7.25c2,2.1,2.29,2,3.75,3.75,2.82,3.34,2.34,4.32,4.5,6.37.92.88,3.54,3.37,7,3.13a8.43,8.43,0,0,0,4.5-1.88c1.4-1.12,1.41-1.87,3.25-4a46.64,46.64,0,0,1,3.37-3.25,35.72,35.72,0,0,0,4.88-5.37,22.42,22.42,0,0,0,3.12-6.5c.64-2.26,1.11-3.91.63-5.88-.54-2.18-1.7-2.54-3.38-5.25-1.13-1.82-1.67-3.59-2.75-7.12a80.15,80.15,0,0,1-2.12-9.13c-.43-2.15-1-5.09-1.5-8.62-3.86-.39-7-.68-9.13-.88-3-.27-6-.6-9-.87a48.33,48.33,0,0,1-7.75-1.13,20.51,20.51,0,0,1-4.12-1.37A19,19,0,0,1,388,598.5a4,4,0,0,0-3.37.5,3.85,3.85,0,0,0-1.5,2.13c.39.74.93,1.81,1.5,3.12a22.65,22.65,0,0,1,1.37,3.63c.53,2.2-.21,2.79-.5,6.75-.08,1,0,1,0,5.87C385.51,623,385.51,625,385.5,626.25Z" transform="translate(2.72 -0.48)"/><path class="cls-58" d="M419.81,241a119,119,0,0,0,24-1c6.14-.89,10-1.47,14.88-3.5,3.65-1.51,7.88-4.53,16.19-10.5,9.77-7,10.85-8.35,11.75-9.75,2.47-3.84,3.3-7.8,4.44-13.25,1-4.7,1.47-7.05.78-8.5-2.32-4.86-9.63-3.08-14.36-9.25-2.19-2.86-1.25-4.08-3.39-5.75-3.51-2.74-8.79-1.62-14.89-.25-6.41,1.44-11.76,2.64-17,6.75-3.54,2.8-3.16,3.89-10.7,14.75-6,8.57-7.11,9.21-10.71,15.25-6.21,10.44-6.14,14.24-5.74,16.5A16.23,16.23,0,0,0,419.81,241Z" transform="translate(2.72 -0.48)"/><path class="cls-59" d="M415.75,240.25a32.47,32.47,0,0,0-3.5-11.5,35.36,35.36,0,0,0-10.75-12c-2.63-2-7.25-4.41-16.5-9.25-4.71-2.47-6.6-3.36-8.5-5.75-3-3.75-3.45-8-3.75-11-.86-8.87,2.54-15.78,4.25-19.25a46.74,46.74,0,0,1,8.25-11.5c4.74-5.22,7.67-6.62,9.25-7.25,2.35-.93,4.8-1.9,7.25-1,3.7,1.36,5,6.09,6.5,11.25,1.67,5.91.61,6.65,2.25,12a45.3,45.3,0,0,0,5.25,11c3.72,6,5,5.62,7.75,10.75,1.66,3.09,3.68,6.92,3.75,12,0,3-.59,5.1-1.75,9-2.33,7.86-4.35,8.49-4,12.25.37,3.92,2.68,4.5,2.5,8.5-.12,2.7-1.36,6.53-3.5,6.75C418.82,245.42,416.81,243.34,415.75,240.25Z" transform="translate(2.72 -0.48)"/><path class="cls-60" d="M162.75,452.75c-2.7-5.2,4,.55-3.51-7a109.75,109.75,0,0,0-12.46-10.5c-13.8-10.54-15.2-8.77-23.61-16.25-5.07-4.51-7.64-7.89-15.57-14-6-4.66-7.84-5.23-9.08-5.5-8.61-1.87-19.53,4.43-22.83,13-1.79,4.65-1,9.07,0,14.5.67,3.67,1.52,8.34,4.15,12,4.58,6.36,12.35,6.65,24.91,9.25,15.74,3.26-2.2-.53,22.5,5.75C136.78,456.42,149.55,450.51,162.75,452.75Z" transform="translate(2.72 -0.48)"/><path class="cls-61" d="M416.5,246.25a28.59,28.59,0,0,1-4,6.25c-2.65,3.13-4.56,4-9,7.75-4,3.37-6,5.05-7.25,7-3,4.47-3.52,9.18-4,13.25-.35,2.95-.52,4.47,0,6.25,1,3.59,3.61,5.05,6.75,8,4.51,4.24,2.87,4.68,8.75,11.5,6.86,7.95,10.89,9.45,13,10,1.61.42,4.2,1.06,6.25-.25s1.47-3.53,3.5-6c1.41-1.72,2.47-1.54,10-4.25,6.09-2.19,6.06-2.54,9-3.25,5.39-1.3,6.52-.36,7.5-1.5,2.84-3.3-3.16-15.08-11.5-23.5-7-7.09-10.2-6.23-13-12-3.32-6.83-.77-11.93-4.75-16C424.67,246.35,419.86,246.06,416.5,246.25Z" transform="translate(2.72 -0.48)"/><path class="cls-62" d="M398.25,261.25A64,64,0,0,1,385.5,264a44,44,0,0,1-13.25,0,33,33,0,0,1-14-5.5c-3.87-2.73-8.49-6-9.25-11.5-.84-6.13,3.66-11.08,4.5-12,2.23-2.44,3.95-3,18-8,9.25-3.32,10.24-3.72,12.75-4,5.6-.62,10,.35,14,1.25,5.68,1.26,8.57,2.86,10.5,4.25a10.1,10.1,0,0,1,3.5,3.5c1.27,2.39.39,3.76,1.75,7.25.91,2.35,1.55,2.37,1.75,3.75.38,2.68-1.68,5.12-3.75,7.25A74.23,74.23,0,0,1,398.25,261.25Z" transform="translate(2.72 -0.48)"/><path class="cls-63" d="M614.67,163.67a80.27,80.27,0,0,0-12.28,3.5c-6.32,2.36-7.73,3.8-12.79,5a34.83,34.83,0,0,1-13.32.75c-6.07-.88-10.14-3.22-14.09-5.5-4.25-2.45-6.4-3.73-7.58-6.25-1.42-3.06,0-4.49-1.56-8.25-1.52-3.53-3.21-3.22-4.44-6.5a12.81,12.81,0,0,1,.26-9,13.86,13.86,0,0,1,5.74-6.5c3.33-1.92,4.48-.65,8.36-2.5,2.75-1.32,4.42-3,7.31-6,3.82-3.92,3.48-4.83,6-6.5a18.49,18.49,0,0,1,8.36-2.75c4.93-.6,5.34.94,11,.5,4.15-.33,4.68-1.22,8.35-1a21.73,21.73,0,0,1,6.79,1.5,20.87,20.87,0,0,1,5.22,3c-.06,2-.11,4.11-.17,6.17Q615.23,143.5,614.67,163.67Z" transform="translate(2.72 -0.48)"/><path class="cls-64" d="M614,228.25a34,34,0,0,1-11-1.5c-5-1.57-5.77-3.16-9.66-3.5-3.6-.32-4.1.94-11,1.75-4.63.54-6.95.82-8.62,0-3-1.45-4.15-5-6.53-12-1.19-3.54-1.08-4.17-2.35-7.25-2-5-3.1-5.11-3.39-7.25-.63-4.58,3.55-8.62,7.31-12.25a43.48,43.48,0,0,1,12-8c2.62-1.25,2.75-1,7.83-3.25,5.53-2.4,7.32-3.49,10.18-4.75A58.47,58.47,0,0,1,614,166Z" transform="translate(2.72 -0.48)"/><path class="cls-65" d="M613.67,466.75A19.94,19.94,0,0,0,603,468.5a14.69,14.69,0,0,0-6.79,5.75,13.34,13.34,0,0,0-1.57,8c.65,8.31,7.15,13.42,6.27,14.25-.7.66-4.43-2.91-10.18-5.75-6.13-3-11.4-3.65-18.54-4.5-9.15-1.09-14.07-1.68-20.11.25-5.74,1.84-5.73,3.79-12,5.25-6.65,1.55-9.27,0-12.53,2.5-3.7,2.88-4.27,8-4.44,9.5-.24,2.21.26,1.91.78,8.5s0,6.62.79,8.75c1,2.71,2.22,3.72,2.61,6.75.34,2.67-.47,3.13,0,4,2,3.63,17.39-1.45,37.34-4.25,5.91-.83,10.82-1.26,14.1-1.5,1.41,2.31,3.2,5.26,5.23,8.71,3,5.14,4.53,7.72,5.47,9.54,3.59,7,3.32,8.42,6,11.25,1.45,1.52,2.49,2.11,6.78,4.75,2.93,1.79,7.32,4.51,12.8,8Q614.32,517.5,613.67,466.75Z" transform="translate(2.72 -0.48)"/><path class="cls-66" d="M308.61,521.5c-15.61,26.21-19.17,29.64-31.65,50-9.52,15.52-21.46,29.57-31.14,45-1.35,2.15-5.23,8.41-11.41,9.25a20,20,0,0,1-8.57-1.25c-.83-.31-1.81-.72-6.74-3.75-6.95-4.26-7.32-4.86-9.34-5.25-3.85-.75-4.73,1-7.79,0-3.23-1-3.31-3.33-7-7-4.43-4.4-9.46-6.23-13-7.5-3.81-1.38-6.5-2.36-10.12-2-5.31.53-10.92,3.78-10.63,6.25.15,1.37,2.08,2.1,8.82,4.5,7.6,2.71,11.4,4.06,13.49,4.75,11.33,3.73,21.13,9.34,20.76,10.25-.21.52-3.53-.8-11.42-2-7-1.06-7.28-.47-12.71-1.5-6.76-1.28-7-2.32-11.42-2.5a21.18,21.18,0,0,0-10.9,2c-2.17,1.11-5.89,3-6.22,6s2.89,3.61,4.15,8.75c.71,2.92,0,3.81,1,5.75.45.82,1.81,2.85,6,4.25,8.86,3,14.43-2.3,29.32-2.25a72.39,72.39,0,0,0,13-.5,82.73,82.73,0,0,0,8.41-1.83c1-.27,2.21-.64,3.78-1.17a97.78,97.78,0,0,0,13.23-5.5c-.07-.17-10.15,3.57-17.9,9.75a16.36,16.36,0,0,0-4.93,6,13.51,13.51,0,0,0-1.3,6.75c.06.72.3,2.86,3.12,7.5,3,5,4.92,8.12,8.82,10.5s5.55,1.31,8,3.75c3.51,3.43,3.39,8.58,3.37,9.5-.17,8.09-7,11.46-5.44,14.17,2.34,4.12,20.23,0,20.23,0s2.59-2.92,2.6-5.92c0-2-1.12-2.07-1.3-4.5a8.71,8.71,0,0,1,1-4.75c.93-1.64,2-2,5.71-4.5,3.35-2.27,5-3.41,5.71-4.5a11,11,0,0,0,1-7.75c-.65-2.77-2.15-4-1.55-4.75.79-.93,4.13.54,5.19,1a29.31,29.31,0,0,1,7.26,4.75c5.9,4.84,8.87,7.25,9.6,6.75s-.54-4.08-2.07-6.75c-2.6-4.52-5.56-6.45-10.38-10.5-5.12-4.29-8.51-7.14-11.94-11.5-2.84-3.62-5.65-7.29-6.48-12.75a23.7,23.7,0,0,1,.77-9.75c1.81-6.57,5.31-10.11,9.34-15.25,2.13-2.7-.21,0,13-20.5,6.62-10.3,7.88-12,12.71-19.75,2-3.18,4.51-7.19,7.53-12.25,10.62-17.79,12.75-23.76,21-35.5,2.52-3.57,4.68-6.37,6-8l-5.19-3.25C312.75,514.5,310.88,517.69,308.61,521.5Z" transform="translate(2.72 -0.48)"/><path class="cls-67" d="M306.5,522.5c2,1,4.66,2.44,7.75,4.25,4.58,2.68,7.9,4.93,8.75,5.5,7.41,5,11.6,8,14.75,13a13.22,13.22,0,0,1,2.5,6.5c.14,2.49-.72,3.35-.5,6.25a10.82,10.82,0,0,0,1.75,5.75c2.3,3.12,5.2,1.73,8,4.75a9.16,9.16,0,0,1,2.25,8c-.42,1.75-1.7,3-4.25,5.5-4.65,4.52-6.39,4.57-8.25,7.75a19.62,19.62,0,0,0-2,5.5c-1.05,4.1-.44,5.45-1.75,8.25A9.92,9.92,0,0,1,332,608c-2.65,1.7-4.19.27-9.25,1.5-3.39.83-3.23,1.6-6,2-1.12.16-6.58,1-8.5-1.75-1.55-2.18.81-4.38-.75-7.25-1.28-2.35-4.28-3.51-6.55-3.63-3.07-.18-3.93,1.58-6.7,1.38-3.45-.25-5.84-3.24-6.25-3.75-3.3-4.13-.77-3.82-3.75-12-1.16-3.19-4.4-7-5.31-10s1.67-5,1.56-11.5-.16-9.58,0-10.5c1-5.79,3.21-6.09,6.5-14.25a86.94,86.94,0,0,0,4-13.5c1.84-8.15,1.47-11,3.25-11.75C295.87,512.3,299.13,513.37,306.5,522.5Z" transform="translate(2.72 -0.48)"/><path class="cls-68" d="M153.19,450.5c-12-1.47-12.72-10.58-23.61-12.75-4.87-1-2.94,1.21-24.39,4.5-5.58.86-11,2.38-16.6,3.25-4.67.73-7.44,1-9.86,3.25-2.62,2.43-2.26,4.8-5.19,6.5-3.25,1.89-5.57.07-7,1.75-.84,1-.65,2.31,2.34,12.25,1.26,4.19,1.36,4.42,1.55,4.75,2.51,4.31,7.81,5.74,13,7,13.39,3.25,20.08,4.88,23.61,4.75,13.73-.5,23.63-6.9,28.8-10.25,7-4.56,5.27-5.36,18.16-15,6.61-4.95,11.31-7.9,10.64-9.5S159.33,451.25,153.19,450.5Z" transform="translate(2.72 -0.48)"/><path class="cls-69" d="M58,261a68.35,68.35,0,0,1,16.86-2c8.11.08,10.67,1.61,16.61,0a31.49,31.49,0,0,0,11.68-6.25,22.36,22.36,0,0,0,5.7-6.25c2.85-4.95.72-6.8,3.12-13.75,1.64-4.76,3.07-5.1,4.15-10,.68-3.06,1.22-5.71-.26-8.25a9.18,9.18,0,0,0-6.75-4.25c-2.33-.26-3.2.66-9.86,2.75-.6.19-2.93.92-5.18,1.5a132.94,132.94,0,0,1-13.5,2.25c-7.79,1.09-8.78,1.23-10.64,2-3.47,1.45-3.32,2.35-6.74,3.75-5.65,2.31-8.09.65-10.64,2.5-3.65,2.64-2.9,9.06-2.33,14A53.73,53.73,0,0,0,58,261Z" transform="translate(2.72 -0.48)"/><path class="cls-70" d="M54.34,266a52.13,52.13,0,0,0,1.81,14.25c.57,2.1,4,14.13,13.5,22.25a17,17,0,0,0,8.3,4.25,11.91,11.91,0,0,0,6.74-.5,12.15,12.15,0,0,0,5.71-5.5c3.57-5.87,1.06-8.59,4.15-12,2.6-2.87,4.85-1.47,8.57-5,1.09-1,3.83-3.65,4.15-7.25.37-4.28-2.9-7.6-6.75-11.5a34.64,34.64,0,0,0-10.9-8c-1.82-.83-16.19-7.33-27.5,0A21.91,21.91,0,0,0,54.34,266Z" transform="translate(2.72 -0.48)"/><path class="cls-71" d="M52.52,261.25a62,62,0,0,0,4.3,21.21c1.77,4.39,3.68,7.53,5.56,14.29a47.12,47.12,0,0,1,2.08,12c.11,3.9.24,8.51-2.08,13.75s-5.67,8.15-8.3,10.5a45.39,45.39,0,0,1-10.9,7c-5.73,2.67-10.41,4.85-16.35,4-1.85-.26-8.54-1.22-10.89-5.75-1.8-3.46.56-5.87,3.63-17.75,0,0-.06.24,2.85-13.25,2-9.32,3-14,3.12-14.25,3.13-9.29,8.93-15.42,13.75-20.5A81.56,81.56,0,0,1,52.52,261.25Z" transform="translate(2.72 -0.48)"/><path class="cls-72" d="M49.67,260.25a56,56,0,0,0-22-7,58,58,0,0,0-15.33.5A55.25,55.25,0,0,0-1.56,258v50.25a15.84,15.84,0,0,0,7,2.75,18.23,18.23,0,0,0,9.55-1.5A24.57,24.57,0,0,0,24.2,303c4.4-4.8,3.7-7.16,7.24-13.5,4.48-8,7.8-8.17,12.73-16.25A47.33,47.33,0,0,0,49.67,260.25Z" transform="translate(2.72 -0.48)"/><path class="cls-73" d="M98.71,356.75a75.17,75.17,0,0,0,12.19-13.5c3.4-4.85,6.93-10,8.3-17.5.71-3.88,1.51-8.23-.78-12.5-1-1.9-3.54-3.88-8.56-7.75-5.17-4-7.81-6-10.64-7.25C95.46,296.6,91.71,295,87.29,296c-5.81,1.36-8.8,6.4-9.6,7.75-2.27,3.82-2.32,7.6-2.34,15,0,5.43,0,10.11,1.56,16.25,1.68,6.52,3,11.74,7.78,16A24.57,24.57,0,0,0,98.71,356.75Z" transform="translate(2.72 -0.48)"/><path class="cls-74" d="M93,368.25c-2.78-2.52-7.2-5.67-13-6.25-6-.61-7.43,2.23-20.75,6.75-11,3.74-14.86,3.41-20,8a43.69,43.69,0,0,0-6,7c-3.18,4.31-5.28,7.22-6,11.25-.12.71-.32,2.21.78,8.75,1.39,8.23,2.09,12.34,3.63,14.75,4.44,6.9,12.79,8.66,13.24,8.75,10.29,2,18.83-4.92,22.31-7.75,8.46-6.87,5.06-10.11,13.23-16.5,4.23-3.3,10.26-6.2,22.32-12,5.28-2.54,7.23-3.32,7.78-5.25C112.28,380,99.43,372,93,368.25Z" transform="translate(2.72 -0.48)"/><path class="cls-75" d="M216,272.5c-2.54-.18-21.65-1.6-32.43-5.75a21.55,21.55,0,0,1-7.52-4.5c-2.75-2.62-3.41-4.86-5.19-8-2.91-5.13-6.28-8.23-10.64-12.25a64,64,0,0,0-13-9.5c-4.69-2.58-3.82-1.29-15.31-6.25-6.24-2.69-8-3.71-11.42-3.75-1.43,0-6.82-.09-10.38,3.5-1.71,1.72-2.3,3.59-3.37,7-1.2,3.8-1.8,5.7-1.3,8,1.07,4.93,6,6.62,5.19,9-.54,1.53-2.66,1-4.41,3.25-1.38,1.78-.53,2.71-1.56,6-1.27,4.05-3.07,4.28-3.89,8-.36,1.67-.76,3.5,0,5.25,1.74,4,8.29,4.86,13,5.5,8.54,1.16,10.33-.85,14,1.25,4.09,2.33,2.62,5.24,7.26,9.5,3.84,3.52,8.2,4.61,14.79,6.25,5.7,1.42,8.56,2.13,11.94,1.25,7.84-2,6.35-12.12,14.53-16,1.61-.76,3.35-1.18,13-.53s15.19,1,24.13,2.75a189.22,189.22,0,0,1,30.87,8.75q1.44-4.12,2.86-8.25Z" transform="translate(2.72 -0.48)"/><path class="cls-76" d="M190,489.75c-.67-3.46,1.2-11.72,1.28-18,.14-11.5,1.53-15.66,2.09-23,.62-8.17,1.29-20,1.3-34.5a4.37,4.37,0,0,1,3.37-.25c3.54,1.59,2,10.27.78,25.25-.66,8.24-.85,16.5-1.3,24.75-.68,12.65-1,19.05-1,23,0,14.54,1.19,13.71.26,20.25-.41,2.9-1.19,6.87,0,12,.63,2.69,1.21,5.19,3.12,7.5,2.93,3.55,6.25,3.33,18.42,7.25a66.34,66.34,0,0,1,10.38,4c7.42,3.79,9.23,7,9.86,8.25,1.23,2.56.32,3,1.55,5,2.88,4.61,9.94,5.5,11.94,5.75,5.2.66,7.42-.73,10.38,1.25a9,9,0,0,1,3.11,3.75c.93,2.08.61,3.59,0,9-.73,6.57-.42,5.84-.78,7.5a22.92,22.92,0,0,1-3.89,9.5c-3.86,5-11.74,9.14-18.16,7.75-2.5-.54-4.83-1.91-8.82-1.5-2.23.23-2.7.78-4.16.5-3-.58-3.53-3.47-6.74-6.5s-5.05-2.2-9.08-5-6-6.26-7.53-9c-5.92-10.51-4.73-22.19-4.67-22.75.43-3.78,1.4-6.54,0-10.25a29.78,29.78,0,0,0-3.89-6.75c-1.24-1.64-1.86-2.12-3.11-4a27.54,27.54,0,0,1-2.7-5c-.89-2.51-.26-4.77.1-6.47,1.37-6.37.74-12.22,0-19A58.19,58.19,0,0,0,190,489.75Z" transform="translate(2.72 -0.48)"/><path class="cls-77" d="M175.25,531.5a109.32,109.32,0,0,1-15.83.75c-9-.23-9.39-1.36-17.9-1.75-13.32-.6-17.72,1.93-24.13-1.75a12.68,12.68,0,0,1-5.71-5.75c-2.48-5.72,1.42-11.89,2.59-13.75,3.67-5.8,9-8.34,15.57-11.5s6.72-1.92,20-7c6.74-2.58,7.86-3.35,10.9-3.5,6.59-.33,11.62,2.76,16.08,5.5,6.38,3.92,12.92,7.93,14.27,15.25,1,5.59-1.5,10.25-2.59,12.25A25.61,25.61,0,0,1,175.25,531.5Z" transform="translate(2.72 -0.48)"/><path class="cls-78" d="M281.75,329.5a52.48,52.48,0,0,1-20.75-2c-4-1.25-4.31-1.9-12-5.5-10.1-4.73-14.87-6.07-29.5-12.75-8.46-3.86-11-5.3-12.75-8.5a16.33,16.33,0,0,1-.5-14.5c3.94-8.28,14.36-9.55,18-10,8.72-1.07,15.41,1.94,22.5,5.25,6.38,3,17,7.91,25.25,19.75A55.53,55.53,0,0,1,281.75,329.5Z" transform="translate(2.72 -0.48)"/><path class="cls-79" d="M286.25,313A45.94,45.94,0,0,0,301,299c4.54-6.92,3.34-9.51,8.25-17.5,7-11.34,12.51-11.2,13-17.75.36-4.76-2.52-5.36-6-17.75-2.13-7.57-1-7.1-2.5-10.25-3.62-7.51-8.25-6.3-16.25-16-3.05-3.7-4.17-6.06-7.25-6.75-4.4-1-8.54,2.37-9,2.75-4,3.31-2.5,6.29-6.75,13-3.4,5.37-5.42,5.16-6.5,9-1.2,4.25.63,6.78,1.5,11.75,1.36,7.76-1.59,10.24-2.75,19.75-.44,3.59-1.79,14.69,3,25.5C271.33,298.32,275.6,306.41,286.25,313Z" transform="translate(2.72 -0.48)"/><path class="cls-80" d="M326,275.25c-.28-3.82-.31-9.17,1.75-21,1-5.5,1.88-9.58,2.75-13,1.47-5.76,2.23-8.69,3.75-11.5,1.75-3.24,2.43-3.11,5.75-8.75,2.05-3.49,1.69-3.36,3.75-6.75,1.67-2.75,2.3-3.47,2.75-5.25.54-2.14.14-3.07,1-4.25.68-.93,1.81-1.56,4.5-2a27.06,27.06,0,0,1,10,.25c3.54.87,7.81,1.91,10.5,5.5,2.28,3,.8,4.4,3.25,7.25,2.59,3,5,2.33,7.5,5.5a13.19,13.19,0,0,1,2.5,6c.23,1.11,1,5.38-1.5,12.25a42.38,42.38,0,0,1-6.25,11c-6.9,9.56-10.36,14.35-13.25,17-6.23,5.72-11.76,8.29-20.25,12.25-12.74,5.94-15.4,4.4-16.25,3.75C327.72,283.1,326.5,282,326,275.25Z" transform="translate(2.72 -0.48)"/><path class="cls-81" d="M292.75,314a124.5,124.5,0,0,1,14-13c5.63-4.47,8.94-7.06,14.25-9.25a41.51,41.51,0,0,1,15.75-3.25c4.76,0,9.21.06,13.75,3a20.67,20.67,0,0,1,8.25,11.5c.75,2.48,2.07,6.83.25,11.25-2.19,5.33-7.6,7.49-12,9.25-2.39.95-5.39,1.87-20.25,3-8.91.68-13.44,1-16.75.5-2.09-.32-16.58-2.67-17.75-9.5A6.28,6.28,0,0,1,292.75,314Z" transform="translate(2.72 -0.48)"/><path class="cls-82" d="M446,344c-5.32.11-8.41,1.76-10.25,3.25-2.71,2.19-2.69,4-6.5,8.25-1,1.14-1.95,2-6.75,6-5.89,4.87-8.83,7.31-10.5,8.5a78.94,78.94,0,0,1-16,9.25c-5.8,2.43-7.91,2.36-9.75,5-2.62,3.75-.83,7.42-3.5,9.5-3,2.37-8.43,0-9-.25-6.63-3-8.89-10.73-10.5-16.25-2.3-7.86-1.86-14.4-1.5-19.75.42-6.23.65-9.7,2.5-14,3.26-7.58,8.95-11.7,13.5-15A50.92,50.92,0,0,1,396.5,320c6.41-1.41,12.63-2.77,19.25-.25,7.57,2.88,6.57,7.38,16.5,11.75a40.79,40.79,0,0,0,11.27,3c1.24.12,2.46.15,2.46.15a33,33,0,0,0,4-.16Q448,339.26,446,344Z" transform="translate(2.72 -0.48)"/><path class="cls-83" d="M281.5,332c.85,2.3,2.06,5.75,3.25,10,3.75,13.38,2.48,17.16,4.5,24,4.7,15.86,20.75,26.41,31,26.5,1.76,0,6.46.06,8.75-3,1-1.29,1.34-2.9,1.25-5.75-.2-6.4-2.42-9.25-4-14.75-2.24-7.81.49-8.2-1.75-15.25a32,32,0,0,0-8-13c-5.33-5.16-7.83-3.61-14.75-8.5-9.73-6.88-11.48-14.69-15-14C284.94,318.6,282.72,321.18,281.5,332Z" transform="translate(2.72 -0.48)"/><path class="cls-84" d="M366,392.5a50.07,50.07,0,0,0-14.25-3.5c-6.68-.62-17.18-1.6-22,4.75-2.22,2.92-3.47,7.7-1.75,11.25,2.31,4.76,7.92,3.1,11,8,3,4.72-.93,8.34,2.25,14,.14.24,3.13,5.4,8.75,6.5,6.05,1.18,11.12-3.15,14.75-6.25a33.28,33.28,0,0,0,9-13c1.93-4.93,5.09-13,1-18C372.22,393.16,368,392.61,366,392.5Z" transform="translate(2.72 -0.48)"/><path class="cls-85" d="M491.35,402.75a35.29,35.29,0,0,1-.52-9c.86-12.22,7.69-16.26,9.92-29.25.91-5.29,2.06-12-1.83-15.5-3.67-3.28-8.55-.72-12.79-4.75-3.73-3.54-2.7-8.11-5.75-9-2.77-.81-6,2.26-6.79,3-5.41,5.13-2.58,10-6.52,18.5-2.94,6.35-5.11,4.93-11,14.75-3.09,5.18-5,8.39-5.22,13-.38,6.47,2.62,11.42,3.92,13.5,5,8.06,12.92,11.18,21.93,14.75,7,2.76,15.89,6.29,18.54,3.25S492.73,404.82,491.35,402.75Z" transform="translate(2.72 -0.48)"/><path class="cls-86" d="M480.64,426a36.9,36.9,0,0,0,7.05-5.25C494.28,414.49,494,410,497.88,409c1.33-.34,2.53-.11,14.88,7.75,7.12,4.53,8.24,5.43,8.88,7.25,2,5.64-3.71,11.74-4.44,12.5-1,1.05-3.26,3.16-12.53,6.25-10.1,3.37-15.14,5.05-20.37,4C476.56,445.19,472,440,470.2,438c-2-2.28-6.69-7.57-5-10.75C466.78,424.41,473.15,423.74,480.64,426Z" transform="translate(2.72 -0.48)"/><path class="cls-87" d="M451.92,398.25a9.49,9.49,0,0,0-3.39-7.5c-1.89-1.51-5.32-3-8.36-1.75a7.69,7.69,0,0,0-4.43,6.75c0,14.5,11.48,13.26,20.62,18.75,4.72,2.83,1.91,7.28,5.49,10.5,5,4.49,11.77,4.5,13.57,4.5,6.75,0,17-2.8,18-8.5,1-5.48-7.14-10.84-9.66-12.5-3-2-5.79-3.05-16.19-6C461.49,400.77,456.18,399.35,451.92,398.25Z" transform="translate(2.72 -0.48)"/><path class="cls-88" d="M535.74,444.25c-3.25,1.58-8,3.86-13.84,6.5-23.93,10.83-27.11,10.17-29,9.25-2.53-1.25-2.66-3-8.62-23.25-3.54-12-4.24-13.94-2.87-16.25,4.08-6.91,19.58-5.45,27.41-3.5,3.83.95,13.14,3.41,20.11,12A32.5,32.5,0,0,1,535.74,444.25Z" transform="translate(2.72 -0.48)"/><path class="cls-89" d="M577.25,377.25C596,344.79,604.29,342,608.06,343c12.88,3.54,7.26,61.29,3.92,61.5-1,.06-1.27-4.72-5-6-3.1-1.07-5.06,1.53-9.92,1.5a15.94,15.94,0,0,1-8.88-3c-3.26-2.52-3.23-5.15-7.05-12.75C579.64,381.21,578.22,378.81,577.25,377.25Z" transform="translate(2.72 -0.48)"/><path class="cls-90" d="M403.88,380a14.72,14.72,0,0,0,8.62,0c3.49-1.19,4.8-3.47,10.18-10.5,7-9.11,6.83-8,10.18-13,3.87-5.79,5.8-8.68,7.05-12.25,1.37-3.9,3.18-7.65,4.7-11.5.53-1.34,1.28-3.27,3.14-4s4.06.2,5.22.75,5.73,2.94,8.61,10c1.06,2.58,1.93,5.88,1.83,14.25-.15,12.44-.22,18.67-4.18,24.25a28.39,28.39,0,0,1-10.7,8.75,37,37,0,0,1-18,4c-3.6-.08-3-.58-13.31-2-11.68-1.61-13.25-1.07-14.36-.25-4.24,3.12-1.36,9.9-5.49,12A6.54,6.54,0,0,1,390,399c-2.87-3.47,1-10.84,5.49-14.75A19.69,19.69,0,0,1,403.88,380Z" transform="translate(2.72 -0.48)"/><path class="cls-91" d="M550.1,299.75c-2.64-.76-6.84-2-12-3.5-15-4.44-16.36-5.07-20.37-5.5-1.57-.17-7.23.22-18.54,1-8.67.6-15.55,1.15-15.92,3.25-.2,1.08,1.52,1.64,2.08,4a8,8,0,0,1-1,5.43,63,63,0,0,0-4.74,16.32,28.28,28.28,0,0,0,1,12c2.57,9.61,10.77,22.4,19.85,22.5,5.23.06,6.55-4.14,15.4-11.5,15.5-12.87,33.56-18.35,42.3-21,14.45-4.38,21.95-3.94,22.46-7C581.12,312.88,575.23,308.11,550.1,299.75Z" transform="translate(2.72 -0.48)"/><path class="cls-92" d="M536.52,290.75c-3.46-2.55-8.36-6.11-14.36-10.25-8.66-6-10.15-6.62-12-7-9.42-1.9-18.36,5.41-22.46,8.75a46.15,46.15,0,0,0-14.36,21.25,44.06,44.06,0,0,0-2.09,24.25c.65,3.09,3.38,16,13.58,23.25,16.61,11.73,50.21,6.25,60.84-15.75C552.35,321.4,548.61,303.74,536.52,290.75Z" transform="translate(2.72 -0.48)"/><path class="cls-93" d="M532.34,183.25c3.11.05,3.1-8.69,12.54-27.25,4.6-9.05,7-11.61,9.13-19.25,2.11-7.39,3.77-13.23,1.57-19.75-2.93-8.68-9.37-8.67-11.23-17.75-1.1-5.4.36-9.42-2.61-11.5a7.35,7.35,0,0,0-7-.25c-2.79,1.39-3.77,5.18-5.74,12.75-.78,3-1.38,6-2,9.15,0,0-.62,3.08-1.11,5.85A176.69,176.69,0,0,0,522.94,149C523.47,163.64,527.7,183.17,532.34,183.25Z" transform="translate(2.72 -0.48)"/><path class="cls-94" d="M516.42,113.5c-2.9-1-6.89-1.92-10.71-.5-5.95,2.21-5.72,7.83-12.79,12.5-5.41,3.57-7.07,1.28-12.54,4.75-8.47,5.37-10.69,14.78-11,16-2,8.87,1.62,15.82,3.39,19.25,1.43,2.76,4.79,9.29,12,13.25,9.82,5.38,16.1.15,27.16,4.5,6.8,2.67,10.49,7,16.19,13.75,7,8.24,9.05,14.3,17,31.5,2.66,5.79,6.81,14.63,12.27,25.5l7.31-7.5c-2.71-5.1-7-13-12.53-22.5-12.13-20.86-14.23-22-18.54-31.75-6.14-13.92-11-24.93-8.88-38.5.45-2.9,2.42-13.63,5-25.5,1.59-7.43,2.74-12.19,0-14.75C526.24,110.24,518.71,112.69,516.42,113.5Z" transform="translate(2.72 -0.48)"/><path class="cls-95" d="M533.65,199.75a22.81,22.81,0,0,1-5.48,10c-4.43,4.63-9.86,6.15-18.28,8.5-6.38,1.78-9.56,2.67-12.8,2.5a27.11,27.11,0,0,1-20.36-11.5c-3.57-5.23-3.69-10.4-3.92-20.75-.27-12.08-.44-19.53,4.44-22.75,3.79-2.5,8.88-1,19.06,2,11.36,3.35,19.54,5.76,26.89,13.25A41.35,41.35,0,0,1,533.65,199.75Z" transform="translate(2.72 -0.48)"/><path class="cls-96" d="M571.51,538.75a48,48,0,0,1,32.37,28,30.22,30.22,0,0,1,2.62,14.5c-.24,2.79-.54,5.83-2.88,8-1.66,1.54-3.15,1.53-9.92,2.5-10.7,1.54-12.53,2.36-15.4,1-.78-.37-2.91-1.5-5.23-5.25-4.21-6.84-3.88-14-3.39-22.5C570.34,553.79,571,544.8,571.51,538.75Z" transform="translate(2.72 -0.48)"/><path class="cls-97" d="M582.21,529.25a68.37,68.37,0,0,0-7.83,13.5c-3.92,9-2.67,11.65-6.53,21.5-3.54,9.07-4.86,7.49-9.66,18.75-4,9.31-3.88,12.28-7.83,15.5-6.32,5.15-14.64,4.11-15.41,4-9.7-1.36-14.35-9.11-15.14-10.5-3-5.34-4.24-13.12-.52-18.75,1.67-2.52,3.75-3.75,6.26-5.25,13.8-8.22,20.7-12.33,23.5-14.5,8.24-6.39,13.22-14.39,15.93-18.75,5.27-8.47,6.84-14.5,10.18-14.5C578.07,520.25,580.49,524.83,582.21,529.25Z" transform="translate(2.72 -0.48)"/><path class="cls-98" d="M144.89,527a22.42,22.42,0,0,0-4.15,11.25,20.35,20.35,0,0,0,1.56,10c3,6.69,9.43,10.14,17.12,14.25,7.53,4,8.88,3.28,10.64,5.75,3.61,5.08.84,12.36-3.37,23-5.39,13.58-8.08,20.36-13.76,21.5-7,1.4-15.17-5.6-18.94-12.25-5.48-9.68,1.06-13.84-3.89-27.25-3.55-9.62-8.44-11.63-8.56-20.25a38.61,38.61,0,0,1,2.18-12.76,42.9,42.9,0,0,1,3.23-7A62.46,62.46,0,0,1,135,521.75c8.75-9.9,14.39-14.31,22.83-23.5,7.44-8.09,13.33-15.85,16.87-20.5,2.67-3.52,3.9-5.28,8.56-11.5,5.14-6.86,9.4-12.39,12.2-16,11.31-20.42,15.37-14.57,17-13.32-18.43,26.43-41.4,55.72-48.15,61.82A72.4,72.4,0,0,0,152.67,512,70.85,70.85,0,0,0,144.89,527Z" transform="translate(2.72 -0.48)"/><path class="cls-99" d="M130.36,535.75a121.55,121.55,0,0,1-13.75,3.75c-8,1.68-14,2.1-25.17,2.75-27.46,1.6-26.82,1.14-30.36,2a65.81,65.81,0,0,0-25.16,12,77.77,77.77,0,0,0-7,7.09,88.92,88.92,0,0,0-7,8.66c-3.76,5.34-5.72,8-5.7,10.5,0,7.23,8.55,12,9.08,12.25,9.42,5.07,20.17.38,21,0,10.28-4.67,8.18-12.18,20.24-22.25,8.39-7,17.36-10,21.8-11.5,10.38-3.48,13.18-1.89,26.72-6.25,15.74-5.07,17.5-9,17.9-11C133.57,540.73,132,537.82,130.36,535.75Z" transform="translate(2.72 -0.48)"/><path class="cls-100" d="M24.24,471.5a45.18,45.18,0,0,1,24.65,1.25c4.08,1.43,11.47,4,16.34,10.75,4.52,6.24,1.35,8.4,6.23,17,4.46,7.85,9.39,10.1,8.82,15.5-.24,2.28-1.52,5.66-3.89,6.25-4.09,1-7.09-7.37-16.6-15.5-7.67-6.56-9.43-4.27-22.84-13.25-8.21-5.5-18-12.16-16.6-17.75C20.83,473.76,22.61,472.4,24.24,471.5Z" transform="translate(2.72 -0.48)"/><path class="cls-101" d="M190.56,530.25c10.31,9.2,13.59,18.43,14.79,23,3.44,13.14-.15,26.64-1.3,31-1.92,7.21-3.46,8.44-3.38,13.5.2,11.24,8,16.78,5.45,20.5-.67,1-2.28,2.14-17.9.5-12.86-1.35-19.39-2.08-24.13-4.75-3.22-1.81-11.66-6.57-13.49-14.75-2.24-10,8.16-12.76,10.9-29.75,1.43-9-.87-11.77,2.33-20a29,29,0,0,1,9.86-13.75A29.51,29.51,0,0,1,190.56,530.25Z" transform="translate(2.72 -0.48)"/><path class="cls-102" d="M43.44,450.5a41.21,41.21,0,0,0,1.3,8.25c1.56,5.92,3.36,7.34,2.85,10-.84,4.41-7,6.75-10.9,8.25-5.77,2.2-14.66,5.6-21.53.75-4.43-3.13-7.44-9.27-6-14.25,1.63-5.5,7.6-5.75,8.82-10,1-3.31-1-9-15.57-19.25v-13A56.26,56.26,0,0,0,20.09,435.5c5.56,2.85,10.55,5.41,16.6,4.5,4.79-.72,7.51-3.2,15.05-9.75,3.92-3.4,10.31-8.92,18.68-16l6,4.75a81.08,81.08,0,0,1-14.53,11.75c-7.9,5-14.72,7.29-17.38,14A15.11,15.11,0,0,0,43.44,450.5Z" transform="translate(2.72 -0.48)"/><path class="cls-103" d="M103.51,372.85c-7.22,2.76-17.69,6.79-30.36,11.75-15.9,6.23-24,9.43-32.95,13.25-7.89,3.38-19.08,8.37-32.43,15v-8c11.42-5.67,23.8-11.32,37.1-16.75a562.29,562.29,0,0,1,55.27-19.25C101.26,370.19,102.39,371.52,103.51,372.85Z" transform="translate(2.72 -0.48)"/><path class="cls-104" d="M69.2,432.75c.29-6.43-.44-14.59-6-18.5-4.12-2.92-7.39-1-17.9-2.75-7.87-1.33-17-2.87-22.31-9.5-2.77-3.46-4.1-7.83-5.45-12.25-2-6.43-1.39-8.78-3.63-11.5C12.12,376,7.38,374.15-.67,374c-4,98.24-1.24,118.32,1.11,118.5,1.58.12,2-9,10.64-15.5,5.84-4.42,9.46-3.14,17.39-8.75A35.84,35.84,0,0,0,38.84,458c5.37-8.49,2.56-13.88,7-16.5,4.74-2.8,9.71,2.28,16.09-.5C65.89,439.28,68,435.57,69.2,432.75Z" transform="translate(2.72 -0.48)"/><path class="cls-44" d="M142.55,451c2.12-.65,1.84-7,1.3-17.75-.48-9.5-1-8.07-1-13.75,0-6.65.81-9.36-1-13.25a48.44,48.44,0,0,0-4.15-6.5,19.39,19.39,0,0,0-2.86-3.25c-1.14-1-3.78-3.35-5.19-2.75-1.66.7-1.08,5.23-.78,7.5,1.66,12.25,3.19,16.56,4.15,23,1.67,11.19-.36,15.7,4.16,22.25C137.57,447.17,140.62,451.6,142.55,451Z" transform="translate(2.72 -0.48)"/><path class="cls-105" d="M33.84,526c-1.42-1.19-4.82-3.77-7.53-2.75-1.65.63-2.19,2.29-3.89,5.75a86,86,0,0,1-4.93,8.75c-4.21,6.45-7.18,7-7.78,11.25a7.8,7.8,0,0,0,1,5.75c1.59,2.17,4,2.18,8.56,4.25,3.5,1.6,3.84,3.38,5.71,3.25,1.54-.11,2.61-1.17,4.67-3.5,3.58-4,6.07-7.3,6.23-7.5,5.41-7.06,9-6.75,9.85-10C46.52,538.34,44.75,533.68,33.84,526Z" transform="translate(2.72 -0.48)"/><path class="cls-106" d="M130.53,527.45c-5.4,1.31-12.52,4-17.55,10-3.8,4.57-4,8.2-6.75,15.5-5.31,14.25-9.35,13.61-13.75,25-4.27,11.07-7.19,29.1.78,34.25,4.1,2.65,10,1.18,11.67.75,6.56-1.65,10.16-6.34,12.2-9,4.11-5.36,3.06-7.69,6-12.25,5.46-8.56,14.15-8.16,18.68-12.5C147.11,574.13,148,561.12,130.53,527.45Z" transform="translate(2.72 -0.48)"/><path class="cls-107" d="M163.83,512.25a107.1,107.1,0,0,0,.52,25.25c1.47,10.56,3.32,12.16,4.67,21.25A88.63,88.63,0,0,1,166.43,595c-2.69,9.46-5.43,19.12-14.27,27.25-8.41,7.73-21.33,13.15-24.91,9.75-2.26-2.15.35-6.7,6-22.25.71-2,6.49-18,9.86-31,4.41-16.93,2.26-19.12,5.71-32.5A117.83,117.83,0,0,1,163.83,512.25Z" transform="translate(2.72 -0.48)"/><path class="cls-108" d="M273,323.5a43.37,43.37,0,0,0-23,5.5c-3.68,2.12-9.5,5.58-12.5,12.5-1,2.38-2.79,6.45-1.25,10.5,2.8,7.35,14,8.19,15,8.25,8.91.55,15.46-4.74,19.5-8,7.81-6.31,17.81-18.77,14-25C284.09,326.16,281.79,323.28,273,323.5Z" transform="translate(2.72 -0.48)"/><path class="cls-109" d="M195.25,282.5c-1.32-.16-4.68-.37-7,1.75-2.54,2.32-2.31,6-2,10s.9,11.6,7,18c4.19,4.39,11.2,8.4,13.5,6.5,2.51-2.08-3.57-8.77-.75-15.75s11.69-7.38,11.75-10.75C217.79,289.77,213.07,286.52,195.25,282.5Z" transform="translate(2.72 -0.48)"/><path class="cls-110" d="M223.25,327.75a34.48,34.48,0,0,0-13.49-15,27,27,0,0,0-14-3.75c-1.6.05-4.37.15-4.93,1.5-.86,2,3.92,5.58,4.15,5.75,5.92,4.33,11.63,2.85,12.71,5.75.6,1.6-.45,3.93-2.08,5-4.37,2.89-11.1-4.5-15.56-2-3.48,1.95-3.7,8.84-1.82,13.5a12.29,12.29,0,0,0,5.71,6.75c6.21,3.06,11.55-2.44,15.83.5,3,2.05,3.32,6.73,3.63,11,.38,5.22-1,6.68.26,10,1.09,2.77,3.9,6.36,7,6.5,5.57.24,11.5-10.64,12.46-19.75C234.45,340.71,226.07,330.81,223.25,327.75Z" transform="translate(2.72 -0.48)"/><path class="cls-111" d="M95.07,591c-6.54,3.47-11.3,3.19-13.75,2.75-3.69-.66-6.95-2.61-13.49-6.5-4.17-2.48-4.58-3.11-7-4-6.25-2.29-9.85-.41-10.89-2-1.75-2.65,5.65-11.86,16.08-19,13.19-9,18.62-6.12,28-14.5,5.26-4.69,3.25-5.32,13.75-18.5,7.52-9.45,15-18.75,18.94-17.25,1.21.47,2.58,2.18,2.59,8.25a121.67,121.67,0,0,0-11.41,17.5A128.14,128.14,0,0,0,110.64,554c-4.08,11.08-3.5,14.08-7,22.25A71.74,71.74,0,0,1,95.07,591Z" transform="translate(2.72 -0.48)"/><path class="cls-112" d="M4.26,483.5a52.94,52.94,0,0,0,8.3,16.25c4,5.26,6.31,6.22,10.38,11.75,3,4.09,7,9.45,8.3,16.5,1.59,8.37-2.12,10.6-2.85,26.25-.51,11,1.16,13.19,2.34,14.25,3.94,3.56,11,2,17.12.5,14.5-3.47,15.41-9.34,28-14,16-5.9,22.5.2,30.36-7,7.58-6.94,7.53-18.14,7.52-20.25,0-3.94,0-10.79-4.67-15.75-5.55-5.95-12.62-3.71-27.76-7-10.19-2.21-17.15-5.44-26.46-9.75-14.2-6.57-21.64-10-29.58-17.5-6.44-6.06-9-10.84-12.72-10.25C8,468.23,5.55,476.68,4.26,483.5Z" transform="translate(2.72 -0.48)"/><path class="cls-113" d="M465.24,420.75c-2.47-.41-6-.58-9.14,1.25-2,1.16-1.73,1.93-3.39,3-4.85,3.1-9.56-1.75-15.41.75-2,.86-1.11,1.29-7.31,5.75-3.71,2.67-4.78,3.05-5.74,3.25-4.38.89-8.28-1.82-8.88-2.25a14.66,14.66,0,0,1-5.48-14c1.17-6.84,7.05-8,6.52-13.75-.35-3.82-3.17-5.3-2.09-8s3.88-2.12,6-5.25c2-2.94.45-4.75,1.83-7.25,2.57-4.66,11.47-4.72,16.19-4.75,7.16-.05,13.5-.11,19.06,4,7.92,5.86,8.65,16.06,9.14,22.75A45.63,45.63,0,0,1,465.24,420.75Z" transform="translate(2.72 -0.48)"/><path class="cls-114" d="M607,409.75c-4.49-.3-11-.69-18.8-1-11.94-.48-17.9-.71-20.89-.25-14.65,2.28-26,11-28.46,13-7.39,5.91-9.3,10.27-12.53,9.5-4.22-1-7.13-9.89-4.44-16.25,1.55-3.66,4.2-4.69,10.44-9.25,11.73-8.56,10.55-10.86,16.45-14,5.56-3,13.71-2.43,29.77-1.25,27.53,2,30.21,5.61,31.07,7.5S611.07,403.4,607,409.75Z" transform="translate(2.72 -0.48)"/><path class="cls-115" d="M597.36,419.25c.44,2.32.75,6.14-1.57,8.5-.75.76-2.4,2-15.4,1-9-.7-12-1.59-14.89-3s-5.28-2.68-6-5.25.9-5.38,3.13-9a22,22,0,0,1,4.18-5.5c4.77-4.11,13.44-5.21,20.36-1.75C596.18,408.76,597.29,418.52,597.36,419.25Z" transform="translate(2.72 -0.48)"/><path class="cls-116" d="M557.15,273.5c-2.44,0-6.79.37-10.19,3.25-1.66,1.41-2,2.53-5,9.25-4.38,10.11-5.14,11.33-4.7,13.75.71,3.84,3.65,6.27,5.75,8,3.46,2.86,7.47,4.52,21.67,6.75,11.75,1.85,17.65,2.73,18.54,1,1.64-3.21-11.85-8.52-12.54-19.25-.37-5.89,3.46-8.19,2.09-12.75C571.15,277.94,563.6,275.07,557.15,273.5Z" transform="translate(2.72 -0.48)"/><path class="cls-117" d="M523.55,390.67q-6.49,1.84-13.23,4c-8.95,2.86-17.42,5.89-25.41,9,1.86,2.88,4.77,6.31,8.7,6.66s7.27-2.72,10.1-5c4.45-3.58,11.5-8,22.63-11Z" transform="translate(2.72 -0.48)"/><path class="cls-118" d="M602.3,124a10.3,10.3,0,0,0-5.92,4c-.26.37-2.85,4.26-1,8.33a9.66,9.66,0,0,0,5.23,4.67c3.33,1.51,8.87,2.29,12.88-.67,5.55-4.1,6.2-13.94,1-17.33C611.36,120.93,606.48,121.48,602.3,124Z" transform="translate(2.72 -0.48)"/><path class="cls-119" d="M584,159.5c-.82-2.63-1.42-2.79-1.3-3.75.38-3.22,7.37-3.91,7.31-5.75,0-1-2.21-1.6-8.88-3.5-11.93-3.39-10.81-3.17-12.27-3.5-5.79-1.31-9.1-1.59-9.14-2.5s2.85-.78,5.48-3c2.86-2.41,1.48-4.21,4.18-8,1.66-2.34,4.07-4.22,8.88-8,1.47-1.16,2.86-2.18,2.61-2.75s-2.33-.49-3.92,0c-2.93.91-4.27,3.13-6,5.25-2.52,3.08-4.92,4.82-8.62,7.5-5.74,4.16-7.66,3.57-10.44,7-.39.47-4.39,5.5-2.66,8.26,1.1,1.75,3.55,1.05,8.66,2.24a33.93,33.93,0,0,1,11.49,5c3.83,2.72,3.94,4.4,9.42,8.23,4.5,3.14,5.45,2.73,5.72,2.52C585.46,164.07,584.64,161.41,584,159.5Z" transform="translate(2.72 -0.48)"/><path class="cls-120" d="M544.88,134.5c-3.15-1.52-4.1-3.3-4.44-4.25-.54-1.49,0-4,1-9,.41-1.91.45-1.92.73-3.32.41-2.09,1.43-7.26.84-7.43-.42-.12-1.47,2.27-3.4,6.5-5.36,11.75-5.14,10.5-6,13-1,3-1.73,6.75-3.14,14.25-.9,4.82-1,5.88-1.82,9.75-1.33,5.87-1.81,6.1-2.09,8.75-.64,6,1.07,12.45,2.61,12.5s1.08-5.42,5.22-12.5c4-6.78,7.45-7.19,9.92-12.5C545.78,147.2,547,142.22,544.88,134.5Z" transform="translate(2.72 -0.48)"/><path class="cls-121" d="M519.29,124.25c-1.42,2.6-5.08,9.7-3.14,11.25a7.58,7.58,0,0,0,2.62.5c2.86.33,4.29.5,5,.25,2.68-1,4.71-6.78,1.82-10C523.41,123.85,519.72,124.2,519.29,124.25Z" transform="translate(2.72 -0.48)"/><path class="cls-122" d="M507.28,131.25a61.14,61.14,0,0,1,5.74,24c.17,6.08.25,12.75-4.18,18.75-3.3,4.47-8.9,8.29-11.22,7-1.54-.85-.24-3.16-1.57-7.75-1.84-6.33-6-7.69-5.22-10.75s4.84-2.09,8.09-6,1.34-7.31,3.4-14.75A34.79,34.79,0,0,1,507.28,131.25Z" transform="translate(2.72 -0.48)"/><path class="cls-123" d="M608.85,170a21.08,21.08,0,0,1,0,5.5c-.63,4.61-2.43,5.82-1.83,8.75s2.7,3.26,2.61,5.5-2.3,3.39-5,5.75c-5.27,4.66-3.33,6.2-8.62,11.5-4.75,4.76-6.29,3.49-10.18,8.25-1.91,2.34-2.64,4-4.7,4.5-3.14.77-7.38-1.62-7.31-3.5.09-2.49,7.66-2.08,15.66-8.5,3.44-2.76,6-6,5.23-7.25-.56-.89-2.48-.2-6-1.5-1.35-.5-3.12-1.15-3.13-2,0-1.3,4.13-2.38,6.52-3,6.43-1.66,9.23-1.05,9.67-2.25.57-1.58-3.2-5.69-7.84-6.25-7.33-.88-12.82,7.58-15.66,5.75-1.14-.73-1.28-2.74-.79-4,.74-1.9,3.09-2.63,5.23-3.25,6.37-1.84,11-2.64,12.53-3C598.88,180.17,603.82,177.69,608.85,170Z" transform="translate(2.72 -0.48)"/><path class="cls-124" d="M574.9,223.75a59.34,59.34,0,0,0,9.4-4.25c3.73-2.09,9.61-5.4,14.36-11.5,3.2-4.11,2.45-5.07,6.27-9.75,3.15-3.87,6.68-8.19,9.14-7.5,4,1.11,5.71,15.44-.26,19.75-3.08,2.22-5.52-.16-11.23,2s-6.39,5.78-11.49,8.75C588,223.08,582.94,224.77,574.9,223.75Z" transform="translate(2.72 -0.48)"/><path class="cls-125" d="M442,197.75a37.21,37.21,0,0,1,10.45-7.25c4.12-1.91,9.47-4.39,14.88-2.5a12.33,12.33,0,0,1,3.91,2.25c.18,1.41.17,3.29-1,4.5-2,2-6.2.94-8.88.5C457,194.54,450.68,194.49,442,197.75Z" transform="translate(2.72 -0.48)"/><path class="cls-126" d="M433.65,228a60,60,0,0,1,7.57-5.5c3.56-2.19,10.15-6.23,11.75-4.75,1.35,1.26-.69,6.68-4.7,9.5C442.34,231.42,434.39,228.3,433.65,228Z" transform="translate(2.72 -0.48)"/><path class="cls-127" d="M383.25,191.25A17.61,17.61,0,0,1,392,192.5c1.94.83,6,2.56,7.5,6.75.26.73,1.51,4.6-.25,6.25-2.95,2.75-11.88-3-13.75-4.25-1.5-1-8.71-5.65-7.75-8.25C378.27,191.6,381,191.28,383.25,191.25Z" transform="translate(2.72 -0.48)"/><path class="cls-128" d="M494,130.75a16.07,16.07,0,0,1,3.66,4.5c3.68,6.83,1.13,14.76.26,14.75-.45,0-.39-2.11-2.09-10.75C495.08,135.67,494.43,132.74,494,130.75Z" transform="translate(2.72 -0.48)"/><path class="cls-129" d="M533.91,299.5a24.9,24.9,0,0,0-13.32-1.75c-4.22.68-5.62,2.23-12.79,4-4.23,1-6.35,1.57-9.14,1.5-7.63-.18-15.32-4.58-14.88-7,.09-.5.61-1.38,11.49-3.25,7.73-1.33,11.6-2,17.49-2.25,8.62-.38,13.55-.55,19.32,1.75,4.3,1.71,9.12,4.81,8.62,6.25C540.32,299.83,537,299.78,533.91,299.5Z" transform="translate(2.72 -0.48)"/><path class="cls-130" d="M604.93,321.25c5.11-.43,8.51-2.88,8.62-5.25a3.71,3.71,0,0,0-1.57-3c-1.56-1.11-2.78-.05-7.05,0a25.82,25.82,0,0,1-10.18-2.14h0c-1.12-.55-1.4-.91-1.54-.85s-.1.85.78,3.5c-9.65-1.81-11.91-1.85-12-1.5-.16.59,5.45,2.73,9.66,4,2.81.85,3.68.91,6,1.75A39.39,39.39,0,0,1,604.93,321.25Z" transform="translate(2.72 -0.48)"/><path class="cls-131" d="M507.8,307.5l-20.89-7.75a62.18,62.18,0,0,1-2.65,12.85c-1.56,4.86-3,7.23-2.83,11.4.09,2.2.26,6.32,3.13,8.5,4.66,3.53,14.52.5,17.23-4.75,1.65-3.19-.36-5.23.76-10.48A21.07,21.07,0,0,1,507.8,307.5Z" transform="translate(2.72 -0.48)"/><path class="cls-132" d="M568.37,389.25c-1.61,5.76-3,7-3.91,7s-1.18-1-2.87-1.75a8.86,8.86,0,0,0-5-.25c-4.31.59-6,2.23-6.79,1.5s.22-3,.78-4.25,1-2.3,2.09-2.75c1.49-.65,3.23.32,4.18.75C559.06,390.48,562.56,391.06,568.37,389.25Z" transform="translate(2.72 -0.48)"/><path class="cls-62" d="M482.73,335c-.28-.75-2.09-5.27-6.52-6.5-2.89-.8-5.31.22-8.36,1.5s-8.75,3.68-10.18,8.5c-.8,2.67.52,3.4,1.3,9a44.43,44.43,0,0,1-.26,13c-.76,4.32-2.08,7.32-4.7,13.25-3.42,7.75-4.62,8.27-4.87,11.58-.49,6.56,3.6,12.95,5.66,12.67,1.37-.19.81-3.22,3.39-8.75,1.85-4,4.19-6.79,8.09-11.5s4.33-4.37,5.23-6.25c1.06-2.24.9-6.19.52-14a123.94,123.94,0,0,1,0-12.5c.19-3.78.45-5.33,1.56-6.75C476.12,335,481.06,335,482.73,335Z" transform="translate(2.72 -0.48)"/><path class="cls-133" d="M499.7,439.75c1.73-1.18,3.76-1,4.7,0a2.75,2.75,0,0,1,.27,3c-1.1,2.23-5.23,2.83-6.27,1.5C497.7,443.35,498.34,441.49,499.7,439.75Z" transform="translate(2.72 -0.48)"/><path class="cls-134" d="M614.59,468.5a25.88,25.88,0,0,0-6.79.75c-2.43.61-3.88,1-4.7,2.25s-.51,2.8,0,5c.6,2.6,1.11,4.79,3.13,6.75a11.55,11.55,0,0,0,7.32,3Q614.06,477.37,614.59,468.5Z" transform="translate(2.72 -0.48)"/><path class="cls-135" d="M601.8,502.5a25.3,25.3,0,0,0-11-4.5A26,26,0,0,0,577,499.75c-5.32,2.29-4.41,4.2-9.4,6.75-8.39,4.3-16.87,1.92-17.75,5-.21.71.12,1.64.78,3.5.93,2.64,1.84,3.13,2.09,4.25.87,4-8.45,8.18-7.83,9.5.44,1,5.6-.56,15.92-3,5.89-1.39,9-2.13,13.32-3,8.68-1.76,9-1.39,11.75-2.5,4-1.57,3.16-2.22,11.49-7.25,5.28-3.19,7.77-4.25,7.83-6.25C605.24,504.93,603.27,503.41,601.8,502.5Z" transform="translate(2.72 -0.48)"/><path class="cls-136" d="M583.78,547.75c.06,5,.17,9,.26,11.75.26,7.92.53,11.14-1.57,12.5-1.83,1.19-3.6-.26-6.52,1-3.42,1.47-3.91,5.14-4.7,5-1.21-.21-.08-6.13.26-17.5.12-4.09.1-7.77,2.61-11.25.81-1.12,2.13-2.9,4.44-3.25A6.82,6.82,0,0,1,583.78,547.75Z" transform="translate(2.72 -0.48)"/><path class="cls-137" d="M587.44,584.5a6,6,0,0,0-7.32-1c-2.59,1.74-2.8,5.73-1.3,7,.41.35.92.47,3.65.25,5.22-.42,6.29-1.1,9.4-1,2.53.08,3.76.6,3.92.25S594.54,588.31,587.44,584.5Z" transform="translate(2.72 -0.48)"/><path class="cls-138" d="M445,545c0,2,0,5-.25,8.75-.95,13.09-4.06,19.5-2.25,20.5s6.43-3.28,8.75-8c1.35-2.74,1.48-6.14,1.75-13,.14-3.6,0-6.12-1.25-8.8-.56-1.19-2-4.15-3.75-4C446.66,540.62,445.39,542.45,445,545Z" transform="translate(2.72 -0.48)"/><path class="cls-139" d="M435.5,563.75c1.05-2.73,2.79-4.28,4-4,1.05.24,1.53,1.8,1.75,2.5.59,1.88.5,4.7-.75,5.25S437.14,566.59,435.5,563.75Z" transform="translate(2.72 -0.48)"/><path class="cls-140" d="M434,548a7.37,7.37,0,0,1-4.25,4.25,7.17,7.17,0,0,1-5-.25c-3.21-1.21-5.95-4.5-5.25-6,.2-.42.58-.54,5.75-1.25,3.51-.48,4.12-.54,5-.25A7,7,0,0,1,434,548Z" transform="translate(2.72 -0.48)"/><path class="cls-141" d="M408.75,566a13.39,13.39,0,0,1,6-1.25,14.55,14.55,0,0,1,7.75,2.75c1.76,1.12,6.69,4.27,6.25,7.5-.24,1.75-1.82,1.78-2.5,4.25s.67,3.82-.25,5.25c-1.1,1.71-4.13,1.56-5.5,1.5a13.89,13.89,0,0,1-8-3.25,13.39,13.39,0,0,1-5.25-7.75A13,13,0,0,1,408.75,566Z" transform="translate(2.72 -0.48)"/><path class="cls-142" d="M383.5,539.5a22.86,22.86,0,0,0,5,5c4.53,3.29,10.49,5,11.25,3.75.37-.6-.79-1.41-4.75-6.75-2.72-3.66-3.15-4.61-4.5-5C387.8,535.72,384.85,538.2,383.5,539.5Z" transform="translate(2.72 -0.48)"/><path class="cls-143" d="M399.25,584.5c-9.64-4-12.2-3.86-12.75-3s1.08,3.27,1.25,3.5c2.11,2.85,5,3,5,3.75-.07,1.19-7.16,3-15,1.5-4.26-.84-7.37-2.4-13.5-5.5-3.85-1.94-6.93-3.74-9-5a17.27,17.27,0,0,0,5.5,7.75c2.09,1.62,4.67,2.35,9.75,3.75,5.28,1.45,4.23.66,12.25,2.5,3.77.86,5.28,1.33,7.5.75a11.72,11.72,0,0,0,5.5-3.5A14.2,14.2,0,0,0,399.25,584.5Z" transform="translate(2.72 -0.48)"/><path class="cls-144" d="M400,592.5c1.64-.34,2.31.76,6.5,3,3.67,2,5.48,2.36,5.5,3.5,0,1-1.27,1.72-1.75,2-2.54,1.48-5.54.48-7,0s-6.56-2.17-6.5-5A4.16,4.16,0,0,1,400,592.5Z" transform="translate(2.72 -0.48)"/><path class="cls-145" d="M396.75,644.5c2.84,2,4.37,1.94,5.25,1.5,1.21-.61,1.29-2.09,3-2.75a3.06,3.06,0,0,1,2.5,0c1.19.7,1.22,2.49,1.25,3.75,0,1.42.06,2.7-.75,3.5s-1.87.66-6,0c-6.2-1-7-1.27-7.25-2C394.65,648.22,394.28,647,396.75,644.5Z" transform="translate(2.72 -0.48)"/><path class="cls-146" d="M372.75,603.25a8.89,8.89,0,0,1-1.75,2.5c-1.62,1.62-3.4,2.07-7.75,3-7.09,1.52-7.92,1.51-8.25,1-.72-1.14,2.27-2.92,2-6s-3.51-4.5-3-5.5c.41-.81,2.59,0,7.25.5,5.52.56,7.72-.09,9.75,1.75A6.5,6.5,0,0,1,372.75,603.25Z" transform="translate(2.72 -0.48)"/><path class="cls-147" d="M350.5,616.75a19,19,0,0,1,7-3.75c1.77-.49,2.79-.46,5.5-1a48.64,48.64,0,0,0,6.5-1.75,14.08,14.08,0,0,1-3.25,5.5,12.61,12.61,0,0,1-4.25,3C356.7,620.86,351.17,617.2,350.5,616.75Z" transform="translate(2.72 -0.48)"/><path class="cls-148" d="M359.67,647.83a5.14,5.14,0,0,1,2.66-2.33c1.6-.53,2.63.27,4.34,0a6.47,6.47,0,0,0,4-2.67,6.69,6.69,0,0,1,.16,4.5c-1.15,3.42-4.83,4.27-5.16,4.34a7.58,7.58,0,0,1-5.17-.84C360.22,649.83,359.94,648.83,359.67,647.83Z" transform="translate(2.72 -0.48)"/><path class="cls-149" d="M331.83,666.67c-.07-.87,1.53-1.95,3-1.84,1.09.09,2.37.85,2.34,1.67s-1.37,1.4-2.34,1.5C333.52,668.14,331.91,667.49,331.83,666.67Z" transform="translate(2.72 -0.48)"/><path class="cls-150" d="M304.17,526.67a8.14,8.14,0,0,1,3.33,3.83c.41,1,1.2,3,.17,4.5s-3.1,2-4.17,1.33C301.24,534.87,303.88,527.47,304.17,526.67Z" transform="translate(2.72 -0.48)"/><path class="cls-151" d="M306.17,541c.8-.35,1.93.37,2.5,1,.07.08,1.39,1.59.66,3a2.58,2.58,0,0,1-3.33,1C304.46,545.08,304.83,541.58,306.17,541Z" transform="translate(2.72 -0.48)"/><path class="cls-152" d="M301.63,583.5a8.33,8.33,0,0,0-2.25,5.5,7.2,7.2,0,0,0,1.62,4.88c1.91,2.17,5.63,3.28,7.13,1.87s0-5.36-.25-6A12.54,12.54,0,0,0,301.63,583.5Z" transform="translate(2.72 -0.48)"/><path class="cls-153" d="M305.88,519.75a9.13,9.13,0,0,0,.62-4.87c-.37-2.18-1.45-2.94-2.62-5-.25-.44-3.41-6.16-1.5-11.38.33-.93,1.34-3.71,3.75-4.37,2.12-.6,4.16.79,5.37,1.62a10.32,10.32,0,0,1,3.5,4.13,11.26,11.26,0,0,1,.75,6.62c-.21,1.47-1.1,3.31-2.87,7-1.53,3.16-2.15,4-3.13,4.75A8.06,8.06,0,0,1,305.88,519.75Z" transform="translate(2.72 -0.48)"/><path class="cls-154" d="M243.67,517.33a32.21,32.21,0,0,0,6-9.16c1.83-4.28,2.31-8,2.83-12.17.8-6.29.06-7.3,1.17-12.5.64-3,1-3,2.33-8,.67-2.44,3.26-11.82,2.33-12.17-.55-.2-1.9,3-6,10s-4.1,6.17-7.33,11.84c-4.2,7.37-4.18,8.82-7,11.33a24.69,24.69,0,0,1-8.17,4.67c-5.6,1.89-8.92.68-9.66,2.33-.94,2.08,3.37,6.1,6.16,8.17S234.66,517,243.67,517.33Z" transform="translate(2.72 -0.48)"/><path class="cls-155" d="M277.67,448.33c-1.49.26-3.62.64-6.17,1.17-2.83.59-4.24.89-5.83,1.33a34,34,0,0,0-10.17,4.34c-3.05,2-2.27,2.48-5,4.33-4,2.72-6.52,2.32-11.83,4.33-1.93.74-1.88.89-9,4.84-9.79,5.41-14.69,8.11-15.17,7.5s2.29-5.23,6.83-7.67c3.72-2,7.21-1.88,8-4.17.43-1.23-.66-1.73-.5-3.16s1.39-3.06,9-6.17c3.45-1.41,6-2.22,11.5-4,7.35-2.38,7-2.31,7.67-2.5C261.24,447.28,267.93,446.3,277.67,448.33Z" transform="translate(2.72 -0.48)"/><path class="cls-156" d="M279.5,437a3.61,3.61,0,0,1,2.67.5,2.81,2.81,0,0,1,1.33,2A2.37,2.37,0,0,1,282,442c-1.36.35-2.44-1.25-2.5-1.33A3.91,3.91,0,0,1,279.5,437Z" transform="translate(2.72 -0.48)"/><path class="cls-157" d="M306.33,317a16.2,16.2,0,0,1,7-2.33c2.39-.21,5.86-.51,7.84,1.83a5.77,5.77,0,0,1,1,5.5,5.58,5.58,0,0,1-3.34,3.33c-1.19.42-1.66.06-4.33,0-3.43-.07-3.44.5-4.83.17-2.91-.69-5.82-3.87-5.17-6.33A3.61,3.61,0,0,1,306.33,317Z" transform="translate(2.72 -0.48)"/><path class="cls-158" d="M305.67,350.67a28.55,28.55,0,0,1,7.5,2c3.63,1.52,7.86,3.29,9.66,7.5a11.83,11.83,0,0,1,.17,8.33l-7.17-4.33c-2.26-1.38-3.51-2.14-5.16-3.34-4.78-3.45-5.33-5-5.5-5.66A6.87,6.87,0,0,1,305.67,350.67Z" transform="translate(2.72 -0.48)"/><path class="cls-159" d="M361.67,344.5c-2.44-3.86-5.06-4.51-6-4.67s-2.17-.07-7.17,1.84c-6.16,2.35-5.55,2.6-7,2.83-6.14,1-10-4.71-12.33-3-1.42,1-1.41,4.17-.17,6,1.36,2,3.32,1.14,7.17,3,4.5,2.18,4.82,4.81,8.33,5.33.42.07,2.15.29,5.33-1C355.85,352.41,359.66,347.6,361.67,344.5Z" transform="translate(2.72 -0.48)"/><path class="cls-160" d="M302.17,285.5c-1.74-5.85-3.41-10.44-4.67-13.67-.64-1.63-1.82-4.58-1.17-5,.41-.25,1.32.59,5.06,3.27,2.25,1.61,2.83,2,3.28,1.73,1.11-.57.27-4.19.16-4.66a15.49,15.49,0,0,0-1.83-4.34,18.65,18.65,0,0,0-3-4.33c-2.6-2.63-4.1-1.81-7-4.5-.41-.38-1.33-1.59-3.17-4-3.09-4.07-3.45-4.9-3.16-5.33.51-.78,2.44.63,4.5-.34s2.39-3.78,3.33-3.66,1.2,2.21,1.5,3.83c.68,3.69,0,4.42.67,6,1,2.51,4.45,4.8,7,3.83,2.3-.87,3-4.07,3-6,0-4.32-3.77-7.24-5.17-8.33-3-2.32-5.81-2.9-10.67-3.83s-9.55-1.78-15,0c-2.78.91-5.06,1.65-6,3.66-1.21,2.61.67,5.53,5.34,13,9,14.45,10.23,16.68,10.33,20.34.12,4.53.2,7.21-1.33,10.16-1,1.88-2.8,4.27-2.17,6.84a3.77,3.77,0,0,0,1,1.83,4.61,4.61,0,0,0,3.67,1c3.21-.44,3.3-3.84,6-4.5,3.45-.84,6.29,4,8.33,3C301.83,291.1,302.55,289.72,302.17,285.5Z" transform="translate(2.72 -0.48)"/><path class="cls-161" d="M255.33,293.17a64.18,64.18,0,0,0-11-5.67,86.44,86.44,0,0,0-11-3.33c-6.46-1.7-12.15-3.2-12.5-2.34-.19.48,1.38,1.43,5.5,4.17,8.48,5.62,8.25,5.83,9.84,6.67C238.76,294,244.69,296.25,255.33,293.17Z" transform="translate(2.72 -0.48)"/><path class="cls-162" d="M148.78,283.17a8.07,8.07,0,0,1,3.12-2.84,8.29,8.29,0,0,1,5.7-.66,7.25,7.25,0,0,1,4.33,2.83,6.69,6.69,0,0,1,.17,7,7.65,7.65,0,0,1-4,3.17,11.61,11.61,0,0,1-7.61,0c-2.62-.68-5.11-1.33-5.71-3.17S145.78,284.93,148.78,283.17Z" transform="translate(2.72 -0.48)"/><path class="cls-163" d="M168.5,632.33a49.94,49.94,0,0,1,9.69.34,48.08,48.08,0,0,1,6.57,1.33,37.53,37.53,0,0,1-7.26,4.33,39.07,39.07,0,0,1-13.15,3.34Z" transform="translate(2.72 -0.48)"/><path class="cls-164" d="M159.33,622c.9,1.56,2.25,1.42,5.75,3.14s3.95,2.69,5.32,2.36c.81-.19.76-.59,3.29-2.67,1-.79,1-.76,2.77-2.16,2-1.58,3-2.38,2.94-2.67-.15-1.26-5-1.59-11.24-2-6.81-.44-8.55-.1-9.17,1S159.22,621.79,159.33,622Z" transform="translate(2.72 -0.48)"/><path class="cls-165" d="M164,607.5c1.86,1.1,2.84,1.68,4.16,1.67.51,0,1.19-.1,5.18-2.84,2.78-1.89,3.16-2.33,3.12-2.83-.11-1.19-2.62-1.87-3.12-2-5.48-1.48-12.25,1.72-12.1,3.75C161.28,605.89,162.19,606.43,164,607.5Z" transform="translate(2.72 -0.48)"/><path class="cls-166" d="M185.63,588c.94-1.25,2.23-3.07,3.63-5.33,2.74-4.46,4.12-6.68,4.15-9,.05-3.7-2.89-4.08-5.36-9.17-2.74-5.63-3.13-13.38.34-18.5,1.61-2.36,2.48-1.89,4-4.5,2-3.51,3.3-9.36.17-12.67a7.58,7.58,0,0,0-4.49-2.16c-2.48-.25-4.31,1-6.4,2.33s-5.91,3.89-5.88,7.17c0,1.56.89,2,.69,3.83s-1.23,2.39-1.9,4c-1.06,2.51.18,4.22.86,8.33s-.24,4.67.17,8.17c.86,7.27,5.14,7.31,6.4,14s-2.11,11.93.35,13.5A4,4,0,0,0,185.63,588Z" transform="translate(2.72 -0.48)"/><path class="cls-167" d="M171.27,545.83a15.84,15.84,0,0,1-.52,3.5c-1,3.74-2.82,5-4.67,8.34a25.72,25.72,0,0,0-2.77,8.66c-.82,5.24.43,7.1-1.21,8.67-2.31,2.21-6.69.36-7.44,2-.6,1.33,2.29,2.57,2.6,5.67.18,1.88-.79,2.46-2.42,6.33-1.27,3-2.27,5.35-2.25,8.17,0,2.66.94,7.09,3.28,7.66,2.65.65,6.27-3.83,8-7.5,1.88-4.08.42-5.07,1.9-10.33,1.75-6.18,4.16-6.16,5.88-12.5a85.64,85.64,0,0,0,1.22-9.67c.81-8,.45-7.82,1-10.5,1.35-6.17,3.72-9.23,2.6-10.16C175.93,543.73,174.62,543.77,171.27,545.83Z" transform="translate(2.72 -0.48)"/><path class="cls-168" d="M128,557.83c.26-.39,1.72-2.58,4-2.66,2-.08,3.45,1.57,4.67,3a18.18,18.18,0,0,1,3.81,8.33c.68,2.88.69,5.14.69,9.67,0,5.87-.61,6.24-.86,6.33-1.52.5-4.51-4.34-5-5.17-2-3.3-2.61-5.75-4.5-11.5C130.19,564,129.26,561.23,128,557.83Z" transform="translate(2.72 -0.48)"/><path class="cls-169" d="M144.46,531.5a9.87,9.87,0,0,1,5.88,2.33,8.6,8.6,0,0,1,2.59,4c.94,3.36-1.06,5.54-2.59,10.67a34.73,34.73,0,0,0-1.39,8.17,26.88,26.88,0,0,1-6.4-10.5c-.84-2.68-1.84-6-.69-9.84A14,14,0,0,1,144.46,531.5Z" transform="translate(2.72 -0.48)"/><path class="cls-170" d="M152.76,519.17c-2-1.89-3.49-3.52-4.5-4.67s-3.4-3.94-6.4-7c-1.81-1.85-2.32-2.24-3.11-2.33-2.3-.27-4.83,2.29-5.88,4.83-1.42,3.43.67,4.84-.35,7.67-1.85,5.18-10.73,5.65-10.55,7.5.13,1.26,4.42,2.22,8.56,2.28S142.91,526.73,152.76,519.17Z" transform="translate(2.72 -0.48)"/><path class="cls-171" d="M97.75,536.33a12.79,12.79,0,0,0,5.54,1.67c9.76.54,16-11.45,16.43-12.33,1.62-3.22,3.39-8.55,1.73-9.67-2-1.36-8.27,4-9.86,5.33a63.75,63.75,0,0,0-6.4,6.67C103.19,530.25,99.94,533.89,97.75,536.33Z" transform="translate(2.72 -0.48)"/><path class="cls-172" d="M83.22,564.33A44.94,44.94,0,0,1,91,560.5c4.87-1.84,7.71-1.93,14.18-3.33.64-.14,6.34-1.4,12.8-3.5,4-1.31,15.6-5.09,15.22-8.17-.16-1.34-2.46-1.53-2.76-3.5s1.89-3.23,1.38-4.67-3.22-1.74-4-1.83c-19-2.2-32.17,6.17-32.17,6.17s-6.43,4.1-14.89,17.23c-.55.84-1.43,2.33-.85,3.6S82.54,564.23,83.22,564.33Z" transform="translate(2.72 -0.48)"/><path class="cls-173" d="M82.71,588.17a15.41,15.41,0,0,1,3.28-1.5c1.81-.59,3.56-1.16,5.36-.5.1,0,2.54,1,2.6,2.5s-1.87,2.42-2.94,3c-3.29,1.75-8.41,2.54-9.52.66C81.28,592,80.83,590.83,82.71,588.17Z" transform="translate(2.72 -0.48)"/><path class="cls-174" d="M71.81,587.5c.14.13,3.16,2.64,6.4,1.5,1.32-.46,3.12-1.69,3.11-3.17s-1.77-2.41-4.67-4a41.84,41.84,0,0,0-7.44-3c-4.26-1.43-5.08-1.42-5.71-1.33a8.3,8.3,0,0,0-5.18,3.33Z" transform="translate(2.72 -0.48)"/><path class="cls-175" d="M43.44,587.17c-3.84-1.92-5.09-4-5.54-5.5-1.53-5.13,4.56-9.14,2.6-14-.81-2-2.87-3.86-4.84-3.84-2.65,0-3.1,3.38-7.44,7.84-5.1,5.23-8.72,5-10,9.16a9.3,9.3,0,0,0,.35,6.17c1.44,3.43,4.65,4.93,6.23,5.67,2.54,1.18,4.67,1.3,8.82,1.5,6,.27,10.5.48,11.59-1.67C45.42,592,46,590.46,43.44,587.17Z" transform="translate(2.72 -0.48)"/><path class="cls-176" d="M90.32,482.5A35.88,35.88,0,0,0,96.2,478a88.13,88.13,0,0,0,6-6.83c3-3.57,4.09-5,6.4-5.84,1.42-.51,3.65-.93,4.15-.16.61.93-1.87,2.76-4.32,7.16-1.58,2.84-2.82,5.07-1.9,6.67.61,1.07,2.37,1.51,5.88,2.33,2.2.52,4.06.82,5.36,1a14.45,14.45,0,0,1-3.11,2.5C105.25,490.46,92.09,483.47,90.32,482.5Z" transform="translate(2.72 -0.48)"/><path class="cls-177" d="M56.15,321c-2.18-3.22-5.66-5.05-8.82-4.5-3.65.64-5.57,4.26-6.23,5.5-1.77,3.34-.37,4.47-1.81,6.75-2.94,4.66-10.57,2.89-11.68,6.25-.63,1.94,1.19,4.67,3.38,5.75,3.08,1.52,7-.63,14.78-5,8.64-4.86,9.89-7.38,10.38-9A10.46,10.46,0,0,0,56.15,321Z" transform="translate(2.72 -0.48)"/><path class="cls-178" d="M128.28,252.5c16.83,11.44,23.37,12.74,25.69,10.75,1.71-1.46,1.45-4.95,4.15-6,2-.77,4.15.31,6,1.25s11.1,5.73,10.12,12.75c-.43,3-2.76,6.44-6,7.25-3.5.88-4.91-2.1-9.86-2.75-6.44-.84-8.22,3.69-14.53,3.5-7.7-.23-12.93-7.22-13.49-8C124.25,262.83,128,253.28,128.28,252.5Z" transform="translate(2.72 -0.48)"/><path class="cls-179" d="M149.82,385.25c-2-3-5.24-1.93-14.79-5.25s-13.5-6.94-15-5.5.13,6.47,2.86,9.75c2.09,2.52,4.35,3.38,4.15,5s-2.41,2.42-3.89,3c-5.39,2.11-8.52-1.23-13,.75-.49.22-3.28,1.46-4.15,4-.39,1.15-.69,3.42,5.19,11,5.26,6.79,8.69,11.21,12.71,10.75,1.87-.21,3-1.38,4.67-3,10.21-9.67,13-7.86,17.39-14C146.59,400.82,153.5,390.85,149.82,385.25Z" transform="translate(2.72 -0.48)"/><path class="cls-180" d="M128,312.75c-3.79-2.54-9-6-15.3-10-2.64-1.68-7.86-5-14.79-9.25-11.05-6.75-12.23-7.12-18.42-11.25-6.41-4.27-6.09-4.5-9.35-6.25-6-3.25-8.86-3.36-14.27-7-4-2.69-3-3-6.48-5.25-4.3-2.78-8.46-3.89-16.61-6-5.48-1.42-8.58-1.91-12.45-4.5s-4.12-4.28-4.15-5c-.08-1.51.89-2.16,3.63-6.25,1.16-1.74,1.9-3,3.37-5.5a52.75,52.75,0,0,0,3.89-7.25c1.69-4.33.8-5.22,2.34-7,2.43-2.8,6.7-2.95,8-3,3.12-.11,3.93.83,10.12,2.75,7.94,2.46,9.26,1.74,11.16,3.75,2.54,2.69,2.85,6.83,2.07,9.75-.88,3.32-2.82,3.69-4.41,6.75-3.46,6.68.67,14.79,1,15.5,2.71,5.15,6.86,6.55,15.31,11.25,12.39,6.89,8.47,6.68,25.95,17.25,8.66,5.25,12.75,7.19,22.83,13.75,3.62,2.36,6.57,4.37,8.56,5.75C129.41,308.08,128.72,310.42,128,312.75Z" transform="translate(2.72 -0.48)"/><path class="cls-181" d="M466.81,432.75A140.28,140.28,0,0,0,442.52,455a85.16,85.16,0,0,0-7.83,11.5c-5.77,10-5.22,13.55-4.7,15.25.7,2.3,2.11,3.8,4.18,6a32.58,32.58,0,0,0,9.4,6.75,43.78,43.78,0,0,0,20.1,5.25c7,0,6-1.92,20.63-5,11.28-2.38,15-1.89,18.28-5.5,2.89-3.17,3.25-7.09,3.65-11.5a38.29,38.29,0,0,0-2.61-17,42.68,42.68,0,0,0-17.23-21.5A44.61,44.61,0,0,0,466.81,432.75Z" transform="translate(2.72 -0.48)"/><path class="cls-182" d="M497.09,454.5c2.69,4.76,2.54,6.54,1.83,7.25-1.15,1.16-3.61-.65-7.05.5s-4.29,3.91-5.22,3.5-.56-4.6,1.31-7.75a7.48,7.48,0,0,1,3.91-3.75A7.35,7.35,0,0,1,497.09,454.5Z" transform="translate(2.72 -0.48)"/><path class="cls-183" d="M570.2,315.25a47,47,0,0,0-45.69-13.5c-4.43,1.13-10.14,2.6-14.88,7.25-1.86,1.82-4.15,4.71-7.84,18.75-3.06,11.65-4.59,17.47-4.7,25.25-.14,10.16-.23,16.31,3.92,22.25,3.68,5.27,6.51,4.37,15.41,13.5,5.63,5.78,5.12,6.78,9.13,9.75a36,36,0,0,0,17.5,6.75c2.3.22,8.27.78,13.84-1.5,11.21-4.58,8.47-15.62,20.36-30.75,10.69-13.6,20.61-14.48,20.89-23.5.16-5.17-3-9.1-8.88-16.5A89.32,89.32,0,0,0,570.2,315.25Z" transform="translate(2.72 -0.48)"/><path class="cls-184" d="M605.71,332.5c-6.29-6.39-11.92-11.4-16.19-15-11.26-9.5-15.32-11.14-18.53-12a34.93,34.93,0,0,0-15.15-.5,39.38,39.38,0,0,0-20.36,10.25A42,42,0,0,0,525,330.75c-2,5.23-2.24,10.81-2.61,21.75-.35,10.49-.5,15.8,1.31,19.5,3.49,7.16,10.19,10.58,15.92,13.5,4.44,2.26,12.32,6.28,22.46,5a33.37,33.37,0,0,0,11.49-3.75c2.84-1.46,7.8-4.44,19.84-20.5,10.17-13.56,11.43-17.84,12-20.5A34.88,34.88,0,0,0,605.71,332.5Z" transform="translate(2.72 -0.48)"/><path class="cls-185" d="M609.37,308.25c-4.32-3.31-5.76-.52-45.43,3.5-4.25.43-10.91,1.07-16.45,5.75-4.49,3.79-6.26,8.53-7.84,12.75-2.87,7.71-2.75,14.23-2.61,19,.22,7.51.33,11.27,2.61,15.25,2.44,4.25,7.58,7.22,17.76,13,6.75,3.83,10.19,5.76,13.05,6,7.31.62,13.1-3.5,20.11-8.5a61.89,61.89,0,0,0,14.88-14.25C616.35,345.41,621.7,317.7,609.37,308.25Z" transform="translate(2.72 -0.48)"/><path class="cls-186" d="M553,308l4.7,3.25a27.66,27.66,0,0,0-13.06,8.25,26.14,26.14,0,0,0-5,9c-1.19,3.63-.83,5.12-1.82,12.5-1.06,7.86-1.58,6.92-1.57,9.5,0,8.57,5.72,15.08,7.83,17.5a36.41,36.41,0,0,0,13.32,9.5l-7,12.75a49.78,49.78,0,0,1-14.91-7.46c-4.9-3.61-9.7-7.15-11.46-13-1.43-4.78.8-5.56.26-14.75-.43-7.36-1.9-7.58-1.57-12.75.35-5.35,2.19-9.24,4.44-14,2.75-5.81,4.52-9.54,8.36-13C541.36,309.94,548.57,308.45,553,308Z" transform="translate(2.72 -0.48)"/><path class="cls-187" d="M281.75,434.25a65.83,65.83,0,0,1,9.5-20A68.82,68.82,0,0,1,304,400.75c2.38-1.93-4,1.43,9.75-7.25,6.43-4.07,15.67-7.82,18.13-6.9,2.17.82.34,2.94,4.37,6.9,2.55,2.5,3.52,2.68,5.25,4.25,4.59,4.16,7.91,13.2,6.75,19.85-.95,5.39-1.37,5.53-4.75,10.9-2.45,3.91.5,8,.5,8,.57,2.19,1.08,2.57,1,3.5-.37,4.47-12.95,6.88-15,7.25-7.13,1.31-6.19,2.26-23-.12-3.91-.56-18.33-3.45-22-7.38A15.12,15.12,0,0,1,281.75,434.25Z" transform="translate(2.72 -0.48)"/><path class="cls-188" d="M275.5,433A82,82,0,0,1,254,395.5c-.09-.36,0-.18-2-10.75,0,0-3.85-6.25-3.5-25.5.07-3.73-.72-6.31.75-9,2.42-4.44,10-6.82,10.25-6.87,3-.66,1.62.93,7,.75,4.67-.16,4-.36,6.5-.13,4.36.4,5.39,2.15,12.25,5.25a39.11,39.11,0,0,1,6,3c7.28,4.46,6.89,17.81,6.75,22.5-.3,10.26-1,14.11-4.37,23-3.73,9.82-5.84,13.6-6.88,19.78-1.15,6.82-2.1,13.15-5.5,15.22C279.43,433.86,277.15,433.49,275.5,433Z" transform="translate(2.72 -0.48)"/><path class="cls-189" d="M266.67,419.67c-1.14-2.46-2.76-6.13-4.5-10.67-2-5.18-1.89-5.66-5.5-16.5-3.2-9.59-3.71-10.54-4-13.67-.46-4.94.6-5.07,0-10.5-.66-5.9-2.15-7.76-1.67-12a17.85,17.85,0,0,1,2.83-7.66,18.71,18.71,0,0,0,0,6.16c.38,2.16,1,3.42,4,9,2.66,5,4,7.49,5.34,9.84,2.79,4.94,2.52,4.26,3.83,6.66,3.29,6.06,3.07,6.88,6.33,13.17,2.79,5.36,3.49,5.8,4.67,9.17,1.3,3.72,2.28,6.65,1.17,10a11.29,11.29,0,0,1-5.34,6.16A10.9,10.9,0,0,1,266.67,419.67Z" transform="translate(2.72 -0.48)"/><path class="cls-190" d="M271.5,385.33a29.86,29.86,0,0,0,11.17-11.66,23,23,0,0,0,2.5-6.84,24.07,24.07,0,0,0-.17-8.5c-.49-3.37-1.15-7.81-2.67-8-1.16-.14-1.59,2.39-4.83,6.67-2.8,3.7-3.94,3.74-5.67,6.67a20.18,20.18,0,0,0-2.5,7.33A24.87,24.87,0,0,0,271.5,385.33Z" transform="translate(2.72 -0.48)"/><path class="cls-191" d="M614,308.25a138.29,138.29,0,0,0-15.41-7.5c-7.35-3-9-3-16.45-5.75-15.45-5.74-24.43-9.07-25.84-15.5-1-4.55,2.13-9-1-12.5-1.54-1.68-3-1.47-3.92-3.25s-.1-4,2.62-9.5,4.16-8.4,5.48-10.5A88.84,88.84,0,0,1,567.5,233c3.38-3.87,5.06-5.81,6.53-6.75,5.6-3.6,12.28-2.68,21.67-1.25A91.83,91.83,0,0,1,614,229.75Z" transform="translate(2.72 -0.48)"/><path class="cls-192" d="M417.72,244.5c4.15,5.55,5.1,10.12,5.22,13.25.15,4-1.06,5.51-.78,10.25a29.83,29.83,0,0,0,3.13,11.25c1.66,3.58,4.89,10.58,12.53,15.25,4.33,2.64,8.37,3.34,16.45,4.75,6.37,1.11,9.63,1.64,13.58.5,1.73-.5,9.23-2.92,11-8.5,1-3.09-.64-4.61,1-7.75,1.39-2.59,3.1-2.74,4.18-5.25a9.67,9.67,0,0,0,0-6.75c-1.62-5.07-6.22-6-14.1-11.75-7.7-5.64-6.43-7.06-13.32-11.5a43.69,43.69,0,0,0-14.36-6.5C431.61,239.34,422.28,242.53,417.72,244.5Z" transform="translate(2.72 -0.48)"/><path class="cls-193" d="M434.43,255c4.49,3,8.21,5.28,10.7,6.75,7.49,4.42,11.27,6.06,14.1,10.5a18.31,18.31,0,0,1,2.35,5.5c-2.1-1.36-5.44-3.49-9.66-6-5.9-3.52-7.76-4.37-10.18-6.5A28.57,28.57,0,0,1,434.43,255Z" transform="translate(2.72 -0.48)"/><path class="cls-194" d="M249.83,445.5c-7.84,2.48-14.4,3.62-18.7,3.5a49.1,49.1,0,0,1-20.63-5.5,35.06,35.06,0,0,1-12.5-10c-2.91-3.79-6.75-7.87-6.67-16,0-2.64-2.2-2.62-.42-8.37.44-1.42-.15-2.19.26-3.13.72-1.66,3.35-.76,5.66-2.83,1.28-1.14.86-1.75,2.67-4.17a23,23,0,0,1,3.17-3.33c6.35-5.9,5.89-5.15,7.33-7.17,3.13-4.37,6.95-1.84,8-4.33.28-.66.65-2.06,1.67-2.34.7-.19,1.18.3,1.83,0,.83-.37.71-1.44,1.17-1.83,1.82-1.59,10.33,6.17,10.33,6.17,5.51,5,7.87,8.05,13.33,13.66,5.7,5.85,5.12,4.6,8.17,8,7.61,8.51,5.94,10.44,12,16.5,5.3,5.3,10.31,7.56,9.67,10.67a4.33,4.33,0,0,1-2,2.5C267.52,442.11,254,444.75,249.83,445.5Z" transform="translate(2.72 -0.48)"/><path class="cls-195" d="M242.17,426.83c0-1.72-3.09-4.1-16.17-7.16,1.43.06,3.35-.08,4.33-1.34,2.37-3-2.42-10.46-.83-11.5.79-.51,2.31,1.1,3.67.34,1-.56.81-1.78,1.5-2,1.12-.37,2.6,2.52,4.5,4.5,4.32,4.51,11.79,5.31,12.66,3.83.35-.59-.54-1.24-2.16-4.33-2-3.83-1.7-4.83-3-7s-2.06-1.89-6.84-5.84c-5.37-4.43-8.83-7.83-8.83-7.83-2.2-2.16-4.1-4.2-5.33-3.67-.85.37-.49,1.57-1.5,2.34-1.85,1.39-4.89-1.17-6.17,0-.67.61-.21,1.64,0,4.83a31.21,31.21,0,0,1,0,5.17c0,.27-.68,5.16-4.17,8-1.33,1.09-2.61,1.48-11.66,2.66-6.64.87-8.49,1-8.67,1.84-.23,1.11,2.64,2.1,8.17,5.66A66.3,66.3,0,0,1,212,423.17c3.77,3.59,3.37,4.37,6.83,7.16,3.06,2.47,5.68,4.53,9.17,4.5,2.12,0,3.86-.95,7.33-2.83C239.73,429.62,242.13,428.32,242.17,426.83Z" transform="translate(2.72 -0.48)"/><rect id="clip" class="cls-1" x="2.72" width="613.55" height="792"/></g></g></svg>