<svg xmlns="http://www.w3.org/2000/svg" xmlns:xlink="http://www.w3.org/1999/xlink" viewBox="0 0 864 648"><defs><style>.cls-1,.cls-10,.cls-16,.cls-17,.cls-18,.cls-20,.cls-8{fill:none;}.cls-12,.cls-2{fill:#f2e4bb;}.cls-3{clip-path:url(#clip-path);}.cls-4{fill:#d9c146;}.cls-5,.cls-6{fill:#735673;}.cls-10,.cls-12,.cls-18,.cls-6,.cls-8{stroke:#000;}.cls-12,.cls-17,.cls-18,.cls-20,.cls-6,.cls-8{stroke-linecap:round;stroke-linejoin:round;}.cls-7{fill:#1d1c26;}.cls-16,.cls-8{stroke-width:2px;}.cls-9{fill:#593f73;}.cls-10,.cls-16{stroke-miterlimit:10;}.cls-11{clip-path:url(#clip-path-2);}.cls-13{fill:#bab0c0;}.cls-14{fill:#d9adb9;}.cls-15{fill:#594a42;}.cls-16{stroke:#1d1c26;}.cls-17{stroke:#735673;}.cls-19{fill:#384029;}.cls-20{stroke:#61438c;}</style><clipPath id="clip-path"><rect class="cls-1" x="-0.01" width="864" height="648"/></clipPath><clipPath id="clip-path-2"><polygon class="cls-2" points="509.04 333.06 557.94 333.06 528.81 259.71 509.04 259.71 507.29 259.71 487.52 259.71 458.39 333.06 507.29 333.06 509.04 333.06"/></clipPath></defs><title>Artboard 3 copy 2</title><g id="Layer_7" data-name="Layer 7"><g class="cls-3"><rect id="wall" width="864" height="432"/><rect id="floor" class="cls-4" y="432" width="864" height="216"/><rect class="cls-5" x="357.89" y="46.99" width="152.21" height="218.25"/><rect class="cls-6" x="375.54" y="63.64" width="116.91" height="184.95"/><rect class="cls-7" x="446.08" y="-5.56" width="3.43" height="253.66"/><rect class="cls-7" x="404.56" y="-5.56" width="3.45" height="181.96"/><path class="cls-2" d="M409.42,210.12h18.69s0,0,0-5.35c-.07-9.92-10.81-13.52-15.38-17.22s-3.07-10.5-3.07-10.5h-7.5s1.49,6.81-3.08,10.5-15.3,7.3-15.37,17.22c0,5.39,0,5.35,0,5.35h25.71"/><path class="cls-2" d="M451.31,280.58H470s0,0,0-5.35c-.07-9.93-10.81-13.52-15.38-17.22s-3.07-10.51-3.07-10.51h-7.5s1.49,6.81-3.08,10.51-15.3,7.29-15.38,17.22c0,5.38,0,5.35,0,5.35h25.72"/><rect class="cls-7" x="413.26" y="-6.27" width="3.45" height="228.29"/><path class="cls-2" d="M418.4,255.66h18.69s0,0,0-5.35c-.07-9.92-10.81-13.52-15.38-17.21s-3.08-10.51-3.08-10.51h-7.49s1.49,6.81-3.08,10.51-15.31,7.29-15.38,17.21c0,5.39,0,5.35,0,5.35H418.4"/><rect class="cls-8" x="831.06" y="338.1" width="3.16" height="2.11" rx="0.55" ry="0.55"/><path class="cls-9" d="M34,296.42H56.42a0,0,0,0,1,0,0v15.1a4.11,4.11,0,0,1-4.11,4.11H38.61A4.62,4.62,0,0,1,34,311v-14.6A0,0,0,0,1,34,296.42Z"/><path class="cls-9" d="M65.06,264.5c0-3.16-2.59-5.85-6.17-6.8V240.4h-5.7v17.3c-3.59.95-6.17,3.64-6.17,6.8a10.79,10.79,0,0,0,0,1.62V316H65V266.09h0A11.76,11.76,0,0,0,65.06,264.5Z"/><g id="cage_type_lamp" data-name="cage type lamp"><rect class="cls-5" x="18.28" y="37.54" width="64.69" height="10.11"/><rect class="cls-5" x="18.28" y="116.38" width="64.69" height="10.11"/><rect class="cls-5" x="18.28" y="220.48" width="64.69" height="10.11"/><rect class="cls-5" x="18.15" y="315.49" width="64.69" height="10.11"/><rect class="cls-5" x="71.72" y="38.67" width="10.11" height="392.17"/><polygon class="cls-5" points="28.15 41.83 18.05 39.83 18.05 432 28.15 432.17 28.15 41.83"/></g><path class="cls-9" d="M36.8,197.77H65.73a0,0,0,0,1,0,0V215.4a5.08,5.08,0,0,1-5.08,5.08H42.5a5.7,5.7,0,0,1-5.7-5.7v-17A0,0,0,0,1,36.8,197.77Z"/><g id="stand"><polygon class="cls-7" points="121.69 649.24 112.7 649.25 92.64 516.05 101.95 514.64 121.69 649.24"/><polygon class="cls-7" points="51.22 649.2 60.65 649.25 80.71 516.05 71.4 514.64 51.22 649.2"/><rect class="cls-7" x="30.88" y="514.64" width="111.59" height="5.8"/></g><path class="cls-7" d="M83,456.8s3.67,14.95-5.11,15.17-32.49,8.26-25.34,24.55,10.63,19,10.63,19h47.1s3.47-2.67,10.62-19S104.3,472.2,95.51,472s-5.1-15.17-5.1-15.17"/><rect class="cls-2" x="55.92" y="368.24" width="61.5" height="88.88"/><rect class="cls-10" x="65.1" y="377.62" width="43.15" height="66.13"/><rect class="cls-10" x="76.35" y="386.37" width="20.65" height="48.63"/><rect class="cls-10" x="84.6" y="396.87" width="4.15" height="27.63"/><circle class="cls-5" cx="643.39" cy="68.14" r="46.2"/><circle class="cls-6" cx="643.39" cy="68.14" r="38.59"/><line class="cls-6" x1="643.39" y1="95.65" x2="643.39" y2="101.65"/><line class="cls-6" x1="643.39" y1="34.65" x2="643.39" y2="40.65"/><line class="cls-6" x1="615.89" y1="68.15" x2="609.89" y2="68.15"/><line class="cls-6" x1="676.89" y1="68.15" x2="670.89" y2="68.15"/><line class="cls-6" x1="618.91" y1="80.69" x2="613.57" y2="83.42"/><line class="cls-6" x1="673.21" y1="52.88" x2="667.87" y2="55.62"/><line class="cls-6" x1="630.85" y1="43.68" x2="628.12" y2="38.34"/><line class="cls-6" x1="658.66" y1="97.97" x2="655.92" y2="92.63"/><line class="cls-6" x1="628.24" y1="91.11" x2="624.94" y2="96.11"/><line class="cls-6" x1="661.84" y1="40.19" x2="658.53" y2="45.2"/><line class="cls-6" x1="620.44" y1="53.01" x2="615.43" y2="49.7"/><line class="cls-6" x1="671.35" y1="86.6" x2="666.34" y2="83.3"/><line class="cls-6" x1="643.39" y1="67.82" x2="653.03" y2="58.18"/><line class="cls-6" x1="643.39" y1="68.14" x2="621.36" y2="74.45"/><polygon class="cls-2" points="509.04 333.06 557.94 333.06 528.81 259.71 509.04 259.71 507.29 259.71 487.52 259.71 458.39 333.06 507.29 333.06 509.04 333.06"/><path class="cls-5" d="M509.18,329.45s22.83-5.82,26.57,32.79S534.91,432,525,432.4a153.21,153.21,0,0,1-15.77,0h-2a153.37,153.37,0,0,1-15.78,0c-10-.41-14.53-31.55-10.79-70.16s26.57-32.79,26.57-32.79Z"/><polygon class="cls-2" points="509.04 333.06 557.94 333.06 528.81 259.71 509.04 259.71 507.29 259.71 487.52 259.71 458.39 333.06 507.29 333.06 509.04 333.06"/><g class="cls-11"><path class="cls-12" d="M488.89,274.32a23.68,23.68,0,0,0-1.1,22.47c3.88,8.41,13.58,12.93,22.63,11s16.16-10.34,14.87-20c-1.29-8.41-7.76-14.87-16.16-14.87-6.47,0-11.64,4.52-13.58,10.34s.64,11,5.82,14.23a10.48,10.48,0,0,0,14.87-5.82c1.29-5.18-4.53-11.64-10.35-7.76-1.94,1.29-3.23,3.23-1.29,5.17,1.94,1.29,4.53-3.23,6.46-.65,1.3,2.59-1.29,5.18-3.87,5.82a7.17,7.17,0,0,1-6.47-1.94c-3.88-5.82,0-13.58,7.11-14.87,7.76-1.29,13.58,6.47,12.93,13.58a14.58,14.58,0,0,1-8.4,11.64c-7.76,3.23-17.46-.65-20.69-8.41-1.94-5.82-2.59-12.28,1.29-17.46a20.15,20.15,0,0,1,29.1-3.87,22.39,22.39,0,0,1,6,25.87"/><path class="cls-12" d="M526.62,304.22a23.71,23.71,0,0,0-1.11,22.47c3.88,8.41,13.58,12.93,22.63,11s16.17-10.34,14.87-20c-1.29-8.41-7.76-14.87-16.16-14.87-6.47,0-11.64,4.52-13.58,10.34s.64,11,5.82,14.23A10.48,10.48,0,0,0,554,321.52c1.29-5.18-4.53-11.64-10.35-7.76-1.94,1.29-3.23,3.23-1.29,5.17,1.94,1.29,4.53-3.23,6.47-.65,1.29,2.59-1.3,5.18-3.88,5.82a7.17,7.17,0,0,1-6.47-1.94c-3.88-5.82,0-13.58,7.11-14.87,7.76-1.29,13.58,6.47,12.94,13.58a14.59,14.59,0,0,1-8.41,11.64c-7.76,3.23-17.46-.65-20.69-8.41-1.94-5.82-2.59-12.28,1.29-17.46a20.15,20.15,0,0,1,29.1-3.87,22.39,22.39,0,0,1,6,25.87"/><path class="cls-12" d="M480,317.06a23.71,23.71,0,0,0-1.11,22.47c3.88,8.4,13.58,12.93,22.63,11s16.16-10.35,14.87-20c-1.29-8.41-7.76-14.88-16.16-14.88-6.47,0-11.64,4.53-13.58,10.35s.64,11,5.82,14.22a10.48,10.48,0,0,0,14.87-5.81c1.29-5.18-4.53-11.64-10.35-7.76-1.94,1.29-3.23,3.23-1.29,5.17,1.94,1.29,4.53-3.23,6.47-.65,1.29,2.59-1.3,5.18-3.88,5.82A7.17,7.17,0,0,1,491.8,335c-3.88-5.82,0-13.58,7.11-14.87,7.76-1.29,13.58,6.47,12.94,13.58a14.59,14.59,0,0,1-8.41,11.64c-7.76,3.23-17.46-.65-20.69-8.41-1.94-5.82-2.59-12.28,1.29-17.46a20.15,20.15,0,0,1,29.1-3.88,22.41,22.41,0,0,1,6,25.88"/><path class="cls-12" d="M442.54,286.89a23.71,23.71,0,0,0-1.11,22.47c3.88,8.41,13.58,12.93,22.63,11s16.17-10.34,14.88-20c-1.3-8.41-7.76-14.87-16.17-14.87-6.47,0-11.64,4.52-13.58,10.34s.65,11,5.82,14.23a10.48,10.48,0,0,0,14.87-5.82c1.3-5.17-4.52-11.64-10.34-7.76-1.94,1.29-3.24,3.23-1.3,5.17,1.94,1.3,4.53-3.23,6.47-.64,1.29,2.58-1.29,5.17-3.88,5.82a7.23,7.23,0,0,1-6.47-1.94c-3.88-5.82,0-13.58,7.12-14.88,7.76-1.29,13.58,6.47,12.93,13.58A14.57,14.57,0,0,1,466,315.18c-7.76,3.23-17.46-.65-20.69-8.4-1.94-5.82-2.58-12.29,1.3-17.46a20.13,20.13,0,0,1,29.09-3.88,22.41,22.41,0,0,1,6,25.87"/><path class="cls-12" d="M535.68,260.29a23.68,23.68,0,0,0-1.1,22.47c3.88,8.41,13.57,12.93,22.63,11s16.16-10.34,14.87-20c-1.29-8.41-7.76-14.87-16.17-14.87-6.46,0-11.63,4.52-13.57,10.34s.64,11,5.81,14.23A10.49,10.49,0,0,0,563,277.59c1.29-5.17-4.53-11.64-10.35-7.76-1.94,1.29-3.23,3.23-1.29,5.17,1.94,1.29,4.52-3.23,6.46-.65,1.3,2.59-1.29,5.18-3.88,5.82a7.16,7.16,0,0,1-6.46-1.94c-3.88-5.81,0-13.57,7.11-14.87,7.76-1.29,13.58,6.47,12.93,13.58a14.58,14.58,0,0,1-8.4,11.64c-7.76,3.23-17.46-.65-20.69-8.41-1.94-5.82-2.59-12.28,1.29-17.45a20.14,20.14,0,0,1,29.1-3.88,22.39,22.39,0,0,1,6,25.87"/><path class="cls-12" d="M495.73,230.59a23.68,23.68,0,0,0-1.1,22.47c3.88,8.41,13.58,12.93,22.63,11s16.16-10.34,14.87-20c-1.29-8.41-7.76-14.87-16.16-14.87-6.47,0-11.64,4.52-13.58,10.34s.64,11,5.82,14.23a10.48,10.48,0,0,0,14.87-5.82c1.29-5.17-4.53-11.64-10.35-7.76-1.94,1.29-3.23,3.23-1.29,5.17,1.94,1.29,4.53-3.23,6.46-.65,1.3,2.59-1.29,5.18-3.87,5.82a7.17,7.17,0,0,1-6.47-1.94c-3.88-5.81,0-13.57,7.11-14.87,7.76-1.29,13.58,6.47,12.93,13.58a14.58,14.58,0,0,1-8.4,11.64c-7.76,3.23-17.46-.65-20.69-8.41-1.94-5.82-2.59-12.28,1.29-17.45a20.14,20.14,0,0,1,29.1-3.88,22.39,22.39,0,0,1,6,25.87"/><path class="cls-12" d="M447.65,243.6a23.71,23.71,0,0,0-1.11,22.47c3.88,8.4,13.58,12.93,22.63,11s16.17-10.34,14.88-20c-1.3-8.41-7.76-14.88-16.17-14.88-6.47,0-11.64,4.53-13.58,10.35s.65,11,5.82,14.23A10.48,10.48,0,0,0,475,260.9c1.3-5.18-4.52-11.64-10.34-7.76-1.94,1.29-3.24,3.23-1.3,5.17,1.94,1.29,4.53-3.23,6.47-.65,1.29,2.59-1.29,5.18-3.88,5.82a7.18,7.18,0,0,1-6.47-1.94c-3.88-5.82,0-13.58,7.12-14.87,7.76-1.29,13.58,6.47,12.93,13.58a14.59,14.59,0,0,1-8.41,11.64c-7.76,3.23-17.46-.65-20.69-8.41-1.94-5.82-2.58-12.28,1.3-17.46a20.15,20.15,0,0,1,29.09-3.88,22.42,22.42,0,0,1,6,25.88"/></g><rect class="cls-13" x="644.73" y="240.98" width="9.31" height="12.72"/><path class="cls-14" d="M650.45,333h20.21c27.49-81.1-3.86-70-3.86-70l4.09-10.33-20.44.22-1.06,0-1.06,0-20.44-.22L632,263s-31.35-11.13-3.87,70h22.34Z"/><rect class="cls-2" x="610.26" y="179" width="78.26" height="61.98"/><line class="cls-12" x1="688.44" y1="198.44" x2="649.39" y2="237.5"/><line class="cls-12" x1="688.44" y1="198.44" x2="649.39" y2="237.5"/><line class="cls-12" x1="650.44" y1="181.71" x2="611.39" y2="220.76"/><line class="cls-12" x1="661.49" y1="188.51" x2="622.44" y2="227.56"/><line class="cls-12" x1="679.49" y1="188.26" x2="640.44" y2="227.31"/><line class="cls-12" x1="630.21" y1="181.79" x2="619.94" y2="192.06"/><line class="cls-12" x1="680.96" y1="227.29" x2="670.69" y2="237.56"/><rect class="cls-5" x="589.64" y="332.57" width="119.5" height="3.16"/><rect class="cls-5" x="585.51" y="335.06" width="127.75" height="5.75"/><rect class="cls-5" x="588.28" y="340.81" width="122.22" height="90.75"/><rect class="cls-6" x="594.12" y="350.06" width="110.53" height="29.5"/><rect class="cls-6" x="594.12" y="390.88" width="110.53" height="29.5"/><circle class="cls-6" cx="649.39" cy="364.81" r="3.37"/><circle class="cls-6" cx="649.39" cy="405.63" r="3.37"/><g id="sofa_set" data-name="sofa set"><g id="carpet"><path class="cls-5" d="M818,576.24c0,24.71-46.08,45-70.51,55.61-42.32,18.4-85.93,22.84-137.27,18.47-73.78-6.3-207.78-34.56-207.78-74.08,0-40.91,93-74.07,207.78-74.07S818,535.33,818,576.24Z"/><path class="cls-14" d="M748.26,576.47c0,17.4-30.6,31.68-46.82,39.16-28.11,13-57.08,16.09-91.18,13-49-4.43-138-24.34-138-52.17,0-28.81,61.79-52.17,138-52.17S748.26,547.66,748.26,576.47Z"/></g><path class="cls-2" d="M687.4,501.19l-127.14,1.44a5.29,5.29,0,0,0-5.22,5.08l-.48,12.74a5.7,5.7,0,0,0,5.7,5.92H686.8Z"/><path class="cls-15" d="M689.79,530.26l41.06-166a4.93,4.93,0,0,0-3.68-6l-5-1.14a4.78,4.78,0,0,0-5.69,3.44L672.41,529.06Z"/><polygon class="cls-15" points="566.92 524.87 706.88 520.97 714.67 538.65 566.92 532.96 566.92 524.87"/><polygon class="cls-15" points="706.88 455.29 733.25 583.21 722.16 583.21 684.57 455.29 706.88 455.29"/><polygon class="cls-15" points="588.2 454.04 570.98 583.21 543.25 583.21 577.71 453.44 588.2 454.04"/><path class="cls-15" d="M558,451.44H730.25a3,3,0,0,1,3,3v0a3,3,0,0,1-3,3H557.65a2.71,2.71,0,0,1-2.71-2.71v-.18A3.1,3.1,0,0,1,558,451.44Z" transform="translate(21.54 -29.09) rotate(2.63)"/><g id="cup"><path class="cls-16" d="M520.55,502.69c.23-.27,3-3.52,5.53-2.75a3.88,3.88,0,0,1,2.08,1.94c2.29,3.92,4.39,12.33.12,16.33a5.88,5.88,0,0,1-4.47,1.84,5.08,5.08,0,0,1-2.88-1.4"/><path class="cls-7" d="M512.84,528.25H497.22a6,6,0,0,1-5.82-4.55A46.84,46.84,0,0,1,490,512.1a46.14,46.14,0,0,1,2.87-16h25.12a41.52,41.52,0,0,1,1.8,26.92A7.12,7.12,0,0,1,512.84,528.25Z"/></g><g id="l_shape_lamp" data-name="l shape lamp"><rect class="cls-7" x="669.33" y="288.91" width="4.54" height="325.25" transform="translate(1343.2 903.07) rotate(180)"/><rect class="cls-7" x="605.58" y="288.5" width="69.11" height="3.54" transform="translate(1280.27 580.54) rotate(180)"/><circle class="cls-2" cx="623.53" cy="320.32" r="22.47"/><path class="cls-7" d="M617.83,294.9a4,4,0,0,0,1.39,2.94h8.61a3.8,3.8,0,0,0,.09-5.8h-8.78A3.93,3.93,0,0,0,617.83,294.9Z"/></g><rect class="cls-7" x="624.03" y="613.93" width="93.33" height="8.14"/></g><rect class="cls-13" x="342.99" y="365.83" width="6.82" height="7.34"/><rect class="cls-2" x="297.88" y="302.27" width="97.03" height="64.17"/><polygon class="cls-5" points="361.84 372.91 361.14 372.91 331.66 372.91 330.96 372.91 321.53 413.98 330.96 414.03 330.96 414.05 331.66 414.05 361.14 414.05 361.84 414.05 361.84 414.03 371.27 413.98 361.84 372.91"/><polygon class="cls-5" points="361.84 432.35 361.14 432.35 331.66 432.35 330.96 432.35 321.53 414.09 330.96 414.06 330.96 414.05 331.66 414.05 361.14 414.05 361.84 414.05 361.84 414.06 371.27 414.09 361.84 432.35"/><line class="cls-12" x1="388.45" y1="301.27" x2="388.45" y2="365.43"/><line class="cls-12" x1="381.98" y1="301.27" x2="381.98" y2="365.43"/><line class="cls-12" x1="369.04" y1="301.27" x2="369.04" y2="365.43"/><line class="cls-12" x1="362.57" y1="301.27" x2="362.57" y2="365.43"/><line class="cls-12" x1="375.51" y1="301.27" x2="375.51" y2="365.43"/><line class="cls-12" x1="356.1" y1="301.27" x2="356.1" y2="365.43"/><line class="cls-12" x1="349.63" y1="301.27" x2="349.63" y2="365.43"/><line class="cls-12" x1="343.17" y1="301.27" x2="343.17" y2="365.43"/><line class="cls-12" x1="336.7" y1="301.27" x2="336.7" y2="365.43"/><line class="cls-12" x1="330.23" y1="301.27" x2="330.23" y2="365.43"/><line class="cls-12" x1="323.76" y1="301.27" x2="323.76" y2="365.43"/><line class="cls-12" x1="317.29" y1="301.27" x2="317.29" y2="365.43"/><line class="cls-12" x1="310.82" y1="301.27" x2="310.82" y2="365.43"/><line class="cls-12" x1="304.35" y1="301.27" x2="304.35" y2="365.43"/><rect class="cls-14" x="192.31" y="122.79" width="5.01" height="302.61"/><rect class="cls-14" x="210.41" y="244.45" width="4.99" height="180.95"/><rect class="cls-14" x="171.92" y="192.55" width="4.99" height="232.85"/><path class="cls-14" d="M215.66,153.57v-.08h-16.8a8.51,8.51,0,0,0,0,10.31h16.8v-.09a8.55,8.55,0,0,0,0-10.15Z"/><path class="cls-14" d="M233.94,278v-.09h-16.8a8.51,8.51,0,0,0,0,10.31h16.8v-.09a8.55,8.55,0,0,0,0-10.15Z"/><path class="cls-14" d="M169.64,230.36v-.08H152.85a8.51,8.51,0,0,0,0,10.31h16.79v-.09a8.51,8.51,0,0,0,0-10.15Z"/><circle class="cls-2" cx="253.01" cy="283.04" r="17.61"/><circle class="cls-2" cx="234.95" cy="158.65" r="17.61"/><circle class="cls-2" cx="133.31" cy="235.44" r="17.61"/><rect class="cls-7" x="157.66" y="425.62" width="70.99" height="6.38"/><line class="cls-17" x1="769.82" y1="167.96" x2="769.82" y2="430.96"/><line class="cls-17" x1="761.16" y1="167.96" x2="801.16" y2="430.96"/><line class="cls-17" x1="778.16" y1="167.96" x2="738.16" y2="430.96"/><polygon class="cls-2" points="771.49 166.96 820.82 166.96 792.15 107.63 771.49 107.63 767.82 107.63 747.15 107.63 718.49 166.96 767.82 166.96 771.49 166.96"/><line class="cls-18" x1="769.66" y1="107.63" x2="769.66" y2="166.96"/><line class="cls-18" x1="747.16" y1="107.63" x2="747.16" y2="166.96"/><line class="cls-18" x1="791.53" y1="107.63" x2="791.53" y2="166.96"/><line class="cls-18" x1="747.16" y1="166.63" x2="769.25" y2="108.13"/><line class="cls-18" x1="792.2" y1="166.63" x2="770.11" y2="108.13"/><g id="lamp_on_stand" data-name="lamp on stand"><path class="cls-7" d="M434.79,625.8A24.86,24.86,0,0,1,421.13,648H398.69a24.87,24.87,0,1,1,36.1-22.2Z"/><polygon class="cls-2" points="432.4 547.85 468.07 606.16 351.76 606.16 387.43 547.85 432.4 547.85"/></g><line class="cls-12" x1="409.91" y1="548" x2="409.91" y2="606.16"/><line class="cls-12" x1="424.19" y1="548" x2="424.19" y2="606.16"/><line class="cls-12" x1="396.36" y1="548" x2="396.36" y2="605.33"/><line class="cls-18" x1="381.86" y1="557.42" x2="381.86" y2="606.16"/><line class="cls-12" x1="437.98" y1="557.42" x2="437.98" y2="606.16"/><line class="cls-18" x1="451.73" y1="579.84" x2="451.73" y2="606.16"/><line class="cls-18" x1="368.65" y1="579.84" x2="368.65" y2="606.16"/><path d="M829.42,555.11a141.38,141.38,0,0,1-4.63-15q-1.93-7.6-3.24-15.34a160,160,0,0,1-2.09-31.31,113.44,113.44,0,0,1,5.23-31l1.28-3.74,1.45-3.68c1-2.41,2.16-4.83,3.25-7.16a103.9,103.9,0,0,0,5.61-14.44,65.09,65.09,0,0,0,2.78-15.12,49.44,49.44,0,0,0-1.57-15.22c-2.56-10-8.1-19-12.09-28.69a74.14,74.14,0,0,1-4.61-15.07,63.16,63.16,0,0,1-1.21-15.7,55.36,55.36,0,0,1,3-15.41,42.38,42.38,0,0,1,7.53-13.68,35.76,35.76,0,0,0-4.13,6.62,49.47,49.47,0,0,0-2.9,7.22,54.46,54.46,0,0,0-2.49,15.29A62.37,62.37,0,0,0,822,359.14a72.36,72.36,0,0,0,4.79,14.72c2.08,4.75,4.48,9.36,6.73,14.1a85.11,85.11,0,0,1,5.7,14.72A51.52,51.52,0,0,1,841,418.46a66.33,66.33,0,0,1-2.78,15.6,104.41,104.41,0,0,1-5.8,14.68c-1.13,2.4-2.23,4.69-3.26,7.07l-1.44,3.6-1.27,3.66a110.65,110.65,0,0,0-3.73,15.05,133.19,133.19,0,0,0-1.7,15.45,159.44,159.44,0,0,0,1.53,31.09A178.15,178.15,0,0,0,829.42,555.11Z"/><path d="M766.72,372.79a58.39,58.39,0,0,1,13.62,11.1,56.21,56.21,0,0,1,9.8,14.66,50.5,50.5,0,0,1,3,8.38,54,54,0,0,1,1.44,8.77,55,55,0,0,1-.06,8.89c-.08,1.48-.32,3-.53,4.42l-.61,4.34A99.79,99.79,0,0,0,794,468a78.2,78.2,0,0,0,5.36,16.5l.91,2,1,1.92c.64,1.3,1.42,2.53,2.12,3.79a72.92,72.92,0,0,0,5,7.12,78,78,0,0,1,5.34,7.11,27.86,27.86,0,0,1,3.53,8.35c1.4,5.92,1,12,0,17.84-.29,1.45-.48,2.93-.85,4.36l-1.06,4.31c-.37,1.43-.85,2.83-1.26,4.25s-.84,2.83-1.36,4.21c-2,5.59-4.09,11-5.35,16.65a92.23,92.23,0,0,0-2.19,17.3,107.3,107.3,0,0,0,.94,17.45,122.68,122.68,0,0,0,3.55,17.16c.79,2.82,1.69,5.61,2.68,8.36s2,5.49,3.31,8.14a104.84,104.84,0,0,1-6.5-16.35,122.61,122.61,0,0,1-4-17.17,107,107,0,0,1-1.23-17.62,94.75,94.75,0,0,1,1.94-17.6c.36-1.44.66-2.89,1.06-4.31s.76-2.86,1.27-4.26l2.89-8.31c.51-1.36.9-2.77,1.32-4.16s.87-2.79,1.22-4.2l1-4.23c.36-1.41.53-2.85.8-4.28.91-5.69,1.26-11.56-.07-17.09A26,26,0,0,0,812,507.5a76.94,76.94,0,0,0-5.26-6.91,78.3,78.3,0,0,1-5-7.35c-.72-1.3-1.51-2.56-2.16-3.9l-1-2-.92-2a80.55,80.55,0,0,1-5.4-16.92,98,98,0,0,1-.44-35.29l.69-4.35c.22-1.43.48-2.86.58-4.31a53.51,53.51,0,0,0,.19-8.68,51,51,0,0,0-1.27-8.59,52.08,52.08,0,0,0-2.75-8.24,55.41,55.41,0,0,0-9.31-14.71,61.31,61.31,0,0,0-6.19-6.19A53,53,0,0,0,766.72,372.79Z"/><path d="M813.36,412.44a97.41,97.41,0,0,1,16.53,36.7,70.07,70.07,0,0,1,1.36,20.3,62.71,62.71,0,0,1-1.69,10.09c-.18.84-.47,1.65-.7,2.47s-.48,1.64-.78,2.43l-1.67,4.78c-2.39,6.33-5.12,12.51-7.91,18.63a173.38,173.38,0,0,0-7.59,18.56,56,56,0,0,0-2.67,19.67,95.64,95.64,0,0,0,3.21,19.81,88.37,88.37,0,0,1-4.19-19.76A56.84,56.84,0,0,1,809.44,526c1.84-6.55,4.71-12.71,7.4-18.86s5.38-12.3,7.69-18.58l1.71-4.72c.3-.79.54-1.58.78-2.37s.51-1.57.69-2.38a59.67,59.67,0,0,0,1.73-9.77,73,73,0,0,0-1.06-19.84,93.48,93.48,0,0,0-5.75-19.16A106.73,106.73,0,0,0,813.36,412.44Z"/><path class="cls-19" d="M842,424.74a1.83,1.83,0,0,1-1.88-2.46c1.13-3.9,3.71-10.74,8.17-11.78,6.3-1.46,8.3-.93,8.3-.93s-2.18,12.25-9.71,14.09C844.69,424.2,843.13,424.54,842,424.74Z"/><path class="cls-19" d="M835.22,448.25a2.14,2.14,0,0,1-1.3-3.26c2.26-3.72,6.87-10,11.86-9.55,7.05.68,9,1.94,9,1.94s-5.69,12.15-14.13,11.44C838.16,448.6,836.42,448.41,835.22,448.25Z"/><path class="cls-19" d="M798.67,479.82a1.83,1.83,0,0,1-2.84-1.57c-.37-4.49-.41-12.67,3.7-15.9,5.81-4.56,8-5,8-5s2.52,13.45-4.38,19C801.14,478,799.7,479.07,798.67,479.82Z"/><path class="cls-19" d="M792.92,441.38a1.38,1.38,0,0,1-1.52-1.81c.73-3,2.48-8.4,5.87-9.38,4.78-1.39,6.33-1.07,6.33-1.07s-1.26,9.5-7,11.22C794.94,440.85,793.75,441.18,792.92,441.38Z"/><path class="cls-19" d="M832.25,385.07a1.24,1.24,0,0,1-2.14-.65c-.8-3-1.8-8.65.64-11.5,3.45-4,4.92-4.67,4.92-4.67s3.35,8.87-.73,13.73C833.73,383.42,832.87,384.4,832.25,385.07Z"/><path class="cls-19" d="M837.66,409.2a1.6,1.6,0,0,0,1-2.41c-1.66-2.8-5-7.56-8.75-7.26-5.26.42-6.73,1.34-6.73,1.34s4.12,9.12,10.42,8.68C835.46,409.43,836.75,409.3,837.66,409.2Z"/><path class="cls-19" d="M789,461.39a1.82,1.82,0,0,0,2.11-2.3c-.81-4.07-2.85-11.28-7.29-12.8-6.27-2.15-8.34-1.83-8.34-1.83s1.19,12.66,8.67,15.31C786.31,460.56,787.86,461.07,789,461.39Z"/><path class="cls-19" d="M791.84,422a1.63,1.63,0,0,0,1.87-2.05c-.74-3.62-2.59-10-6.54-11.33-5.57-1.88-7.41-1.58-7.41-1.58s1.12,11.23,7.77,13.55C789.49,421.22,790.87,421.66,791.84,422Z"/><path class="cls-7" d="M849.88,589.35c0,22.66-3.22,43.27-8.45,58.57H796c-5.24-15.3-8.46-35.91-8.46-58.57,0-33.05,6.84-61.72,16.85-76H833C843.05,527.63,849.88,556.3,849.88,589.35Z"/><path class="cls-20" d="M269.18,0l13.47,52.91a13.61,13.61,0,0,1,.17,6L272,114.15a9.47,9.47,0,0,0,.12,4.17l16.6,64.85a11.23,11.23,0,0,1,.24,4.47l-14.68,88.55"/><path class="cls-20" d="M291.85,0,302.3,26.8a6.18,6.18,0,0,1,.23,3.73l-6.69,26.7a7,7,0,0,0,.6,5l11.06,21a5.65,5.65,0,0,1,.14,5L295.3,115a8.33,8.33,0,0,0-.35,6.09l11.71,35.68a7.36,7.36,0,0,1,.12,4.21l-12,51.4"/><path class="cls-20" d="M242.29,0,253,21a3.82,3.82,0,0,1,.27,2.9l-6.4,20.7a4.48,4.48,0,0,0,.66,3.89L258.84,64.9a3.55,3.55,0,0,1,.19,3.9L247,89.5a5.16,5.16,0,0,0-.28,4.74l12.1,27.88a4.54,4.54,0,0,1,.16,3.28l-11.48,39.86"/><circle class="cls-2" cx="280.34" cy="86.87" r="9.82"/><circle class="cls-2" cx="300.65" cy="158.02" r="8.43"/><circle class="cls-2" cx="301.16" cy="32.14" r="6.99"/><circle class="cls-2" cx="282.36" cy="60.47" r="3.77"/><circle class="cls-2" cx="286.66" cy="239.43" r="9.5"/><circle class="cls-2" cx="286.84" cy="197.64" r="3.23"/><circle class="cls-2" cx="277.87" cy="139.91" r="6.81"/><circle class="cls-2" cx="298.4" cy="105.21" r="3.14"/><circle class="cls-2" cx="305.17" cy="47.78" r="6.77"/><circle class="cls-2" cx="305.49" cy="95.79" r="3.59"/><circle class="cls-2" cx="269.09" cy="111.75" r="4.12"/><circle class="cls-2" cx="288.09" cy="176.67" r="4.84"/><circle class="cls-2" cx="301.18" cy="192.98" r="2.87"/><circle class="cls-2" cx="274.91" cy="36.53" r="3.14"/><circle class="cls-2" cx="244.81" cy="78.92" r="7.78"/><circle class="cls-2" cx="250.63" cy="37.67" r="8.89"/><circle class="cls-2" cx="252.5" cy="131.28" r="7.69"/><circle class="cls-2" cx="248.7" cy="111.52" r="3.89"/><circle class="cls-2" cx="262.59" cy="63.22" r="4.07"/><circle class="cls-2" cx="252.87" cy="157.2" r="4.17"/><rect class="cls-14" x="831.32" y="-1.59" width="3.01" height="290.16"/><rect class="cls-14" x="800.75" y="-4.59" width="3.02" height="257.19"/><circle class="cls-2" cx="832.32" cy="326.09" r="12.05"/><ellipse class="cls-20" cx="832.45" cy="314.5" rx="8.14" ry="25.94"/><path class="cls-2" d="M833.88,314.14V338a11.46,11.46,0,0,1-1.56.1,12,12,0,0,1,0-24.09A11.46,11.46,0,0,1,833.88,314.14Z"/><ellipse class="cls-20" cx="802.06" cy="278.75" rx="27.07" ry="25.94"/><circle class="cls-2" cx="801.93" cy="290.33" r="12.05"/><rect class="cls-13" x="800.68" y="302.34" width="3.16" height="2.11" rx="0.55" ry="0.55"/><polygon class="cls-7" points="263.49 650 247.27 649.51 247.27 600.09 264.46 600.09 263.49 650"/><polygon class="cls-7" points="216.1 650 199.88 649.51 199.88 600.09 217.07 600.09 216.1 650"/><rect class="cls-7" x="179.42" y="600.11" width="111.59" height="5.8"/><g id="_2_in_1" data-name="2 in 1"><rect class="cls-7" x="216.66" y="596.54" width="38.57" height="3.57" transform="translate(471.88 1196.66) rotate(180)"/><path class="cls-7" d="M201.53,503.32a.46.46,0,0,1,.56-.27,46.43,46.43,0,0,1,19.4,11.88,53,53,0,0,1,11.88,19.34.46.46,0,0,0,.89-.13c.46-8.55,2.8-28.83,15.69-44.12a45.66,45.66,0,0,1,19.37-13.82.46.46,0,0,1,.59.29l.39,1.14a.46.46,0,0,1-.25.57c-4.26,1.93-15.52,7.92-23.8,23.46-8,14.95-8.52,30-8.52,35.54v59.69a.46.46,0,0,1-.46.46h-2.65a.45.45,0,0,1-.46-.46V550.57a41.8,41.8,0,0,0-.43-4.24c-.22-1.4-.77-4.49-1.33-6.57a44.08,44.08,0,0,0-7.21-14.82c-8.18-10.09-12.33-15.7-23.75-20.14a.46.46,0,0,1-.26-.6Z"/><path class="cls-13" d="M200.05,497.66c.76.35,1,1.51.85,3h0a2.23,2.23,0,0,1,.56.16,3.17,3.17,0,0,1-2.59,5.67,1.93,1.93,0,0,1-.49-.31v2c-1,1.12-2-.34-2.81-.69a1.82,1.82,0,0,1-.88-1.54l3.62-7.93A1.85,1.85,0,0,1,200.05,497.66Z"/><circle class="cls-2" cx="182.03" cy="497.37" r="16.13"/><path class="cls-13" d="M271.45,470.6c-.77.33-1.09,1.47-.94,3h0a1.86,1.86,0,0,0-.56.15,3.17,3.17,0,0,0,2.43,5.74,2.14,2.14,0,0,0,.5-.3h0c.95,1.14,2.07,3.71,2.84,3.38.49-.21.73-2.75.85-3.51l-3.39-8A1.81,1.81,0,0,0,271.45,470.6Z"/><circle class="cls-2" cx="289.6" cy="470.82" r="16.13"/></g></g></g></svg>