<svg id="color" xmlns="http://www.w3.org/2000/svg" xmlns:xlink="http://www.w3.org/1999/xlink" viewBox="0 0 612 792"><defs><style>.cls-1,.cls-10,.cls-13,.cls-15,.cls-16,.cls-19,.cls-21,.cls-22,.cls-23,.cls-24,.cls-7,.cls-9{fill:none;}.cls-2{fill:#0a0d0a;}.cls-3{fill:#2d2d2d;}.cls-4{fill:#78b2bf;}.cls-5{clip-path:url(#clip-path);}.cls-6{fill:#757575;}.cls-7,.cls-9{stroke:#0a0d0a;}.cls-10,.cls-13,.cls-15,.cls-23,.cls-24,.cls-7{stroke-linecap:round;stroke-linejoin:round;}.cls-13,.cls-15,.cls-16,.cls-21,.cls-22,.cls-23,.cls-24,.cls-7,.cls-9{stroke-width:2px;}.cls-8{fill:#3f3f3f;}.cls-16,.cls-19,.cls-21,.cls-22,.cls-9{stroke-miterlimit:10;}.cls-10,.cls-13,.cls-19{stroke:#024059;}.cls-10{stroke-width:4px;}.cls-11{fill:#0396a6;}.cls-12{fill:#025e73;}.cls-14{fill:#024059;}.cls-15{stroke:#013440;}.cls-16,.cls-24{stroke:#025e73;}.cls-17{fill:#013440;}.cls-18{clip-path:url(#clip-path-2);}.cls-19{stroke-width:3px;}.cls-20{clip-path:url(#clip-path-3);}.cls-21{stroke:#000;}.cls-22,.cls-23{stroke:#0396a6;}.cls-25{clip-path:url(#clip-path-4);}</style><clipPath id="clip-path"><rect class="cls-1" width="612" height="792"/></clipPath><clipPath id="clip-path-2"><circle class="cls-2" cx="78.65" cy="279" r="54.58"/></clipPath><clipPath id="clip-path-3"><circle class="cls-3" cx="124.28" cy="680.82" r="54.58"/></clipPath><clipPath id="clip-path-4"><circle class="cls-4" cx="623.26" cy="279" r="54.58"/></clipPath></defs><title>Artboard 1</title><g class="cls-5"><rect class="cls-6" width="612" height="792"/><path class="cls-7" d="M94.88,670.29S208.93,641.22,209.61,520.5c.5-89.16,1.15-250.42,12.6-160.11S232,518.52,232,518.52c-6.4,82.86-12.6,153.66-5.52,184.63"/><rect class="cls-8" x="-11.67" y="334.77" width="642.67" height="28.67"/><rect class="cls-8" x="-11.67" y="734.9" width="642.67" height="28.67"/><path d="M646.44,734.9l-23.79.3-23.78.23-47.57.45-95.13.55c-31.71.24-63.42.2-95.13.29l-95.13.18-95.14-.18-47.56-.09-23.79,0-23.78-.14-95.13-.56-47.57-.45-23.78-.23-23.78-.3,23.78-.3,23.78-.23,47.57-.45,95.13-.56,23.78-.13,23.79-.06,47.56-.09,95.14-.18,95.13.19c31.71.08,63.42,0,95.13.28l95.13.56,47.57.44,23.78.23Z"/><line class="cls-9" x1="-74.53" y1="334.36" x2="686.53" y2="334.36"/><line class="cls-9" x1="-74.53" y1="363.94" x2="686.53" y2="363.94"/><line class="cls-9" x1="-86.04" y1="762.8" x2="675.03" y2="762.8"/><polygon class="cls-2" points="215.23 202.96 363.62 198.84 354.35 333.83 236.87 334.71 215.23 202.96"/><path class="cls-9" d="M94.88,670.29S208.93,641.22,209.61,520.5c.39-69.69.87-183.43,6.53-186.66"/><path class="cls-10" d="M376.75,742.25s38.4-36.15-16.22-121.69S352.29,431,411,377.36s19.58-135-25.77-192.7-77.95-1-77.95-1-28.83,194.83-96.08,186.18S121.09,223.62,105.05,250.44"/><line class="cls-10" x1="289.43" y1="112.14" x2="310.04" y2="201.15"/><line class="cls-10" x1="318.68" y1="102.51" x2="323.43" y2="216.6"/><path class="cls-10" d="M193,151.85s47-10.47,68.6,69.91"/><line class="cls-10" x1="257.22" y1="155.35" x2="277.16" y2="223.72"/><path class="cls-10" d="M444,114.94s-43.5-12.44-45.34,26.44c-1.8,38.08,0,15.2,1.65,63.75"/><path class="cls-10" d="M544.36,250.61s-21.34,0-52.95-24.73c-19.52-15.27-52.51-33-60.8-8.25-3.11,9.29-4.33,20.16-4.63,30.12"/><path class="cls-10" d="M508.2,387.81s-10.39-64.93-46.39-109.71c-8.48-10.56-21.13-17.54-32.76-19.26"/><path class="cls-10" d="M404.94,212.89s-25.86-7.62-37.2,31.54-10.3,75.22-1,87.59"/><path class="cls-10" d="M337.07,523.14c-16.95,6.88-43.73,21.56-39.46,44.36"/><path class="cls-10" d="M373.22,644.12s20.67-70.37,61.89-23"/><path class="cls-11" d="M387.26,647.16c-6.12-7.86-21.26-25.91-30.28-21,0,0-.29-23-23.58-17.47s-31.73,48.62-23.87,59.68a169.55,169.55,0,0,0,12.13,15.3c8.38,9.26,18.66,17.68,27.46,15.85,14-2.91,23.58-11.64,23.87-23.87S393.37,655,387.26,647.16Zm-55.82-24.49c7.84-2.5,13.56,7.66,13.56,7.66,1.71,9.15-4.22,11-10.56,14s-12.83-5-15.66-8S323.61,625.17,331.44,622.67Zm-17.8,40c-3.34-2.33-3.84-6.33-.94-10.16s17.27.16,17.27.16c2.35.58,2,6.17-1,9.17S317,665,313.64,662.64Zm31.3,28.53c-3,6.5-9.83-1.5-11.33-3.25s-3.33-11.92-1.67-16.42,8.34,4.17,8.34,4.17S347.94,684.67,344.94,691.17ZM356.11,685c-3.5,1.83-8.33-9-11.33-17.4s-1-10.27,3.83-12.6,5.75,9.38,5.75,9.38C354.59,666.27,359.61,683.17,356.11,685Zm11.5-16.5c-2.33,0-13-13-15.67-25.17s13.5.5,13.5.5,9.34,8.17,10.17,17.06S369.94,668.5,367.61,668.5Z"/><path class="cls-12" d="M445.24,474.1c-7.76-18.05-15.53-4.85-26-24.84s-43.47,3.88-43.47,3.88c-8.93,1-13.78,8.15-15.14,15.52s-9.31,3.5-8.15,23.68,6.6,14.17,12.23,27.75,31.24,16.89,46.19,22.52,44.83-5.63,51.82-9.71a2.27,2.27,0,0,0,.62-.53C468.56,526.35,452.73,491.53,445.24,474.1Zm-74.91,41.14c-2.91,3.88-6.21-6.6-.39-14.94s1-12.81,6.21-25.23,8.54,2.33,8.54,2.33C385.85,483.22,373.24,511.36,370.33,515.24Zm29-.39c1.26,7.19-2.23,17.28-4.17,15.53s2.33-23.48,0-26.59,0-10.38,0-10.38,6.21-9,8.34.68S398.08,507.67,399.34,514.85Zm17.76,17.28c-2.72,3.88-6-9.12-5.24-21.35s4.46-.69,4.46-.69S419.82,528.25,417.1,532.13Zm-.19-40c-3.3-3.5-3.69-6.21-3.69-6.21s.77-3.88,5.82-3.3,29.89,4.07,25.42,7.37S420.2,495.64,416.91,492.15Zm11.64,47.35c-2.72-.19-7.57-12.81-3.11-21.93s8,5.24,8,5.24C437.48,534.26,431.27,539.7,428.55,539.5Zm18.63-38.43c-2.13,4.86-16.18,5.24-18,3.69s-2.19-5-2.19-5S449.32,496.22,447.18,501.07Z"/><path class="cls-13" d="M376.54,454.11S427,526.5,461,530.58"/><path class="cls-14" d="M477.91,381c-10.09-39.2-45.41-56.28-69.87-58s-19.79,25-19.79,25S383,346.23,370,355.16s20.38,56.48,47.94,70.84S486.65,434,486.65,434s0-.38.05-1.19c0,0,0,0,0,0C486.78,428.66,486.31,413.65,477.91,381ZM396.4,395.72c-5.63-7.37-8-22.71-3.49-30.08s10.67,9.79,10.67,9.79S402,403.1,396.4,395.72Zm12.23-37.07c.19-3.88,1.35-4.46,1.35-4.46s4.66-6.21,10.49-8.15,16.88-4.47,13,4.07S408.43,362.53,408.63,358.65Zm20.76,59.78c-3.88,2.72-9.9-14.95-9.7-24.84s8.73,0,8.73,0S433.27,415.71,429.39,418.43Zm-3.68-45.8c-4.86-5.05-1.95-5.83-1.95-5.83s27-12.61,23.29-1.55S430.56,377.67,425.71,372.63Zm28.91,54.92c-2.33,4.27-12.42-15.53-12-19.8s7.38,2.92,7.38,2.92S457,423.28,454.62,427.55Zm21.16-24.84c-6.6,2.72-19.41,1.16-18.83-3.69a40.53,40.53,0,0,0,.39-7.18s13.7-7.07,17.08-1.55S482.38,400,475.78,402.71Z"/><path class="cls-14" d="M523.42,319.67c-8.29-10.21-11.63-17.82-11.6-22S503,270.93,492.46,269s-20.26-13.53-27.13,14.55c0,0-12.31-22.38-21.91-12.54s-16.33,44-1.31,64.2,27.46,38.09,45,47.36,24.58,9.8,24.5,13.38c0,.22.06.16.21-.13h0C513.89,391.13,531.2,329.26,523.42,319.67Zm-73.26-4.31c-5.26-5.49-2-26.87,4.42-26.29,0,0,9.68-2.83,9.2,4.05S455.4,320.84,450.16,315.36Zm25.74,9.88c-5,6.57-10.65,40.36-13.42,23.9s-5.62-28.55,6-34.3C468.46,314.84,480.91,318.67,475.9,325.24Zm11.64-33.71c6.79,2.45,13.88,7,18.22,9.64s-4.15,7.18-9,3.21-11.59-9.83-11.59-9.83S480.75,289.07,487.54,291.53Zm-7.12,75.78c-3.93-3.56-8-13.94-1.74-24,0,0,4.61-10.66,9.14,1S484.34,370.86,480.42,367.31ZM497,325s-10.72-7.61,1.1-5.32,15.83,4.67,17.57,10.69-1.38,8.05-5,6.57S497,325,497,325Zm5.19,31c-2.12-9.31,6.37-3.15,6.37-3.15,5.79,2.51,7.14,10.85,7.74,16.59S504.27,365.34,502.14,356Z"/><path class="cls-12" d="M331.4,536.07c-7-11.84-24.26,7-24.26,7,0-28.92-12.22-20-22.9-20.57s-24.65,19.21-25.62,23.29-6,10.67-16.49,18.63c-9.83,7.47-7.71,71.69-6.76,76.66h0c.06.32.11.39.16.18.77-3.49,7.76-2.32,27-7.18s35.52-19.21,54.93-35.32S338.39,547.91,331.4,536.07Zm-77.24,68.71c-4.27,8.54-18.83,15.14-16.89,9.7s5.24-13.21,11.45-14.27C248.72,600.21,258.43,596.24,254.16,604.78Zm-3.69-20.58c-3.88.59-6.4-2.13-3.3-7.56s7.57-6.8,19.6-6.21-.19,5.43-.19,5.43S254.35,583.62,250.47,584.2Zm22.13,36.69c-4.66,2.52-8.93-13.78-1.75-24.07S280,598,280,598C283.66,609.24,277.25,618.36,272.6,620.89Zm12.61-71.81s-8,4.07-13.58,6.79-12.81-3.69-8-5.24,12.81-4.27,20-5S285.21,549.08,285.21,549.08Zm9.12,58.41c-6.6,15.34-4.07-18.82-7.37-26.39s9.7-8.35,9.7-8.35C306.56,581.1,300.93,592.16,294.33,607.49Zm20-29.88c-6.4,4.07-9.12-18.05-7.95-24.85s9.89-1.74,9.89-1.74C322.67,552,320.73,573.53,314.32,577.61Z"/><path class="cls-12" d="M399.3,224.94c-2.52-15.72-23.29-23.29-21.93-16.69s-11.65,17.27-11.65,17.27c-7.37,8.35-12.61,7-28.14,9.32s-7.18,41.34-2.33,63.46,38.24,54.73,37.07,43.28,12.81-32.6,27.17-59.77S401.82,240.66,399.3,224.94Zm-58.61,48.21c0-7.45,6.79-11.91,6.79-11.91s9.12-2.72,6.4,2.71S340.69,280.6,340.69,273.15Zm15.13,11.76c-1,12.42,0,35.52-4.27,29.89a44.34,44.34,0,0,1-6-10.48s-5.24-3.69-.2-15.14S356.8,272.49,355.82,284.91Zm-10.48-31.24c-3.1.58-9-3.61-3.88-8.74,0,0,9.71-12.22,14-5.63S348.45,253.08,345.34,253.67Zm28.34-5s9.9,2.14,12.81,6.6,1.55,10.29-4.85,6.6S365.92,248.81,373.68,248.62Zm14.94,27.75c-4.65,7-12.81,3.5-15.33,0s-8.8-8.73-2.56-10.48C370.73,265.89,393.28,269.39,388.62,276.37Z"/><path class="cls-13" d="M366.31,230.38s-19.06,85.72,4.42,111"/><path class="cls-14" d="M378.85,402.28c-3.4,5.81-20.21,5.06-20.21,5.06-11.06,1.28-14.05-3.24-27.16-11.88s-33,25.94-44.15,45.64-8.15,66.27-1.36,57h0c6.8-9.28,31.32-15.68,60.16-26.29s29.23-29,37.86-42.42S382.25,396.46,378.85,402.28Zm-51.23,3.28S343,403,341.78,410.71s-14.41,5.58-17.11,3.94S320.35,405.91,327.62,405.56Zm-16,39.33c-9,8.59-23.74,26.42-23.15,19.38A43.83,43.83,0,0,1,291,452.45s-1.43-6.24,10-11.39S320.61,436.3,311.58,444.89ZM324.15,428c-5.65,2.22-20.95,3.56-16-2s13-4.33,13-4.33S329.8,425.78,324.15,428Zm17.54,32.46c-8.14,2.08-11.87-6-11.41-10.25s-.71-12.38,5.1-9.51C335.38,440.71,349.82,458.38,341.69,460.47Z"/><path class="cls-15" d="M355.83,411.34s-71.58,51.2-71,85.66"/><path class="cls-11" d="M490.36,633.71c-14-17.81-38.81-49.05-50.48-38.54s-13.94,15.41-25.07,15.8c0,0-16.51,3.26-20.74-2s-11.59,15.6-1.05,27.54,13.67,30.12,43.77,36.3,55.32,8.84,63.42,17h0C508.31,698,504.35,651.51,490.36,633.71Zm-57.65,12.62c-1.22,7.29-6.58,4.63-8.18-.45s3.05-14.08,3.05-14.08C432.66,625.93,433.93,639,432.71,646.33ZM432,611.79c-2.38-7.49,13.23-7.21,13.23-7.21,7.25-.74,6.7,6.52,4.27,8.55S434.36,619.28,432,611.79ZM439.51,661c-8.36-.84,3.28-20.47,3.28-20.47,5.31-3.71,5.37,4.47,6.46,8.64S447.86,661.82,439.51,661ZM452,626.26c-5.92-1.36,2-6.67,2-6.67s7.76-2.41,13.52,2.33S457.92,627.61,452,626.26ZM467,641.08c-10.21-7.15-2.09-8.76,9.95-5.38s11.57,9.77,11.57,9.77a44.31,44.31,0,0,1,4.26,11.31C494.37,663.65,477.15,648.23,467,641.08Z"/><path class="cls-4" d="M211.64,79c14-17.81,38.81-49,50.48-38.54s13.94,15.41,25.07,15.8c0,0,16.51,3.26,20.74-2s11.59,15.6,1.05,27.54-13.67,30.12-43.77,36.3-55.32,8.84-63.42,17h0C193.69,143.23,197.65,96.77,211.64,79Zm57.65,12.62c1.22,7.29,6.58,4.63,8.18-.45s-3.05-14.08-3.05-14.08C269.34,71.19,268.07,84.3,269.29,91.59ZM270,57.05c2.38-7.49-13.23-7.21-13.23-7.21-7.25-.74-6.7,6.52-4.27,8.55S267.64,64.54,270,57.05Zm-7.53,49.18c8.36-.84-3.28-20.47-3.28-20.47-5.31-3.71-5.37,4.47-6.46,8.64S254.14,107.08,262.49,106.23ZM250,71.52c5.92-1.36-2-6.67-2-6.67s-7.76-2.41-13.52,2.33S244.08,72.87,250,71.52ZM235.05,86.34c10.21-7.15,2.09-8.76-10-5.38s-11.57,9.77-11.57,9.77A44.31,44.31,0,0,0,209.27,102C207.63,108.91,224.85,93.49,235.05,86.34Z"/><path class="cls-12" d="M553,246.1c-3.88-5.44-1.94-1.36-9.9-29.31s-46.38-47.16-60.36-48.91-24.06.2-35.13,6-9.12,19.21-6.4,21.54,1,8,1,8c-14.17,1.55-11.26,17.86-5.05,28.14s32,21.74,37.27,24.84,37.45,8.15,45.22,8.54c7.24.36,33.44-11.62,33.72-17.63A1.77,1.77,0,0,0,553,246.1Zm-103.64-18c-2.33-3.88-1.16-13.78-1.16-13.78s.58-6.79,4.27-.2S451.7,231.93,449.37,228.05Zm3.11-34.94c-1,4.27-6.6,10.1-4.86,3.3a55.23,55.23,0,0,1,4.86-12.22s5.38-9.51,6.76-3.89S453.45,188.84,452.48,193.11Zm13.78,44.24c-4.47-6.2-4.08-11.83-4.08-11.83s1.36-8.34,5.63,0S470.72,243.55,466.26,237.35Zm2.91-35.89c-10.87,8.15-7.38-7-7.38-7,.58-2.13,13.39-11.64,19.22-15.33s11.06,3.11,4.46,6.21S480,193.31,469.17,201.46Zm24.45,50.85c-9.12-4.85-8.45-15.33-8.45-15.33s-2-14.56,5.35-3.5S502.74,257.16,493.62,252.31Zm.19-43.48c-1.16,2.72-6.59,4.66-6.79-.38s-1-6.41-1-6.41S498.6,185,509.6,191.37s10.22,10.48,1.29,11.64S495,206.12,493.81,208.83Zm44.64,29.31c-13.19,2.91-28.53-7.38-25.81-14s13-9.71,24.65-4.66C537.29,219.51,551.65,235.23,538.45,238.14Z"/><path class="cls-11" d="M272.11,175.05s-4.44-3.89-3.34-7.29-4.26-15.84-16.73-15S230,157.21,219,166s-33.68,45.29-25.83,73.26,7.36,23.49,6.9,30.16a1.82,1.82,0,0,0,.34,1.2h0c3.45,4.95,32,1.45,38-2.64,6.41-4.4,31.22-25.56,34.06-30.95s18.84-28.65,18.75-40.67S285,169,272.11,175.05Zm-63.85,80c-12.77,4.42-8.76-16.49-8.76-16.49,7.28-10.39,17.67-13.13,23.44-8.93S221,250.6,208.26,255ZM231,206.69c-2.41-1.7-9.38.3-17.6,4s-11,.61-5-10.6S234,196.84,234,196.84s0,1.57,2.52,6S233.37,208.4,231,206.69Zm-5.18-24.37c-7.25.8-6.34-7.73.55-7.63s22.79,1.49,24.4,3c0,0,10.9,11.07-2.63,9.81S233,181.51,225.78,182.32Zm28.1,61.32c-5.24,8.91-7.7-4.38-7.21-17.67s6.39.18,6.39.18S259.11,234.73,253.88,243.64Zm-8.39-79.35c-1.77-5.52,7.8-.23,7.8-.23a55,55,0,0,1,10.53,7.88c5,4.87-2.8,2.85-5.86-.28S247.25,169.81,245.49,164.29Zm23.88,52.28c-.56,7.62-6.79.08-7.51-9.26s4.79-2.95,4.79-2.95S269.93,209,269.37,216.57Zm-.44-27c-.31-7.55,3.74-2.06,3.74-2.06s6.17,7.82,6.22,12.35S269.24,197.08,268.93,189.52Z"/><path class="cls-16" d="M269.88,175.5c.06-.87-36.44,28.61-41.47,64.87-3.13,22.62-25.57,29-25.57,29"/><path class="cls-14" d="M352.53,172.93c-29.31-21.93-44.45-4.46-52.41,14.56s-3.3,42.89,1.17,54.39,2.52,38.76,3.88,30.81c.27-1.57,1.54-3.38,3.5-5.38,8-8.12,27.4-19.19,37.06-28.39,12-11.45,20.19-41.92,25-58S352.53,172.93,352.53,172.93Zm-39.4,5.59s8.33-9.08,16.49-6.56,12,9.12,2.92,11.06-15.73,2.52-18.44,6.79S305.17,183.92,313.13,178.52Zm-8.93,40.79c-2.52-1.55-5.24-9.7,1.36-14.55,0,0,14.55-11.26,12.42-3.69S306.72,220.87,304.2,219.31Zm16.3,35.52c-4.07-.39-6-9.9-5.24-17.85,0,0-1.55-11.65,4.85-3.69S324.58,255.22,320.5,254.83Zm20.19-26c-6.6-2.73-12.23-11.85-10.48-22.53,0,0,5.43-15.72,10.48-3.3S347.29,231.58,340.69,228.84Zm13-30.87c-8.15-2.72-4.46-14.56-4.46-14.56S361.84,200.68,353.69,198Z"/><path class="cls-15" d="M350.78,174.68s-52,28.13-43.5,91.21"/><path class="cls-11" d="M467.23,90.45c-17.08-5-35.91-3.69-37.46-1s-7,10.09-19,11.64-5.63,22.51-5.63,22.51c-.19,15.14,19.6,16.11,35.56,19.41s57.21-11.45,58.76-19.79,13.59-14,15.14-16.5S484.3,95.49,467.23,90.45Zm-39.79,14c2.72-8.35,11.26-15.91,13.39-10.48s-5.63,14-5.63,14S424.72,112.76,427.44,104.42Zm14,30.47c-8-2.72-15.72-11.84-15.72-11.84s-7.76-10.87,4.08-2.52S449.37,137.61,441.41,134.89Zm9.13-25.23c1.74-8,10.72-13.59,10.72-13.59s9.65-5.43,4.41,3.3S448.79,117.62,450.54,109.66ZM468,132.56c-5.24-1.36-18.05-12-18.05-12s-5.24-5.82,5.83-4.66,16.3,1.36,23.67,9.51S473.24,133.92,468,132.56Zm20.77-14.17C481.39,114.9,477.9,113,477.9,113s-12.22-2.91-3-6.41,22.8,1.56,22.8,5.24S496.14,121.89,488.77,118.39Z"/><path class="cls-12" d="M202.21,132.36c-12-1.56-17.47-8.93-19-11.65s-20.38-4.07-37.46,1S96.82,135.46,98.37,138s13.59,8.15,15.14,16.49,42.81,23.1,58.77,19.8S208,170,207.84,154.87C207.84,154.87,214.24,133.91,202.21,132.36Zm-50.51-5.05s9,5.63,10.72,13.59-9.9-1.56-15.14-10.29S151.7,127.31,151.7,127.31ZM115.26,143c0-3.69,13.59-8.73,22.8-5.24s-3,6.41-3,6.41-3.5,1.94-10.87,5.43S115.26,146.72,115.26,143ZM163,151.77s-12.81,10.67-18.05,12-18.82,1-11.45-7.18,12.62-8.35,23.68-9.51S163,151.77,163,151.77Zm9.12-26.59c2.14-5.44,10.68,2.13,13.4,10.48s-7.77,3.49-7.77,3.49S170,130.61,172.12,125.18Zm15.14,29.11s-7.76,9.12-15.72,11.84-.19-6,11.65-14.36S187.26,154.29,187.26,154.29Z"/><path class="cls-17" d="M436,144.24c-14.89-9.77-33.3-13.91-35.57-11.76s-9.61,7.64-21.58,5.65S367,158.05,367,158.05c-4.56,14.43,14.11,21.09,28.43,28.86s58.08,5.59,62-1.95,17-9.45,19.26-11.41S450.9,154,436,144.24Zm-21.53,13.57c4-7.11,14.19-9.9,14.19-9.9s10.82-2.41,3.28,4.43S410.5,164.92,414.48,157.81Zm-16,21.51c-6.83-4.9-11.63-15.88-11.63-15.88s-4.28-12.65,4.64-1.23S405.28,184.22,398.45,179.32Zm1.86-27.62s-11.44,1.61-6.42-5.59,15.38-12,15.85-6.16S400.31,151.7,400.31,151.7Zm24.26,33.08C420,182,410.78,168,410.78,168s-3.33-7.08,6.92-2.77,15.21,6,19.91,15.95S429.2,187.6,424.57,184.78ZM459,173.49c-1.07,3.53-4.41,9.22-10.46,3.74s-8.83-8.35-8.83-8.35-10.85-6.32-1-7S460.07,170,459,173.49Z"/><path class="cls-14" d="M357.57,76.47c-20.77-25.81-29.89,1.17-29.89,1.17-24.64-7-19.79,6-16.69,26s33.77,45,33.77,45,.2-.27.55-.79C349.6,141.59,376.74,100.3,357.57,76.47Zm-32.8,14.75c-.77,7.77-9.12,9.32-7.76,4.85s2.91-5.43,2.91-5.43S325.55,83.46,324.77,91.22Zm28.34,27c-6.6-1.17-13.39-8-9.12-9.9C344,108.3,359.71,119.36,353.11,118.2Z"/><path class="cls-15" d="M329.24,80.74s17,31.91,16,66.21"/><path class="cls-12" d="M293.77,105.78s-8.15-4.46-14.94-5-12.81,11.45-22.9,9.32-20,9.51-22.71,16.88-5.43,12.62-15.33,21.16-5.82,31.44-5.82,31.44l1-.43c6.4-2.78,42.32-18.7,48.51-27.71,6.79-9.9,23.87-16.11,36.87-34S293.77,105.78,293.77,105.78Zm-51.43,49.88c-5.82,4.27-8-7.38-2.91-13.59s10.29.39,10.29.39S248.17,151.39,242.34,155.66Zm21-15.14c-6.79,2.13-4.65-7.38-.77-12.81s6.21,0,6.21,0S270.1,138.38,263.3,140.52Zm24.46-19.41c-.39,2.72-12.23,7-11.26-1.36s10.48-3.3,10.48-3.3A7.6,7.6,0,0,1,287.76,121.11Z"/><path class="cls-13" d="M292.22,106.94S225,134,215,175.15"/><path class="cls-4" d="M383.61,734s-2.7-22.52-8.59-5.25-.43,33.38-9.38,38.49,15.92.59,17.16-1.74S399.74,724.23,383.61,734Zm-6.8,27c-3.14-3.06.09-11.08,2.77-16.38a1,1,0,0,1,1.93.57C380.57,753.93,380.51,764.54,376.81,760.92Z"/><g id="ball"><circle class="cls-2" cx="78.65" cy="279" r="54.58"/><g class="cls-18"><path class="cls-19" d="M26,328.93C26,266,66.56,221.29,122.69,221.29"/><path class="cls-19" d="M30.47,332.94C30.47,270,71,225.29,127.14,225.29"/><path class="cls-19" d="M34.92,336.94c0-62.93,40.53-107.65,96.66-107.65"/><path class="cls-19" d="M39.36,340.94C39.36,278,79.9,233.3,136,233.3"/><path class="cls-19" d="M43.81,345c0-62.94,40.54-107.65,96.67-107.65"/><path class="cls-19" d="M48.25,349c0-62.94,40.54-107.65,96.67-107.65"/><path class="cls-19" d="M52.7,353C52.7,290,93.24,245.3,149.37,245.3"/><path class="cls-19" d="M57.7,353C57.7,290,98.24,245.3,154.37,245.3"/><path class="cls-19" d="M64.7,353c0-62.93,40.54-107.65,96.67-107.65"/><path class="cls-19" d="M70.7,353c0-62.93,40.54-107.65,96.67-107.65"/><path class="cls-19" d="M-.28,246.57c62.32-8.75,112.23,25.17,120,80.76"/><path class="cls-19" d="M-3.63,251.53c62.32-8.75,112.24,25.17,120,80.76"/><path class="cls-19" d="M-7,256.49c62.33-8.75,112.24,25.17,120.05,80.76"/><path class="cls-19" d="M-10.32,261.45c62.32-8.75,112.24,25.17,120,80.76"/><path class="cls-19" d="M-13.67,266.41c62.32-8.75,112.24,25.17,120.05,80.76"/><path class="cls-19" d="M-17,271.37c62.32-8.75,112.24,25.17,120,80.76"/><path class="cls-19" d="M-20.36,276.33c62.32-8.75,112.24,25.17,120,80.76"/><path class="cls-19" d="M123.5,251.47c24.12,58.13,3.81,115-48,136.48"/><path class="cls-19" d="M117.86,249.48c24.11,58.13,3.81,115-48,136.47"/><path class="cls-19" d="M112.22,247.49c24.11,58.12,3.81,115-48,136.47"/><path class="cls-19" d="M106.57,245.49c24.12,58.13,3.81,115-48,136.48"/><path class="cls-19" d="M100.93,243.5c24.12,58.13,3.81,115-48,136.47"/><path class="cls-19" d="M95.29,241.5c24.12,58.13,3.81,115-48,136.48"/><path class="cls-19" d="M90.62,239.74c24.12,58.13,3.81,115-48,136.48"/><path class="cls-19" d="M84.79,238.36c24.11,58.12,3.81,115-48,136.47"/><path class="cls-19" d="M79.92,237.2c24.12,58.13,3.81,115-48,136.47"/><path class="cls-19" d="M75.06,236c24.12,58.13,3.81,115-48,136.48"/><path class="cls-19" d="M119,339.05C56.09,340.48,10.47,301,9.19,244.85"/><path class="cls-19" d="M122.91,334.51C60,335.94,14.37,296.43,13.09,240.32"/><path class="cls-19" d="M126.81,330C63.9,331.41,18.27,291.9,17,235.78"/><path class="cls-19" d="M130.71,325.44c-62.91,1.43-108.54-38.08-109.82-94.2"/><path class="cls-19" d="M134.61,320.9C71.7,322.33,26.07,282.82,24.79,226.71"/><path class="cls-19" d="M138.52,316.36C75.6,317.8,30,278.29,28.7,222.17"/><path class="cls-19" d="M142.42,311.83C79.5,313.26,33.87,273.75,32.6,217.64"/><path class="cls-19" d="M42.6,215.67c62.91-1.43,108.54,38.08,109.82,94.2"/><path class="cls-19" d="M38.7,220.21c62.91-1.43,108.54,38.08,109.82,94.19"/><path class="cls-19" d="M34.79,224.75c62.92-1.44,108.55,38.07,109.82,94.19"/><path class="cls-19" d="M30.89,229.28c62.92-1.43,108.55,38.08,109.82,94.19"/><path class="cls-19" d="M27,233.82C89.91,232.39,135.53,271.9,136.81,328"/><path class="cls-19" d="M23.09,238.36c62.92-1.44,108.54,38.07,109.82,94.19"/><path class="cls-19" d="M19.19,242.89C82.11,241.46,127.73,281,129,337.08"/></g></g><g id="ball-2" data-name="ball"><circle class="cls-3" cx="124.28" cy="680.82" r="54.58"/><g class="cls-20"><path class="cls-21" d="M168.24,623.11c10.07,62.12-22.8,112.74-78.21,121.72"/><path class="cls-21" d="M163.21,619.86C173.28,682,140.41,732.61,85,741.58"/><path class="cls-21" d="M158.18,616.62c10.07,62.13-22.8,112.75-78.21,121.72"/><path class="cls-21" d="M153.15,613.38c10.07,62.13-22.8,112.75-78.21,121.72"/><path class="cls-21" d="M148.12,610.14c10.07,62.13-22.8,112.75-78.21,121.72"/><path class="cls-21" d="M143.1,606.9C153.16,669,120.29,719.65,64.88,728.62"/><path class="cls-21" d="M138.07,603.66c10.06,62.13-22.81,112.75-78.21,121.72"/><path class="cls-21" d="M133.13,604.46c10.06,62.13-22.8,112.75-78.21,121.72"/><path class="cls-21" d="M126.22,605.58C136.28,667.7,103.42,718.32,48,727.3"/><path class="cls-21" d="M120.3,606.54c10.06,62.12-22.81,112.74-78.21,121.72"/><path class="cls-21" d="M159.92,614.41C170,676.53,137.11,727.15,81.71,736.13"/><path class="cls-21" d="M154.89,611.16C165,673.29,132.08,723.91,76.68,732.88"/><path class="cls-21" d="M149.86,607.92c10.06,62.13-22.81,112.75-78.21,121.72"/><path class="cls-21" d="M144.83,604.68C154.89,666.81,122,717.43,66.62,726.4"/><path class="cls-21" d="M139.8,601.44c10.06,62.13-22.8,112.75-78.21,121.72"/><path class="cls-21" d="M134.77,598.2C144.83,660.33,112,711,56.56,719.92"/><path class="cls-21" d="M129.74,595c10.06,62.13-22.8,112.75-78.21,121.72"/><path class="cls-21" d="M124.81,595.76C134.87,657.88,102,708.51,46.59,717.48"/><path class="cls-21" d="M117.9,596.88C128,659,95.09,709.62,39.68,718.6"/><path class="cls-21" d="M112,597.84C122,660,89.17,710.58,33.76,719.56"/><path class="cls-21" d="M207.38,700.2C147.26,718.81,92.56,693.3,76,639.68"/><path class="cls-21" d="M209.89,694.77c-60.12,18.61-114.82-6.9-131.41-60.52"/><path class="cls-21" d="M212.4,689.34C152.28,708,97.58,682.44,81,628.82"/><path class="cls-21" d="M214.91,683.91c-60.12,18.6-114.82-6.9-131.41-60.52"/><path class="cls-21" d="M217.42,678.48C157.3,697.08,102.6,671.58,86,618"/><path class="cls-21" d="M219.93,673.05c-60.12,18.6-114.82-6.91-131.41-60.53"/><path class="cls-21" d="M222.44,667.62c-60.12,18.6-114.82-6.91-131.42-60.53"/><path class="cls-21" d="M84.41,715.16C51.3,661.63,62.26,602.28,110,572.76"/><path class="cls-21" d="M90.3,716.22c-33.11-53.52-22.15-112.87,25.59-142.4"/><path class="cls-21" d="M96.18,717.29C63.08,663.76,74,604.41,121.77,574.89"/><path class="cls-21" d="M102.07,718.35C69,664.83,79.92,605.48,127.66,576"/><path class="cls-21" d="M108,719.42C74.85,665.9,85.81,606.54,133.55,577"/><path class="cls-21" d="M113.84,720.49C80.74,667,91.7,607.61,139.44,578.09"/><path class="cls-21" d="M118.73,721.48C85.63,668,96.59,608.6,144.33,579.08"/><path class="cls-21" d="M124.72,721.91C91.61,668.39,102.57,609,150.31,579.51"/><path class="cls-21" d="M129.7,722.28c-33.1-53.53-22.14-112.88,25.6-142.4"/><path class="cls-21" d="M134.69,722.64c-33.1-53.52-22.14-112.87,25.59-142.4"/><path class="cls-21" d="M74.83,628c61.88-11.47,113.24,20.23,123.47,75.42"/><path class="cls-21" d="M71.71,633.09c61.88-11.47,113.23,20.23,123.47,75.42"/><path class="cls-21" d="M68.58,638.2c61.88-11.48,113.24,20.23,123.47,75.41"/><path class="cls-21" d="M65.46,643.3c61.88-11.48,113.23,20.23,123.47,75.42"/><path class="cls-21" d="M62.33,648.4c61.88-11.48,113.24,20.23,123.47,75.42"/><path class="cls-21" d="M59.21,653.5c61.87-11.48,113.23,20.23,123.47,75.42"/><path class="cls-21" d="M56.08,658.6C118,647.13,169.32,678.83,179.55,734"/><path class="cls-21" d="M72.18,631c61.88-11.48,113.24,20.23,123.47,75.42"/><path class="cls-21" d="M69.06,636.09c61.88-11.48,113.23,20.23,123.47,75.42"/><path class="cls-21" d="M65.93,641.19c61.88-11.47,113.24,20.23,123.47,75.42"/><path class="cls-21" d="M62.81,646.29c61.87-11.47,113.23,20.23,123.47,75.42"/><path class="cls-21" d="M59.68,651.39c61.88-11.47,113.24,20.23,123.47,75.42"/><path class="cls-21" d="M56.56,656.5C118.43,645,169.79,676.73,180,731.92"/><path class="cls-21" d="M53.43,661.6C115.31,650.12,166.66,681.83,176.9,737"/><path class="cls-21" d="M170,737.56C108.11,749,56.76,717.33,46.52,662.14"/><path class="cls-21" d="M173.12,732.46C111.24,743.93,59.88,712.23,49.65,657"/><path class="cls-21" d="M176.24,727.35C114.37,738.83,63,707.12,52.77,651.94"/><path class="cls-21" d="M179.37,722.25C117.49,733.73,66.13,702,55.9,646.83"/><path class="cls-21" d="M182.49,717.15C120.62,728.63,69.26,696.92,59,641.73"/><path class="cls-21" d="M185.62,712.05c-61.88,11.47-113.23-20.23-123.47-75.42"/><path class="cls-21" d="M188.74,707c-61.87,11.47-113.23-20.23-123.46-75.42"/><path class="cls-21" d="M175.29,731.57C113.42,743,62.06,711.34,51.82,656.15"/><path class="cls-21" d="M178.42,726.46C116.54,737.94,65.18,706.23,55,651.05"/><path class="cls-21" d="M181.54,721.36c-61.87,11.48-113.23-20.23-123.47-75.42"/><path class="cls-21" d="M184.67,716.26C122.79,727.74,71.44,696,61.2,640.84"/><path class="cls-21" d="M187.79,711.16c-61.87,11.47-113.23-20.23-123.46-75.42"/><path class="cls-21" d="M190.92,706.06C129,717.53,77.69,685.83,67.45,630.64"/><path class="cls-21" d="M194.05,701c-61.88,11.48-113.24-20.22-123.47-75.41"/><path class="cls-21" d="M187.22,718.08C125.34,729.56,74,697.85,63.75,642.67"/><path class="cls-21" d="M190.35,713c-61.88,11.48-113.24-20.23-123.47-75.42"/><path class="cls-21" d="M193.47,707.88C131.59,719.36,80.24,687.65,70,632.46"/><path class="cls-21" d="M196.6,702.78c-61.88,11.47-113.24-20.23-123.47-75.42"/><path class="cls-21" d="M199.72,697.68c-61.88,11.47-113.23-20.23-123.47-75.42"/><path class="cls-21" d="M202.85,692.58C141,704.05,89.61,672.35,79.38,617.16"/><path class="cls-21" d="M206,687.47C144.09,699,92.74,667.24,82.5,612.05"/></g></g><path class="cls-13" d="M476.09,302.38s52.09,75,35.57,183c-16.23,106.08,15.86,160,15.86,160"/><path class="cls-22" d="M441.42,628.28S510.17,663,511,729c.93,74.15-.72,104.59-.72,104.59"/><path class="cls-23" d="M355.83,631s-50,32.48-36.15,198.17"/><path class="cls-24" d="M304.77,545.49s-12.82,5.66-25.88,30.58c-17.39,33.18-51.11,43.47-43.39,87.68,8.73,50,8.24,197.28,8.24,197.28"/><path class="cls-13" d="M399,355.67s105.36,61.6,121.27,160.4c15.36,95.42-16.67,128.26,6,256.26"/><path class="cls-22" d="M409.75,126.39s74.32-53.68,116.53-11.45c42.75,42.78,50.56,172.93,50.56,172.93"/><g id="ball-3" data-name="ball"><circle class="cls-4" cx="623.26" cy="279" r="54.58"/><g class="cls-25"><path class="cls-22" d="M628.57,351.35c-48.7-39.86-57.62-99.56-22.07-143"/><path class="cls-22" d="M634.49,350.44c-48.7-39.86-57.63-99.55-22.08-143"/><path class="cls-22" d="M640.4,349.54c-48.7-39.87-57.62-99.56-22.07-143"/><path class="cls-22" d="M646.32,348.63c-48.7-39.86-57.63-99.55-22.08-143"/><path class="cls-22" d="M652.23,347.73c-48.7-39.87-57.62-99.56-22.07-143"/><path class="cls-22" d="M640.57,352.35c-48.7-39.86-57.62-99.56-22.07-143"/><path class="cls-22" d="M646.49,351.44c-48.7-39.86-57.63-99.55-22.08-143"/><path class="cls-22" d="M652.4,350.54c-48.7-39.87-57.62-99.56-22.07-143"/><path class="cls-22" d="M548.18,319.54c32.7-53.78,90.57-70.91,138.52-41.75"/><path class="cls-22" d="M549.89,325.27c32.71-53.77,90.58-70.91,138.53-41.75"/><path class="cls-22" d="M551.61,331c32.7-53.77,90.57-70.91,138.53-41.75"/><path class="cls-22" d="M553.33,336.73C586,283,643.9,265.82,691.86,295"/><path class="cls-22" d="M555.05,342.46c32.7-53.77,90.57-70.91,138.53-41.75"/><path class="cls-22" d="M556.77,348.19c32.7-53.77,90.57-70.91,138.53-41.74"/><path class="cls-22" d="M558.49,353.92C591.19,300.15,649.06,283,697,312.18"/><path class="cls-22" d="M609.91,239.26c60.26,18.16,91.38,69.87,75.18,123.62"/><path class="cls-22" d="M604.79,242.37C665.05,260.52,696.17,312.23,680,366"/><path class="cls-22" d="M600.47,244.86c60.26,18.16,91.38,69.87,75.19,123.61"/><path class="cls-22" d="M595.7,248.5c60.26,18.16,91.38,69.87,75.19,123.61"/><path class="cls-22" d="M591.73,251.53C652,269.69,683.1,321.4,666.91,375.15"/><path class="cls-22" d="M587.75,254.57c60.26,18.15,91.38,69.86,75.19,123.61"/><path class="cls-22" d="M695.3,285.79c-38.74,49.6-98.22,59.88-142.45,25.33"/><path class="cls-22" d="M694.26,279.9c-38.74,49.6-98.22,59.88-142.45,25.33"/><path class="cls-22" d="M693.22,274c-38.74,49.6-98.22,59.88-142.45,25.32"/><path class="cls-22" d="M692.18,268.12C653.44,317.71,594,328,549.73,293.44"/><path class="cls-22" d="M691.14,262.23c-38.74,49.59-98.22,59.87-142.45,25.32"/><path class="cls-22" d="M690.1,256.33c-38.74,49.6-98.21,59.88-142.45,25.33"/><path class="cls-22" d="M689.06,250.44c-38.74,49.6-98.21,59.88-142.45,25.33"/><path class="cls-22" d="M695.3,281.79c-38.74,49.6-98.22,59.88-142.45,25.33"/><path class="cls-22" d="M694.26,275.9c-38.74,49.6-98.22,59.88-142.45,25.33"/><path class="cls-22" d="M693.22,270c-38.74,49.6-98.22,59.88-142.45,25.32"/><path class="cls-22" d="M692.18,264.12C653.44,313.71,594,324,549.73,289.44"/><path class="cls-22" d="M691.14,258.23c-38.74,49.59-98.22,59.87-142.45,25.32"/><path class="cls-22" d="M690.1,252.33c-38.74,49.6-98.21,59.88-142.45,25.33"/><path class="cls-22" d="M689.06,246.44c-38.74,49.6-98.21,59.88-142.45,25.33"/><path class="cls-22" d="M551.43,266.78c38.74-49.59,98.21-59.87,142.44-25.32"/><path class="cls-22" d="M552.47,272.68c38.74-49.6,98.21-59.88,142.44-25.33"/><path class="cls-22" d="M553.51,278.57C592.25,229,651.72,218.69,696,253.24"/><path class="cls-22" d="M554.55,284.46c38.74-49.6,98.21-59.88,142.44-25.32"/><path class="cls-22" d="M555.59,290.35C594.33,240.76,653.8,230.48,698,265"/><path class="cls-22" d="M556.63,296.24c38.74-49.59,98.21-59.87,142.44-25.32"/><path class="cls-22" d="M557.67,302.14c38.74-49.6,98.21-59.88,142.44-25.33"/><path class="cls-22" d="M551.43,274.78c38.74-49.59,98.21-59.87,142.44-25.32"/><path class="cls-22" d="M552.47,280.68c38.74-49.6,98.21-59.88,142.44-25.33"/><path class="cls-22" d="M553.51,286.57C592.25,237,651.72,226.69,696,261.24"/><path class="cls-22" d="M554.55,292.46c38.74-49.6,98.21-59.88,142.44-25.32"/><path class="cls-22" d="M555.59,298.35C594.33,248.76,653.8,238.48,698,273"/><path class="cls-22" d="M556.63,304.24c38.74-49.59,98.21-59.87,142.44-25.32"/><path class="cls-22" d="M557.67,310.14c38.74-49.6,98.21-59.88,142.44-25.33"/><path class="cls-22" d="M551.43,292.78c38.74-49.59,98.21-59.87,142.44-25.32"/><path class="cls-22" d="M552.47,298.68c38.74-49.6,98.21-59.88,142.44-25.33"/><path class="cls-22" d="M553.51,304.57C592.25,255,651.72,244.69,696,279.24"/><path class="cls-22" d="M554.55,310.46c38.74-49.6,98.21-59.88,142.44-25.32"/><path class="cls-22" d="M555.59,316.35C594.33,266.76,653.8,256.48,698,291"/><path class="cls-22" d="M556.63,322.24c38.74-49.59,98.21-59.87,142.44-25.32"/><path class="cls-22" d="M557.67,328.14c38.74-49.6,98.21-59.88,142.44-25.33"/></g></g><path class="cls-15" d="M394.13,353.07s51.54,32.6,83,75.6"/><path class="cls-15" d="M467.67,284.5s30.33,45,38.33,99"/><path class="cls-13" d="M445.67,203.87s33,3.46,52.93,25.28C515.53,247.69,547.67,248,547.67,248"/><path class="cls-23" d="M280.5,59.76S247.3,77.62,234,102c-7.5,13.75-30,25.5-30,25.5"/></g></svg>