<svg width="1920" height="200" viewBox="0 0 1920 200" fill="none" xmlns="http://www.w3.org/2000/svg">
<path d="M554.568 191.124C554.568 195.15 563.038 192.744 569.027 190.682C568.045 129.296 567.047 67.9262 566.032 6.57263C565.151 4.87033 563.902 3.38591 562.375 2.2276C561.119 1.17191 559.615 0.453677 558.005 0.14093C556.29 -0.184344 554.515 0.0569647 552.948 0.828345C551.269 1.9379 549.987 3.55476 549.291 5.44337C548.687 6.60276 548.225 7.83085 547.916 9.10099C550.665 57.7305 552.948 129.361 554.568 191.124Z" fill="#060606"/>
<path d="M561.688 105.501C565.319 104.269 568.62 102.22 571.335 99.5112C576.858 93.8897 577.889 86.8935 579.141 78.6208C580.38 71.4983 580.685 64.2447 580.049 57.0432C579.533 54.2356 579.533 51.3572 580.049 48.5496C580.394 46.2234 581.439 44.0572 583.044 42.3389C583.916 41.3807 585.025 40.6695 586.26 40.2769C587.767 39.7834 589.405 39.8709 590.85 40.5224C591.611 40.9151 593.133 42.0689 594.582 46.3402C595.545 48.8982 596.164 51.5728 596.423 54.2937C596.947 59.5894 596.848 64.9283 596.128 70.2009C595.824 75.4532 595.21 80.6829 594.287 85.8625C593.701 90.9006 592.274 95.8045 590.065 100.37C587.389 104.003 584.566 108.569 577.055 111C572.026 112.478 566.887 113.553 561.688 114.215C561.908 112.693 561.442 107.146 561.688 105.501Z" fill="#060606"/>
<path d="M559.527 140.703C556.925 139.917 553.955 140.997 549.929 138.37C543.743 134.32 543.35 127.373 542.123 120.156C540.885 113.96 540.579 107.614 541.214 101.328C541.728 98.8997 541.728 96.3912 541.214 93.9632C540.835 91.8821 539.793 89.9793 538.244 88.5381C537.323 87.7026 536.223 87.0896 535.028 86.7461C533.516 86.3204 531.908 86.3892 530.438 86.9426C529.677 87.2862 528.155 88.3173 526.707 92.024C525.751 94.2268 525.131 96.56 524.866 98.9464C524.341 103.57 524.441 108.243 525.16 112.841C525.466 117.426 526.081 121.986 527.001 126.489C527.601 130.928 529.025 135.215 531.199 139.132C534.312 143.645 538.906 146.928 544.185 148.411C549.237 149.695 554.371 150.63 559.552 151.209C559.331 149.834 559.773 142.028 559.527 140.703Z" fill="#060606"/>
<path d="M61.6842 162.159C61.8142 164.64 66.9563 162.884 70.5813 161.419C67.9933 123.617 65.3958 85.8247 62.7886 48.0432C62.1907 47.0225 61.3726 46.1479 60.3939 45.4834C59.5861 44.8733 58.636 44.4792 57.6335 44.3384C56.5656 44.1934 55.4795 44.3994 54.5389 44.9254C53.5396 45.6636 52.802 46.7015 52.4337 47.888C52.0989 48.6221 51.8541 49.3939 51.7046 50.1867C54.9699 80.0699 58.6907 124.145 61.6842 162.159Z" fill="#060606"/>
<path d="M63.3062 109.156C65.5047 108.28 67.4727 106.91 69.0587 105.153C72.2813 101.51 72.6907 97.1647 73.1952 92.0255C73.7287 87.5956 73.6826 83.1151 73.058 78.6972C72.6489 76.9834 72.5559 75.2094 72.7836 73.4623C72.9211 72.0174 73.4949 70.6486 74.4288 69.5377C74.9353 68.9189 75.596 68.4447 76.3442 68.1629C77.2572 67.81 78.2692 67.8111 79.1814 68.1659C79.6631 68.3834 80.6385 69.0453 81.6691 71.6311C82.3452 73.1766 82.8132 74.805 83.0607 76.4737C83.5547 79.7206 83.6662 83.0144 83.3929 86.2873C83.3754 89.5343 83.1654 92.7774 82.7641 95.9996C82.5656 99.1236 81.8444 102.192 80.6304 105.078C79.0986 107.403 77.5062 110.309 72.955 112.049C69.9033 113.123 66.771 113.951 63.5876 114.527C63.6747 113.582 63.208 110.178 63.3062 109.156Z" fill="#060606"/>
<path d="M63.1118 130.922C61.4827 130.522 59.6869 131.284 57.1207 129.795C53.1772 127.498 52.7107 123.229 51.7211 118.821C50.7579 115.042 50.3643 111.141 50.5532 107.246C50.7912 105.733 50.7102 104.186 50.3153 102.707C50.014 101.436 49.3104 100.297 48.3094 99.4589C47.7149 98.9736 47.017 98.6314 46.2695 98.4583C45.3239 98.2447 44.3348 98.3391 43.4466 98.7276C42.9887 98.964 42.0839 99.6486 41.311 101.98C40.7933 103.369 40.4862 104.827 40.3999 106.306C40.2263 109.173 40.4383 112.05 41.0302 114.86C41.367 117.676 41.8934 120.467 42.6058 123.213C43.1192 125.929 44.1351 128.525 45.6013 130.869C47.6658 133.55 50.6032 135.425 53.9047 136.168C57.0599 136.797 60.2547 137.207 63.4663 137.397C63.2857 136.557 63.3059 131.731 63.1118 130.922Z" fill="#060606"/>
<path d="M1305.97 171.161C1305.97 173.27 1310.19 172.01 1313.18 170.929C1312.69 138.759 1312.19 106.597 1311.69 74.4445C1311.25 73.5523 1310.62 72.7744 1309.86 72.1674C1309.24 71.6142 1308.49 71.2378 1307.68 71.0739C1306.83 70.9034 1305.94 71.0299 1305.16 71.4341C1304.33 72.0156 1303.69 72.8629 1303.34 73.8527C1303.04 74.4602 1302.81 75.1038 1302.66 75.7695C1304.03 101.254 1305.16 138.793 1305.97 171.161Z" fill="#060606"/>
<path d="M1309.52 126.289C1311.33 125.643 1312.98 124.569 1314.33 123.15C1317.08 120.204 1317.6 116.537 1318.22 112.202C1318.84 108.469 1318.99 104.668 1318.67 100.894C1318.42 99.4227 1318.42 97.9143 1318.67 96.4429C1318.85 95.2239 1319.37 94.0887 1320.17 93.1881C1320.6 92.686 1321.15 92.3133 1321.77 92.1076C1322.52 91.8489 1323.34 91.8947 1324.06 92.2362C1324.44 92.442 1325.2 93.0466 1325.92 95.2851C1326.4 96.6256 1326.71 98.0272 1326.84 99.4532C1327.1 102.228 1327.05 105.026 1326.69 107.79C1326.54 110.542 1326.23 113.283 1325.77 115.997C1325.48 118.637 1324.77 121.207 1323.67 123.6C1322.33 125.504 1320.92 127.897 1317.18 129.171C1314.67 129.945 1312.11 130.509 1309.52 130.856C1309.63 130.058 1309.4 127.151 1309.52 126.289Z" fill="#060606"/>
<path d="M1308.44 144.737C1307.15 144.325 1305.67 144.891 1303.66 143.514C1300.57 141.392 1300.38 137.751 1299.77 133.969C1299.15 130.722 1299 127.396 1299.31 124.102C1299.57 122.829 1299.57 121.515 1299.31 120.242C1299.13 119.152 1298.61 118.155 1297.83 117.399C1297.37 116.961 1296.83 116.64 1296.23 116.46C1295.48 116.237 1294.68 116.273 1293.94 116.563C1293.56 116.743 1292.8 117.284 1292.08 119.226C1291.61 120.381 1291.3 121.603 1291.16 122.854C1290.9 125.277 1290.95 127.726 1291.31 130.135C1291.46 132.539 1291.77 134.928 1292.23 137.288C1292.53 139.614 1293.24 141.861 1294.32 143.913C1295.87 146.279 1298.16 147.999 1300.8 148.776C1303.31 149.449 1305.87 149.939 1308.46 150.243C1308.35 149.522 1308.57 145.431 1308.44 144.737Z" fill="#060606"/>
<path d="M1845.36 166.286C1843.03 165.377 1840.45 166.629 1836.74 163.561C1831.22 158.848 1830.88 150.747 1829.77 142.327C1828.65 135.076 1828.37 127.719 1828.96 120.405C1829.41 117.543 1829.41 114.628 1828.96 111.765C1828.67 109.455 1827.74 107.272 1826.28 105.456C1825.53 104.514 1824.54 103.793 1823.41 103.369C1822.75 103.112 1822.04 102.999 1821.33 103.037C1820.62 103.075 1819.92 103.264 1819.29 103.59C1818.63 104.007 1817.25 105.186 1815.95 109.506C1815.1 112.136 1814.55 114.854 1814.31 117.607C1813.82 122.994 1813.91 128.417 1814.58 133.784C1814.85 139.111 1815.4 144.421 1816.22 149.691C1816.72 154.762 1817.99 159.728 1819.98 164.42C1822.43 168.127 1824.89 172.766 1831.61 175.246C1836.09 176.751 1840.7 177.844 1845.38 178.511C1845.16 176.939 1845.58 167.881 1845.36 166.286Z" fill="#060606"/>
<path d="M1835.74 142.523C1839.28 141.355 1842.51 139.4 1845.19 136.803C1849.68 131.55 1850.1 125.119 1851.03 117.41C1851.73 110.769 1851.61 104.067 1850.69 97.453C1850.25 94.8361 1850.25 92.1654 1850.69 89.5486C1850.95 87.4339 1851.8 85.4352 1853.14 83.7797C1853.82 82.9188 1854.72 82.2573 1855.74 81.8651C1856.35 81.6345 1857 81.535 1857.64 81.573C1858.29 81.6111 1858.92 81.7859 1859.5 82.0859C1860.11 82.4541 1861.36 83.5343 1862.54 87.4865C1863.32 89.8768 1863.82 92.3474 1864.04 94.8509C1864.46 99.7558 1864.38 104.692 1863.79 109.58C1863.55 114.455 1863.05 119.314 1862.3 124.137C1861.84 128.785 1860.68 133.337 1858.86 137.638C1856.67 141.026 1854.39 145.272 1848.28 147.457C1844.21 148.831 1840.02 149.834 1835.76 150.452C1835.91 149.225 1835.54 143.947 1835.74 142.523Z" fill="#060606"/>
<path d="M1835.86 191.3C1835.86 194.516 1842.61 192.601 1847.37 190.956C1846.59 142.057 1845.77 93.1491 1844.92 44.2332C1844.22 42.8734 1843.22 41.6899 1842 40.7719C1841.01 39.9278 1839.81 39.3604 1838.53 39.1272C1837.17 38.845 1835.75 39.0355 1834.51 39.6673C1833.17 40.5492 1832.14 41.8282 1831.56 43.3249C1831.09 44.2516 1830.72 45.2325 1830.48 46.2461C1832.74 85.0319 1834.58 142.106 1835.86 191.3Z" fill="#060606"/>
<path d="M515.276 177.008C514.14 176.565 512.885 177.175 511.079 175.68C508.388 173.384 508.221 169.438 507.683 165.336C507.135 161.804 507.002 158.22 507.288 154.657C507.506 153.262 507.506 151.842 507.288 150.448C507.145 149.322 506.694 148.259 505.985 147.374C505.618 146.915 505.135 146.564 504.585 146.358C504.262 146.232 503.916 146.177 503.569 146.196C503.223 146.214 502.885 146.306 502.576 146.465C502.253 146.669 501.584 147.243 500.95 149.347C500.536 150.629 500.267 151.952 500.149 153.294C499.913 155.918 499.957 158.56 500.28 161.174C500.413 163.77 500.681 166.356 501.082 168.924C501.326 171.394 501.943 173.813 502.911 176.099C504.107 177.905 505.303 180.165 508.58 181.372C510.763 182.106 513.008 182.638 515.288 182.963C515.181 182.198 515.384 177.785 515.276 177.008Z" fill="#060606"/>
<path d="M510.588 165.432C512.314 164.863 513.888 163.91 515.193 162.645C517.381 160.086 517.584 156.953 518.039 153.198C518.379 149.962 518.323 146.697 517.871 143.476C517.659 142.201 517.659 140.9 517.871 139.625C517.999 138.595 518.413 137.621 519.067 136.815C519.398 136.395 519.836 136.073 520.335 135.882C520.63 135.77 520.946 135.721 521.261 135.74C521.576 135.758 521.884 135.843 522.164 135.989C522.463 136.169 523.073 136.695 523.647 138.62C524.025 139.785 524.27 140.988 524.377 142.208C524.584 144.597 524.544 147.002 524.257 149.383C524.138 151.758 523.895 154.125 523.528 156.475C523.305 158.739 522.741 160.957 521.853 163.052C520.789 164.702 519.677 166.771 516.699 167.835C514.715 168.505 512.673 168.993 510.6 169.294C510.672 168.696 510.493 166.125 510.588 165.432Z" fill="#060606"/>
<path d="M510.648 189.193C510.648 190.76 513.937 189.827 516.257 189.026C515.874 165.204 515.476 141.379 515.061 117.549C514.72 116.887 514.234 116.31 513.638 115.863C513.157 115.452 512.575 115.176 511.952 115.062C511.287 114.924 510.596 115.017 509.991 115.325C509.338 115.755 508.836 116.378 508.556 117.107C508.324 117.558 508.147 118.036 508.029 118.53C509.13 137.425 510.027 165.228 510.648 189.193Z" fill="#060606"/>
<path d="M1097.03 177.524C1097.77 177.235 1098.6 177.633 1099.78 176.656C1101.53 175.156 1101.64 172.577 1102 169.896C1102.35 167.588 1102.44 165.245 1102.25 162.917C1102.11 162.005 1102.11 161.077 1102.25 160.166C1102.35 159.431 1102.64 158.736 1103.1 158.157C1103.34 157.858 1103.66 157.628 1104.02 157.493C1104.23 157.411 1104.46 157.375 1104.68 157.387C1104.91 157.4 1105.13 157.46 1105.33 157.563C1105.54 157.696 1105.98 158.071 1106.4 159.447C1106.67 160.284 1106.84 161.149 1106.92 162.026C1107.07 163.741 1107.04 165.467 1106.83 167.176C1106.75 168.872 1106.57 170.563 1106.31 172.241C1106.15 173.855 1105.75 175.436 1105.11 176.93C1104.33 178.11 1103.55 179.587 1101.41 180.376C1099.98 180.856 1098.51 181.204 1097.02 181.416C1097.09 180.916 1096.96 178.032 1097.03 177.524Z" fill="#060606"/>
<path d="M1100.1 169.958C1098.97 169.587 1097.94 168.964 1097.09 168.137C1095.66 166.465 1095.52 164.417 1095.23 161.963C1095 159.849 1095.04 157.715 1095.34 155.61C1095.48 154.776 1095.48 153.926 1095.34 153.093C1095.25 152.42 1094.98 151.783 1094.56 151.256C1094.34 150.982 1094.05 150.772 1093.73 150.647C1093.53 150.573 1093.33 150.542 1093.12 150.554C1092.92 150.566 1092.71 150.622 1092.53 150.717C1092.34 150.834 1091.94 151.178 1091.56 152.437C1091.31 153.198 1091.16 153.984 1091.09 154.781C1090.95 156.343 1090.98 157.914 1091.16 159.47C1091.24 161.022 1091.4 162.569 1091.64 164.105C1091.79 165.585 1092.15 167.034 1092.73 168.403C1093.43 169.482 1094.16 170.834 1096.1 171.529C1097.4 171.967 1098.73 172.286 1100.09 172.483C1100.04 172.092 1100.16 170.412 1100.1 169.958Z" fill="#060606"/>
<path d="M1100.06 185.487C1100.06 186.511 1097.91 185.902 1096.39 185.378C1096.64 169.81 1096.9 154.239 1097.17 138.666C1097.4 138.233 1097.71 137.856 1098.1 137.564C1098.42 137.295 1098.8 137.115 1099.21 137.04C1099.64 136.951 1100.09 137.011 1100.49 137.212C1100.91 137.493 1101.24 137.9 1101.42 138.377C1101.58 138.672 1101.69 138.984 1101.77 139.307C1101.05 151.655 1100.46 169.826 1100.06 185.487Z" fill="#060606"/>
<path d="M1738.29 176.667C1739.69 176.201 1741.28 176.864 1743.45 175.268C1746.76 172.813 1746.96 168.542 1747.62 164.123C1748.28 160.331 1748.44 156.469 1748.11 152.635C1747.82 151.143 1747.82 149.61 1748.11 148.118C1748.29 146.876 1748.85 145.72 1749.7 144.804C1750.17 144.296 1750.76 143.923 1751.42 143.724C1752.21 143.405 1753.09 143.405 1753.88 143.724C1754.27 143.92 1755.11 144.559 1755.87 146.817C1756.38 148.176 1756.71 149.595 1756.85 151.039C1757.13 153.866 1757.08 156.717 1756.7 159.533C1756.53 162.323 1756.2 165.101 1755.72 167.854C1755.41 170.541 1754.65 173.156 1753.46 175.587C1751.9 178.252 1749.44 180.266 1746.51 181.258C1743.82 182.038 1741.07 182.604 1738.29 182.951C1738.41 182.264 1738.17 177.502 1738.29 176.667Z" fill="#060606"/>
<path d="M1744.06 164.221C1741.98 163.648 1740.05 162.626 1738.41 161.226C1735.71 158.477 1735.52 155.114 1734.9 151.088C1734.5 147.609 1734.57 144.09 1735.12 140.631C1735.38 139.26 1735.38 137.853 1735.12 136.482C1734.95 135.353 1734.45 134.301 1733.68 133.463C1733.25 132.99 1732.71 132.642 1732.1 132.456C1731.39 132.178 1730.59 132.178 1729.87 132.456C1729.5 132.653 1728.77 133.217 1728.05 135.279C1727.6 136.531 1727.31 137.834 1727.17 139.158C1726.9 141.74 1726.95 144.345 1727.32 146.915C1727.47 149.474 1727.76 152.023 1728.2 154.549C1728.49 157.001 1729.18 159.39 1730.24 161.619C1731.66 164.05 1733.91 165.888 1736.57 166.799C1738.98 167.511 1741.44 168.037 1743.94 168.37C1743.94 167.732 1744.18 164.982 1744.06 164.221Z" fill="#060606"/>
<path d="M1743.99 189.8C1743.99 191.469 1739.96 190.463 1737.09 189.604C1737.58 163.976 1738.05 138.356 1738.51 112.744C1738.96 112.015 1739.56 111.394 1740.28 110.928C1740.89 110.478 1741.59 110.184 1742.34 110.068C1743.17 109.916 1744.03 110.019 1744.8 110.363C1745.58 110.784 1746.19 111.46 1746.54 112.278C1746.83 112.753 1747.05 113.265 1747.2 113.8C1745.85 134.125 1744.75 164.025 1743.99 189.8Z" fill="#060606"/>
<path d="M286.488 195.357C289.985 194.128 292.928 191.691 294.785 188.483C296.391 185.011 296.88 181.125 296.184 177.363C295.522 173.19 293.73 171.128 294.908 167.789C295.129 167.151 295.767 165.334 297.363 164.745C298.958 164.156 301.315 166.169 301.683 166.537C304.948 169.704 304.531 174.982 304.138 178.811C304.18 182.744 303.172 186.617 301.217 190.03C297.51 195.848 290.17 199.849 287.568 197.934C287.21 197.61 286.927 197.211 286.741 196.766C286.554 196.32 286.468 195.839 286.488 195.357Z" fill="#060606"/>
<path d="M293.19 194.718C290.513 193.203 288.486 190.757 287.494 187.845C286.374 184.252 286.039 180.459 286.513 176.725C286.979 172.552 288.157 170.49 287.396 167.151C287.249 166.513 286.807 164.696 285.727 164.107C284.647 163.518 283.002 165.531 282.757 165.899C280.523 169.066 280.793 174.344 280.989 178.173C280.964 182.007 281.655 185.812 283.027 189.392C285.482 195.209 290.612 199.211 292.404 197.296C292.936 196.543 293.211 195.64 293.19 194.718Z" fill="#060606"/>
<path d="M289.802 195.259C286.76 195.678 283.669 194.971 281.112 193.27C278.045 191.095 275.476 188.292 273.576 185.047C271.391 181.438 271.121 179.082 268.445 176.921C267.93 176.479 266.408 175.203 265.279 175.498C264.149 175.792 263.978 178.296 264.002 178.713C264.149 182.592 267.586 186.618 270.065 189.514C272.367 192.579 275.223 195.186 278.485 197.198C284.033 200.266 290.44 200.34 290.759 197.763C290.719 196.846 290.383 195.968 289.802 195.259Z" fill="#060606"/>
<path d="M289.287 195.725C292.44 195.929 295.561 194.988 298.075 193.074C300.968 190.661 303.277 187.622 304.825 184.187C306.617 180.358 306.617 177.952 309.072 175.546C309.539 175.08 310.962 173.681 312.19 173.902C313.417 174.123 313.908 176.651 313.957 177.093C314.301 181.045 311.281 185.39 309.048 188.483C307.05 191.78 304.413 194.643 301.29 196.903C295.914 200.413 289.237 200.929 288.599 198.327C288.519 197.406 288.762 196.486 289.287 195.725Z" fill="#060606"/>
<path d="M290.686 193.957C290.103 192.443 289.724 190.858 289.556 189.244C289.386 187.45 289.469 185.64 289.802 183.868C290.047 182.125 290.514 178.959 291.324 178.959C291.52 178.959 291.692 179.106 292.478 180.603C293.395 182.002 294.044 183.558 294.392 185.194C294.424 186.201 294.248 187.203 293.877 188.14C293.316 189.23 292.887 190.384 292.6 191.576C292.546 192.267 292.638 192.961 292.87 193.614L290.686 193.957Z" fill="#060606"/>
<path d="M1623.49 182.357C1626.98 181.128 1629.93 178.691 1631.79 175.483C1633.39 172.011 1633.88 168.125 1633.18 164.363C1632.52 160.19 1630.73 158.128 1631.91 154.789C1632.13 154.151 1632.77 152.334 1634.36 151.745C1635.96 151.156 1638.31 153.169 1638.68 153.537C1641.95 156.704 1641.53 161.982 1641.14 165.811C1641.18 169.744 1640.17 173.617 1638.22 177.03C1634.51 182.848 1627.17 186.849 1624.57 184.934C1624.21 184.61 1623.93 184.211 1623.74 183.766C1623.55 183.32 1623.47 182.839 1623.49 182.357Z" fill="#060606"/>
<path d="M1630.19 181.718C1627.51 180.203 1625.49 177.757 1624.49 174.845C1623.37 171.252 1623.04 167.459 1623.51 163.725C1623.98 159.552 1625.16 157.49 1624.4 154.151C1624.25 153.513 1623.81 151.696 1622.73 151.107C1621.65 150.518 1620 152.531 1619.76 152.899C1617.52 156.066 1617.79 161.344 1617.99 165.173C1617.96 169.007 1618.65 172.812 1620.03 176.392C1622.48 182.209 1627.61 186.211 1629.4 184.296C1629.94 183.543 1630.21 182.64 1630.19 181.718Z" fill="#060606"/>
<path d="M1626.8 182.259C1623.76 182.678 1620.67 181.971 1618.11 180.27C1615.04 178.095 1612.48 175.292 1610.58 172.047C1608.39 168.438 1608.12 166.082 1605.45 163.921C1604.93 163.479 1603.41 162.203 1602.28 162.498C1601.15 162.792 1600.98 165.296 1601 165.713C1601.15 169.592 1604.59 173.618 1607.07 176.514C1609.37 179.579 1612.22 182.186 1615.49 184.198C1621.03 187.266 1627.44 187.34 1627.76 184.763C1627.72 183.846 1627.38 182.968 1626.8 182.259Z" fill="#060606"/>
<path d="M1626.29 182.725C1629.44 182.929 1632.56 181.988 1635.07 180.074C1637.97 177.661 1640.28 174.622 1641.83 171.187C1643.62 167.358 1643.62 164.952 1646.07 162.546C1646.54 162.08 1647.96 160.681 1649.19 160.902C1650.42 161.123 1650.91 163.651 1650.96 164.093C1651.3 168.045 1648.28 172.39 1646.05 175.483C1644.05 178.78 1641.41 181.643 1638.29 183.903C1632.91 187.413 1626.24 187.929 1625.6 185.327C1625.52 184.406 1625.76 183.486 1626.29 182.725Z" fill="#060606"/>
<path d="M1627.69 180.957C1627.1 179.443 1626.72 177.858 1626.56 176.244C1626.39 174.45 1626.47 172.64 1626.8 170.868C1627.05 169.125 1627.51 165.959 1628.32 165.959C1628.52 165.959 1628.69 166.106 1629.48 167.603C1630.39 169.002 1631.04 170.558 1631.39 172.194C1631.42 173.201 1631.25 174.203 1630.88 175.14C1630.32 176.23 1629.89 177.384 1629.6 178.576C1629.55 179.267 1629.64 179.961 1629.87 180.614L1627.69 180.957Z" fill="#060606"/>
<path fill-rule="evenodd" clip-rule="evenodd" d="M1920 181.663C1866.67 185.42 1801.31 185.7 1718.72 186.045C1575.15 186.658 1464.77 185.014 1356.98 172.347C1311.26 166.973 1279.39 155.473 1251.11 145.269C1215.83 132.537 1186.14 121.824 1142.12 127.547C1112.59 131.383 1091.62 139.36 1067.5 148.537C1049.47 155.394 1029.68 162.922 1003.25 169.892C935.594 187.689 868.579 189.8 763.037 190.758C571.964 192.476 398.089 193.065 278.161 142.276C273.652 140.364 268.809 137.819 263.516 135.038C245.568 125.607 222.446 113.458 189.639 114.045C149.749 114.753 122.962 129.179 96.1907 143.596C86.7578 148.676 77.3268 153.755 67.3254 158.232C47.0798 167.29 24.764 173.383 0 177.483V199.521C280.253 199.499 560.601 199.529 840.951 199.558C1200.7 199.596 1560.45 199.634 1920 199.563V181.663Z" fill="#060606"/>
</svg>
