<svg id="Layer_1" data-name="Layer 1" xmlns="http://www.w3.org/2000/svg" xmlns:xlink="http://www.w3.org/1999/xlink" viewBox="0 0 720 720"><defs><style>.cls-1{fill:none;}.cls-2{clip-path:url(#clip-path);}.cls-3{fill:#5b4100;}.cls-4{fill:#a0a0a0;}.cls-5{fill:#d1bdb4;}.cls-6{fill:#af8d7e;}.cls-7{fill:#84645d;}.cls-8{fill:#4f3c3a;}.cls-9{fill:#e2d7cf;}.cls-10{fill:#0d0c14;}.cls-11{fill:#bc928b;}.cls-12{fill:#5f3b37;}.cls-13{fill:#f7f8f9;}.cls-14{fill:#ffdc83;}.cls-15{fill:#14161c;}.cls-16{fill:#8a6451;}.cls-17{fill:#e69496;}.cls-18{fill:#c68388;}.cls-19{fill:#9b7200;}</style><clipPath id="clip-path"><rect class="cls-1" width="720" height="720"/></clipPath></defs><title>gold</title><g class="cls-2"><rect width="720" height="720"/><path class="cls-3" d="M86.16,132.92C120.39,119,154.64,105,188,89.16c36.47-17.34,73.34-38.31,95.25-72.23,5.4-8.36,20-20.24,15.93-29.33-4.43-10-26.81-12-37.58-13.56-54.05-8-109.1-2.24-163.44,3.58L7.66-12.69c-8,.86-16.46,1.85-23.16,6.4C-26.51,1.18-29.67,15.77-31.39,29a479.23,479.23,0,0,0-1.87,106.6c1,10.3-1.42,48.9,13.26,48.84,15.54-.06,35.18-24.35,49.69-29.49C48.73,148.16,67.45,140.54,86.16,132.92Z"/><path class="cls-4" d="M318.77-78a127,127,0,0,1-.43,22,142.6,142.6,0,0,1-4.18,21.86,167.67,167.67,0,0,1-18,41,204.86,204.86,0,0,1-27.68,35.5c-5.32,5.34-10.8,10.51-16.59,15.28s-11.72,9.4-17.81,13.77-12.39,8.43-18.79,12.28-12.89,7.52-19.44,11.07c-13.12,7-26.56,13.29-40,19.28s-27.09,11.47-40.57,17.06-26.92,11-40.11,16.87c-26.39,11.58-51.93,24.51-75,40.81a337.3,337.3,0,0,0-33,26.84l-3.92,3.62-2,1.81c-.65.6-1.24,1.26-1.87,1.89L-48,230.62l-1.87,1.91c-.63.63-1.25,1.26-1.83,1.94l-3.53,4-7.07,8a361.9,361.9,0,0,0-46.44,72.09c-6,13.07-11.78,26.36-16.23,40.16l-1.75,5.15-.88,2.58c-.3.86-.5,1.75-.75,2.62l-2.93,10.51-.75,2.62c-.26.88-.52,1.76-.7,2.65l-1.21,5.33q-1.2,5.34-2.48,10.69.44-5.46.94-10.94l.5-5.5c.06-.92.2-1.82.34-2.73l.4-2.72,1.71-10.91c.16-.91.26-1.83.46-2.72l.59-2.7,1.16-5.41c2.91-14.49,7.57-28.57,12.54-42.55a329.54,329.54,0,0,1,43.16-78l7-8.78,3.51-4.38c.57-.75,1.19-1.45,1.82-2.14l1.87-2.1,7.52-8.36c.63-.69,1.23-1.41,1.9-2.07l2-2,4-4c10.46-10.79,22.17-20.27,34.06-29.5L-1.73,167l4.65-3.22c1.53-1.09,3.16-2,4.74-3C14,156.65,20.49,152.93,27,149.26c13.14-7.14,26.58-13.55,40.1-19.56s27.19-11.45,40.78-16.86,27.13-10.7,40.52-16.18S175,85.35,187.9,79.13c6.42-3.17,12.81-6.42,19-9.88s12.39-7.06,18.43-10.83S237.29,50.64,243,46.34,254.11,37.57,259.46,33a211,211,0,0,0,28.6-31.47,177.86,177.86,0,0,0,20.88-37.32,143.46,143.46,0,0,0,6.44-20.6A142.2,142.2,0,0,0,318.77-78Z"/><path class="cls-5" d="M279.6,679.18c-1.73,31.44-2.32,65.16-20.61,90.79-23.3,32.66-67.83,41.91-97.93,68.42-11.23,9.89-20.73,23.34-20.63,38.3.1,15.85,11,29.79,23.82,39.12a95.57,95.57,0,0,0,75.11,16c20.93-4.45,41.94-16,62.51-10.16,28.41,8.13,40.24,45.28,68.3,54.54,17.36,5.73,36.13-.86,53.21-7.37,37.89-14.46,79.11-31.84,97.18-68.14,13.44-27,11-58.81,8.25-88.83-3-33-6.1-66.32-15.59-98.09a250.67,250.67,0,0,0-36.48-74.25c-9.6-13.36-20.81-26-35.18-34-27.72-15.45-60.73-11-91-9.61-8,.36-16.08.59-24.12.26-5.36-.23-13.34-2.72-18.44-.64-10.9,4.44-17.81,25-20.93,35C282.19,646.26,280.51,662.82,279.6,679.18Z"/><path class="cls-6" d="M345.76,667.45c-.64,6.16-6.25,10.4-11.91,7.9l-18.14-8c-3.26-1.43-6.67-2.89-10.22-2.72-6.51.33-11.64,6.27-13.22,12.6s-.41,13,.77,19.4l18,98c1.81,9.91,3.26,21.32-3.28,29-4.69,5.48-12.21,7.4-19.24,9l-73.65,17.05c-23.09,5.34-48.19,10.52-69.76.7a52.78,52.78,0,0,1-28.74-33c-4.1-14.51-1.12-30.94,8.19-42.79,14.4-18.32,39.76-23.07,62.85-26.17s48.37-6.91,63.89-24.29c11.49-12.85,15.28-30.92,15.53-48.16s-2.58-34.4-2.35-51.64c.09-7.69.88-15.62,4.52-22.39,6-11.08,18.75-17.13,31.28-18.28s25,1.82,37.27,4.77c6.2,1.5,15,4.29,14.27,12.36-.55,5.9-6.85,9.39-5.85,16C348.88,636.1,347.88,647.09,345.76,667.45Z"/><path class="cls-7" d="M276,619.74c-1.83,8.16-.75,16.65.34,24.94l11.52,87.94c.92,7,1.53,15.12-3.34,20.29-2.95,3.13-7.28,4.43-11.1,6.4a32.67,32.67,0,0,0-2.3,56.77,128.82,128.82,0,0,1-95,7.69c-14.71-4.6-28.56-11.85-43.59-15.25-11.69-2.64-23.89-2.9-35.32-6.49s-22.59-11.68-25-23.41c-2.23-10.73,3.68-22,12.59-28.42s20.26-8.51,31.22-8.48,21.81,2,32.72,3.1a194.91,194.91,0,0,0,83.69-10.14c10-3.53,20.21-8.29,26.23-17,5.57-8.09,6.71-18.35,7.32-28.16a405.34,405.34,0,0,0-6.76-102.77c-.68-3.47,12.35-6.79,14.6-7,5.75-.63,12.67.58,17.33,4.25,7.47,5.88,0,9.48-4.57,15.41C281.84,605.45,277.69,612.13,276,619.74Z"/><path class="cls-8" d="M253,558.79s25.74,157.07-12.42,162.39S70.24,737.6,95.08,751.8s50.58,1.33,50.58,16.42,18.64,26.62,37.28,5.32,53.24-11.53,71.88-33.72,19.52-31.06,18.63-61.23S269,555.24,269,555.24Z"/><path class="cls-6" d="M475.8,674.49c5.86,9.82,11.78,19.8,14.73,30.85s2.59,23.49-3.56,33.13c-3.8,6-9.5,10.42-15.08,14.76l-25.57,19.9c-5,3.9-10.19,8-13.15,13.61s-3.11,13.27,1.39,17.75c5.58,5.55,14.81,3.87,22.4,1.79l51.74-14.14c10.05-2.74,20.63-5.79,27.83-13.33,8.21-8.6,10.3-21.17,12-32.94,2.93-20.08,5.29-42.57-6.85-58.84-14.54-19.47-44.83-22.62-57.71-43.22-7.24-11.58-7.53-26.74-15.91-37.51A30.75,30.75,0,0,0,439.83,595c-13.7,2-19.29,9.9-9.05,20.18C448.86,633.27,462.68,652.45,475.8,674.49Z"/><path class="cls-7" d="M475.05,625.49c4.37,12.6,8.19,26.31,18.33,35,5.26,4.5,11.8,7.21,17.54,11.08,20.45,13.81,28.08,43.66,16.74,65.59-4.6,8.91-12.11,18-9.53,27.66,2,7.65,10.19,12.46,18.09,12.78s15.51-3,22.39-6.86c13.32-7.53,25.43-18,32.36-31.63s8-30.78.33-44c-7.2-12.5-20.81-19.93-34.49-24.49s-28.1-6.93-41.38-12.56-25.84-15.43-29.93-29.26c-1.89-6.38-1.85-13.14-2.22-19.78s-1.24-13.5-4.69-19.19-10.07-9.92-16.61-8.7c-4,.74-8.85,4.93-9,9.3-.14,4.74,3.8,6.23,6.87,9.16C467.36,606.65,471.71,615.83,475.05,625.49Z"/><path class="cls-3" d="M707.29,671.53c-12.88-2.57-26.15.05-39,2.68l-93.69,19.08c-18.17,3.7-36.36,7.41-54.12,12.75-12.7,3.82-25.18,8.47-38.12,11.38-12.31,2.76-26.14,4.54-34.3,14.17-8.9,10.52-7.16,27,.43,38.53s19.71,19.1,31.6,26.06c35.95,21,74.32,39.91,115.7,44.76s86.53-6.45,114.07-37.7c10-11.36,17.33-24.81,24.2-38.31,8.65-17,19.85-38.38,18.34-58.14C751.1,689.9,722.64,674.59,707.29,671.53Z"/><path class="cls-4" d="M846.85,617.9c-3.94,3-8,5.81-12,8.73-4.16,2.68-8.34,5.37-12.56,8q-6.46,3.71-13,7.33-6.64,3.39-13.36,6.71A414.34,414.34,0,0,1,740.08,670c-38.13,11.63-77.2,18.9-115.9,25.56S546.91,708.17,509.11,717a580.24,580.24,0,0,0-56,15.89l-13.74,5-13.61,5.42-13.46,5.9c-4.44,2.1-8.84,4.29-13.35,6.35,3.88-3,7.87-6,11.84-9,4.1-2.76,8.23-5.53,12.41-8.24q6.39-3.83,12.87-7.56c4.4-2.32,8.81-4.64,13.25-6.92a398.59,398.59,0,0,1,55.62-22c38.06-12,77.13-19.42,115.86-26.06s77.36-12.47,115.26-21c19-4.24,37.74-9.2,56.24-15.24l13.82-4.74,13.7-5.18q6.73-2.85,13.57-5.66C837.86,622,842.31,619.88,846.85,617.9Z"/><path class="cls-9" d="M282.77,593.39s97.05,82.53,184.3-4.88c36.54-36.61,54.58-83.1,63.22-124.77,2-9.64-3.68-20.67-2.57-29.61,1.49-12.11,9.43-21.75,9.76-31.8.91-27.05-1.36-45-1.36-45L508.17,186.52l-15.93-26.46a115.83,115.83,0,0,0-23.92-28.23c-19.61-16.79-54-43.49-75.51-44.7-31.51-1.78-117.42-12-117.42-12L208.23,201.6l-12,135.78Z"/><path class="cls-6" d="M459.5,124.46s-8.79,32.77,8.51,54.07,30.62,67.22,7.32,79.2,1.55,79.2,19.08,98.5,23.52,41.27,17.53,72.55S512,470.67,493.3,520c-22,58.16-48.39,87.58-45.14,85.64,12.56-7.49,43.81-26.3,57.79-56,9.17-19.48,16.48-83.21,24.46-121.18,4.18-19.87,11.42-32.12,11.42-32.12l-4.41-76.18L523.89,283l7.21-35.82L482,145.92S467.13,128.84,459.5,124.46Z"/><path class="cls-6" d="M467.35,160.56s57.9,69.22,33.94,85.19,14.28,35.94,5.81,55.24,27.25,52.8,25.92,79.43-8.43,71.43-17.75,106.93-14.2,66.55-20.41,75l-6.21,8.43s22.18-15.53,31.94-60.34c3.26-15,7.66-29.86,12-44,.52-1.71-3.37-5-3.53-7.86-.66-11.41-1.47-28.79.37-35.07,5.3-18.13,15.26-27.46,16.64-35.11,1.72-9.49,3.28-26.52,1.41-46.25-1.69-17.8-20.09-35.81-22-55.24-1.14-11.35,2.79-25.59,6.65-36.78,1.93-5.58,5.17-10,3.76-14.84-13.31-46.15-42.37-80.52-64.44-100.49S467.35,160.56,467.35,160.56Z"/><path class="cls-10" d="M359.64,434.82a16.08,16.08,0,0,0-5.73-1.15,2.58,2.58,0,0,0-2.05,4.27,32.39,32.39,0,0,0,3.13,3.18,13.08,13.08,0,0,0,6.41,3.49c2.11.34,7.5-.88,5.62-3.82A16,16,0,0,0,359.64,434.82Z"/><path class="cls-10" d="M408.32,437.83a4,4,0,0,1,2.43,0,1.66,1.66,0,0,1,1.06,2,2.49,2.49,0,0,1-1.43,1.18l-6,2.79a5,5,0,0,1-2.67.67c-.81-.12-1.84-1-1.6-1.91s1.56-1.55,2.19-2A17.66,17.66,0,0,1,408.32,437.83Z"/><path class="cls-11" d="M361.42,324.25c-.13-3.64-.3-7.41-1.93-10.68s-5.14-5.88-8.73-5.28c-5.38,6.46-5.14,15.92-3.12,24.07s5.53,16.06,5.8,24.46c.25,7.95-2.44,15.72-6,22.82s-8.06,13.71-11.76,20.76c-2,3.82-3.79,8.4-2,12.33,2.19,4.84,9,6,13.8,3.71,5.5-2.66,8.72-8.47,10.93-14.16a80.7,80.7,0,0,0,5-37.9C361.9,351.1,361.92,337.6,361.42,324.25Z"/><path class="cls-12" d="M499.22,301c.08-1.87-.78-3.64-1.46-5.39s-1.21-3.75-.48-5.48a5.57,5.57,0,0,1,5.05-3,14.43,14.43,0,0,1,6,1.53c7,3,13.83,7.34,17.42,14,2.7,5.05,3.28,10.92,3.81,16.61.26,2.76.49,5.66-.68,8.16-1.5,3.2-4.93,5-8.22,6.28a68.57,68.57,0,0,1-29.28,4.65c-2.19-.13-4.76-.64-5.64-2.65a4.43,4.43,0,0,1,.54-4,19.37,19.37,0,0,1,2.78-3.16,25.45,25.45,0,0,0,6.68-14.28c.3-2.39-.65-5.6.06-7.8S499.11,303.7,499.22,301Z"/><path class="cls-13" d="M445.88,322.46c19.47,13,36.78,12.64,60.07,7.82s8.32-17-16.47-24.13-45.76,12-45.76,12Z"/><path class="cls-14" d="M494.41,315.79c0,9.35-8.07,16.91-18,16.91s-18-7.56-18-16.91a16,16,0,0,1,.28-3,17.36,17.36,0,0,1,12.93-13.33,64.43,64.43,0,0,1,8.33-.29A17.76,17.76,0,0,1,493.34,310,15.79,15.79,0,0,1,494.41,315.79Z"/><path class="cls-10" d="M530.47,324.27a58.29,58.29,0,0,1-12.54,6.83,26.7,26.7,0,0,1-8.09,1.51,18.49,18.49,0,0,1-9.09-1.32c4.3-2.38,7.12-3,11.6-6.2.66-.46,2.78-2.09,2.82-2.89a2.33,2.33,0,0,0-1-1.73A45.69,45.69,0,0,0,493.34,310l-.18,0c-8-1.63-16.28-2.34-24.32-.69a61,61,0,0,0-10.2,3.52c-1.75.73-3.48,1.43-5.22,2-2.44.79-4.91,1.58-7.29,2.55a17.24,17.24,0,0,1-2.87,1.16,4.43,4.43,0,0,1-1.43-.44.78.78,0,0,1-.36-1.17c4.43-6,10.1-11.32,17-14.28a43.89,43.89,0,0,1,12.85-3.13l.29,0a64.43,64.43,0,0,1,8.33-.29A68.38,68.38,0,0,1,530.47,324.27Z"/><path class="cls-10" d="M436.4,314a89.49,89.49,0,0,1,17.53-13.32,97.13,97.13,0,0,1,9.84-5.06,87,87,0,0,1,10.42-3.8,72,72,0,0,1,10.87-2.3c1.83-.28,3.69-.37,5.53-.52s3.71-.14,5.56,0a58.47,58.47,0,0,1,21.45,4.88A73.09,73.09,0,0,0,507,291.35l-1.35-.22-1.35-.15c-.9-.09-1.8-.21-2.7-.28-1.82-.08-3.62-.24-5.43-.18s-3.61.12-5.42.19-3.6.33-5.38.65-3.56.62-5.33,1-3.51.84-5.24,1.37a102.86,102.86,0,0,0-20.06,8.3c-3.2,1.72-6.34,3.57-9.39,5.57A106.33,106.33,0,0,0,436.4,314Z"/><path class="cls-10" d="M445,318.91a8.25,8.25,0,0,0-.94-1.79,2,2,0,0,0-1.76-.8,1.85,1.85,0,0,0-1.37,1.39,4.58,4.58,0,0,0,0,2.05c.36,1.78,1.56,2.87,2.8,4.19.92,1,6.76,4.4,7,1.64.14-1.28-1.94-1.58-3.23-2.75A11.67,11.67,0,0,1,445,318.91Z"/><path class="cls-15" d="M456.3,256c9.28-3.43,19-5.56,28.62-7.69l26.4-5.8c3.45-.76,7-1.52,10.48-.93s6.92,2.88,7.78,6.3c.73,2.89-.52,6-2.53,8.18a23.94,23.94,0,0,1-7.35,5,152.2,152.2,0,0,1-70.41,15.81c-4-.08-8.21-.29-12,1.16-2.05.79-3.89,2.05-5.95,2.8s-4.52.95-6.31-.33c-6.38-4.57,7-11.87,9.85-13.71A108,108,0,0,1,456.3,256Z"/><path class="cls-1" d="M364,311.61c-1.52-4-3.31-8.12-6.5-11s-8.13-4.25-11.89-2.16c-5,2.8-5.51,9.73-5.52,15.51a275.81,275.81,0,0,1-10,72.55c-4.09,14.79-9.44,30.32-5.3,45.09,4.06,14.45,17.79,25.63,32.75,26.69-2.35-5.53-8.46-8.2-13.82-10.91s-11.06-7-11.11-13c-.05-5.37,4.8-9.78,10-11.08a23.82,23.82,0,0,1,7-.55c1.93.11,5.27,1.45,7.07,1,3.21-.8,4.27-5.7,5.51-8.73a140.06,140.06,0,0,0,7.51-24.5,144,144,0,0,0,1.39-51.4A138.32,138.32,0,0,0,364,311.61Z"/><path class="cls-5" d="M450.64,117.44s-1.48,27.81-39.64,3.41-103.5-24-125.4,24.85-22.35,75,23.79,103.82c0,0-83,8.88-44.15,20.86s26,59.45,4.66,82.08-27.79,57.68-15,98.06,2.13,69.22,12.78,83.86,23.08,20.41,34.61,50.58,41.16,39.11,41.16,39.11-62.82-16-98.4-61.29c-27.34-34.84-42.59-41.27-39.93-118.92S226,179.42,226,179.42L296.52,75.59S376.5,35.11,450.64,117.44Z"/><path class="cls-6" d="M378.83,70.72s-77.23,0-91.75,27.94-86,111.37-28.31,133.56c0,0-68.29,50.58-3.51,56.35s2.66,39,2.66,39-48.36,5.33-45.7,49.26-7.1,131.23,4.11,147.65c0,0-17-18.54-16.53-65.57s-12-137.48-12-137.48L205.12,183l51-96.73S321.59,42.41,378.83,70.72Z"/><path class="cls-7" d="M302.28,66S238,117.3,229.08,155s-32.83,73.66,2.66,79.87l32.39,10.65s-48.8,1.33-56.35,33.72-8.43,39.93-4.43,62.56S198,382.63,202,410.59s.83,81.75.83,81.75-12.92-76.53-11-116.81c0,0-9.32-38.67-4-76.35s-3.11-96.25,20.85-142.39S260.85,67.22,302.28,66Z"/><path class="cls-8" d="M265.26,79.58s-33.85,36.8-50.18,82.87c-9.21,26-35.79,71.71-4,79.87,13.43,3.45-13,5.07-16,25.73-3.88,27-8.76,72.67-4,91.41,4.88,19.17,5.42,88.93,5.42,88.93s-1.42-11.49-2.71-24.72c-1.47-15-2.24-32.91-2.71-39.81-.88-12.89-8.43-58.12-5.33-93.18s2.67-105.6,23.08-144.2S241,85.79,265.26,79.58Z"/><path class="cls-16" d="M275.8,288.78c-1.39-.89-2.79-2.54-2-4,1.07-2.06,4.57-.67,6.34-2.18,1.41-1.21.79-3.71-.74-4.77s-3.53-1.07-5.38-1a68,68,0,0,0-11.44,1.64c-9.64,2.25-18.66,6.57-27.58,10.87-2.32,1.11-4.78,2.35-6.05,4.59a12.16,12.16,0,0,0-1.18,5.71c-.17,5.3.09,10.83,2.56,15.53s6.8,7.94,11.54,10.1,9.87,3.24,15,4.32a21.13,21.13,0,0,0,7.15.66,7.13,7.13,0,0,0,5.72-3.87c.8-1.91.42-4.09.51-6.16.18-4.15,2.35-8,5-11.16s5.84-5.91,8.59-9c1.39-1.57,5-6.5,2.32-8.31-1.09-.73-3.55-.38-4.84-.69A17.48,17.48,0,0,1,275.8,288.78Z"/><path class="cls-13" d="M247.05,316c24.63,16.32,37.05,12.74,58.57,8.75s30.39-6.43,6.43-22.41-67.22,3.78-67.22,3.78Z"/><path class="cls-14" d="M306.28,306.36a18,18,0,1,1-25.78-16,79.3,79.3,0,0,1,8.67,1.35,93.15,93.15,0,0,1,13.55,4,17.6,17.6,0,0,1,2.71,5.21A17.18,17.18,0,0,1,306.28,306.36Z"/><path class="cls-10" d="M321.07,307.76c-.78,1.9-3.22-1.2-4.28-1.94-3.36-2.37-7.43-3.67-11.36-4.85a69.61,69.61,0,0,0-15.81-2.84,70.89,70.89,0,0,0-36.34,7.53,9.31,9.31,0,0,0-4,3.19,6.63,6.63,0,0,0,.18,6.29,15.82,15.82,0,0,0,3,3.83.54.54,0,0,1-.49.91,23.54,23.54,0,0,1-16.7-13.27.55.55,0,0,1,.1-.6,49.12,49.12,0,0,1,20.89-13.39,59.19,59.19,0,0,1,24.23-2.22,79.3,79.3,0,0,1,8.67,1.35,93.15,93.15,0,0,1,13.55,4c.62.24,1.25.49,1.87.75a89.53,89.53,0,0,1,12.73,6.56C318.33,303.68,321.66,306.29,321.07,307.76Z"/><path class="cls-10" d="M334.24,308.48a110.84,110.84,0,0,0-9.8-8.33,120.41,120.41,0,0,0-10.55-7.27,87.66,87.66,0,0,0-23.26-10.21,59.5,59.5,0,0,0-12.5-1.89c-1.06,0-2.11-.13-3.17-.06l-3.16.12a51.56,51.56,0,0,0-18.33,4.87,69.15,69.15,0,0,0-11.08,6.46A60,60,0,0,1,253,284.84a60.94,60.94,0,0,1,5.91-2.75,54.7,54.7,0,0,1,6.25-1.87,50.28,50.28,0,0,1,6.45-1.12l3.28-.21c1.09-.09,2.18,0,3.27,0a59,59,0,0,1,12.95,1.85,80.62,80.62,0,0,1,23.59,10.83A97.92,97.92,0,0,1,334.24,308.48Z"/><path class="cls-15" d="M346,273.22c.72-4.51-1.76-9-5.23-12s-7.83-4.65-12.09-6.28l-58.19-22.29c-8.16-3.13-16.59-6.31-25.33-6.08-13.38.34-25.14,8.48-36,16.31-2.57,1.85-5.47,4.7-4.34,7.66.84,2.19,3.63,3.05,5.93,2.59s4.28-1.86,6.33-3c7.15-4,15.69-5.16,23.88-4.39s16.1,3.3,23.79,6.19c20.51,7.71,40.35,18.16,62.06,21.09a72.85,72.85,0,0,0,19.11.6Z"/><path class="cls-10" d="M330.33,313.11a16.41,16.41,0,0,1,2.9,4.68,5.51,5.51,0,0,1,.94,2.43c.17,1.11-2.62,1.15-3.73,1.32-4.22.67-5.32.6-9,.92-.66.05-3,.08-3.36-.47a1.68,1.68,0,0,1,.27-1.65,3,3,0,0,1,1.27-.75,18.31,18.31,0,0,0,4-1.6,3.45,3.45,0,0,0,1.69-3.67c-.32-1-1.77-1.77-1.65-2.91s.88-1.47,1.93-1.28a6,6,0,0,1,2,1A9.63,9.63,0,0,1,330.33,313.11Z"/><path class="cls-10" d="M272,326.22a5.62,5.62,0,0,1,2,.79c.58.43,1.4,1.4,1.22,2.1-1.08.79-2.9.79-4.23.69a17.44,17.44,0,0,1-3.88-.94l-5.12-1.68a5.61,5.61,0,0,1-2.64-1.44c-.59-.69-.87-2.58.15-2.95s2.55,1,3.43,1.18Z"/><path class="cls-17" d="M336.34,496.88,357,489.47c3.62-1.3,7.58-2.6,11.22-1.38,5,1.67,7.79,7.56,12.91,8.74,5.74,1.32,10.85-3.86,16.61-5.07,6.14-1.28,12.19,2.06,17.57,5.26l32,19.09-18.89,14.35a139.27,139.27,0,0,1-15.51,10.71c-18.14,10.22-40.63,11.7-60.5,5.48A92.43,92.43,0,0,1,320.6,528.9a102.92,102.92,0,0,1-12.94-13c-1.26-1.53-4.17-4.26-3.35-6.55s6.5-3.26,8.71-4.05Z"/><path class="cls-18" d="M329.66,526c3.66-1.17,3.14-1.78,6.07-4.1,9.74-7.72,23.94-5.81,36.36-5.13l68.59,3.8c1.81.1,3.75.17,5.29-.79s2.29-3.34,1-4.59a4.46,4.46,0,0,0-3-.87L417,513.12c-9.82-.42-19.67-.84-29.49-.38-10.55.5-22.18,1.73-30.69-4.54-2.94-2.16-5.26-5.09-8.23-7.24-5.5-4-12.77-4.87-19.48-3.88s-13.06,3.68-19.3,6.35c-2.89,1.23-6.09,2.79-7.07,5.77s.82,6.38,3,8.8c5.82,6.47,18.69,9.29,23.93,8"/><path class="cls-10" d="M322.44,507.8l19.43-.34a42.32,42.32,0,0,1,8.79.44,17.77,17.77,0,0,1,6.95,3.29,1.08,1.08,0,0,1-.74,1.92l-26.46-1.62c-3.7-.23-7.62-.42-10.9,1.31-2.17,1.14-4,3.09-6.43,3.46s-14.75-4.28-10.23-7.14c2.16-1.36,7.27-.89,9.78-1C315.89,507.92,319.18,507.8,322.44,507.8Z"/><path class="cls-10" d="M437.19,515.07a8.12,8.12,0,0,1,4.07.34,3.78,3.78,0,0,1,2.07,2.12.84.84,0,0,1-.72,1.12c-3.46.25-6.92,0-10.38,0a4.61,4.61,0,0,1-1.74-.22c-2.47-1,.69-2,1.66-2.29A26.36,26.36,0,0,1,437.19,515.07Z"/><path class="cls-10" d="M413.41,514.18a5,5,0,0,1,2.48.78,1.88,1.88,0,0,1,.67,2.31c-.6,1.06-10,1-10.38-.52C405.22,513.38,412.09,514,413.41,514.18Z"/><path class="cls-19" d="M354.56,62.76A165.89,165.89,0,0,0,343.9,48.29a156.5,156.5,0,0,0-12-13.2A108.57,108.57,0,0,0,303.5,14.53l-2-.93a20.91,20.91,0,0,0-2-.88l-4.06-1.58-4.15-1.32a17.6,17.6,0,0,0-2.1-.56l-2.12-.51c-.71-.15-1.41-.36-2.13-.48l-2.15-.34c-1.44-.2-2.86-.52-4.32-.58L274.15,7l-4.38,0a40.36,40.36,0,0,0-4.39.24c-1.45.14-2.93.17-4.38.45l-4.37.67c-1.46.23-2.88.67-4.33,1-2.93.55-5.72,1.57-8.6,2.41-1.45.38-2.81,1-4.22,1.52l-4.25,1.56,3.93-2.25c1.33-.71,2.63-1.53,4-2.11A79.52,79.52,0,0,1,251.61,7a70.46,70.46,0,0,1,18-3.87l4.63-.28c1.55,0,3.09.09,4.64.14a42.56,42.56,0,0,1,4.64.43l2.31.29c.77.1,1.52.3,2.28.44l2.29.48a19.62,19.62,0,0,1,2.26.56l4.47,1.32,4.34,1.66a22.59,22.59,0,0,1,2.14.92l2.11,1A95,95,0,0,1,334.73,32.4a121,121,0,0,1,11.14,14.44A102.43,102.43,0,0,1,354.56,62.76Z"/><path class="cls-19" d="M332.91,60.34A88.11,88.11,0,0,0,307.7,35.1a82.62,82.62,0,0,0-15.71-8,87.11,87.11,0,0,0-17-4.56l-4.37-.63-4.42-.35c-1.46-.16-2.95-.15-4.42-.18l-2.22,0-1.11,0-1.11,0-4.45.17c-.74,0-1.48.09-2.22.16l-2.22.21c-3,.21-5.91.69-8.87,1.11-11.82,1.87-23.43,5.27-34.95,9.17a130.8,130.8,0,0,1,34.21-13l4.52-.95a22.63,22.63,0,0,1,2.28-.39l2.3-.32c1.53-.19,3.05-.49,4.6-.57l4.64-.33a90.71,90.71,0,0,1,18.61,1,76.71,76.71,0,0,1,47.56,27.16A64.64,64.64,0,0,1,332.91,60.34Z"/><path class="cls-19" d="M309.67,64.22a86.7,86.7,0,0,0-27.84-20.93,84.62,84.62,0,0,0-16.28-5.72,89.91,89.91,0,0,0-17.05-2.32l-4.32-.1-4.32.17c-1.44,0-2.88.19-4.32.32s-2.88.22-4.31.47l-4.29.65c-.72.09-1.43.25-2.14.4l-2.13.44c-2.86.53-5.67,1.3-8.5,2a214.9,214.9,0,0,0-33,12.46A129.22,129.22,0,0,1,213,35.89l4.29-1.41c.71-.25,1.44-.44,2.17-.62l2.19-.56c1.47-.35,2.91-.8,4.41-1l4.46-.83a91.76,91.76,0,0,1,18.15-1.16A76.83,76.83,0,0,1,298.28,50.4,62.48,62.48,0,0,1,309.67,64.22Z"/><path class="cls-19" d="M285.6,68a51.42,51.42,0,0,0-12.82-9.44,69.77,69.77,0,0,0-14.66-5.69,84.68,84.68,0,0,0-15.5-2.46,113.31,113.31,0,0,0-15.74.15,169,169,0,0,0-31.18,5.87c-10.27,2.9-20.37,6.53-30.51,10.28a159.08,159.08,0,0,1,29.32-14,125.57,125.57,0,0,1,32-7.14A98.13,98.13,0,0,1,243,45.7a72.61,72.61,0,0,1,16.22,3.46,61,61,0,0,1,14.81,7.33,52.48,52.48,0,0,1,6.36,5.23A32.85,32.85,0,0,1,285.6,68Z"/><path class="cls-19" d="M249.49,86.41a53,53,0,0,0-10.6-8.77,58.69,58.69,0,0,0-12.12-6A67.47,67.47,0,0,0,200.33,68a88.48,88.48,0,0,0-13.41,1.71c-2.23.38-4.42,1-6.64,1.51-1.11.24-2.19.6-3.29.92l-3.3.94a260.34,260.34,0,0,0-25.81,10.09,112,112,0,0,1,24.5-13.76,93.07,93.07,0,0,1,13.53-4.33c1.17-.27,2.31-.58,3.49-.77l3.54-.6c1.17-.22,2.37-.28,3.56-.42s2.38-.26,3.58-.28a60,60,0,0,1,28.16,5.07,52.09,52.09,0,0,1,6.34,3.39,54.74,54.74,0,0,1,5.76,4.24A40.59,40.59,0,0,1,249.49,86.41Z"/><path class="cls-19" d="M233.44,103.81a79.63,79.63,0,0,0-16.06-8.94,71.55,71.55,0,0,0-8.58-3l-2.18-.6-2.21-.51c-1.46-.38-2.95-.56-4.43-.83a63.86,63.86,0,0,0-17.84-.18A66.26,66.26,0,0,0,165,94.51a41.31,41.31,0,0,0-4.07,1.85c-1.33.69-2.68,1.35-4,2.07-2.56,1.57-5.18,3-7.6,4.85l-1.85,1.3-.93.65-.89.71-3.55,2.83c-1.21.91-2.29,2-3.43,3l-3.41,3c-8.8,8.45-16.64,18-24.2,27.8a144.75,144.75,0,0,1,21.43-30.55,105.46,105.46,0,0,1,14.06-12.61,90.16,90.16,0,0,1,7.92-5.29c1.38-.79,2.82-1.5,4.23-2.24a44,44,0,0,1,4.35-2A65.15,65.15,0,0,1,181.59,85a60,60,0,0,1,19.09,1.06,67.23,67.23,0,0,1,17.76,6.57A62.86,62.86,0,0,1,233.44,103.81Z"/><path class="cls-19" d="M268.76,76.49A188.53,188.53,0,0,0,247.31,64.6a175.91,175.91,0,0,0-22.74-9,108.65,108.65,0,0,0-23.87-4.84,61.61,61.61,0,0,0-23.92,2.42A45.65,45.65,0,0,0,166,58.27a46.41,46.41,0,0,0-9,7.8,63.77,63.77,0,0,0-12,20.68,115.05,115.05,0,0,0-5.72,23.52l-.81,6.08c-.28,2-.58,4.08-.93,6.12-.7,4.07-1.53,8.12-2.52,12.14A143.47,143.47,0,0,1,127,158.14a140.26,140.26,0,0,1-12,21.78c-4.58,6.91-9.79,13.35-14.83,19.75-2.51,3.21-5,6.42-7.14,9.75a44.25,44.25,0,0,0-5.23,10.42,29,29,0,0,0-1.27,5.55,40.82,40.82,0,0,0-.22,5.83v12.3q-.06,12.31-.54,24.63c-.65,16.41-1.86,32.83-4.15,49.16-1.15,8.16-2.57,16.3-4.45,24.37a165.43,165.43,0,0,1-7.3,23.81,97.5,97.5,0,0,1-5.38,11.38c-.52.92-1,1.84-1.6,2.73l-1.62,2.62c-1.07,1.68-2,3.43-3,5.17a74.07,74.07,0,0,0-7.61,22.42,75.06,75.06,0,0,0,0,23.7,98.48,98.48,0,0,0,6.69,23c1.56,3.7,3.31,7.34,5.2,10.9.94,1.78,1.93,3.54,2.94,5.29.5.88,1,1.74,1.54,2.61L68.6,478a50.41,50.41,0,0,1,4.82,11.84,41.22,41.22,0,0,1,1.22,12.8,62.17,62.17,0,0,1-2.22,12.46c-1.1,4-2.42,7.93-3.71,11.81a172.62,172.62,0,0,0-6.5,23.41,56.57,56.57,0,0,0-.93,11.88,40.17,40.17,0,0,0,2.09,11.61,46.58,46.58,0,0,0,5.28,10.65,71.12,71.12,0,0,0,7.53,9.38,135,135,0,0,0,18.39,15.9c3.27,2.41,6.67,4.71,10,7.17s6.54,5,9.69,7.61a137.67,137.67,0,0,1,17.51,17.31,85.18,85.18,0,0,1,7.17,10,56.39,56.39,0,0,1,2.9,5.42,30,30,0,0,1,2.07,5.78,29,29,0,0,0-2.25-5.69,55.64,55.64,0,0,0-3.06-5.3,85.24,85.24,0,0,0-7.44-9.71,136.12,136.12,0,0,0-17.78-16.75c-3.19-2.54-6.45-5-9.8-7.32s-6.76-4.55-10.14-6.91a132.17,132.17,0,0,1-19.07-15.76,73,73,0,0,1-8-9.62,49.92,49.92,0,0,1-5.76-11.21,43.37,43.37,0,0,1-2.43-12.44,59.19,59.19,0,0,1,.8-12.56,173.37,173.37,0,0,1,6.27-24c2.44-7.79,5-15.54,5.39-23.36a37,37,0,0,0-1.27-11.53,47.66,47.66,0,0,0-4.53-10.81l-1.51-2.57c-.53-.89-1.09-1.77-1.6-2.66-1.05-1.79-2.09-3.59-3.07-5.42-2-3.65-3.8-7.39-5.45-11.22a102.54,102.54,0,0,1-7.18-24A76.95,76.95,0,0,1,54,385.13c1-1.85,2-3.7,3.13-5.47l1.61-2.61c.52-.84,1-1.71,1.49-2.57a93.7,93.7,0,0,0,5.08-10.82,160.17,160.17,0,0,0,7-23.11c1.83-7.89,3.27-15.89,4.41-23.93,2.3-16.1,3.54-32.37,4.23-48.67.34-8.15.53-16.31.65-24.47l.1-12.26a47.38,47.38,0,0,1,.3-6.42,33.77,33.77,0,0,1,1.51-6.39A49.6,49.6,0,0,1,89.31,207c2.33-3.51,4.88-6.78,7.44-10,5.14-6.42,10.26-12.71,14.85-19.37a135.8,135.8,0,0,0,12-21,139.84,139.84,0,0,0,8.08-22.84q1.53-5.86,2.64-11.86c.76-4,1.29-8,1.9-12.09a117.37,117.37,0,0,1,6.14-24,65.92,65.92,0,0,1,12.77-21.37,48.54,48.54,0,0,1,9.66-8,47.62,47.62,0,0,1,11.4-5.17,63.55,63.55,0,0,1,24.67-2.06,109.74,109.74,0,0,1,24.07,5.35,167,167,0,0,1,22.67,9.54A190.26,190.26,0,0,1,268.76,76.49Z"/><path class="cls-19" d="M213.23,135.2a86.11,86.11,0,0,0-10-6.47,84.61,84.61,0,0,0-10.78-5.06c-7.37-2.84-15.27-4.64-23.13-4.14A36,36,0,0,0,147.92,128c-6,5-10.45,11.67-13.86,18.71a101.73,101.73,0,0,0-4.48,10.92c-1.29,3.7-2.37,7.53-3.54,11.36q-3.47,11.44-7.11,22.85c-4.82,15.2-9.81,30.34-14.34,45.58s-8.53,30.61-10.89,46.21a166.51,166.51,0,0,0-.72,47c.52,3.9,1.15,7.77,2,11.62s1.67,7.67,2.74,11.44a169.34,169.34,0,0,0,8.07,22.13c3.19,7.2,6.8,14.24,10.56,21.23s7.66,14,11.25,21.19a112.7,112.7,0,0,1,8.82,22.75,61.49,61.49,0,0,1,1.25,24.69,65.51,65.51,0,0,1-3.11,12q-1,2.91-2.31,5.72l-2.44,5.43c-3.18,7.24-6.06,14.59-8.57,22.07A188.43,188.43,0,0,0,115,533.74a143.56,143.56,0,0,0-2.88,23.34c-.62,15.64,1.68,31.46,7.66,46A103.82,103.82,0,0,0,131,623.66l1.7,2.41c.58.8,1.19,1.57,1.79,2.35l1.81,2.34c.62.82,1.27,1.61,1.86,2.45a59.19,59.19,0,0,1,6,10.66,84.45,84.45,0,0,1,6.14,23.43,138.35,138.35,0,0,1,.7,24.07,252.51,252.51,0,0,1-7.52,47.31,344.85,344.85,0,0,1-14.7,45.51c2.82-7.46,5.26-15,7.52-22.68s4.3-15.34,6.05-23.1a250.58,250.58,0,0,0,6.53-47.13,141.36,141.36,0,0,0-1.12-23.65,82,82,0,0,0-6.2-22.6A57.53,57.53,0,0,0,135.75,635c-.57-.78-1.19-1.52-1.78-2.29l-1.89-2.35c-.62-.8-1.27-1.57-1.88-2.38l-1.78-2.44a107.41,107.41,0,0,1-12-21.07,110.86,110.86,0,0,1-8.66-47.5,147.51,147.51,0,0,1,2.75-24.09,193.77,193.77,0,0,1,6.13-23.39c2.52-7.65,5.45-15.15,8.65-22.52l2.45-5.48q1.19-2.64,2.15-5.36A60.72,60.72,0,0,0,132.77,465a56.28,56.28,0,0,0-1.22-22.73,111,111,0,0,0-8.45-21.75c-3.49-7.06-7.37-14-11.13-21.07s-7.43-14.21-10.67-21.59a173.32,173.32,0,0,1-8.25-22.78c-1.09-3.9-2-7.84-2.8-11.81s-1.42-8-1.92-12A171.24,171.24,0,0,1,89.4,283c2.48-15.92,6.83-31.4,11.57-46.66s10-30.32,15-45.44q3.78-11.32,7.42-22.7c1.21-3.78,2.35-7.61,3.74-11.41a93.08,93.08,0,0,1,4.78-11.12c3.68-7.17,8.46-14,14.84-19.07a37.55,37.55,0,0,1,22.48-8.38c8.11-.32,16.1,1.69,23.47,4.75a86.51,86.51,0,0,1,10.69,5.43A85.13,85.13,0,0,1,213.23,135.2Z"/><path class="cls-19" d="M207.35,149.47a36.66,36.66,0,0,0-11.2-2.62,35.58,35.58,0,0,0-11.41.93,34.54,34.54,0,0,0-10.42,4.57,40.58,40.58,0,0,0-8.51,7.56,67.81,67.81,0,0,0-11.34,19.78,132.72,132.72,0,0,0-6.19,22.1c-5.58,30.17-6.11,61.45-.24,91.53,2.85,15.07,7.34,29.77,11.77,44.57s8.71,29.9,10.1,45.6a127.88,127.88,0,0,1,0,23.56q-.54,5.88-1.59,11.68c-.73,3.91-1.51,7.55-2,11.32a116.57,116.57,0,0,0-1.15,22.63,125.55,125.55,0,0,0,3.18,22.46c3.37,14.83,9.17,29.07,14.79,43.48,2.8,7.21,5.54,14.5,7.81,22a131.72,131.72,0,0,1,5,23,103.92,103.92,0,0,1,.13,23.65l-.7,5.73c-.18,1.86-.32,3.73-.35,5.59a49.47,49.47,0,0,0,.92,11,36.62,36.62,0,0,0,3.71,10.24,39.92,39.92,0,0,0,6.58,8.78c5.15,5.38,11.56,9.65,17.62,14.64a58.18,58.18,0,0,1,8.53,8.38,34.59,34.59,0,0,1,5.89,10.65,38.22,38.22,0,0,1,1.83,12,58.3,58.3,0,0,1-1.27,11.83c-.76,3.86-1.94,7.66-3,11.33L234.24,703l-.78,2.78-.71,2.8-1.4,5.6c-.47,1.86-.94,3.73-1.34,5.61-.82,3.77-1.72,7.51-2.48,11.29-3.16,15.08-5.64,30.31-7.59,45.61-1,7.65-1.78,15.33-2.5,23s-1.32,15.39-1.67,23.1c.21-15.45,1.27-30.88,2.85-46.26s3.69-30.71,6.5-45.94c.67-3.81,1.52-7.59,2.27-11.39.37-1.9.81-3.78,1.25-5.67l1.32-5.66.65-2.83.74-2.81,1.49-5.62c1-3.79,2-7.39,2.7-11.13,1.36-7.39,1.63-15.08-.76-22a30.88,30.88,0,0,0-5.39-9.45,54.69,54.69,0,0,0-8.07-7.71c-5.9-4.75-12.51-9-18.16-14.74a44.27,44.27,0,0,1-7.34-9.64,41.18,41.18,0,0,1-4.24-11.42,54.06,54.06,0,0,1-1.1-12c0-2,.15-4,.32-6l.66-5.77a98.57,98.57,0,0,0-.29-22.58c-1.83-15-7-29.51-12.63-43.82s-11.61-28.79-15.11-44.13a131,131,0,0,1-3.24-23.36,123,123,0,0,1,1.25-23.56c.56-3.89,1.41-7.8,2.1-11.47s1.21-7.49,1.56-11.27a128.43,128.43,0,0,0,.12-22.7c-1.21-15.15-5.28-30-9.58-44.78-2.14-7.41-4.36-14.83-6.3-22.35s-3.66-15.1-5-22.77a233.4,233.4,0,0,1-3.54-46.45c.17-7.77.7-15.52,1.54-23.24a216.11,216.11,0,0,1,3.64-23,135.05,135.05,0,0,1,6.82-22.3,68.93,68.93,0,0,1,12.07-19.94,41.5,41.5,0,0,1,8.93-7.57,34.46,34.46,0,0,1,10.8-4.43,35.91,35.91,0,0,1,11.6-.58A36.8,36.8,0,0,1,207.35,149.47Z"/><path class="cls-19" d="M198,173.66a72.66,72.66,0,0,0-19.87-.09,61.41,61.41,0,0,0-19,5.43,51.34,51.34,0,0,0-8.41,5.1,49.78,49.78,0,0,0-7.19,6.65,55,55,0,0,0-9.94,16.77,81.34,81.34,0,0,0-4.64,19,138,138,0,0,0-.92,19.73,231.76,231.76,0,0,0,4.08,39.39c2.42,13,5.81,25.83,9.32,38.66s7.23,25.67,9.86,38.88,4,26.84,2.5,40.44a98.38,98.38,0,0,1-4.28,20c-1.11,3.32-2.22,6.23-3,9.35a58.23,58.23,0,0,0-1.59,9.43,61.35,61.35,0,0,0,1.49,19.07A108.12,108.12,0,0,0,152.76,480c5.2,12.08,11.71,23.78,16.78,36.29a125.34,125.34,0,0,1,6.27,19.33,87.1,87.1,0,0,1,2.34,20.3c0,13.71-3.72,27.16-9.46,39.36a128.58,128.58,0,0,0-7.27,18.32,82.49,82.49,0,0,0-3.58,19.22,69.19,69.19,0,0,0,1.63,19.45,108.7,108.7,0,0,0,6.32,18.68c2.6,6.09,5.51,12.09,8.06,18.29a82.17,82.17,0,0,1,5.67,19.28,57.11,57.11,0,0,1-.53,20,80,80,0,0,1-6.65,18.83,80,80,0,0,0,6-19,57,57,0,0,0,0-19.72,81.21,81.21,0,0,0-6.05-18.8c-2.68-6.06-5.74-12-8.52-18.07a104.88,104.88,0,0,1-6.88-19,71.91,71.91,0,0,1-2-20.21,86,86,0,0,1,3.34-20,131.64,131.64,0,0,1,7.19-18.88c5.4-11.94,8.67-24.85,8.53-37.84s-3.54-25.78-8.65-37.85-11.56-23.76-17-36.14a113.41,113.41,0,0,1-6.62-19.29A66.49,66.49,0,0,1,140,442a62.39,62.39,0,0,1,1.75-10.25c.84-3.34,2.1-6.67,3.11-9.66a93.93,93.93,0,0,0,4.13-19c1.48-12.93.17-26.08-2.29-39s-6-25.75-9.44-38.64-6.67-25.89-8.92-39.11a227.85,227.85,0,0,1-3.49-40.06c0-13.35,1.35-27.1,6.55-39.69a57.19,57.19,0,0,1,10.81-17.12,50.14,50.14,0,0,1,16.43-11.68,61.88,61.88,0,0,1,19.42-5A72.85,72.85,0,0,1,198,173.66Z"/><path class="cls-19" d="M190.36,224.67c-6.23,1-12.4,2.25-18.52,3.7s-12.21,3.06-18.2,4.95A176.69,176.69,0,0,0,136,239.89a103.94,103.94,0,0,0-16.42,8.89,50.05,50.05,0,0,0-13.33,12.51,28.83,28.83,0,0,0-3.94,8,25.31,25.31,0,0,0-1,8.78,31.78,31.78,0,0,0,1.84,8.73,68.64,68.64,0,0,0,3.87,8.38,181.53,181.53,0,0,1,7.71,17.47A133.45,133.45,0,0,1,120.25,331a104,104,0,0,1,2.41,19.13c.06,3.23,0,6.46-.25,9.68a93.64,93.64,0,0,1-1.31,9.61A99.47,99.47,0,0,1,115.54,388a181.3,181.3,0,0,1-8.27,17.26c-3,5.59-6,11.07-8.64,16.66a57,57,0,0,0-5.36,17.23,36.09,36.09,0,0,0,2.24,17.4,52.17,52.17,0,0,0,3.94,8.1c.75,1.31,1.6,2.58,2.44,3.85s1.81,2.67,2.63,4.07a64.86,64.86,0,0,1,7.85,17.92,51,51,0,0,1,1.14,19.67,78.09,78.09,0,0,1-5.22,18.72c-2.37,6-5.08,11.66-7.48,17.41a85.19,85.19,0,0,0-5.57,17.53,48.66,48.66,0,0,0-.82,9,45,45,0,0,0,1,9,56.11,56.11,0,0,0,6.77,16.85c1.56,2.66,3.3,5.13,5.12,7.83a88.34,88.34,0,0,1,4.88,8.32c2.93,5.72,5.24,12,5.65,18.62a36.62,36.62,0,0,1-.68,9.81,56.87,56.87,0,0,1-2.76,9.29c-2.28,6-4.95,11.63-6.8,17.56a59.93,59.93,0,0,0-3,18.26,74.43,74.43,0,0,0,2.41,18.5,121.61,121.61,0,0,0,6.09,17.79c2.42,5.8,5.18,11.47,8.16,17-6.37-10.86-12.05-22.25-15.53-34.48a76.09,76.09,0,0,1-3-18.82,62,62,0,0,1,2.52-19c1.75-6.16,4.37-12,6.45-17.84a55.55,55.55,0,0,0,2.44-8.86,34,34,0,0,0,.43-9A45.24,45.24,0,0,0,109,616.4a87.61,87.61,0,0,0-4.81-7.9c-1.74-2.5-3.67-5.16-5.34-7.91a59.94,59.94,0,0,1-7.52-18,48.17,48.17,0,0,1-1.18-9.8,52.81,52.81,0,0,1,.8-9.81,90.09,90.09,0,0,1,5.67-18.49c2.4-5.9,5.05-11.62,7.28-17.4a75.49,75.49,0,0,0,4.85-17.62,46.18,46.18,0,0,0-1.09-17.83,60.36,60.36,0,0,0-7.32-16.55c-.78-1.32-1.67-2.55-2.52-3.86s-1.81-2.7-2.63-4.12a56.93,56.93,0,0,1-4.34-8.87,43.26,43.26,0,0,1-2.45-9.7,40.64,40.64,0,0,1,0-10,61.77,61.77,0,0,1,5.84-18.71C96.93,414,100.05,408.49,103,403a186.19,186.19,0,0,0,8.13-16.78,95.26,95.26,0,0,0,5.47-17.59,90,90,0,0,0,1.32-9.11,91,91,0,0,0,.33-9.2C118,338,115.21,325.74,111,314a176.39,176.39,0,0,0-7.29-17.21l-2.07-4.28A46.13,46.13,0,0,1,99.81,288,34.51,34.51,0,0,1,98,278.25a28.25,28.25,0,0,1,1.37-9.87,31.62,31.62,0,0,1,4.54-8.79,53,53,0,0,1,14.35-12.92,105.84,105.84,0,0,1,17-8.57,175.33,175.33,0,0,1,18-6.08A238.85,238.85,0,0,1,190.36,224.67Z"/><path class="cls-19" d="M358.49,32.22A79.2,79.2,0,0,1,413.12-10a89.57,89.57,0,0,1,14.22-1.76A110,110,0,0,1,455.82-9,143.89,143.89,0,0,1,483,0a71.82,71.82,0,0,1,23.59,16.51,67.83,67.83,0,0,1,14.32,25.07c3.06,9.16,4.75,18.63,6.15,28s2.47,18.82,3.85,28.16,3,18.6,5.23,27.73a191.82,191.82,0,0,0,8.58,26.74,176.69,176.69,0,0,0,12.62,25A197.61,197.61,0,0,0,573.73,200a228.44,228.44,0,0,0,19.36,20.37l2.58,2.4,2.63,2.34,5.35,4.75a103.25,103.25,0,0,1,10,10.57,64,64,0,0,1,13.24,26.13,61.78,61.78,0,0,1,1.52,14.69A92.2,92.2,0,0,1,627,295.8c-1.67,9.52-4.33,18.67-6.44,27.82s-3.68,18.34-3.34,27.5a62.18,62.18,0,0,0,2,13.51,64.71,64.71,0,0,0,4.91,12.75A80.11,80.11,0,0,0,631.46,389c1.39,1.86,2.87,3.6,4.39,5.41.77.94,1.56,1.85,2.32,2.8s1.5,1.9,2.22,2.88a63.54,63.54,0,0,1,7.45,12.7,35.11,35.11,0,0,1,2.95,14.77,34,34,0,0,1-4.12,14.49,70.66,70.66,0,0,1-8.38,12c-6.23,7.34-13,13.95-18.93,21.18S608.28,490.29,605.3,499a59.49,59.49,0,0,0-2.56,27.29,83.22,83.22,0,0,0,2.94,13.63c1.33,4.48,3.08,8.81,4.72,13.32a193.14,193.14,0,0,1,7.92,27.48,118.66,118.66,0,0,1,2.39,28.52,109,109,0,0,1-5.3,28.06c-2.78,9.07-6.29,17.94-7.28,27.34a50.35,50.35,0,0,0,.39,14.08,65.36,65.36,0,0,0,3.92,13.61,66.06,66.06,0,0,1-4.3-13.54,51.42,51.42,0,0,1-.78-14.23c.82-9.55,4.19-18.58,6.77-27.64a107.29,107.29,0,0,0,4.67-27.75,116.39,116.39,0,0,0-2.9-27.95,193.7,193.7,0,0,0-8.15-27c-1.66-4.38-3.52-8.82-5-13.42a88.3,88.3,0,0,1-3.22-14.09A63,63,0,0,1,602,497.89c3.06-9.31,8.4-17.63,14.4-25.09S629.1,458.54,635,451.36a66.28,66.28,0,0,0,7.81-11.3,29.73,29.73,0,0,0,3.54-12.64,30.7,30.7,0,0,0-2.69-12.87,59.08,59.08,0,0,0-7-11.72c-.69-.92-1.43-1.81-2.13-2.73s-1.5-1.77-2.24-2.65c-1.54-1.81-3.14-3.68-4.6-5.6a84.38,84.38,0,0,1-7.91-12.29,66.28,66.28,0,0,1-7.51-28.26c-.38-9.82,1.27-19.48,3.4-28.78s4.75-18.41,6.33-27.57,2-18.42,0-27.26a58.93,58.93,0,0,0-12.2-24.14,96,96,0,0,0-9.5-10.07l-5.27-4.7-2.68-2.39-2.62-2.45A231.45,231.45,0,0,1,570,203.09a194.58,194.58,0,0,1-16.68-23.42,179.62,179.62,0,0,1-12.79-25.77A194.26,194.26,0,0,1,532,126.5c-2.2-9.32-3.8-18.74-5.05-28.17s-2.25-18.87-3.51-28.22-2.83-18.63-5.67-27.5a64.74,64.74,0,0,0-13.36-24.09A68.8,68.8,0,0,0,481.88,2.4a135.69,135.69,0,0,0-13.06-5.23c-4.44-1.55-8.95-2.9-13.51-4a108.56,108.56,0,0,0-27.91-3.22,88.9,88.9,0,0,0-14,1.48A77.58,77.58,0,0,0,376,10.07a83,83,0,0,0-9.72,10.29A70,70,0,0,0,358.49,32.22Z"/><path class="cls-19" d="M420.93,90.71a109.87,109.87,0,0,1,21.34-3.57,108.61,108.61,0,0,1,21.7.6,88.7,88.7,0,0,1,21.1,5.35,74.75,74.75,0,0,1,34.05,26.76,96.64,96.64,0,0,1,5.8,9.33,104.38,104.38,0,0,1,4.67,9.93c5.58,13.54,8.36,28,9.95,42.45s2,29.17-.48,43.68a137.67,137.67,0,0,1-5.37,21.29c-2.26,6.92-4.9,13.62-6.39,20.42a50.8,50.8,0,0,0-.37,20.55,91.89,91.89,0,0,0,6.44,20,208,208,0,0,0,9.7,19.05,94.25,94.25,0,0,1,5.16,9.8,58,58,0,0,1,3.5,10.73,57,57,0,0,1,.25,22.45,108.53,108.53,0,0,1-6.38,21.16c-2.69,6.78-5.67,13.36-8.36,20a121.73,121.73,0,0,0-6.52,20.16,57.86,57.86,0,0,0-.86,20.68,58.89,58.89,0,0,0,6.77,19.6A96.94,96.94,0,0,0,549,488.24a60.77,60.77,0,0,1,11.75,18.89,43.15,43.15,0,0,1,2.54,11,43.66,43.66,0,0,1-.41,11.25,65,65,0,0,1-7.66,20.75,162,162,0,0,1-12,18.21c-4.33,5.8-8.82,11.46-13.23,17.15s-8.73,11.44-12.59,17.47a85.41,85.41,0,0,0-9.48,19.18,45.16,45.16,0,0,0-2,21.11,49.51,49.51,0,0,0,8,19.82,49.78,49.78,0,0,1-8.76-19.7,45.94,45.94,0,0,1,1.45-21.62A86.79,86.79,0,0,1,515.77,602c3.76-6.22,8-12.13,12.25-18s8.69-11.53,12.87-17.37a159,159,0,0,0,11.48-18.07,63,63,0,0,0,7-19.77,39.43,39.43,0,0,0-2.21-20.32A57.06,57.06,0,0,0,545.9,491a99.05,99.05,0,0,1-13.09-17.76,63.41,63.41,0,0,1-7.45-21,62.44,62.44,0,0,1,.73-22.32,121.23,121.23,0,0,1,6.67-21c2.72-6.75,5.68-13.33,8.29-20a103.67,103.67,0,0,0,6.05-20.22,51.44,51.44,0,0,0-3.42-30.36,89,89,0,0,0-4.89-9.34,210.26,210.26,0,0,1-9.88-19.54,96.37,96.37,0,0,1-6.71-21.11,54.26,54.26,0,0,1,.54-22.41c1.68-7.3,4.43-14.05,6.69-20.82a133.48,133.48,0,0,0,5.39-20.58c2.4-14,2.42-28.36,1-42.6s-3.87-28.42-9.09-41.69a103.4,103.4,0,0,0-4.4-9.71,93.22,93.22,0,0,0-5.47-9.12,77.21,77.21,0,0,0-14.31-15.67,73.29,73.29,0,0,0-18.2-11A86.84,86.84,0,0,0,463.79,89a116.26,116.26,0,0,0-42.86,1.73Z"/><path class="cls-19" d="M398.13,78.26A97.92,97.92,0,0,1,421.55,58a63.44,63.44,0,0,1,29.55-9.24,64.37,64.37,0,0,1,15.61,1.19,75.92,75.92,0,0,1,14.94,4.67A106.72,106.72,0,0,1,508.1,71.18a140.46,140.46,0,0,1,21.53,22.67,144.85,144.85,0,0,1,16,26.9c8.75,19,13.78,39.48,16.83,60.05s4.07,41.41,4.84,62.09,1.42,41.36,3.79,61.8A283.91,283.91,0,0,0,576.18,335c1.16,5,2.42,9.95,3.89,14.87s3.06,9.82,4.68,14.73c3.25,9.81,6.64,19.64,9.36,29.75a134,134,0,0,1,5.07,31.16,82.8,82.8,0,0,1-1.11,15.94,75.26,75.26,0,0,1-4.38,15.39c-3.89,9.88-9.12,18.92-13.54,28.14a103.58,103.58,0,0,0-5.71,14,59.56,59.56,0,0,0-1.78,7.23,46.18,46.18,0,0,0-.65,7.31,39.59,39.59,0,0,0,2.64,14.33,67.12,67.12,0,0,0,7,13.2c5.59,8.46,12.45,16.3,18.13,25.25a64.92,64.92,0,0,1,7,14.42,45,45,0,0,1,2.24,16.08,54.41,54.41,0,0,1-3.19,15.8,94.65,94.65,0,0,1-6.63,14.41c-5.11,9.19-11.12,17.67-16.6,26.38s-10.56,17.65-13.3,27.35a50.06,50.06,0,0,0-2,14.82,53.18,53.18,0,0,0,2.68,14.77c3.11,9.66,8.24,18.66,12.94,27.91a142.56,142.56,0,0,1,6.47,14.28,63.11,63.11,0,0,1,3.84,15.33,55,55,0,0,1-.64,15.79,83.83,83.83,0,0,1-4.33,15.09c-3.73,9.76-8.67,18.91-13.23,28.18s-8.47,18.88-10.39,29a56.7,56.7,0,0,0-.94,15.38,40.15,40.15,0,0,0,4.14,14.83,40.38,40.38,0,0,1-4.52-14.8,57,57,0,0,1,.56-15.54c1.74-10.28,5.52-20.09,9.93-29.47s9.16-18.59,12.64-28.26a81.35,81.35,0,0,0,4-14.79,53,53,0,0,0,.35-15.13A60.73,60.73,0,0,0,587,753.55a139.32,139.32,0,0,0-6.51-13.92c-4.75-9.13-10.07-18.17-13.45-28.23a62.65,62.65,0,0,1-2.06-7.69,50.72,50.72,0,0,1,1-23.83c2.8-10.32,8-19.62,13.41-28.48s11.31-17.4,16.2-26.35a89.66,89.66,0,0,0,6.26-13.79,49.51,49.51,0,0,0,2.86-14.55,40.29,40.29,0,0,0-2.11-14.49,59.71,59.71,0,0,0-6.63-13.37c-5.46-8.52-12.34-16.3-18.23-25.07a71.53,71.53,0,0,1-7.55-14.15,44.31,44.31,0,0,1-3-16,51.38,51.38,0,0,1,.7-8.13,66.39,66.39,0,0,1,1.91-7.84,108.34,108.34,0,0,1,6-14.72c4.52-9.44,9.66-18.4,13.34-27.82a71.33,71.33,0,0,0,4.08-14.43,79.75,79.75,0,0,0,1.06-15,129.8,129.8,0,0,0-4.85-30c-2.64-9.89-6-19.65-9.22-29.5-1.62-4.93-3.22-9.87-4.69-14.88s-2.77-10.08-4-15.18a281.77,281.77,0,0,1-5-30.88c-2.28-20.72-2.79-41.5-3.46-62.18-.34-10.34-.67-20.67-1.25-31s-1.52-20.57-2.91-30.77C556,161,551.3,140.73,542.92,122a139.15,139.15,0,0,0-36.21-49.14A105,105,0,0,0,481,56.12a75.59,75.59,0,0,0-14.57-4.8,61.16,61.16,0,0,0-44.54,7.22A97.9,97.9,0,0,0,398.13,78.26Z"/><path class="cls-19" d="M380.21,70.7c4.27-9.54,11-17.86,18.74-24.85a102.09,102.09,0,0,1,26.3-17A89.45,89.45,0,0,1,455.64,21a64.5,64.5,0,0,1,15.81.83,91.31,91.31,0,0,1,15.18,4.49,106.29,106.29,0,0,1,27.25,15.88A133.73,133.73,0,0,1,536,64.63a154.32,154.32,0,0,1,16.78,26.72,212.92,212.92,0,0,1,11.83,29.22c6.46,20,10.47,40.66,13.73,61.29s6,41.31,10,61.67c2,10.17,4.37,20.27,7.27,30.19a276.15,276.15,0,0,0,10.49,29.19c3.93,9.65,8,19.38,10.75,29.69a84.85,84.85,0,0,1,2.78,15.84,65,65,0,0,1,.08,8.14,57.19,57.19,0,0,1-1.1,8.12A58.2,58.2,0,0,1,613,379.93a149.52,149.52,0,0,1-8.36,13.53c-2.92,4.34-5.89,8.59-8.52,13A62.91,62.91,0,0,0,589.66,420a34,34,0,0,0-1.4,14.41,37.76,37.76,0,0,0,4.8,13.81c4.92,8.74,12.16,16.26,18.75,24.48A94.91,94.91,0,0,1,621,485.83,58,58,0,0,1,626.86,501a63.87,63.87,0,0,1,1.33,8,70.41,70.41,0,0,1,.31,8.08A87.35,87.35,0,0,1,626.68,533a155,155,0,0,1-9.88,30.09c-2.1,4.82-4.34,9.57-6.65,14.27s-4.72,9.31-7,14A211.7,211.7,0,0,0,591.53,620c-3,9.82-5,20-4.63,30.23a58.51,58.51,0,0,0,2.46,15A53.9,53.9,0,0,0,595.85,679c5.61,8.54,13.44,15.46,21.52,21.93s16.6,12.65,24.23,19.91c1.9,1.81,3.75,3.69,5.5,5.66a69.9,69.9,0,0,1,4.93,6.18,65.2,65.2,0,0,1,7.49,13.9,70.69,70.69,0,0,1,4.6,30.92,66.71,66.71,0,0,1-9.39,29.63,66.32,66.32,0,0,0,8.63-29.68A69.91,69.91,0,0,0,658.28,747a63.2,63.2,0,0,0-7.56-13.44,65,65,0,0,0-4.93-5.94c-1.74-1.91-3.59-3.72-5.49-5.46-7.63-7-16.18-12.95-24.46-19.36s-16.35-13.41-22.34-22.3a57,57,0,0,1-7-14.39,61.76,61.76,0,0,1-2.76-15.76c-.53-10.69,1.45-21.27,4.43-31.38a213.77,213.77,0,0,1,11.54-29.34c2.21-4.76,4.57-9.43,6.81-14.1s4.4-9.39,6.41-14.16a151.57,151.57,0,0,0,9.45-29.29c2-10,2.43-20.33,0-30.08a53.11,53.11,0,0,0-5.5-13.9,91.07,91.07,0,0,0-8.8-12.43c-3.25-4-6.69-7.91-10-12a94.3,94.3,0,0,1-9.25-13.11A42.69,42.69,0,0,1,583.43,435,38.88,38.88,0,0,1,585,418.55a68.06,68.06,0,0,1,6.87-14.66c2.74-4.57,5.74-8.88,8.64-13.19a147.15,147.15,0,0,0,8-13.09,54.15,54.15,0,0,0,5.24-14c2.14-9.72,1-20-1.64-29.79s-6.58-19.45-10.5-29.11a282,282,0,0,1-10.6-29.68c-2.95-10.1-5.26-20.35-7.25-30.64-4-20.59-6.54-41.33-9.7-61.9s-6.87-41-13-60.82-14.82-38.82-27.45-55.2A131.43,131.43,0,0,0,512.18,44.3a106.81,106.81,0,0,0-26.41-15.86,88.28,88.28,0,0,0-14.7-4.64,62,62,0,0,0-15.33-1.06,88,88,0,0,0-30,7.26,102.35,102.35,0,0,0-26.34,16.37C391.56,53.14,384.7,61.26,380.21,70.7Z"/><path class="cls-19" d="M372.81,68c-1.61-4.47-3.12-8.92-4.94-13.25s-3.78-8.54-6-12.61a82.85,82.85,0,0,0-16.63-21.69A63.71,63.71,0,0,0,340,16.14c-.91-.67-1.85-1.3-2.78-2l-2.9-1.79a68.88,68.88,0,0,0-12.42-5.63c-8.7-2.95-18-4-27.51-4.16A63.12,63.12,0,0,1,323,3a58.8,58.8,0,0,1,25.63,13.74,70.72,70.72,0,0,1,16.74,23.66A93.8,93.8,0,0,1,370.18,54,101,101,0,0,1,372.81,68Z"/><path class="cls-19" d="M359.69,11.05a41.4,41.4,0,0,1,4.6-14.49,57.61,57.61,0,0,1,4-6.57,62.1,62.1,0,0,1,4.93-6,54.9,54.9,0,0,1,12.12-9.76,44.11,44.11,0,0,1,7.13-3.42,43.45,43.45,0,0,1,7.65-2,75.72,75.72,0,0,1,15.43-1,107.36,107.36,0,0,1,30,5.34,72,72,0,0,1,13.82,6.17,113.36,113.36,0,0,0-14.43-3.94,143.4,143.4,0,0,0-14.66-2.25,137.15,137.15,0,0,0-14.73-.7,84.74,84.74,0,0,0-14.48,1.27c-9.35,1.58-17.77,6.74-24.95,13.22A60.75,60.75,0,0,0,359.69,11.05Z"/><path class="cls-19" d="M352.43,3.72A66.23,66.23,0,0,0,346-1.21a60.52,60.52,0,0,0-6.83-4A48.39,48.39,0,0,0,324.49-10a43.65,43.65,0,0,0-7.67-.55c-1.29-.05-2.57.11-3.87.15l-1.94.21c-.65.05-1.3.14-1.94.25A104.42,104.42,0,0,0,293.42-6a42.59,42.59,0,0,1,14.8-7.69,41.78,41.78,0,0,1,4.15-1,40.6,40.6,0,0,1,4.26-.52c1.43-.13,2.87-.1,4.32-.09s2.88.19,4.3.44a38.13,38.13,0,0,1,15.88,6.32,38.56,38.56,0,0,1,6.42,5.52A30,30,0,0,1,352.43,3.72Z"/><path class="cls-19" d="M483.06,139.9a67.05,67.05,0,0,1,19.88,1,70.91,70.91,0,0,1,18.84,6.73,69.32,69.32,0,0,1,16.27,11.8,66.45,66.45,0,0,1,12.08,16.16,71.75,71.75,0,0,1,8.07,39.33,72.66,72.66,0,0,1-4.65,19.78c-2.32,6.31-5,12.37-7.17,18.54a69.4,69.4,0,0,0-2.58,9.32A45,45,0,0,0,543,272,55.21,55.21,0,0,0,547,290.63c4.69,12.11,12,23.27,17.52,35.66A68.83,68.83,0,0,1,570.31,346a44.52,44.52,0,0,1,0,10.51,36,36,0,0,1-3.09,10.19,148.57,148.57,0,0,1-10,17.63c-1.76,2.81-3.53,5.6-5.17,8.41-.81,1.41-1.6,2.81-2.29,4.22a34.72,34.72,0,0,0-1.72,4.3,71.37,71.37,0,0,0-3.17,18.9,63.62,63.62,0,0,0,.32,9.58,32.1,32.1,0,0,0,2.17,8.93,27.41,27.41,0,0,0,5.14,7.52,81.44,81.44,0,0,0,7.07,6.61c2.5,2.14,5.09,4.3,7.56,6.72a36.54,36.54,0,0,1,6.56,8.33,23.65,23.65,0,0,1,2.08,5.1,24.78,24.78,0,0,1,.86,5.4,42,42,0,0,1-.88,10.48,54.72,54.72,0,0,1-3,9.93,42.56,42.56,0,0,1-5.13,9.17c-.53.7-1.15,1.43-1.72,2.05l-1.71,1.85-3.44,3.63c-2.26,2.4-4.5,4.79-6.49,7.3-4,5-7,10.6-7.71,16.85s.34,12.65,2.37,18.76,5.08,11.93,8.28,17.72,6.58,11.58,9.31,17.76a62.65,62.65,0,0,1,5.31,19.55,66.5,66.5,0,0,1-1.15,20.16,72.39,72.39,0,0,1-2.74,9.7,73.25,73.25,0,0,1-4.09,9.19A68.28,68.28,0,0,1,552,668.61a61.46,61.46,0,0,1-16.17,11.61,64.78,64.78,0,0,0,26.78-28.37,71.35,71.35,0,0,0,3.75-9.1,73,73,0,0,0,2.39-9.53,64.46,64.46,0,0,0,.55-19.5,59.88,59.88,0,0,0-5.48-18.62c-2.76-5.93-6.21-11.56-9.56-17.32a106.61,106.61,0,0,1-8.84-18.19,47.07,47.07,0,0,1-2.84-20.41,32.13,32.13,0,0,1,2.8-10.19,44.23,44.23,0,0,1,5.52-8.84c2.11-2.71,4.4-5.19,6.67-7.64l3.38-3.64,1.65-1.82c.55-.6,1-1.15,1.47-1.77a37.68,37.68,0,0,0,4.52-8.2,50,50,0,0,0,2.74-9.11,37.81,37.81,0,0,0,.74-9.32,18.73,18.73,0,0,0-2.45-8.5,31.92,31.92,0,0,0-5.82-7.18c-2.28-2.22-4.8-4.31-7.35-6.48a85.45,85.45,0,0,1-7.5-7,32.31,32.31,0,0,1-6.06-8.85,37.32,37.32,0,0,1-2.57-10.34,68.51,68.51,0,0,1-.37-10.31,76.13,76.13,0,0,1,3.38-20.28,40.33,40.33,0,0,1,2-4.94c.77-1.58,1.6-3.07,2.46-4.54,1.71-2.93,3.5-5.74,5.28-8.55a147,147,0,0,0,9.7-17,31.41,31.41,0,0,0,2.73-8.79,40.22,40.22,0,0,0,0-9.37,63.83,63.83,0,0,0-5.32-18.37c-5.16-11.95-12.44-23.24-17.28-36a59.76,59.76,0,0,1-4.19-20.14,47.08,47.08,0,0,1,1.06-10.34,73.58,73.58,0,0,1,2.87-9.83c2.31-6.36,5.13-12.39,7.49-18.5a85,85,0,0,0,3-9.27,65.29,65.29,0,0,0,1.71-9.54,69,69,0,0,0-7-37.85,64.32,64.32,0,0,0-11.23-16,67.18,67.18,0,0,0-15.54-12,69.59,69.59,0,0,0-18.36-7.16A66.59,66.59,0,0,0,483.06,139.9Z"/></g></svg>