<svg id="Layer_2" data-name="Layer 2" xmlns="http://www.w3.org/2000/svg" xmlns:xlink="http://www.w3.org/1999/xlink" viewBox="0 0 720 720"><defs><style>.cls-1{fill:none;}.cls-2{clip-path:url(#clip-path);}.cls-3{fill:#b46d47;}.cls-4{fill:#44002d;}.cls-5{fill:#a0a0a0;}.cls-6{fill:#362b2b;}.cls-7{fill:#9c623f;}.cls-8{fill:#84583e;}.cls-9{fill:#624a35;}.cls-10{fill:#c4865e;}.cls-11{fill:#a0005c;}.cls-12{fill:#a66341;}.cls-13{fill:#755036;}.cls-14{fill:#282113;}.cls-15{fill:#b77857;}.cls-16{fill:#804d39;}.cls-17{fill:#7d695c;}.cls-18{fill:#ff80db;}.cls-19{fill:#0b1017;}.cls-20{fill:#5d3828;}.cls-21{fill:#533c30;}.cls-22{fill:#120f15;}.cls-23{fill:#9f5f3d;}.cls-24{fill:#a14d3c;}.cls-25{fill:#6e281b;}.cls-26{fill:#863d33;}.cls-27{fill:#744c3e;}.cls-28{fill:#854d34;}.cls-29{fill:#d39b79;}</style><clipPath id="clip-path"><rect class="cls-1" width="720" height="720"/></clipPath></defs><title>1</title><g class="cls-2"><rect width="720" height="720"/><path class="cls-3" d="M284.43,595.47c6.78-3.42,11.55-12.86,19.07-14,10.54-1.56,23.72,6.73,34.27,8.23L381.48,596c8.8,1.26,17.9,2.62,25.42,7.37,7.34,4.63,12.5,12.13,15.81,20.14s4.94,16.61,6.54,25.14l5.4,28.63c1.77,9.38,3.54,18.85,3.29,28.39-.18,7.05-1.7,14.51-6.64,19.54-6,6.07-15.26,7.06-23.76,7.66q-26.58,1.88-53.21,3.26c-9.27.49-19.08.81-27.26-3.61-6.05-3.27-10.51-8.8-14.8-14.18l-24.69-31c-8.07-10.11-16.42-20.88-18.29-33.67-1-6.87,0-13.91-1.4-20.73-1.07-5.21-4.18-9.85-5.17-15C260.53,606.54,276.05,599.7,284.43,595.47Z"/><path class="cls-4" d="M186.86,323.94c23.15,100,17.37,210,70.69,297.68,55.62,91.49,162,136.67,261.43,176.24-38.15,37.88-98.35,38.39-152.11,38.67A1978.57,1978.57,0,0,0-107.4,896.79c-4.41,1.12-25.85-242-26.41-264a1797.89,1797.89,0,0,1,66.57-532c7.06-25,15.29-99.68,53.78-77.31C18,41.68,46.63,72.54,70.52,99.58,126.86,163.34,167.66,241,186.86,323.94Z"/><path class="cls-5" d="M398.68,744.38A191.77,191.77,0,0,1,373,733.74a278.06,278.06,0,0,1-24.33-13.67c-1-.61-2-1.21-3-1.84l-2.92-1.93c-1.94-1.29-3.89-2.57-5.8-3.91l-5.69-4.09c-.94-.69-1.9-1.35-2.83-2.06l-2.78-2.14-5.54-4.3c-1.81-1.48-3.59-3-5.38-4.5s-3.63-3-5.34-4.56L304.22,686a314.49,314.49,0,0,1-37.81-41.71l-2.17-2.79-2-2.89-4.07-5.77c-2.78-3.81-5.21-7.85-7.75-11.82-1.26-2-2.55-4-3.77-6l-3.51-6.14-3.5-6.15-.87-1.55-.8-1.57-1.59-3.16-3.19-6.33c-1-2.11-2.17-4.19-3.08-6.37l-5.75-12.95c-1-2.15-1.74-4.38-2.61-6.58l-2.52-6.61-1.27-3.31c-.42-1.11-.85-2.21-1.2-3.33l-2.2-6.73-2.2-6.74-1.1-3.36-.94-3.42-3.69-13.66c-.67-2.27-1.11-4.59-1.62-6.89l-1.5-6.91-1.5-6.92-.38-1.73-.3-1.74-.58-3.49-2.32-14c-.43-2.32-.63-4.66-.91-7l-.81-7-.81-7-.4-3.51-.24-3.52-1-14.08L192.49,406c-.06-1.13-.19-2.26-.32-3.38l-.37-3.37-.76-6.74-.75-6.74-.37-3.37-.54-3.35c-10.08-71.67-35.75-140.89-73.13-203.4A647.12,647.12,0,0,0,52.3,86.84C40.39,72.93,27.87,59.51,14.7,46.71,8.09,40.33,1.32,34.11-5.69,28.17L-11,23.77c-1.77-1.47-3.62-2.83-5.43-4.25-.9-.72-1.86-1.35-2.79-2s-1.86-1.36-2.83-2l-2.9-1.86c-1-.59-2-1.08-3.05-1.63,4.41,1.46,8.43,3.89,12.44,6.2,2,1.23,4,2.41,5.9,3.69l5.81,3.86c7.61,5.31,15,11,22.23,16.79A498.21,498.21,0,0,1,59.54,80.19a571.75,571.75,0,0,1,70.05,87.15c10.13,15.73,19.64,31.89,28.23,48.56,2.17,4.15,4.15,8.41,6.24,12.61l3.07,6.33c1,2.13,1.9,4.29,2.85,6.43l5.66,12.9,5.18,13.1c.85,2.19,1.74,4.37,2.57,6.57l2.3,6.66,4.58,13.33,4.06,13.52,2,6.76,1.74,6.83,3.43,13.7c1,4.59,1.91,9.21,2.86,13.82s2,9.21,2.6,13.88l2.2,14,.54,3.49.38,3.51.75,7,.76,7,.37,3.51c.13,1.17.26,2.34.31,3.52l1.67,28,.74,13.55.19,3.39.35,3.37.68,6.74.69,6.75c.24,2.24.4,4.5.79,6.73l2,13.4.48,3.35.25,1.68.33,1.66,1.29,6.64,1.3,6.64c.44,2.21.81,4.44,1.4,6.62L227.63,526l.8,3.29,1,3.24L231.3,539l1.9,6.49c.3,1.09.68,2.15,1.05,3.21l1.12,3.19c1.5,4.25,2.91,8.54,4.49,12.76l5,12.56c.79,2.12,1.8,4.14,2.72,6.19l2.81,6.16,1.4,3.08.71,1.54.78,1.5,3.08,6,3.08,6c1.07,2,2.23,3.93,3.34,5.89,2.26,3.91,4.4,7.9,6.9,11.66l3.62,5.74,1.8,2.87,1.93,2.79a329.13,329.13,0,0,0,34,42.37L315.8,684c1.56,1.67,3.25,3.19,4.87,4.79l4.92,4.74,5.07,4.59,2.54,2.3c.85.76,1.73,1.48,2.6,2.22L341,707c1.76,1.46,3.58,2.84,5.36,4.28l2.68,2.15c.9.7,1.82,1.37,2.73,2.06,7.27,5.58,14.87,10.73,22.67,15.58A212.59,212.59,0,0,0,398.68,744.38Z"/><path class="cls-4" d="M542.14,34.71c-42.46,73.65-45.2,168.71-7,244.69,38,75.72,111.24,128.33,188.67,162.73,28.74,12.76,64.34,22.77,77.39,51.37,14.45,31.7-.75,51.7-21.55,78.9-18.61,24.33-56.39,53.44-76,86.4-24.75,41.6-45.13,64.8-49.6,142.4-2.78,48.32,32.6,114.83,73,141.48,32.55,21.47,75.64,24.23,112.23,10.74s66.62-42,85.72-76c30.33-54,33.74-118.62,33.24-180.53a1811.83,1811.83,0,0,0-62.91-457.56,1816.85,1816.85,0,0,0-74.8-219.89c-12.69-30.68-24-72.18-46.2-97.38-16.9-19.18-39.5-16.29-62.25-10.91C641.69-72.21,578.49-28.34,542.14,34.71Z"/><path class="cls-5" d="M597-57q-3.53,7.92-7.35,15.71c-2.56,5.18-5.12,10.38-7.82,15.49L565.7,4.84c-10.78,20.34-20.81,41-28.15,62.37a234.28,234.28,0,0,0-8.66,32.55c-1,5.49-1.83,11-2.43,16.56l-.41,4.16-.34,4.26c-.23,2.85-.41,5.7-.61,8.54-.72,11.4-1.26,22.77-1.35,34.12s.17,22.66,1,33.9c1.62,22.45,5.16,44.66,12,65.72a207.79,207.79,0,0,0,12.42,30.61,204.55,204.55,0,0,0,17.17,28.08q4.85,6.66,10.27,12.9c3.6,4.16,7.35,8.2,11.28,12.07S595.75,358.37,600,362c2.07,1.84,4.25,3.57,6.37,5.34s4.34,3.47,6.58,5.12A338,338,0,0,0,670.46,407c5.08,2.48,10.17,4.77,15.53,7.19s10.58,4.85,15.84,7.36c10.53,5,21,10.2,31.32,15.79s20.51,11.52,30.42,18.14c5,3.31,9.84,6.8,14.58,10.59a129.19,129.19,0,0,1,13.66,12.42A76.11,76.11,0,0,1,803.36,494a47.18,47.18,0,0,1,5.91,19.76,44.76,44.76,0,0,1-.58,10.43,54.58,54.58,0,0,1-2.69,9.72,83.78,83.78,0,0,1-8.92,16.76c-6.89,10.17-14.75,19-22.62,27.59s-15.92,16.85-23.75,25.24-15.5,16.86-22.86,25.57-14.36,17.7-20.91,27a288.09,288.09,0,0,0-32.84,59.7,227.15,227.15,0,0,0-10.6,32.5,175.43,175.43,0,0,0-4.7,33.85,162.26,162.26,0,0,0,2.25,34.21c1,5.66,2.25,11.27,3.74,16.83l2.26,8.35c.37,1.4.74,2.8,1,4.22a11.79,11.79,0,0,1,.32,4.3,11.6,11.6,0,0,0-.54-4.25c-.37-1.39-.81-2.76-1.25-4.13l-2.71-8.23c-1.75-5.51-3.31-11.09-4.57-16.75a161.41,161.41,0,0,1-3.9-34.61,180.12,180.12,0,0,1,3.39-34.8c1.1-5.73,2.53-11.41,4-17S666.07,719,668,713.46a296.11,296.11,0,0,1,30.79-62.91c12.65-19.71,27.33-38,42.61-55.48,7.61-8.75,15.34-17.34,22.81-26s14.7-17.36,20.48-26.51,9.77-18.79,8.9-27.71a31.35,31.35,0,0,0-4.34-13A59.54,59.54,0,0,0,779.87,490a121.28,121.28,0,0,0-12.18-10.56c-4.34-3.33-8.91-6.47-13.61-9.48-9.4-6-19.28-11.51-29.35-16.73S704.39,443,694,438.27c-5.19-2.39-10.42-4.71-15.65-7l-7.94-3.46c-2.7-1.17-5.4-2.35-8.08-3.6-10.71-4.93-21.26-10.32-31.52-16.29-5.14-3-10.2-6.09-15.19-9.33s-9.88-6.68-14.65-10.29c-2.41-1.76-4.74-3.64-7.1-5.48s-4.66-3.76-6.92-5.74c-4.57-3.89-9-8-13.25-12.21s-8.36-8.68-12.29-13.25-7.68-9.33-11.22-14.23a215.13,215.13,0,0,1-31.79-64.7c-6.9-23.05-10.22-46.84-11.13-70.43-.22-5.91-.34-11.8-.3-17.69s.22-11.76.48-17.62q.85-17.58,2.81-35c.34-2.9.66-5.8,1-8.68l.55-4.35.64-4.43c.2-1.48.46-3,.72-4.42s.51-2.94.8-4.4c.62-2.91,1.19-5.83,1.93-8.72a232.35,232.35,0,0,1,11-33.76c8.92-21.86,20.83-42,33.07-61.64,6.16-9.8,12.53-19.43,18.73-29.16C581.83-32.46,585-37.3,588-42.2S594-52,597-57Z"/><path class="cls-6" d="M428,385.17c5-3.85,10.67-7.75,12.48-13.79,1.44-4.82,0-10.13-2.61-14.4s-6.43-7.7-10.16-11.07l-49.27,18.52c-2.79,1.05-5.65,2.14-7.86,4.13s-3.68,5.11-2.86,8c1,3.43,4.62,5.23,7.9,6.63l21.81,9.3c4.19,1.79,15.07,9,19.48,6.74,2-1,2.6-4.95,3.76-6.7A31.53,31.53,0,0,1,428,385.17Z"/><path class="cls-7" d="M397.26,610.68c6.92,3.94,14.55,12,18.22,19A128.21,128.21,0,0,1,429,703.17c-.43,3.64-1.27,16.79,1.37,19.33a54.93,54.93,0,0,0,8.84,5.17c11.59,4.26,18.91-3.36,30.51.9a16.5,16.5,0,0,0,5.79,1.37c4.61,0,8.5-4.13,9.38-8.65s-.72-9.23-3.24-13.09-5.89-7.07-9-10.45c-11.73-12.64-20.25-28-26.72-44a325.91,325.91,0,0,1-11.26-33.9c-1.12-4-1.63-11.73-4.63-14.72-2.81-2.81-8.9-.37-12.23.34-3,.65-6.05,1.27-9.19,2.23A33.66,33.66,0,0,1,397.26,610.68Z"/><path class="cls-8" d="M424.66,604.11c3.09,10,7.24,24.4,10.32,34.43l9.3,30.18c2,6.65,4.1,13.33,7.22,19.54s7.38,12,13.1,16c3.7,2.56,7.91,4.3,11.63,6.83s7.38,8,8,12.5c3.58-2.91,6.89-7.76,9.45-11.6s3.89-8.77,2.44-13.15c-1.15-3.44-3.89-6.16-6.92-8.16s-6.42-3.4-9.63-5.09c-14.05-7.42-24.56-20.51-31-35a116.87,116.87,0,0,1-8.37-30.55q-.57-3.95-1-7.92c-.18-1.79-.29-8.74-1.73-10.07C435.67,600.22,424.6,603.91,424.66,604.11Z"/><path class="cls-9" d="M461,676.77c3.76,6.14,9.2,11.52,16,13.8,4.6,1.54,9.95,1.79,13.41,5.19s4.18,9.46,4.36,14.22a46.79,46.79,0,0,0,5.35-13.51c.95-4.56.21-9.73-3-13.05-3-3-7.44-4-11.54-5.2-12.66-3.69-23.11-10.72-32.74-19.36-.62,2.26,2.71,6.35,3.58,8.53A62.15,62.15,0,0,0,461,676.77Z"/><path class="cls-9" d="M439.91,617.45c-.63-4.38-.57-8.85-1.2-13.23a3.56,3.56,0,0,0-1.23-2.66,2.29,2.29,0,0,0-2.71.49,5.21,5.21,0,0,0-1.26,2.64c-1.09,4.8.08,9.81,1.52,14.52.63,2,3.62,14.37,6.45,13.65C443.7,632.29,440.22,619.62,439.91,617.45Z"/><path class="cls-10" d="M454.26,373.5S479.53,389,507.09,381s48.8,10.34,35.6,52.25S509,566.42,460.58,591.68c-34.82,18.17-86.51,41.34-153.3-2.3-76.81-50.17-24.12-51.67-24.12-51.67L296.37,447,402,410.82Z"/><path class="cls-11" d="M533.87,308.56a155.72,155.72,0,0,1,15.33,17.12,201.26,201.26,0,0,1,13.13,18.93,192.87,192.87,0,0,1,19.32,41.91,180.92,180.92,0,0,1,5.62,22.5,170.46,170.46,0,0,1,2.49,23.1,164,164,0,0,1-.72,23.24c-.38,3.86-.93,7.7-1.58,11.53s-1.43,7.55-2.12,11.31c-2.77,15-5.43,30-7.25,45.14s-3,30.29-2,45.35A99.39,99.39,0,0,0,580,590.83a58.72,58.72,0,0,0,10.11,19.82,55.29,55.29,0,0,0,17.24,14.26,88.84,88.84,0,0,0,21.34,8,98.69,98.69,0,0,1-11.21-2.55,74.33,74.33,0,0,1-10.81-4.1,56.12,56.12,0,0,1-18.57-13.93,61,61,0,0,1-11.4-20.41A103.28,103.28,0,0,1,572,569a178,178,0,0,1-.52-23.2c.27-7.72.9-15.41,1.78-23.05,1.77-15.29,4.29-30.45,7.22-45.5.71-3.75,1.5-7.54,2.16-11.23s1.21-7.45,1.6-11.2a165.12,165.12,0,0,0-1.14-45.13,175.39,175.39,0,0,0-5-22.12,202,202,0,0,0-7.68-21.4,216.07,216.07,0,0,0-22.27-39.77c-2.19-3.12-4.49-6.17-6.87-9.16S536.5,311.34,533.87,308.56Z"/><path class="cls-11" d="M578.36,177.45c7.17,8.08,13.9,16.55,20.39,25.19s12.72,17.49,18.72,26.5a480.7,480.7,0,0,1,32.18,56.4c2.37,4.88,4.6,9.83,6.78,14.8s4.2,10,6.11,15.1a315,315,0,0,1,10,31c5.56,21,8.66,42.87,7.89,64.78a168.42,168.42,0,0,1-4.5,32.51,151.66,151.66,0,0,1-11.3,30.85c-9.48,19.18-17.19,39.36-21,60.39a146.46,146.46,0,0,0-2.3,31.83,113.77,113.77,0,0,0,5.55,31.4l1.3,3.79c.41,1.27,1,2.48,1.47,3.72,1,2.5,2.15,4.89,3.29,7.31a113,113,0,0,0,8.28,13.76,105,105,0,0,0,10.33,12.35c.93,1,1.91,1.89,2.86,2.84s2,1.85,3,2.71a62.61,62.61,0,0,0,6.39,4.95,92.4,92.4,0,0,1-23.65-22.06,114.23,114.23,0,0,1-8.88-13.67c-1.25-2.42-2.56-4.82-3.62-7.33-.53-1.25-1.16-2.47-1.63-3.75L644.58,599c-.53-1.27-.88-2.59-1.3-3.89s-.83-2.6-1.2-3.91l-1-4c-.33-1.32-.67-2.65-.89-4-.47-2.69-1.07-5.36-1.33-8.08l-.5-4.07c-.18-1.36-.19-2.73-.3-4.09a147,147,0,0,1,1.74-32.67,186.22,186.22,0,0,1,8.09-31.67c.91-2.57,1.79-5.15,2.74-7.7l3.08-7.57c.52-1.25,1-2.53,1.56-3.77l1.71-3.71,3.42-7.41a150,150,0,0,0,10.8-29.9A164.34,164.34,0,0,0,675.46,411c.85-21.29-2.15-42.67-7.46-63.39s-12.93-40.92-21.86-60.45a523.08,523.08,0,0,0-30.72-56.75A550.49,550.49,0,0,0,578.36,177.45Z"/><path class="cls-11" d="M569.88,201a346,346,0,0,1,27.64,25.14c8.78,8.86,17.23,18.06,25.23,27.65a371.62,371.62,0,0,1,42.36,61.81,277.59,277.59,0,0,1,15.5,34.26q3.27,8.83,5.76,17.93c.87,3,1.59,6.08,2.32,9.13l1,4.61c.33,1.54.57,3.09.85,4.63s.53,3.1.75,4.66.49,3.1.64,4.66l.53,4.68.35,4.7a168.64,168.64,0,0,1,.13,18.81,159.3,159.3,0,0,1-2.21,18.64,151.2,151.2,0,0,1-4.65,18.11,182.67,182.67,0,0,0,3.28-18.32,171.2,171.2,0,0,0,1.13-18.5,179.45,179.45,0,0,0-3.78-36.71c-1.22-6-2.78-12-4.52-17.89s-3.74-11.74-6-17.48A285.9,285.9,0,0,0,660.71,318a366,366,0,0,0-19.14-31.71c-6.82-10.32-14.21-20.25-21.84-30s-15.66-19.21-24-28.42S578.86,209.6,569.88,201Z"/><path class="cls-11" d="M562.25,223.12c3.84,3.33,7.49,6.87,11.1,10.46s7,7.35,10.45,11.12q10.19,11.38,19.33,23.67A288.91,288.91,0,0,1,634.27,321a248.06,248.06,0,0,1,10.79,28.77,224.56,224.56,0,0,1,6.62,30.07c.38,2.54.59,5.11.87,7.66l.4,3.84c.09,1.28.13,2.57.19,3.86.11,2.57.26,5.14.33,7.71l-.11,7.72c-.05,1.29,0,2.58-.12,3.86l-.3,3.85-.3,3.86c-.11,1.28-.15,2.57-.37,3.84-.77,5.09-1.3,10.23-2.52,15.24l-1.61,7.53-1.51,7.28c-.35,2.46-.62,4.93-.94,7.39a32.69,32.69,0,0,0-.25,3.7l-.16,3.72a107.94,107.94,0,0,0,3.58,29.48,127.54,127.54,0,0,0,10.93,27.8,163.44,163.44,0,0,0,16.54,25.08,195.86,195.86,0,0,0,20.65,22A201.5,201.5,0,0,0,720.72,594c4.16,2.85,8.47,5.49,12.86,8,2.2,1.25,4.46,2.38,6.69,3.57s4.54,2.21,6.87,3.19,4.65,2,7.05,2.79c1.2.41,2.37.88,3.59,1.24l3.64,1.06a60.54,60.54,0,0,0,15,2.34,60.61,60.61,0,0,1-15.16-1.61l-3.71-.93c-1.24-.31-2.44-.75-3.66-1.11-2.46-.72-4.83-1.67-7.22-2.55s-4.71-2-7.07-3-4.62-2.18-6.88-3.36c-4.53-2.36-9-4.87-13.31-7.6a197.74,197.74,0,0,1-46.08-40.3,157.59,157.59,0,0,1-17.37-25.46,132.6,132.6,0,0,1-11.65-28.66,111,111,0,0,1-3.88-30.79l.14-3.9a36.12,36.12,0,0,1,.26-3.89c.32-2.58.59-5.16,1-7.74l1.56-7.63,1.55-7.39c4.31-19.58,4.64-39.9,2.14-59.79A220.43,220.43,0,0,0,640.87,351a267.16,267.16,0,0,0-10.16-28.43,289.44,289.44,0,0,0-13.45-27.11,302.83,302.83,0,0,0-16.11-25.7A325.92,325.92,0,0,0,562.25,223.12Z"/><path class="cls-11" d="M523.68,253a261,261,0,0,1,21.52,21.08q10.2,11.12,19.42,23.1A300,300,0,0,1,581.81,322q4,6.43,7.63,13.07c2.42,4.43,4.69,8.94,6.86,13.51a227.09,227.09,0,0,1,11.12,28.24,192.36,192.36,0,0,1,6.82,29.64,165.69,165.69,0,0,1,1.68,30.44,158.94,158.94,0,0,1-4.16,30.24c-.54,2.49-1.25,4.94-1.92,7.4l-2,7.21c-1.28,4.8-2.48,9.63-3.54,14.49a257.16,257.16,0,0,0-4.66,29.44,246.38,246.38,0,0,0-1.12,29.76,218.17,218.17,0,0,0,2.85,29.64,191.91,191.91,0,0,0,7.1,28.92,169.66,169.66,0,0,0,11.66,27.42,131.82,131.82,0,0,0,16.77,24.65,85.64,85.64,0,0,0,10.72,10.4,48.38,48.38,0,0,0,12.8,7.72,48.42,48.42,0,0,1-13.29-7.07,87.06,87.06,0,0,1-11.28-10.09,129.62,129.62,0,0,1-18-24.34,169.21,169.21,0,0,1-12.68-27.56,195.64,195.64,0,0,1-7.86-29.34,220.84,220.84,0,0,1-2.48-60.58,261.65,261.65,0,0,1,4.61-30c1.06-4.95,2.24-9.88,3.59-14.76l2.06-7.28c.66-2.38,1.36-4.75,1.9-7.16a154.72,154.72,0,0,0,4.14-29.3c.16-4.93.2-9.88,0-14.82s-.64-9.88-1.34-14.78a187.85,187.85,0,0,0-6.36-29,223.93,223.93,0,0,0-10.44-27.93,283.77,283.77,0,0,0-13.75-26.55c-5-8.63-10.58-16.95-16.38-25.1s-12-16-18.53-23.62c-3.26-3.81-6.62-7.53-10-11.2S527.34,256.43,523.68,253Z"/><path class="cls-11" d="M527.36,467.69a445.33,445.33,0,0,1,8.33,51.77c1,8.7,1.57,17.44,2.06,26.19s.57,17.52.48,26.3c-.36,17.53-1.72,35.19-5.93,52.37a106.12,106.12,0,0,1-9.16,24.86,59.74,59.74,0,0,1-7.5,10.94c-.71.85-1.49,1.64-2.27,2.41s-1.62,1.51-2.44,2.24-1.76,1.33-2.62,2-1.85,1.18-2.77,1.77c7-5.29,11.91-12.64,15.4-20.46A91.06,91.06,0,0,0,525.39,636c1.22-4.13,2.28-8.3,3.1-12.53S530,615,530.62,610.7s1-8.57,1.38-12.88q1.11-12.93,1.24-26c.18-8.67,0-17.35-.21-26s-.71-17.37-1.21-26.05Q530.16,493.74,527.36,467.69Z"/><path class="cls-11" d="M541.06,384.2a93.69,93.69,0,0,1,8.28,16.28,162.44,162.44,0,0,1,5.89,17.35,213.14,213.14,0,0,1,6.47,36.09l.74,9.16c.2,3.05.19,6.11.29,9.17.28,6.13-.06,12.24-.18,18.36,0,3.07-.36,6.11-.59,9.16l-.75,9.15c-.71,6.07-1.57,12.13-2.35,18.19l-2.59,17.95-1,9c-.31,3-.7,6-.88,9l-.67,9-.17,2.25c0,.76-.05,1.51-.07,2.26l-.14,4.52c-.29,6-.09,12,0,18.07l.58,9c.06,1.5.26,3,.45,4.48l.54,4.48.26,2.24.4,2.21.81,4.43c.15.74.26,1.49.43,2.21l.56,2.18,1.12,4.36a77.91,77.91,0,0,0,6.77,16.64,46.18,46.18,0,0,0,11.5,13.82,39.7,39.7,0,0,1-7-5.87,33.16,33.16,0,0,1-3-3.49l-1.39-1.84c-.23-.31-.48-.6-.69-.92l-.6-1c-.8-1.31-1.64-2.6-2.41-3.94l-2-4.13a41.53,41.53,0,0,1-1.81-4.24c-.55-1.43-1.19-2.84-1.66-4.31-3.9-11.68-5.8-23.91-6.71-36.13l-.4-9.18-.1-2.3c0-.76,0-1.53,0-2.29l0-4.59,0-4.6c0-.76,0-1.53,0-2.29l.13-2.29.5-9.16c.1-3.06.51-6.09.8-9.13l.92-9.12,2.5-18.14c.81-6,1.7-12,2.44-17.93l.8-9c.23-3,.6-6,.68-9,.23-6,.68-12,.52-18.07,0-3,0-6-.09-9l-.44-9a237.86,237.86,0,0,0-5-35.81A173.5,173.5,0,0,0,548.05,401c-.91-2.89-2-5.7-3.14-8.52A77,77,0,0,0,541.06,384.2Z"/><path class="cls-11" d="M533.87,251.14c8.23,4.57,16.21,9.57,24,14.81s15.49,10.73,23,16.46,14.74,11.78,21.79,18.06,13.83,12.88,20.27,19.82c12.88,13.84,24.52,29.08,33.18,46.12q3.21,6.4,5.82,13.11a114.53,114.53,0,0,1,4.26,13.75c.59,2.33,1,4.69,1.47,7.06s.74,4.76.94,7.17a94.43,94.43,0,0,1,.28,14.47c-.35,4.88-1,9.47-1.5,14.15l-1.66,14c-1.08,9.33-2.12,18.66-3,28-1.77,18.66-3,37.37-2.21,56s3.93,37.16,10.5,54.65a166.16,166.16,0,0,0,11.88,25.36c1.2,2,2.38,4,3.61,6s2.53,4,3.83,5.91l4,5.8,4.17,5.69L694,632.12l-4.32-5.59c-1.39-1.9-2.73-3.84-4.1-5.77s-2.59-3.93-3.89-5.9a158.18,158.18,0,0,1-21.48-52.32,198.52,198.52,0,0,1-3.75-28.2c-.64-9.47-.62-19-.32-28.4s.93-18.88,1.79-28.27,1.84-18.76,2.88-28.11l1.61-14c.54-4.66,1.2-9.38,1.53-13.88a88.41,88.41,0,0,0-.21-13.71c-.18-2.28-.53-4.55-.86-6.81s-.83-4.52-1.39-6.75A125,125,0,0,0,652,368.46a175,175,0,0,0-14.36-23.83,243.41,243.41,0,0,0-17.48-21.82,371.76,371.76,0,0,0-40.73-38.6A453.42,453.42,0,0,0,533.87,251.14Z"/><path class="cls-11" d="M516.51,495.41A334.27,334.27,0,0,1,519,538c.06,7.11-.21,14.23-.52,21.34s-.94,14.21-1.68,21.3-1.73,14.15-3,21.18c-.29,1.76-.66,3.51-1,5.26s-.67,3.5-1.07,5.25l-1.14,5.22-1.32,5.2a205.62,205.62,0,0,1-6.42,20.42,144.84,144.84,0,0,1-9,19.37c2.51-6.65,4.75-13.35,6.65-20.14l1.4-5.1,1.25-5.13c.43-1.71.8-3.43,1.19-5.15s.79-3.42,1.11-5.16q2.1-10.35,3.64-20.8c1.09-6.95,1.94-13.95,2.68-21s1.4-14,1.93-21.06,1-14.08,1.35-21.14Q516.2,516.69,516.51,495.41Z"/><path class="cls-12" d="M500.2,278.47c-2.91,3.08-11.65,14.07-11.69,18.3,0,2.82,21.1,12.08,22.42,14.57l9.82,18.45c3.72,7,7.76,14.35,14.55,18.44,4.4,2.64,10.46,3.5,14.42.25,3.44-2.83,4.21-7.71,4.73-12.14,1.12-9.42,2.21-19.12-.35-28.25a37,37,0,0,0-15.55-20.71c-3.16-2-8.41-5.22-12.32-5.08C521.73,282.46,503.38,275.11,500.2,278.47Z"/><path class="cls-13" d="M520.44,234.82c1.47-3.65,3-7.4,5.79-10.2s7.1-4.44,10.74-2.93c2.87,1.19,4.69,4,6.19,6.73,8.9,16.15,12.78,34.69,13.69,53.11a179.16,179.16,0,0,1-1.38,32.74c-3.8-8.84-7.7-17.84-14.05-25.08s-14.52-12.09-23.12-15.9c-2.37-1.05-10.83-2.93-11.06-5.59-.18-2,2.14-5.57,2.9-7.45l3.22-8Z"/><path class="cls-14" d="M550.86,297.67a95.44,95.44,0,0,0-5.43-11,48.19,48.19,0,0,0-39.95-22.79l-6.79,16.72c7.77-.3,15.59-.58,23.25.71s15.23,4.32,20.73,9.8c2.57,2.56,4.17,6.05,6.2,9.05,1.09,1.61,1.65,4.24,4.23,8.69C552.44,306.08,552,300.31,550.86,297.67Z"/><path class="cls-15" d="M443.68,337s-12.26,1.7-15.54,12.42c-4.67,15.24,3.68,33.19,37.66,42,33.75,8.75,89-22.05,71.72,32.92C530.2,447.58,522.66,477,514,503.26c-11.84,35.74-25,66.08-35.61,72.07,0,0,19.59-11.59,30.31-42.18,14.56-41.58,32.84-69.33,42.87-109.26,3-11.86.46-56,.46-56Z"/><path class="cls-16" d="M519.41,314.55q8.25,13.05,16.51,26.11c2.07,3.28,4.79,6.93,8.67,7,3.26,0,6-2.77,7-5.88s3.64-6.11,3.29-9.36c2.77,14.29,1.24,32.78.46,48.4-.56,11.49-1.16,27.54-3.8,41.84-1.35,7.3-3.82,13.89-5.88,19.71-1.85-9.56,1.17-31,1.79-40.67s-.84-20.53-8.12-27c-7.86-7-19.77-6.56-30.06-4.34s-20.74,5.83-31.06,3.83c-13.29-2.57-42.33-25.37-34.29-36.25,7.7-10.43,18.61-13.08,27.85-23,4.6-4.93,8.13-13,13.49-16.65,5.83-4,10.4-1,16.86,1.57C510.27,303,514.74,307.17,519.41,314.55Z"/><path class="cls-17" d="M493.32,352c-11.76-2.11-23.37-8.5-28.79-19.15,7.46-2.76,15-5.53,22.86-6.65s16.23-.44,23.21,3.37a33.87,33.87,0,0,1,10.68,9.57c1.43,1.91,7.38,9.35,5.82,11.77-.84,1.33-6.12,1.13-7.62,1.29-3,.32-6,.58-8.94.72A76.94,76.94,0,0,1,493.32,352Z"/><path class="cls-18" d="M492.54,327.42a23.86,23.86,0,0,0-8.06,1.78,9,9,0,0,0-5.13,5,9.55,9.55,0,0,0,.57,8,27.51,27.51,0,0,0,5,6.51c7.88,7.14,18.79,5.7,23.35-5C512.61,333.48,500.75,327.41,492.54,327.42Z"/><path class="cls-19" d="M500,320c8.72.24,17.74,3.23,23.4,9.86,4.05,4.74,6.07,10.91,9.93,15.79s11,8.32,16.27,4.93a24.09,24.09,0,0,1-20.44,14.17A23.57,23.57,0,0,1,507.55,353a91,91,0,0,0,9.34-.69,38.43,38.43,0,0,0,7.44-1.56c-6.58-8.26-14.8-18-24.76-21.49a34,34,0,0,0-17.16-1.35c-5.94.89-9.19,2.9-15.06,3.87,4.27-2.7,5.72-6.56,12.08-9S493.16,319.82,500,320Z"/><path class="cls-7" d="M263.08,614.08c8.32-5.68,6.3-4,15.39-5C284,608.37,290,609,295,606.53a15.24,15.24,0,0,0,8-16.36c-1.56-7.42-8.35-12.4-14.64-16.65L277,565.83c-2.83-1.91-6.77-5.89-10.14-6.58-6.26-1.29-7.65,10.72-9.07,15-2.51,7.51-3.29,11.62-5.8,19.12l7.23,14.17Z"/><path class="cls-8" d="M275.11,594.14c2.23-.79,4.92-1.25,6-3.35,1.5-2.86-.79-6.13-2.62-8.79a37.17,37.17,0,0,1-5-10.6c-.93-3.18-.49-7.38-1.84-10.31-2.55-5.53-11.7-10.48-16.32-14.35,1.53,11.07,2.11,24.37,0,35.77l-3.28,10.92,7.37,14.4S268.9,596.35,275.11,594.14Z"/><path class="cls-15" d="M319.67,398.36c11.57,3.31,20.44,12.76,29.91,20.19,6.15,4.82,18,11.56,18.72,19.34,1.47,15.82,1.83,23.09-21,21-15-1.36-25.72,14.31-39.37,20.48-11.44,5.16-15,20.49-16.13,31.72-1,13,.81,26.23-2.15,38.9-1.57,6.73-5.51,14-12.32,15.16-6.16,1.05-11.81-3.31-16.54-7.41-3.76-3.25-5.41-4-9.7-9s2-2.24,8.71-14.9c5.64-10.63,9.85-21.95,10.14-34s-1.31-24.05-.83-36.07c.56-14.18,4-28.08,7.42-41.86C276.53,421.89,304.24,394,319.67,398.36Z"/><path class="cls-16" d="M274,496c-.56-15.43-3-30.89-1.19-46.23s8.66-31.12,22.07-38.77a25.85,25.85,0,0,1,15.45-3.64c5.34.59,10.55,3.56,13.13,8.28,2,3.7,2.31,8.08,3.66,12.08s4.48,8,8.7,8,8.28-3.71,11.79-1.63c1.62,1,2.38,2.85,3.44,4.39s3,2.93,4.71,2.11c2.35-1.12,1.53-4.84,3.13-6.9,1.82-2.34,5.94-1.11,7.35,1.51s-1.57,20-2.07,22.93c11.21-5.54,16.33-25.8,14.72-33.18-1.1-5-8.58-10.36-11.14-14.8-8.65-15-6.59-2.26-10.52-19.1-5-21.28-14.85,10.1-15.21-11.75-15.93,4.49,3.45-.54-24.21,4.14-17.21,2.92-21,2.57-35.61,15.56-14.12,12.56-16.57,26.33-17.64,45.2-1,17.07,2.42,34.16,1.63,51.24,0,11.06-2.26,24.55-7.44,35.82-2.73,5.93-5.88,11.86-10.78,15.15,7.26,6.91,16.34-6.36,20.36-13.31C274.41,522.6,274.43,507.67,274,496Z"/><path class="cls-20" d="M370.56,398.21c-3.1-1.43-6.57-4.53-4.34-7.11,36.82-42.41-11.51-17.22-20.67-18.75s-23.61,4.31-32.5,7c-12.92,3.88-25.14,10.6-34.51,20.3-15.24,15.78-18.39,40.32-13.8,61.76,2.28-8.57,1-18.14,3.24-26.72,3.48-13.13,7.49-27.12,17.9-35.85,11.46-9.62,27.68-10.41,42.64-10.75,2.6-.06,5.27-.11,7.69.84s4.52,3.17,4.53,5.76c0,5.09-7.24,7.42-8.21,12.42-.73,3.75,2.67,7.29,6.39,8.16s7.59-.2,11.27-1.22,7.58-2,11.27-1c7.76,2.1,12.12,12.25,20.16,12.36,6.32.09,10.94-6.76,10.85-13.08-.06-4.59-2.16-13-6.58-15.46C380.88,394,376.19,400.81,370.56,398.21Z"/><path class="cls-21" d="M403.92,377c-3.55-1.19-6.94,2.09-10.59,2.91-4,.91-8.06-1.28-12.14-1.91a16.55,16.55,0,0,0-12.82,3.47,10.32,10.32,0,0,0-3.82,5.77c-.45,2.31-.85,6.72,1.16,7.94,1.5.91,3.78,5.88,5.53,5.88,4.74,0,14.08,4.6,16.25,8.81,6.68,13,15.24-10,19.31-14.57C409.84,391.93,410.11,379.11,403.92,377Z"/><path class="cls-22" d="M380,390.42c-2.09,1.26-3.52,3.86-2.76,6.17.92,2.78,4.3,3.82,7.22,4,4.17.27,13.19-2.19,10.43-8.32C392.92,387.84,383.45,388.35,380,390.42Z"/><path class="cls-23" d="M368,499.31c.68,4.3,1.29,9-.84,12.78-1.22,2.16-3.22,3.8-4.36,6-2.49,4.74-.21,10.86,3.8,14.41s9.33,5.13,14.48,6.62a16.12,16.12,0,0,0,6,.93,5.48,5.48,0,0,0,4.75-3.25c.59-1.66,0-3.49-.51-5.16-2.58-7.84-4.43-16.87-8.18-24.25a12.94,12.94,0,0,0-4.17-5.3C377.78,501.23,367.81,498.27,368,499.31Z"/><path class="cls-24" d="M372,449.68c3.55-1,7.57-.95,10.72,1,3.48,2.11,5.38,6.14,6.11,10.14.58,3.11.39,6.75-2,8.87s-5.78,2-8.81,1.37a37.44,37.44,0,0,1-15.71-7.22c-1.71-1.34-3.44-3.12-3.36-5.29C359.16,453.74,368.31,450.72,372,449.68Z"/><path class="cls-25" d="M350.68,470.28a42.29,42.29,0,0,1-20.39-2.9c-.69-.29-1.48-.75-1.49-1.49a1.34,1.34,0,0,1,.92-1.16,3.85,3.85,0,0,1,1.55-.15l26.33,1c.69,0,3.1-.13,3.21.79s-2,1.72-2.6,2A23.87,23.87,0,0,1,350.68,470.28Z"/><path class="cls-25" d="M435.46,488c-2.3-1.4-4.91-2.33-7-4-1.39-1.09-2.57-2.5-4.19-3.22s-3.92-.41-4.6,1.22a3.2,3.2,0,0,0,.46,2.92,9.25,9.25,0,0,0,2.22,2.1,48.41,48.41,0,0,0,8.22,5.41c1.51.72,7.6,3.27,9.13,1.75C441.38,492.46,436.8,488.78,435.46,488Z"/><path class="cls-22" d="M429.43,490.82a5.3,5.3,0,0,1-2.24-3.8c-.4-3-3.16-8.18-15.67-13.14-19.13-7.58-63.39-11.73-62.7-7.81h0c.4,2.25,2.33,3.42,4.62,3.54,4.44.24,12.49-.11,22,1.56,10.44,1.83,22.68,6.39,34.66,11.58C427.38,490.23,430.08,491.23,429.43,490.82Z"/><path class="cls-24" d="M436.37,493.09a88,88,0,0,0-8.71-5.43c-6.29-3.27-13.65-5-20.55-3.38s-14.05,2.49-15.24,9.48c-.47,2.79-.34,7.28,1.09,9.72,2.89,4.92,10.06,8.5,15.68,7.48A63.54,63.54,0,0,0,425,505.5c5.14-2.49,10.91-4.51,16.48-3.25a50.62,50.62,0,0,1,9.26,3.18c1.25.54,7.2,2.35,4.55-.87-2-2.46-7-3.36-9.61-5.17Z"/><path class="cls-24" d="M335.41,484a11.34,11.34,0,0,1-3-1.78c-.87-.8-3-1.71-2.89-2.88.22-1.63,3.32-2.94,4.75-3.76,4.42-2.51,9.16-4.65,14.21-5.31s10.45.3,14.45,3.44a22.65,22.65,0,0,1,6.07,8.08c1.84,3.74,10.08,17.5,3.14,19-3.22.68-9.21-4.37-12-5.63-3.85-1.74-7.2-5-11.05-6.76C344.68,486.45,339.79,486,335.41,484Z"/><path class="cls-24" d="M427.7,455.27a40.08,40.08,0,0,0-6.36-6.13A22.73,22.73,0,0,0,401.4,446a12,12,0,0,0-4.87,2.74,6.21,6.21,0,0,0-1.9,5.1c.48,3.3,3.95,5.13,6.92,6.66,14.05,7.23,25.14,18.74,37.21,28.69,2,1.65,17.06,14.36,19,12.1,1.1-1.25-4.42-9.56-5.27-11.05q-3.22-5.73-6.82-11.24A202.9,202.9,0,0,0,427.7,455.27Z"/><path class="cls-26" d="M439.84,488.37l-12.26-9.43c-5.52-4.25-11.23-8.72-14.29-15-1.78-3.64-2.6-7.77-5-11a13.49,13.49,0,0,0-6.75-4.79,11.9,11.9,0,0,0-9,.67c-5,2.64-7,9-6.27,14.64a8.93,8.93,0,0,0,2.13,5.1c1.85,1.9,4.72,2.26,7.34,2.65a75.8,75.8,0,0,1,39.47,18.6,52.87,52.87,0,0,0,7.31,6.08c1.25.76,9.76,3.69,7.94.63-.87-1.44-3.77-2.89-5.14-3.94Z"/><path class="cls-26" d="M365.35,456.18c-1.16-3.59-4.58-6.6-8.35-6.41s-6.5,3.1-9.48,5.25a26.5,26.5,0,0,1-11.32,4.69,12,12,0,0,0-4.33,1.14c-1.3.76-3,2.39-2.39,3.75.71,1.52,3.53,1.8,5.2,1.82l22.89.33c2.29,0,5.79.87,7.28-1.35S366.16,458.71,365.35,456.18Z"/><path class="cls-26" d="M395.06,491.25c-2.51,1.09-5.28,2.38-7.86,1.47a6.8,6.8,0,0,1-3.84-4.13,20.14,20.14,0,0,1-1-5.73,16.47,16.47,0,0,1,.17-5.2,5.61,5.61,0,0,1,3.1-4c1.7-.68,3.63-.17,5.39.34l10.53,3.09c3.61,1.06,7.23,2.12,10.83,3.22q3.21,1,6.41,2c1.24.39,7.09,3.52,7.84,4.64,2.31,3.45-6,0-8.61-.37C410.25,485.52,402.29,488.14,395.06,491.25Z"/><path class="cls-26" d="M376.1,483.12c-.93-3.32-2.07-6.72-4.48-9.19-2.63-2.69-6.49-3.91-10.25-4.08s-7.71-.53-11.4.25c2.82.6,5.88,2.36,8.46,3.63a12,12,0,0,1,6,5.94c1.77,4.4-.18,9.44.72,14.09a11.79,11.79,0,0,0,5.3,7.68c2,1.25,4.64,1.84,6.74.75,2.86-1.49,2.2-4.56,1.65-7.1C378,491.08,377.21,487.08,376.1,483.12Z"/><path class="cls-22" d="M447.57,497c-4.11-1.62-9.23-4.47-12.38-7.58-.89,1.05.6,3.08,1.33,4.24a9.91,9.91,0,0,0,3.05,2.74,46.08,46.08,0,0,0,7.92,4.59c1.3.54,9.28,2.75,8.51.22C455.34,499.08,449.38,497.76,447.57,497Z"/><path class="cls-27" d="M547.73,269.3a3,3,0,0,0,2.08,5.71l.28-7-2,.35"/><path class="cls-27" d="M541.25,242.68c-2.29,2.7-2.64,6.17-4.11,9.38s-4.1,5-3.35,8.42c.33,1.53-3.1,2-1.93,3.1a4.22,4.22,0,0,0,4.36.89,6.33,6.33,0,0,0,2.67-2.9,48.81,48.81,0,0,0,6.1-18.44C545.73,236.6,545.53,237.66,541.25,242.68Z"/><path class="cls-7" d="M443.43,375.6c3.8.1,7.73,1.35,10.28,4.16,2.89,3.17,3.58,7.71,4.06,12,1.07,9.67,1.7,19.47.36,29.1a56,56,0,0,1-7.08,21.06,6.8,6.8,0,0,1-8.68,2.78,32.56,32.56,0,0,0-23.76-1.56,10,10,0,0,1-4.69.52c-4.35-.7-4.67-4-4.83-7l-.94-16.72c-.25-4.46-.49-9,.56-13.33,1.13-4.62,3.67-8.78,6.49-12.6C422.47,384.12,430.37,375.26,443.43,375.6Z"/><path class="cls-28" d="M422.21,422.65c3.13.68,6.64,1.13,8.69,3.59a29,29,0,0,1,2.26,4c.79,1.31,2.06,2.54,3.6,2.52,5.6-.06,4.14-13,3.56-16.46-.75-4.54-3.48-6.73-7.95-7.26-4.24-.5-11.62,0-15,2.7C411.62,416.38,416.94,421.52,422.21,422.65Z"/><path class="cls-22" d="M427.92,405c-2.65.8-4.95,3.52-4.25,6.2.5,1.94,2.32,3.22,4.13,4.1a13.19,13.19,0,0,0,6.46,1.52,7.12,7.12,0,0,0,5.65-3.12C444.42,406.31,432.62,403.57,427.92,405Z"/><path class="cls-15" d="M446,391.53a7.44,7.44,0,0,1,6.56,2.36,13.36,13.36,0,0,1,3.7,9.3A19.7,19.7,0,0,1,453.5,413a25.88,25.88,0,0,1-7.92,8.63c-.24-4.46-.53-9.06-2.51-13.07-1.59-3.22-6.06-5.74-4.94-9.64C438.91,396.15,443.26,392.12,446,391.53Z"/><path class="cls-11" d="M607.22,61.54c-1.88,14.06-4.4,28-7.26,41.94s-6.06,27.75-9.63,41.5a686.39,686.39,0,0,1-26.6,81c-5.32,13.2-11.17,26.21-17.71,38.88a357.24,357.24,0,0,1-21.72,36.87,247.34,247.34,0,0,1-27,33.4,170.09,170.09,0,0,1-33.47,27.08c-3.09,1.86-6.25,3.62-9.48,5.24l-4.78,2.37c-1.56.79-3.15,1.51-4.67,2.38a139.14,139.14,0,0,0-17.72,11.09,114.39,114.39,0,0,0-28.62,30,103.72,103.72,0,0,0-15.12,38.5,130.43,130.43,0,0,0-.39,41.69,168.81,168.81,0,0,0,11.47,40.39A195.6,195.6,0,0,0,415,570.7a188.79,188.79,0,0,0,27.85,31.78,163.51,163.51,0,0,0,16.59,13.19,140.16,140.16,0,0,0,18.26,10.83A140.31,140.31,0,0,1,459,616.29a162.11,162.11,0,0,1-17-12.82,190.49,190.49,0,0,1-29-31.35,196.36,196.36,0,0,1-21.44-37A169.58,169.58,0,0,1,379.24,494a131.43,131.43,0,0,1-.06-43,108.31,108.31,0,0,1,15.44-40.29,118,118,0,0,1,29.71-31.34,146.58,146.58,0,0,1,18.28-11.52c1.56-.89,3.2-1.64,4.8-2.46l4.75-2.36q4.65-2.37,9.12-5.08a165.71,165.71,0,0,0,32.57-26.22,248.26,248.26,0,0,0,26.54-32.66c16-23.19,28.72-48.56,39.79-74.55A689.09,689.09,0,0,0,588,144.33,817.88,817.88,0,0,0,607.22,61.54Z"/><path class="cls-11" d="M543.6,101.65c-1.55,6.07-3.22,12.11-4.94,18.14s-3.57,12-5.45,18q-5.62,18-12,35.68A699.59,699.59,0,0,1,492.15,243c-5.52,11.3-11.43,22.43-17.9,33.24a297.56,297.56,0,0,1-21.36,31.27,154.56,154.56,0,0,1-26.8,27.06c-1.29,1-2.54,2-3.89,2.84L418.26,340q-1.93,1.28-3.84,2.61c-1.28.87-2.53,1.78-3.78,2.69q-7.51,5.46-14.56,11.55a216.22,216.22,0,0,0-26,26.46,181.58,181.58,0,0,0-20.66,30.73,136.55,136.55,0,0,0-12.92,34.53,108.28,108.28,0,0,0,8.49,72,124.86,124.86,0,0,0,9.23,16.11,153.88,153.88,0,0,0,11.25,14.84,184.93,184.93,0,0,0,12.79,13.63l1.67,1.63,1.72,1.58,3.45,3.17,3.55,3.06c1.18,1,2.37,2,3.59,3l3.64,2.95c1.22,1,2.48,1.91,3.72,2.87,2.46,1.92,5,3.74,7.54,5.57s5.14,3.58,7.7,5.39,5.23,3.44,7.85,5.16c-2.68-1.62-5.39-3.2-8.06-4.85s-5.33-3.3-7.92-5.08-5.2-3.5-7.73-5.36c-1.27-.92-2.56-1.81-3.82-2.76l-3.74-2.86c-1.26-.93-2.49-1.92-3.71-2.91l-3.66-3-3.57-3.09-1.78-1.54-1.74-1.6c-4.68-4.2-9.09-8.72-13.34-13.38a154.63,154.63,0,0,1-11.78-14.84A128.87,128.87,0,0,1,342,522a113.47,113.47,0,0,1-11.38-36.27,109.83,109.83,0,0,1-.86-19.1,116.35,116.35,0,0,1,2.41-19,141.23,141.23,0,0,1,13-35.8,183.63,183.63,0,0,1,21.08-31.65,221.11,221.11,0,0,1,26.56-27.14q7.2-6.18,14.92-11.76c1.28-.93,2.57-1.85,3.88-2.74s2.61-1.79,3.94-2.66,2.59-1.73,3.86-2.59,2.47-1.79,3.71-2.69c9.77-7.41,18.29-16.5,26.07-26.13,15.56-19.36,28.1-41.09,39.47-63.29,5.66-11.13,10.93-22.47,16-33.91s9.79-23,14.32-34.69Q532.66,137.66,543.6,101.65Z"/><path class="cls-11" d="M562.25,85.3a389.5,389.5,0,0,1-4.48,41.28q-3.24,20.52-8.2,40.76a402.42,402.42,0,0,1-28,78.35c-12.15,25-27.71,48.61-47.3,68.62A196.3,196.3,0,0,1,442,341a184.24,184.24,0,0,1-37.45,19,179.22,179.22,0,0,1-20.1,6.16,198.31,198.31,0,0,1-20.62,3.95c-3.45.5-7,.83-10.36,1.25s-6.78.88-10.15,1.43a161,161,0,0,0-19.91,4.63A120.5,120.5,0,0,0,286.86,395c-2.77,2-5.38,4.12-7.94,6.33S274,406,271.7,408.47s-4.42,5.12-6.48,7.81a97.85,97.85,0,0,0-5.62,8.47A111.25,111.25,0,0,0,245.84,463a147.47,147.47,0,0,0-1.09,41,190.24,190.24,0,0,0,26.4,77.71,189.91,189.91,0,0,1-10.42-18,193.25,193.25,0,0,1-8.32-19.07,188.33,188.33,0,0,1-6.21-19.88,174,174,0,0,1-3.94-20.5,150.71,150.71,0,0,1,.29-41.78,118.92,118.92,0,0,1,5-20.43,105.7,105.7,0,0,1,8.66-19.23,102.7,102.7,0,0,1,5.72-8.9,101.17,101.17,0,0,1,6.66-8.24,105.71,105.71,0,0,1,7.46-7.51c2.66-2.33,5.36-4.61,8.22-6.68A125.62,125.62,0,0,1,322,372.82,166.31,166.31,0,0,1,342.47,368c3.46-.58,6.92-1.12,10.4-1.5s6.84-.76,10.24-1.27a191.83,191.83,0,0,0,39.68-9.92A180.17,180.17,0,0,0,439.3,337,198.75,198.75,0,0,0,471,311c19.35-19.41,34.75-42.54,47.24-67s21.85-50.63,29-77.26q5.46-20,9.24-40.38,1.89-10.19,3.34-20.46C560.82,99.06,561.69,92.19,562.25,85.3Z"/><path class="cls-11" d="M531,89.76c-4.61,14-10.07,27.72-15.94,41.24s-12.22,26.87-19,40a514.19,514.19,0,0,1-47.51,74.75,349.15,349.15,0,0,1-29.27,33.42,277.28,277.28,0,0,1-33.78,29,212.67,212.67,0,0,1-38.68,22.25A175.22,175.22,0,0,1,304,343.09a215.26,215.26,0,0,0-21.34,4.69A177.71,177.71,0,0,0,262,354.72a151.94,151.94,0,0,0-37.54,21.67,120.51,120.51,0,0,0-44.08,72.7,137.53,137.53,0,0,0-1,43.43,159.13,159.13,0,0,0,11.79,42.05,185,185,0,0,0,22,38,210.86,210.86,0,0,0,14.13,16.91c5,5.41,10.25,10.56,15.75,15.46q-8.49-7.06-16.28-14.95a204.44,204.44,0,0,1-14.62-16.64A186.19,186.19,0,0,1,189,535.54,160.21,160.21,0,0,1,176.22,493a138.58,138.58,0,0,1,.36-44.57,124.58,124.58,0,0,1,15.49-41.93,128,128,0,0,1,29.43-33.72,152.93,152.93,0,0,1,38.64-22.53A182.81,182.81,0,0,1,281.33,343a222.76,222.76,0,0,1,21.81-4.84,181.93,181.93,0,0,0,21.24-4.83,178.19,178.19,0,0,0,20.47-7.45,208.57,208.57,0,0,0,37.86-21.64A273.7,273.7,0,0,0,416.15,276a377.48,377.48,0,0,0,29.31-32.7,510,510,0,0,0,48.38-73.52A618.1,618.1,0,0,0,531,89.76Z"/><path class="cls-11" d="M543.6,69.68a118.45,118.45,0,0,0-15.54-20.16,78.9,78.9,0,0,0-9.47-8.44,46.84,46.84,0,0,0-10.91-6.26,28.52,28.52,0,0,0-12.17-2.15,25.94,25.94,0,0,0-6.06,1.07,28.55,28.55,0,0,0-5.66,2.49,40.21,40.21,0,0,0-9.58,7.88,70.06,70.06,0,0,0-7.56,10,124.56,124.56,0,0,0-6.13,11c-1.84,3.77-3.61,7.7-5.44,11.53q-5.49,11.55-11.26,23-11.54,22.83-24.56,44.91A567.22,567.22,0,0,1,359.86,228c-22.41,25.84-47.72,49.36-76.09,68.7A321.47,321.47,0,0,1,239.1,322.2c-3.84,1.93-7.84,3.49-11.78,5.19l-3,1.26c-1,.42-2,.84-3,1.2l-6,2.24-6,2.22-6.13,1.95L191,340.08c-16,5.15-31.21,12.77-43.85,23.7a100.57,100.57,0,0,0-16.71,18.5,102.57,102.57,0,0,0-11.57,22.14c-5.88,15.69-8.09,32.67-7.67,49.51a199.6,199.6,0,0,0,8,50,232.52,232.52,0,0,0,8.21,24.05,223.46,223.46,0,0,0,10.82,23,174.2,174.2,0,0,0,13.68,21.45,108.84,108.84,0,0,0,8.21,9.73,64.29,64.29,0,0,0,9.58,8.39,64.82,64.82,0,0,1-9.85-8.12,108.74,108.74,0,0,1-8.53-9.54A173.75,173.75,0,0,1,137,551.61a224.55,224.55,0,0,1-11.4-22.94,232.81,232.81,0,0,1-8.83-24.09,213.4,213.4,0,0,1-6-25A184.25,184.25,0,0,1,108,454c-.65-17.15,1.35-34.6,7.22-50.94A107.39,107.39,0,0,1,127,379.91a104.55,104.55,0,0,1,17.3-19.44c13.1-11.49,28.89-19.48,45.25-24.89l12.17-3.89,6-1.93,5.93-2.2,5.94-2.22c1-.35,2-.76,2.93-1.18l2.92-1.25c3.87-1.68,7.8-3.23,11.57-5.14A316.62,316.62,0,0,0,281,292.6c28-19,53-42.2,75.35-67.67s42-53.34,59.67-82.31q13.25-21.76,25-44.38,5.91-11.3,11.52-22.76c1.89-3.82,3.67-7.63,5.62-11.49a113.94,113.94,0,0,1,6.44-11.18,72,72,0,0,1,8-10.17,42,42,0,0,1,10.24-8A30.1,30.1,0,0,1,489,32.08a27.59,27.59,0,0,1,6.5-1,30.12,30.12,0,0,1,12.73,2.53,48.47,48.47,0,0,1,11,6.65A77,77,0,0,1,528.6,49,118.21,118.21,0,0,1,543.6,69.68Z"/><path class="cls-11" d="M524.33,83.07A151.45,151.45,0,0,0,503.9,68.7a122.15,122.15,0,0,0-11-5.84,91.58,91.58,0,0,0-11.56-4.56,63.47,63.47,0,0,0-12.06-2.69,44.4,44.4,0,0,0-12.24,0,36.31,36.31,0,0,0-11.53,3.71,8.89,8.89,0,0,0-1.31.75l-1.29.81-1.28.81c-.41.29-.8.63-1.19.94-.79.64-1.59,1.25-2.36,1.91l-2.14,2.16c-.35.37-.72.71-1.05,1.09l-1,1.19L432,71.41c-1.13,1.7-2.25,3.38-3.34,5.14-2.14,3.6-4.32,7.16-6.54,10.71-4.44,7.09-9.07,14.06-13.79,21q-14.24,20.66-29.94,40.28c-10.49,13-21.48,25.69-33.06,37.79S321.65,210,308.94,221c-25.42,21.84-53.41,41-84.16,54.88a244.4,244.4,0,0,1-47.91,15.9l-3.09.69c-1,.23-2.05.49-3.1.63l-6.25,1c-2.08.32-4.16.69-6.25,1l-6.31.6-6.3.59-6.14.53c-2,.21-4.06.52-6.09.78s-4,.71-6,1.06a94.8,94.8,0,0,0-23.1,7.76,81.51,81.51,0,0,0-10.5,6.13,78.12,78.12,0,0,0-9.37,7.74,80.76,80.76,0,0,0-14.69,19.34A106.08,106.08,0,0,0,60.5,362.3a147.46,147.46,0,0,0-4.35,24.3,193.25,193.25,0,0,0-.64,24.78,256.83,256.83,0,0,0,6.89,49.23c1.87,8.1,4.13,16.11,6.7,24s5.49,15.7,8.8,23.34a205.49,205.49,0,0,0,11.23,22.28,108.5,108.5,0,0,0,14.72,20.14,108.21,108.21,0,0,1-15.36-19.75A201.26,201.26,0,0,1,76.7,508.51q-5.26-11.4-9.39-23.28c-2.77-7.9-5.22-15.92-7.29-24a257.61,257.61,0,0,1-7.66-49.67,196.75,196.75,0,0,1,.3-25.23,151.57,151.57,0,0,1,4.13-25A109.29,109.29,0,0,1,66,337.57a83.53,83.53,0,0,1,25.17-28.74,87.21,87.21,0,0,1,11-6.56A99.57,99.57,0,0,1,126.33,294c2.1-.38,4.18-.81,6.28-1.15s4.21-.59,6.32-.82l6.33-.56,6.15-.6,6.16-.59c2-.28,4.07-.65,6.11-1l6.1-1c1-.14,2-.4,3-.62l3-.68a240.24,240.24,0,0,0,46.9-15.69,309.35,309.35,0,0,0,43.45-24,407.26,407.26,0,0,0,39.69-30c25.34-21.49,48.29-45.72,69.55-71.3q15.9-19.25,30.33-39.66c4.79-6.8,9.49-13.67,14-20.67q3.38-5.23,6.64-10.56c1.13-1.77,2.35-3.55,3.56-5.3l2-2.47,1-1.23c.36-.4.77-.76,1.15-1.13l2.31-2.24c.83-.68,1.7-1.32,2.55-2,.43-.32.84-.66,1.28-1l1.39-.82,1.38-.83a10.69,10.69,0,0,1,1.41-.77,38.46,38.46,0,0,1,12.26-3.65,46.22,46.22,0,0,1,12.71.22,65.78,65.78,0,0,1,12.26,3,90.82,90.82,0,0,1,11.6,4.87,119.9,119.9,0,0,1,11,6.14A152.12,152.12,0,0,1,524.33,83.07Z"/><path class="cls-11" d="M447.09,42.91Q406,52.29,365.58,64.28C338.65,72.2,312,81,285.79,91s-51.91,21.29-76.23,35.07c-6.05,3.47-12,7.06-17.87,10.86s-11.5,7.86-16.95,12.15c-10.85,8.6-21,18.29-28.52,29.72-.88,1.46-1.83,2.88-2.68,4.35s-1.67,3-2.37,4.51c-1.45,3-2.77,6.26-4,9.51-2.45,6.49-4.57,13.13-6.46,19.83-3.78,13.42-6.62,27.13-9.1,40.9-5,27.57-8.16,55.49-12.12,83.34-2,13.92-4,27.85-6.6,41.71a381.15,381.15,0,0,1-9.73,41.15c-4.16,13.47-9.43,26.74-17,38.69a93.8,93.8,0,0,1-6.26,8.56c-1.09,1.4-2.33,2.66-3.5,4l-1.88,1.88c-.61.63-1.26,1.23-1.93,1.81a60,60,0,0,1-17.84,11.15,61,61,0,0,0,9.19-5.1,59.43,59.43,0,0,0,8.13-6.61c1.3-1.16,2.45-2.49,3.67-3.74s2.31-2.61,3.35-4A90.75,90.75,0,0,0,75,462.11c7.2-12,12-25.23,15.82-38.68a386,386,0,0,0,8.86-41c2.3-13.83,4.21-27.73,6-41.66s3.38-27.89,5.2-41.83S114.59,271,117,257.1a422.77,422.77,0,0,1,9-41.4c1.9-6.82,4-13.59,6.54-20.25,1.24-3.33,2.56-6.62,4.13-9.94.75-1.65,1.69-3.21,2.53-4.82s1.88-3.08,2.83-4.62a110.58,110.58,0,0,1,13.67-16.63,167.6,167.6,0,0,1,16-14.17A273.6,273.6,0,0,1,207.25,122c6.18-3.43,12.45-6.68,18.78-9.82s12.74-6.07,19.18-9,13-5.6,19.49-8.22,13.12-5.13,19.74-7.54A1065.47,1065.47,0,0,1,447.09,42.91Z"/><path class="cls-11" d="M407.94,80.83c-7.81,9.83-16,19.33-24.47,28.64s-17.05,18.46-25.87,27.42-17.91,17.64-27.15,26.17S311.71,179.84,302,187.87s-19.65,15.75-29.81,23.19l-7.69,5.5c-2.54,1.85-5.2,3.55-7.79,5.34-5.18,3.6-10.54,6.92-15.86,10.31-2.66,1.69-5.4,3.26-8.11,4.88s-5.42,3.23-8.21,4.71l-8.31,4.54c-2.8,1.46-5.64,2.84-8.46,4.27l-4.23,2.12-4.32,2c-2.89,1.29-5.75,2.63-8.66,3.88-5.88,2.32-11.7,4.83-17.73,6.78l-4.49,1.54c-.75.26-1.5.53-2.25.76l-2.29.66-9.15,2.6c-3.07.81-6.19,1.42-9.28,2.14l-9.14,2a107.86,107.86,0,0,0-17.45,5.7,83.15,83.15,0,0,0-15.86,9.05,78.15,78.15,0,0,0-23.5,27.6,115.38,115.38,0,0,0-11,35.12,192.48,192.48,0,0,0-1.88,37.19A299.14,299.14,0,0,0,70.47,427a421.06,421.06,0,0,0,18.88,72.67A356.29,356.29,0,0,1,77,464c-3.53-12.06-6.56-24.29-9-36.65a300.74,300.74,0,0,1-4.79-37.51A192.48,192.48,0,0,1,64.57,352c1.77-12.57,5.13-25.08,11-36.55a86.39,86.39,0,0,1,10.54-16.13,80.78,80.78,0,0,1,14-13.29,85.37,85.37,0,0,1,16.72-9.65,113.66,113.66,0,0,1,18.27-6l9.23-2.06c3-.71,6.06-1.32,9.06-2.11l9-2.58,2.24-.65c.74-.23,1.47-.5,2.2-.75l4.41-1.52c5.92-1.89,11.65-4.35,17.44-6.61,2.86-1.22,5.69-2.54,8.53-3.8l4.26-1.91,4.19-2.08c2.79-1.4,5.59-2.76,8.36-4.18l8.22-4.47c2.76-1.45,5.44-3.05,8.13-4.63s5.41-3.11,8.06-4.76c5.29-3.31,10.64-6.55,15.8-10.07,2.59-1.74,5.24-3.4,7.78-5.22l7.68-5.38c10.13-7.32,20.17-14.79,29.9-22.67l3.67-2.92,3.62-3c2.4-2,4.83-4,7.22-6,4.75-4.07,9.52-8.13,14.2-12.3q14.09-12.42,27.62-25.48C374,117.81,391.4,99.72,407.94,80.83Z"/><path class="cls-11" d="M592,90.35a599.52,599.52,0,0,1-13.16,59.34c-2.61,9.8-5.53,19.51-8.59,29.19s-6.42,19.25-10,28.77-7.42,18.91-11.58,28.19-8.66,18.41-13.62,27.3a244.18,244.18,0,0,1-16.47,25.7c-6.11,8.13-12.81,15.91-20.66,22.35a152.75,152.75,0,0,0,18.64-23.76,294.15,294.15,0,0,0,15-26.13,552.44,552.44,0,0,0,24-55.41c3.6-9.41,6.91-18.94,10.16-28.49s6.3-19.17,9.34-28.79Q584.07,119.66,592,90.35Z"/><path class="cls-11" d="M395.43,63.34q-28.65,10.81-56.6,23.22t-55.36,25.93c-18.21,9.12-36.22,18.64-53.86,28.77s-35,20.76-51.82,32.2q-12.67,8.49-24.88,17.62c-4.09,3-8.08,6.16-12.09,9.27S132.9,206.7,129,210a404.15,404.15,0,0,0-43.79,42.2A298.09,298.09,0,0,0,66.37,276a215.26,215.26,0,0,0-16,25.87,183.08,183.08,0,0,0-12,28c-.77,2.42-1.63,4.82-2.22,7.29l-1,3.69-.5,1.84c-.15.62-.26,1.24-.4,1.86-.52,2.49-1.12,5-1.57,7.48l-1.19,7.56.82-7.62c.32-2.53.8-5,1.2-7.57.18-1.27.46-2.51.76-3.76l.85-3.74c.51-2.51,1.28-4.95,2-7.42a185.91,185.91,0,0,1,11-28.68c9-18.5,20.84-35.46,34.05-51.16A386.31,386.31,0,0,1,126,206.36c7.79-6.67,15.83-13,24-19.19S166.5,175,175,169.32c17-11.44,34.46-22.12,52.29-32.16s36-19.43,54.49-28.17A944.61,944.61,0,0,1,395.43,63.34Z"/><path class="cls-11" d="M371.28,97.5c-38.76,31.56-78.56,61.89-119.92,90.08-10.34,7-20.8,13.93-31.44,20.53s-21.44,13-32.57,18.87l-4.18,2.19-4.24,2.08c-2.81,1.43-5.72,2.66-8.6,4-1.43.66-2.93,1.21-4.39,1.81l-4.38,1.74c-2.86,1.1-5.68,2.33-8.48,3.6a205.83,205.83,0,0,0-32,18.6,228.48,228.48,0,0,0-53,51.38A192.91,192.91,0,0,0,49,344a181.9,181.9,0,0,0-7,17.11,161.28,161.28,0,0,0-5.22,17.76c-5.71,24-5.76,49.35-1,73.71a218.88,218.88,0,0,0,10.2,35.85l1.68,4.36c.56,1.45,1.19,2.88,1.79,4.32,1.16,2.89,2.47,5.72,3.76,8.56l1,2.14,1,2.1,2,4.22c1.39,2.8,2.86,5.55,4.29,8.33C48.77,501,38.84,477.67,33.34,453.11,32.05,447,31,440.76,30.25,434.5a185.38,185.38,0,0,1-1.19-18.85,178.06,178.06,0,0,1,.89-18.9,176.28,176.28,0,0,1,3-18.7,172.15,172.15,0,0,1,12.09-35.87,197.72,197.72,0,0,1,19.21-32.62A218.49,218.49,0,0,1,89.11,281a237.64,237.64,0,0,1,29.13-24.13A210.73,210.73,0,0,1,151,237.94c2.89-1.31,5.8-2.57,8.78-3.7l4.33-1.7c1.43-.59,2.87-1.1,4.28-1.75,2.81-1.27,5.65-2.46,8.42-3.86l4.18-2,4.14-2.12c22.06-11.42,43.15-24.82,64-38.44,10.43-6.84,20.74-13.88,31-21s20.47-14.29,30.63-21.56,20.3-14.56,30.36-22l15.06-11.16Q363.8,103.14,371.28,97.5Z"/><path class="cls-11" d="M541.06,83.25c-4.7,16.39-10.41,32.48-16.63,48.35s-13,31.54-20.45,46.92c-14.93,30.69-32.23,60.33-52.68,87.78-5.09,6.89-10.48,13.54-16,20.11-2.81,3.23-5.59,6.49-8.52,9.62-1.46,1.56-2.88,3.18-4.38,4.71L418,305.35c-6.07,6.06-12.26,12-18.82,17.56l-2.44,2.1-2.5,2-5,4c-3.45,2.57-6.81,5.25-10.37,7.66a224.07,224.07,0,0,1-45.21,24.77c-4.05,1.49-8,3.14-12.17,4.38-2.06.65-4.09,1.38-6.17,1.94l-6.25,1.7c-2.07.61-4.2,1-6.3,1.47l-3.16.7-1.58.34-1.6.27L290,375.39l-1.6.26-1.61.19-3.21.37-3.22.37-1.61.18-1.61.1-6.46.4-1.62.1-1.62,0-3.23,0c-2.16,0-4.31.11-6.47,0l-6.46-.25c-1.08-.06-2.16-.06-3.23-.16l-3.22-.29-6.44-.59-6.4-.89a236.07,236.07,0,0,1-25.3-5.11c-4.14-1-8.22-2.08-12.34-3.05l-6.2-1.35-3.1-.68-3.11-.57-6.23-1.16-6.26-.91c-1-.15-2.08-.33-3.13-.45l-3.14-.32-3.14-.33c-1-.12-2.09-.22-3.14-.27l-6.29-.37-6.29-.06a115.54,115.54,0,0,0-12.49.81,83.55,83.55,0,0,0-12.2,2.4c-1,.22-2,.63-2.94.94s-2,.66-2.92,1L111,367l-1.4.62c-.47.22-.9.49-1.35.73l-2.68,1.49c-.86.54-1.68,1.15-2.52,1.72l-1.26.87c-.41.31-.78.65-1.17,1l-2.32,2A46.93,46.93,0,0,0,90.71,385a59.32,59.32,0,0,0-7.2,23.52A98.72,98.72,0,0,0,83,421.05c.15,4.2.4,8.4.93,12.59,2,16.76,6.52,33.22,12,49.26a465.13,465.13,0,0,0,19.32,47.18q5.45,11.55,11.37,22.86c3.94,7.55,8,15,12.32,22.39-9-14.45-17.27-29.41-24.88-44.67a464.47,464.47,0,0,1-20.44-46.95C87.81,467.65,83,451.1,80.75,434c-.59-4.27-.91-8.57-1.11-12.89a104.29,104.29,0,0,1,.38-13,63.15,63.15,0,0,1,7.35-25.08,51.15,51.15,0,0,1,8.1-10.55l2.5-2.2c.42-.36.83-.75,1.27-1.09l1.36-1c.91-.63,1.79-1.31,2.73-1.91l2.88-1.65c.48-.27,1-.57,1.45-.81l1.51-.69,3-1.37c1-.39,2.07-.74,3.1-1.11s2.07-.78,3.14-1a85.86,85.86,0,0,1,12.83-2.62,118,118,0,0,1,13-.93h6.49l6.47.34c1.08,0,2.15.13,3.22.24l3.22.32,3.21.31c1.08.12,2.14.29,3.2.43l6.39.9,6.35,1.12,3.17.57,3.15.66,6.29,1.36c4.17,1,8.34,2.05,12.48,3.05a233.07,233.07,0,0,0,24.78,4.95l6.26.86,6.29.55,3.15.27c1,.11,2.1.1,3.15.15l6.3.24c2.11.09,4.21,0,6.31,0l3.16,0,1.57,0,1.58-.1,6.29-.41,1.57-.1,1.57-.17,3.13-.36,3.13-.36,1.57-.18,1.55-.25,6.23-1,1.55-.25,1.54-.34,3.08-.67c2.05-.47,4.13-.82,6.14-1.42l6.1-1.63c2-.55,4-1.26,6-1.88,4-1.2,7.93-2.81,11.88-4.25a223.29,223.29,0,0,0,44.31-24.11c3.51-2.34,6.84-4.95,10.24-7.45l5-3.95,2.47-2,2.41-2.05c6.5-5.41,12.64-11.24,18.67-17.18s11.71-12.22,17.31-18.58,10.95-12.94,16.08-19.7c20.65-26.94,38.23-56.2,53.55-86.55q11.58-22.74,21.41-46.33,4.93-11.78,9.41-23.75C535.61,99.4,538.49,91.38,541.06,83.25Z"/><path class="cls-11" d="M221.82,572.56a67.32,67.32,0,0,0,11.55-8.65,89.6,89.6,0,0,0,9.88-10.46,95.11,95.11,0,0,0,8.11-11.85c1.24-2.05,2.3-4.2,3.39-6.32s2-4.32,2.88-6.56a111.45,111.45,0,0,0,7.21-27.62,144.23,144.23,0,0,0,.88-28.56c-.33-4.76-.8-9.52-1.52-14.24l-1-7.25c-.23-2.47-.46-4.94-.46-7.43a63.55,63.55,0,0,1,1.45-14.91,54.92,54.92,0,0,1,5.28-14.12c4.79-8.92,12-16.2,19.67-22.3a186.49,186.49,0,0,1,24.65-15.92c8.53-4.7,17.19-9,25.81-13.38s17.23-8.7,25.73-13.22,16.87-9.23,25-14.27,16.12-10.43,23.8-16.17a249.72,249.72,0,0,0,41.74-39.49,236.26,236.26,0,0,0,17.13-23.22c1.27-2,2.61-4.05,3.83-6.13s2.49-4.13,3.67-6.23,2.37-4.2,3.53-6.33l3.35-6.42-3,6.59c-1,2.19-2.13,4.34-3.2,6.52s-2.28,4.26-3.42,6.4-2.42,4.19-3.62,6.3a237.8,237.8,0,0,1-16.34,24.06,239.59,239.59,0,0,1-41.27,41c-15.31,12-32,22.23-49,31.52s-34.57,17.51-51.37,26.8a179.37,179.37,0,0,0-24.05,15.39c-7.43,5.8-14.06,12.63-18.55,20.73a49.88,49.88,0,0,0-5,12.87,58.92,58.92,0,0,0-1.51,13.85c0,2.34.16,4.68.34,7l.87,7.13c.64,4.84,1,9.71,1.26,14.59a141.78,141.78,0,0,1-1.54,29.25,112.65,112.65,0,0,1-8.19,28.09c-.94,2.25-2.1,4.41-3.2,6.59s-2.37,4.27-3.7,6.31a96.9,96.9,0,0,1-8.7,11.72A78.87,78.87,0,0,1,221.82,572.56Z"/><path class="cls-11" d="M515.25,83.25a147.81,147.81,0,0,0-17.86-12.6c-1.57-.92-3.1-1.9-4.69-2.79l-4.77-2.67c-3.23-1.68-6.45-3.38-9.76-4.88s-6.66-2.93-10-4.38L463.08,54l-2.55-1-2.59-.85-5.17-1.7c-1.75-.51-3.5-1-5.25-1.46-3.48-1-7-1.75-10.57-2.55a173.9,173.9,0,0,0-85.86,3.25A224.79,224.79,0,0,0,311,66.15l-9.45,5.32c-.78.45-1.58.87-2.35,1.35L297,74.29l-4.56,2.95c-6.18,3.77-11.88,8.25-17.75,12.49-1.49,1-2.86,2.22-4.26,3.37l-4.2,3.45L262,100l-2.11,1.72c-.69.58-1.34,1.21-2,1.82l-8,7.33-4,3.66-4,3.79-31.59,30.33c-21.1,20.17-42.16,40.39-62.91,60.88s-41.22,41.28-60.74,62.9c-9.75,10.82-19.19,21.92-28.15,33.38a331.61,331.61,0,0,0-24.77,35.85A193.18,193.18,0,0,0,23.62,361a133.46,133.46,0,0,0-7.4,20.45c-3.79,14-4.81,28.89-1.62,43.18A82.78,82.78,0,0,1,12,402.84a99.48,99.48,0,0,1,2.89-21.77,136.63,136.63,0,0,1,7-20.87,193.29,193.29,0,0,1,9.68-19.77A330.16,330.16,0,0,1,55.86,303.8c8.8-11.71,18.2-22.95,27.83-34s19.55-21.76,29.65-32.33,20.34-21,30.67-31.34c20.7-20.63,41.74-40.89,62.79-61.13l31.68-30.24,4-3.78,4.08-3.71,8.16-7.4c.68-.61,1.34-1.26,2.05-1.84l2.14-1.74,4.28-3.48,4.28-3.48c1.43-1.16,2.83-2.34,4.35-3.39,6-4.26,11.83-8.76,18.15-12.55l4.66-3L296.92,69c.79-.48,1.61-.9,2.41-1.36L309,62.28a216.87,216.87,0,0,1,41.05-16.23,176.74,176.74,0,0,1,87.43-1.94c3.56.91,7.14,1.71,10.63,2.86,1.76.54,3.52,1.05,5.27,1.61l5.18,1.85,2.59.92,2.55,1,5.1,2.07c3.32,1.55,6.7,3,9.94,4.67s6.49,3.4,9.7,5.16l4.72,2.81c1.57.93,3.09,2,4.63,2.93A147,147,0,0,1,515.25,83.25Z"/><path class="cls-11" d="M504.26,89.76c-5.2,12.79-11,25.35-17,37.76s-12.44,24.68-19.15,36.77-13.86,23.94-21.36,35.57-15.37,23-23.79,34q-6.3,8.26-13,16.24t-14,15.46a239.24,239.24,0,0,1-31.28,27.65,140.75,140.75,0,0,1-37,19.77c-3.35,1.14-6.77,2.09-10.08,3l-10,2.65-20,5.18c-13.36,3.44-26.66,7-39.77,11.07a321.58,321.58,0,0,0-38.45,14.42C196.9,355,185,361.82,174.52,370.48s-19.3,19.16-25.22,31.32a90.38,90.38,0,0,0-6.72,19.09,110.1,110.1,0,0,0-2.64,20.17,134.4,134.4,0,0,0,.79,20.44,176.62,176.62,0,0,0,3.41,20.26c.67,3.37,1.6,6.67,2.41,10l1.41,5q.69,2.49,1.48,4.94l1.57,4.92c.53,1.63,1.12,3.25,1.68,4.88,1.1,3.26,2.34,6.47,3.56,9.7s2.57,6.39,3.84,9.59,2.74,6.33,4.09,9.5l4.29,9.42L173,559l-4.82-9.17-4.63-9.26c-1.46-3.14-3-6.25-4.37-9.4s-2.83-6.31-4.11-9.52-2.65-6.39-3.84-9.64c-.61-1.62-1.24-3.23-1.82-4.86l-1.71-4.91c-.59-1.62-1.12-3.27-1.63-4.93l-1.55-5c-.92-3.34-1.95-6.66-2.72-10a175.15,175.15,0,0,1-3.87-20.48A137.25,137.25,0,0,1,136.66,441a100.64,100.64,0,0,1,9.12-40.85A91.28,91.28,0,0,1,157,382.19a107.77,107.77,0,0,1,14.75-15.07C182.47,358,194.69,351,207.3,345a315.81,315.81,0,0,1,39-14.8c13.24-4.16,26.61-7.76,40-11.23l20.06-5.13,10-2.61c3.36-.89,6.6-1.78,9.79-2.85,12.8-4.31,24.74-11.08,35.82-19a234,234,0,0,0,30.91-26.87,391.51,391.51,0,0,0,27.08-31A602.23,602.23,0,0,0,466,163.08,803.31,803.31,0,0,0,504.26,89.76Z"/><path class="cls-11" d="M576.75,95.6a1342.06,1342.06,0,0,1-50.51,131.55q-7.18,16.11-15,31.94T494.88,290.4c-5.74,10.29-11.79,20.42-18.32,30.27A250.65,250.65,0,0,1,455.13,349c-1,1.12-2,2.21-3,3.29l-1.54,1.62L449,355.51c-2.13,2.14-4.2,4.08-6.24,6.18q-6.14,6.19-11.8,12.82a210.5,210.5,0,0,0-20.34,28.19,162.67,162.67,0,0,0-14.68,31.41,140,140,0,0,0-7,33.88,132.35,132.35,0,0,0,2,34.57,146.53,146.53,0,0,0,10.68,33.12A182.2,182.2,0,0,0,419,566a261.51,261.51,0,0,0,22.23,27.21Q435,587,429.1,580.45T418,566.77a184.49,184.49,0,0,1-18.6-30.06,147.84,147.84,0,0,1-11.66-33.5A132.91,132.91,0,0,1,385,467.72a138.68,138.68,0,0,1,6.76-35,168.18,168.18,0,0,1,14.76-32.43,207.26,207.26,0,0,1,20.69-28.95q5.75-6.78,12-13.13c2-2.11,4.25-4.2,6.26-6.23l1.53-1.52,1.48-1.58q1.5-1.56,2.92-3.2A248.6,248.6,0,0,0,472.49,318c6.48-9.7,12.48-19.73,18.26-29.89,11.57-20.33,22-41.35,31.94-62.55S542,182.78,551,161.11,568.53,117.59,576.75,95.6Z"/><path class="cls-29" d="M330.76,553.05l-13.47,3.26a6.65,6.65,0,0,0-3.89,1.92c-1.41,1.81-.53,4.6,1.16,6.15s4,2.26,6,3.25a23.4,23.4,0,0,1,12.95,21.85,15.14,15.14,0,0,0,.1,5c.47,1.63,2,3.12,3.65,2.86s2.67-2.15,3-3.85c1-5.07-1.26-10.46.54-15.4,1.5-4.11,6.41-6.57,7.53-10.82C351.08,556.86,339.14,551,330.76,553.05Z"/></g></svg>