<?xml version="1.0" encoding="utf-8"?>
<!-- Generator: Adobe Illustrator 22.0.1, SVG Export Plug-In . SVG Version: 6.00 Build 0)  -->
<svg version="1.1" xmlns="http://www.w3.org/2000/svg" xmlns:xlink="http://www.w3.org/1999/xlink" x="0px" y="0px"
	 viewBox="0 0 720 720" style="enable-background:new 0 0 720 720;" xml:space="preserve">
<style type="text/css">
	.st0{display:none;}
	.st1{display:inline;}
	.st2{clip-path:url(#SVGID_2_);}
	.st3{fill:#CEA483;}
	.st4{fill:#996E5B;}
	.st5{fill:#704C40;}
	.st6{fill:#56362C;}
	.st7{fill:#F6C9AA;}
	.st8{fill:#E0AD90;}
	.st9{fill:#351F07;}
	.st10{fill:#E9A09C;}
	.st11{fill:#C16D6E;}
	.st12{display:none;fill:#44251E;}
	.st13{fill:#5B302B;}
	.st14{fill:#834B45;}
	.st15{fill:#E4E2E8;}
	.st16{fill:#80FFFF;}
	.st17{fill:#190E0A;}
	.st18{fill:#3D190F;}
	.st19{fill:#009299;}
</style>
<g id="Layer_1" class="st0">
	<g class="st1">
		
			<image style="overflow:visible;" width="1234" height="1802" xlink:href="../Downloads/ce092293a074efccb1b742275e394386.jpg"  transform="matrix(0.6999 0 0 0.6999 -25.1213 -54.321)">
		</image>
	</g>
</g>
<g id="Layer_2">
	<rect width="720" height="720"/>
	<g>
		<defs>
			<rect id="SVGID_1_" width="720" height="720"/>
		</defs>
		<clipPath id="SVGID_2_">
			<use xlink:href="#SVGID_1_"  style="overflow:visible;"/>
		</clipPath>
		<g class="st2">
			<g>
				<path class="st3" d="M583.2,722.5c-1.5,1.9-16.8-1.4-18.8,0.2c-42.5,15.6-88.3,9.8-133.5,5.8c-4.9-4-8.9-9-11.5-14.9
					c-4.4-10-4.2-21.3-4-32.2c0.5-22.6,1-45.3,1.5-67.9c0.3-13.6-3-29.6,9.9-37.7c13.7-8.6,35.6-9.3,50.9-16.8
					c15.9-7.8,30.7-18,43.6-30.2c9.7-9.2,22.7-20.4,34.6-14.3c1.9,1,3.5,2.3,4.8,3.9c-1.9,4.3-3.7,8.7-5.3,13.1v0
					c-9.6,26.5-13.6,55.1-14.5,78.7c-4,31.2,6.6,61.5,24.1,87.6C566.8,700.4,581.4,720,583.2,722.5z"/>
				<path class="st4" d="M443.6,681.5c4.2-15.3,9.2-30.6,10.5-46.4c1.2-15.8-0.5-37.7-10.9-49.7s-30.6-12.6-44.3-4.5
					c4,41.7,22.6,86.5,6.8,125.3c-6.4,15.8,11.9,26.7,28.8,22.1c5.9-1.6,3.1-14,3.7-20C439.1,699.1,441.2,690.2,443.6,681.5z"/>
				<path class="st5" d="M414.7,615.5c-1-10.6-2.5-21.6-8.3-30.5c-8.4-12.9-25.6-19.2-40.3-14.8c7.8,33.2,15.6,66.3,23.4,99.5
					c3.1,13.1,1,35.4,6,47.9c1.4,3.6,9.1,9.6,14.5,8.3c5-1.2,3.6-18.7,4-22.8C417.2,674,417.4,644.6,414.7,615.5z"/>
				<path class="st6" d="M400.1,727.4c0,0.7-0.9,0.7-1,0.1c-2.3-15.9-2.5,0.7-3.6,0.7c-7.6-0.1-14.8-1.6-18.4-3.9
					c1-11,2.9-29.5,2.8-40.6c-0.5-38.3-7.8-76.6-23.7-111.1c-0.3-2.4-0.6-4.7-0.9-6.7c-0.2-1.1,1-1.9,1.9-1.4
					c24,11.8,32.7,53.9,37,78C399.2,670.5,399.7,699,400.1,727.4z"/>
			</g>
			<path class="st7" d="M582.3,474.6c0.2,0.6,0.5,1.2,0.7,1.8v0c-0.1,0.4-0.2,0.8-0.3,1.2c-2.5,3-4.9,6.5-7.1,10.2
				c-1,1.6-1.9,3.3-2.9,5.1c-4.4,8.2-8.3,17.1-11.8,24.8c-2.1,4.5-3.9,9.2-5.6,13.9c-8.9,10.1-19.5,18.7-30.9,25.9
				c-23.2,14.7-49.7,23.2-77,25.7c-0.1,0-0.2,0-0.3,0c-0.9,0.1-1.8,0.1-2.7,0.2c-0.3,0-0.6,0.1-0.8,0.1c-0.4,0-0.7,0.1-1.1,0.1
				c-0.2,0-0.5,0-0.7,0.1h0c-0.1,0-0.2,0-0.3,0c-29.3,1.8-59.2-3.4-86-15.3c-0.7-0.3-1.3-0.6-2-0.9l0,0c-0.8-1.8-1.8-3.5-2.7-5.2
				c-10.4-20-23.9-38.5-40.7-54.9c-3.8-3.7-7.8-7.2-11.8-10.5c-12.5-10.3-25.9-19.1-39-28.7c-15.9-11.7-29.1-26.8-38.1-44.5
				c0-0.1-0.1-0.2-0.1-0.3v0c-7.7-29.9-13.5-60.6-17.7-91.5c0-2.9-0.6-6.3-1.2-9.1c0,0,0,0,0,0c-2.1-16.1-3.8-32.2-5.2-48.2
				c-3.3-38.7-6.7-77.8-1-116.2c5.7-37.9,16.4-91,50-102.1c1.9-0.7,3.8-1.3,5.6-1.8c15.4-3.2,28.9,1.9,38.5,12.8
				c7.2,8.1,21.6,29.8,27.2,39.3c20.4,34.3,40.4,69,64.6,100.6c8,10.5,16.5,20.9,25.5,30.6c5.9,13.3,13.3,25.7,23.4,36.5
				c19.5,20.9,47.1,32.9,75.1,38.4c3.5,0.7,7.2,1.3,11.2,1.8c29.2,12.1,56.1,30,74.9,54.3c0.2,0.7,0.4,1.4,0.6,2.1
				c-4.3,11.3-9.8,23.4-14.5,38.4c-5.3,17-4.9,35.1-0.3,52.4c0.2,0.6,0.3,1.3,0.5,1.9c0.1,0.5,0.3,1.1,0.5,1.6
				c0.1,0.2,0.1,0.4,0.2,0.6c0.1,0.4,0.3,0.9,0.4,1.3c0.4,1.3,0.9,2.7,1.3,4c0.2,0.6,0.4,1.3,0.7,1.9
				C581.8,473.4,582.1,474,582.3,474.6z"/>
			<g>
				<path class="st8" d="M423.2,442.3c-3.1-8.3-10.9-25.7-19.5-23.9c-11.3,2.4-20.6-2-28.1-8.8c-6.2-5.6-7.6-17.6-8.1-26
					c-0.4-8.4-0.1-17.2-3.9-24.7c-5.1-10.3-18-16-29.1-12.9c-6,1.7-11.1,5.9-14.3,11.2c-4.3,7-2.5,16,3.8,21.3
					c4.9,4.1,9.9,8.2,14.8,12.4c7.6,6.4,15.3,12.8,21.8,20.3c8.6,10,15.1,21.8,18.8,34.5c2.6,9,5.3,14.6,7,24.2
					c2.1,12.2,3.9,18.2,8,19.5c9.9,3.2,24.4-15,26.2-23.2C423.4,453.9,428.4,456.4,423.2,442.3z"/>
				<path class="st8" d="M384.7,378c14.3-27.6,3.4-61.1-17.7-83.9c-5.1-5.5-11.2-10.6-18.5-12.1c-7.3-1.6-16,1.2-19.3,8
					c-2.5,5.2-1.4,11.5,0.7,17s4.9,10.7,5.7,16.5c1.7,12-5.9,24-3.8,36c1.2,6.5,2.5,12.8,6.3,18.2c4.3,6.1,9.6,13.6,15.1,18.5
					c3.7,3.3,6.7,6.5,10.9,9.2c3,1.9,14.9,11.5,18.3,12.4c4.6,1.2,3.6-0.5,3.5-4.7C385.6,404.5,375.9,395,384.7,378z"/>
			</g>
			<g>
				<path class="st8" d="M583.1,476.4L583.1,476.4c-0.1,0.4-0.2,0.8-0.3,1.2c-2.5,3-4.9,6.5-7.1,10.2c-1,1.6-1.9,3.3-2.9,5.1
					c-4.4,8.2-8.3,17.1-11.8,24.8c-2.1,4.5-3.9,9.2-5.6,13.9c-8.9,10.1-19.5,18.7-30.9,25.9c-23.2,14.7-49.7,23.2-77,25.7
					c-0.1,0-0.2,0-0.3,0c-0.9,0.1-1.8,0.1-2.7,0.2c-0.6,0-1.3,0.1-1.9,0.1c-0.2,0-0.5,0-0.7,0.1h0c-1.2-0.3-0.5-0.8-1.6-1.2
					c-9.7-4-16.7-12.8-20.3-22.6c-3.6-9.8-4.3-20.4-4-30.8c0.6-22-23.1-50.5,4.7-53.1c29.1-2.7,31.9,37.2,46.2,52.8
					c17.3,18.9,40.1,13.5,51.2,10.5c6.1-1.6,19.1-9.9,23.2-14.7c15.8-18.6,28.2-40,36.6-62.9c0.2,0.6,0.3,1.3,0.5,1.9
					c0.1,0.5,0.3,1.1,0.5,1.6c0.1,0.2,0.1,0.4,0.2,0.6c0.1,0.4,0.3,0.9,0.4,1.3c0.4,1.3,0.9,2.7,1.3,4c0.2,0.6,0.4,1.3,0.7,1.9
					c0.2,0.6,0.5,1.2,0.7,1.8C582.5,475.2,582.8,475.8,583.1,476.4z"/>
				<path class="st4" d="M441.7,583.9c-29.3,1.8-59.3-3.8-86.2-15.6c-0.8-0.6-1.6-1.2-2.4-1.8c-0.7-1.5-1.5-2.9-2.2-4.4
					c-10.4-20-23.9-38.5-40.7-54.9c-3.8-3.7-7.8-7.2-11.8-10.5c-6.7-10.4-12.9-21.1-18.1-32.3c-11.5-24.7-18.3-52.4-14.5-79.5
					c1.6-11.3,5-22.4,11.5-31.8c3.9-5.7,18.7-22.3,26.7-16.3c7.4,5.6-2.9,27.6-4,34.8c-4.6,28.2-1.1,57.7,10.5,83.8
					c11.7,26.3,30.7,48.5,49.5,70.3c5,5.8,11.5,12.2,19.1,10.9c9-1.6,15.8-12.9,14.9-22c-0.8-9.1-3.8-18.7-0.3-27.1
					c2.5-6,5-10.5,11.4-11.3c6.4-0.8,13.2,2,17.1,7.1c2.3,3,3.7,6.7,5,10.3c3.3,9.1,6.5,18.1,9.8,27.1c3.6,10,7.2,20.1,8.5,30.6
					C446.7,561.1,446.3,574.8,441.7,583.9z"/>
				<path class="st5" d="M353,563.6c-0.7-0.5-1.4-1-2.1-1.5c-10.4-20-23.9-38.5-40.7-54.9c-24.6-23.9-54.4-38.1-79.3-63l0,0
					c-1.2-1.6-2.3-3.2-3.3-4.9c-14.6-25.4-8.9-56.4-10.8-85.4c-0.4-6.4-5.2-33.2,4.5-31.5c2,0.3,8.5,20.4,21.6,18.3
					c13.7-2.2,15-21.4,34-17.8c12.3,2.3,23.7,13.5,20.7,25.7c-1.8,7.4-7.9,12.9-12.3,19.2c-10.9,15.1-12.6,35.4-8.7,53.7
					c3.9,18.3,12.8,35,21.5,51.5c11.2,21,21.6,43.8,37.6,61.4C343.7,543.3,345.7,552.7,353,563.6z"/>
				<path class="st6" d="M274.3,334.3c-6.6,0.2-13.9,4.9-18.4,9.8c-3.5,3.9-5.4,9.3-9.6,12.5c-4.2,3.1-10,2.8-14.7,0.6
					c-9.1-4.3-11.6-18.7-10.5-23.8c-4-0.2-7.5,9-9.9,12.2c-2.4,3.3-3.7,6.7-2.7,12.7c2,12.6,2.9,27.5,6.8,39.6s4.6,26.8,10.5,38.2
					c1.6,3,7.8,9.4,10.2,11.7c2.4,2.4,8.4,1.1,11.2-1.2c4-3.3,6.5-8.6,7.5-13.6c2.1-10.5,0-21.3-0.5-32s1.2-22.5,9-29.8
					c4.2-3.9,7.6-6.5,12.9-8.6c5.3-2.1,12.1-4.6,12.4-12.6c0.3-6.8,7.3-8.5,1.4-11.6c-1.7-0.9,0.9-3.1-1.2-3.4
					C284.1,334.3,279,334.1,274.3,334.3z"/>
			</g>
			<g>
				<path class="st8" d="M517.5,314.3c-22.4,12.6-49,17.6-74.5,13.8c-27.2-4.1-52.7-18.1-70.8-38.8c-13.7-15.8-24.3-36.2-43.6-44.4
					c-23.9-10.1-50.6,2.5-75.3,10.5c-18.5,5.9-37.8,9.1-57.2,9.6c-2-24-3.8-48.1-3.1-72.1c0.2-8.7,0.8-17.4,1.8-26.1
					c0.2-2,0.5-3.9,0.8-5.9c8-2.2,16-4.3,24-6.5c15.5-4.2,31.3-8.4,47.3-6.9c23.9,2.2,45,16.9,68.6,20.7c6.7,1.1,13.4,1.3,20.1,1.3
					c2.5,3.8,5,7.6,7.5,11.4c6,8.9,12.2,17.6,18.7,26.1c8,10.5,16.5,20.9,25.5,30.6c5.9,13.3,13.3,25.7,23.4,36.5
					c19.5,20.9,47.1,32.9,75.1,38.4C509.6,313.2,513.4,313.8,517.5,314.3z"/>
				<path class="st4" d="M373.4,197.8c4.4,4.7,3.8,11.1-2.5,13.6c-13.9,5.5-28.5,3.4-37.1-0.5c-24.3-11-33.4-43.1-57.7-54.1
					c-16.2-7.4-35.8-3.3-51,6.1c-12.5,7.7-22.6,18.6-32.1,29.9c0.2-8.7,0.8-17.4,1.8-26.1c0.3-2.9,0.7-5.7,1.1-8.6
					c0.7-5,1.6-10.2,2.5-15.6c10.9-9.1,25.3-12.8,39.3-15.6c22.8-4.5,46-7.1,69.2-7.8c6-0.2,12-0.2,18,0.2
					c4.1,6.9,8.2,13.9,12.4,20.8c8.3,13.8,16.8,27.4,25.8,40.7C361.8,184.7,370.6,194.8,373.4,197.8z"/>
				<path class="st5" d="M337.5,140.2c-11.4,1.3-27.1-4-36.1-5.4c-20.7-3.2-42.6-6.3-62,1.5c-9.8,3.9-18.3,10.4-26.6,16.8
					c-5.9,4.6-11.9,9.1-17.8,13.6c0.3-2.9,0.7-5.7,1.1-8.6c0.9-5.9,1.9-12.2,3-18.7c1.4-7.4,3-15.1,4.9-22.6
					c6.8-4.7,15.4-7.2,23.6-9.2c26-6.2,52.8-9.2,79.5-9c1.9,0,3.7,0.1,5.6,0.1c1.9,2.9,3.5,5.5,4.7,7.5c0.2,0.3,0.4,0.7,0.6,1
					C324.5,118.4,330.9,129.3,337.5,140.2z"/>
				<path class="st6" d="M318,107.4c-9.2,8.3-24.6-2.6-32.8-1.2c-13.1,2.2-24,12.7-37,15.5c-12.4,2.6-25.9,2.4-36.3,9.4
					c-4.1,2.7-8.3,6.2-12.7,8.4c1.6-8.5,3.4-17.3,5.8-25.9c1.8-6.6,3.9-13.1,6.4-19.2c9.8-5.4,20.9-8.5,31.8-11.6
					c15.9-4.5,32.3-9,48.7-7.5c1.3,0.1,3.3,0.6,5.7,1.3c2.7,3.7,5.5,7.7,8.2,11.8c4.6,6.9,9,13.7,11.5,17.9
					C317.6,106.7,317.8,107.1,318,107.4z"/>
				<path class="st9" d="M305.9,88.5c-1.2,2.5-3.9,6-6.4,6.6c-10.7,2.6-22.8-6.2-33.3-2.9c-9,2.8-24,22.7-33.3,24.4
					c-10,1.8-10.2-7.6-20.2-5.8c-1.6,0.3-6.1,2.9-7.8,3c7.4-26.7,19.5-51,41.5-57.6c2-0.9,3.5-1.3,5.2-1.7
					c15.4-3.2,28.9,1.9,38.5,12.8C294.2,71.6,300.3,80.1,305.9,88.5z"/>
			</g>
			<g>
				<path class="st10" d="M517.1,433.2c0,0.1,0,0.3,0,0.4c0,2,0.1,4.9-0.9,6.9c-3.9,7.7-5.2,7.3-12.6,14.9
					c-6.5,6.7-26.1,21.4-36,25.8c-3.7,1.7-16.2,7.2-20.1,8.2c-4.4,1.1-8.8,1.9-13.4,2.5c-0.2,0-0.4,0.1-0.6,0.1
					c-1.4,0.1-2.9,0.1-4.3,0.3c-0.1,0-0.2,0-0.3,0c-2.7,0.3-5.5,0.3-8.2,0.4c0,0-0.1,0-0.1,0c-0.2,0-0.5,0-0.7,0c-0.1,0-0.1,0-0.2,0
					c-4.3,0.2-7.1-0.7-11.7-0.5c-2.8,0.1-2.4-0.1-5.1,0h-0.1c-0.1,0-0.2,0-0.4,0c-1.6,0.1-3.1,0-4.7,0c-0.3,0-0.7,0-1,0
					c-2.2,0.1-4.5,0.1-6.3-1.2c-1.6-1.2-1.5-3-0.9-5.1c0.1-0.4,0.2-0.7,0.3-1c0.6-2.4,0.9-3.7,1.6-5.4c2.2-5.4,5-9.5,8.5-14.1
					c7-9.3,15.8-16.8,25.5-23.3c5.5-3.7,11.2-6.9,17.2-9.6c24.7-11.3,42.6-8.6,69.3-3.7c0.1,0,0.1,0,0.2,0c0.7,0.1,1.4,0.3,2,0.5
					c1,0.3,1.9,0.8,2.5,1.7C516.9,431.7,517.1,432.4,517.1,433.2z"/>
				<path class="st11" d="M517.1,433.2c0,0.1,0,0.3,0,0.4c-4,1-8,2-12,3c-9.4,2.2-19.9,4.6-28.2,9.9c-5.3,3.4-9.9,8.7-11.1,15.2
					c-0.5,2.6-0.5,5.5-1.9,7.6c-2.2,3.4-7,3.8-9.6,6.9c-2.4,3-2.1,7.5-4.3,10.7c-0.7,1-1.6,1.9-2.6,2.5c-4.4,1.1-8.8,1.9-13.4,2.5
					c-0.2,0-0.4,0.1-0.6,0.1c-1.4,0.2-2.8,0.4-4.2,0.5c-0.1-0.1-0.3-0.1-0.4-0.2c-0.2-0.1-0.4-0.2-0.6-0.3
					c-3.7-2.4-5.5-7.3-5.1-11.9c0.5-4.6,2.9-8.7,6.1-11.9s7-5.4,10.8-7.6c4.2-2.3,8.5-4.5,12.8-6.7c9.6-4.9,19.2-9.8,28.7-14.7
					c2.6-1.4,5.4-2.7,8.3-3.1c1.1-0.1,2.2-0.1,3.4,0c1.3,0.2,2.7-0.1,3.9-0.7c3.5-2,9.2-3.1,11.1-4.2c1.2-0.7,2.3-1.5,3.5-2.2
					c0.1,0,0.1,0,0.2,0c0.7,0.1,1.4,0.3,2,0.5c1,0.3,1.9,0.8,2.5,1.7C516.9,431.7,517.1,432.4,517.1,433.2z"/>
				<path class="st12" d="M476.6,443.2c-11.1,5.7-22.2,11.5-33.3,17.2c-7.3,3.8-14.6,7.5-21.9,11.3c-2.6,1.3-5.2,2.7-7.1,5
					c-2.6,3.1-3.2,7.3-5.5,10.6c-1.5,2.2-3.6,3.8-5.9,5h-0.1c-0.1,0-0.2,0-0.4,0c-1.9,0.1-3.7-0.1-5.7,0c-2.2,0.1-4.5,0.1-6.3-1.2
					c-1.6-1.2-1.5-3-0.9-5.1c0.1-0.4,0.2-0.7,0.3-1c0,0,0.1,0,0.1-0.1c9.4-5.9,18.9-11.6,28.6-16.9c5.4-3,10.8-5.9,16.3-8.8
					c7.1-3.7,14.3-7.2,21.5-10.7c6.3-3.1,12.9-6.2,19.8-6.9C477,441.5,477.4,442.7,476.6,443.2z"/>
				<path class="st13" d="M421.3,474.6c-1.3,2.7-1.8,5.7-1.5,8.7c0.3,3.1,1.5,6.4,0.9,9.4c0,0-0.1,0-0.1,0c-0.2,0-0.5,0-0.7,0
					c-4.5,0.3-7.3-0.6-11.9-0.4c-2.8,0.1-2.4-0.1-5.1,0h-0.1c-0.1,0-0.2,0-0.4,0c-1.6,0.1-3.1,0-4.7,0c-0.1-1.2,0.2-2.4,0.6-3.4
					c0.9-2.1,2.4-3.9,4.1-5.6c5.5-5.6,14.9-13.3,22.8-15.1C426,470.1,422.2,472.9,421.3,474.6z"/>
				<path class="st14" d="M434.1,491.9c-0.2,0-0.4,0.1-0.6,0.1c-1.4,0.1-2.9,0.1-4.3,0.3c-2.8,0.3-5.7,0.3-8.5,0.5c0,0-0.1,0-0.1,0
					c-0.2,0-0.5,0-0.7,0c-0.1,0-0.1,0-0.2,0c-1.5-2.8-2.1-6.4-1.8-9.7c0.4-4.7,2.4-9.1,4.9-12.6c1.3-1.8,8.7-7.7,10.9-4.8
					c1.4,1.9-5.7,4.8-5.9,7.5c-0.2,2.5,1,4.8,2.3,6.7c1.4,1.9,3,3.6,3.8,5.9C434.6,487.7,434.6,489.9,434.1,491.9z"/>
			</g>
			<g>
				<g>
					<path class="st15" d="M341.9,320.9c-2.3,1.2-4.7,2.2-7.1,3.3c-3.7,1.6-6.3,5-9,7.9c-13.9,14.8-35.6,21.8-55.5,17.7
						c2.4-5.3,5.5-10.2,9.3-14.6c5.7-6.7,12.9-12.2,20.9-16c3.9-1.8,7.9-3.2,12.1-4.1c5.2-1.2,10.6-1.7,16-1.5
						c4.6,0.2,9,1.4,13.6,1.7c1.4,0.1,2.8-0.4,3.4,1.2C346.1,318.4,343.3,320.2,341.9,320.9z"/>
					<path class="st16" d="M316.1,326.8c0,11.1-8.6,20.2-19.1,20.2c-7.7,0-14.3-4.8-17.4-11.7c5.7-6.7,12.9-12.2,20.9-16
						c3.9-1.8,7.9-3.2,12.1-4.1C314.8,318.5,316.1,322.5,316.1,326.8z"/>
				</g>
				<path class="st17" d="M291.8,254.1c-12.8,2.1-24.4,8.8-35.6,15.4c-9.2,5.4-18.4,10.8-27.6,16.2c-5,2.9-10.2,6-13.3,10.9
					c-2.1,3.4-3.1,7.4-3.9,11.3c-3,14.5-4.3,29.4-3.8,44.2c14.1-8.7,17.5-27.8,29.3-39.4c6.6-6.5,15.4-10.3,24-13.9
					c16.5-6.9,32.9-13.8,49.4-20.7c4.2-1.7,8.3-3.5,12.5-5.2c2.6-1.1,8.6-2.3,6.2-6.2c-1.1-1.8-4.9-4.1-6.6-5.5
					c-2.6-2.1-5.5-3.8-8.6-5C306.8,253.5,299.1,252.9,291.8,254.1z"/>
			</g>
			<g>
				<path class="st18" d="M446.2,366.8c2.8-1.1,6.5-0.6,8.2,2c1,1.6,1,3.6,0.4,5.4c-0.7,1.7-1.9,3.2-3.4,4.3c-1.2,1-2.7,1.8-4.3,1.6
					c-1.2-0.1-2.3-0.8-3.4-1.4c-2.9-1.8-4.9-2.6-3.3-6.2C441.5,369.9,443.6,367.8,446.2,366.8z"/>
				<path class="st18" d="M406.5,386.3c-4.3-0.2-8.6,2.5-10.3,6.5c-1.7,3.9-0.8,8.9,2.2,12c1.2,1.2,3.1,2.1,4.6,1.3
					c1.3-0.8,1.5-2.5,1.5-4s-0.3-3.1,0.5-4.4c0.8-1.4,2.6-1.9,4.2-1.9c1.6,0,3.2,0.3,4.8,0.2c1-0.1,2.8-0.6,3.3-1.7
					c0.7-1.6-0.9-2.8-2-3.8C412.8,388.1,409.8,386.5,406.5,386.3z"/>
			</g>
			<g>
				<g>
					<path class="st19" d="M302.2,1065.2c0.7-5.9,1.6-11.8,3-17.5c1.4-5.8,3-11.5,5.1-17l0.7-2.1l0.8-2.1l1.6-4.1
						c1.2-2.7,2.3-5.5,3.6-8.1c2.5-5.4,5.3-10.6,8.1-15.8c11.5-20.8,25.3-40.1,38.2-60c6.4-9.9,12.7-20,18.3-30.4
						c1.4-2.6,2.7-5.2,4.1-7.8c1.3-2.7,2.6-5.3,3.8-8c2.5-5.3,4.6-10.8,6.6-16.4c3.9-11.1,6.8-22.6,8.7-34.2
						c2-11.6,2.8-23.4,2.8-35.2c0-11.8-0.8-23.5-2.5-35.2c-1.7-11.7-4.2-23.2-7.3-34.5c-0.8-2.8-1.5-5.7-2.5-8.5l-1.3-4.2
						c-0.5-1.4-0.9-2.8-1.4-4.2l-3.1-8.3c-1-2.8-2-5.5-3.2-8.2c-4.5-10.9-9.6-21.5-15.3-31.9c-11.2-20.7-24.4-40.4-38.9-59
						c-14.4-18.7-30.1-36.4-46.5-53.5l-0.1-0.1l0-0.1c-1.6-2-3.4-4-5.2-5.9c-1.8-1.9-3.5-4-5.2-6.1c-0.8-1-1.7-2-2.5-3.1l-2.4-3.2
						l-2.4-3.2l-2.3-3.3c-6.1-8.7-11.6-17.9-16.6-27.4c-9.9-18.9-17.5-38.9-23.7-59.2l-2.3-7.6c-0.7-2.6-1.4-5.1-2.1-7.7l-2.1-7.7
						l-2-7.7c-2.5-10.3-4.9-20.6-7-31c-4.2-20.8-7.6-41.7-10.2-62.8l0.7,1.4c-0.4-0.4-0.8-1.2-0.7-1.8l0,0.3
						c-1.5-11.8-2.8-23.6-4-35.4c-0.6-5.9-1.1-11.8-1.6-17.7l-1.5-17.7c-1.8-23.7-3-47.6-1.4-71.4c0.4-6,1-11.9,1.8-17.8
						c0.4-3,0.8-5.9,1.3-8.9l1.4-8.8c0.9-5.9,2.1-11.7,3.3-17.6c1.3-5.8,2.7-11.6,4.4-17.4c3.4-11.5,7.7-22.8,14.2-33.2
						c3.3-5.1,7.1-10,11.9-14c2.3-2.1,4.9-3.8,7.6-5.4c2.7-1.6,5.6-2.7,8.6-3.6l-0.3,0.1c2.1-1,4.7-1.7,6.9-2l1.7-0.3l1.8-0.2
						c1.2-0.2,2.3-0.2,3.5-0.2c4.7-0.1,9.4,0.6,13.9,2.1c4.5,1.5,8.6,3.9,12.3,6.8c3.7,2.9,6.8,6.5,9.5,10.1c1.4,1.8,2.7,3.6,4,5.5
						l3.9,5.6l3.9,5.6c1.3,1.9,2.5,3.8,3.7,5.6l3.7,5.7l3.5,5.8c2.3,3.8,4.6,7.7,6.8,11.6l13.7,23.2l14.1,22.9
						c9.4,15.2,19.4,30.1,30.3,44.3c10.8,14.3,22.2,28.1,34.9,40.7c6.3,6.3,13,12.2,20.1,17.7c3.5,2.7,7.2,5.3,10.9,7.8
						c3.7,2.4,7.6,4.7,11.6,6.7c8,4,16.2,7.5,24.8,10.1c4.3,1.4,8.6,2.4,13,3.5c4.4,0.9,8.8,1.7,13.2,2.2c4.4,0.6,8.9,0.8,13.4,0.9
						c4.5,0.1,9-0.1,13.4-0.6c8.9-1,17.7-3.2,25.9-6.9c-8.1,3.8-16.9,6.2-25.8,7.3c-8.9,1.2-18,1.1-26.9,0.1
						c-4.5-0.4-8.9-1.2-13.3-2.1c-4.4-1-8.8-2-13.1-3.3c-8.6-2.6-17-5.9-25.1-9.9c-4-2-8-4.2-11.8-6.7c-3.8-2.4-7.5-5-11.1-7.7
						c-7.2-5.4-14-11.3-20.5-17.6c-12.9-12.6-24.6-26.4-35.5-40.6c-11-14.2-21.2-29.1-30.7-44.3l-14.3-22.8l-13.9-23.1
						c-2.3-3.8-4.6-7.7-6.9-11.5l-3.5-5.7l-3.7-5.6c-1.2-1.9-2.5-3.7-3.7-5.6l-3.9-5.5l-3.9-5.5c-1.3-1.8-2.6-3.6-4-5.3
						c-2.7-3.5-5.6-6.7-8.9-9.4c-3.4-2.6-7.1-4.7-11.2-6.1c-4-1.3-8.3-2-12.6-1.8c-1.1,0.1-2.1,0.1-3.2,0.2l-1.6,0.2l-1.6,0.3
						c-2.2,0.3-4,0.9-5.9,1.8l-0.1,0l-0.2,0c-5.4,1.7-10.4,4.5-14.6,8.2c-4.3,3.7-7.9,8.3-11,13.1c-6.1,9.8-10.3,20.9-13.6,32.1
						c-1.6,5.6-3,11.3-4.3,17.1c-1.2,5.8-2.3,11.5-3.2,17.4l-1.4,8.8c-0.5,2.9-0.9,5.8-1.3,8.7c-0.8,5.8-1.3,11.7-1.7,17.6
						c-1.5,23.5-0.3,47.1,1.5,70.7l1.5,17.7c0.5,5.9,1,11.8,1.6,17.7c1.1,11.8,2.5,23.5,4,35.3l0,0.3c0-0.6-0.3-1.3-0.7-1.7l0.7,1.4
						c2.7,20.9,6.1,41.7,10.2,62.4c2.1,10.3,4.4,20.6,6.9,30.8l1.9,7.7l2.1,7.6c0.7,2.5,1.4,5.1,2.1,7.6l2.2,7.6
						c6.1,20.1,13.6,39.8,23.3,58.4c4.8,9.3,10.2,18.3,16.2,26.8l2.2,3.2l2.4,3.1l2.4,3.1c0.8,1,1.6,2,2.5,3c1.7,2,3.3,4.1,5.1,6
						c1.7,2,3.5,3.9,5.2,6l-0.1-0.1c16.4,17.2,32.1,35.1,46.6,54c14.5,18.9,27.8,38.7,39,59.8c5.6,10.5,10.7,21.3,15.2,32.4
						c1.2,2.8,2.1,5.6,3.2,8.4l3,8.4c0.5,1.4,0.9,2.8,1.4,4.2l1.3,4.3c0.9,2.8,1.7,5.7,2.5,8.6c3.1,11.5,5.5,23.2,7.1,35
						c1.6,11.8,2.3,23.8,2.2,35.7c-0.1,11.9-1,23.9-3.1,35.6c-2,11.8-5.1,23.3-9.1,34.6c-2,5.6-4.2,11.2-6.8,16.5
						c-1.2,2.7-2.6,5.3-3.9,8c-1.4,2.6-2.8,5.3-4.2,7.9c-5.8,10.4-12.2,20.4-18.7,30.3c-13.1,19.8-27.1,38.9-38.8,59.5
						c-2.9,5.1-5.7,10.4-8.3,15.7c-1.3,2.6-2.5,5.4-3.7,8.1l-1.7,4.1l-0.8,2.1l-0.8,2.1c-2.1,5.5-3.8,11.2-5.3,16.9
						C304,1053.5,303,1059.3,302.2,1065.2z"/>
				</g>
				<g>
					<path class="st19" d="M268.6,51.3c2.2-1.2,4.6-2.1,7.2-2.5c2.5-0.5,5.1-0.5,7.6-0.3c5.1,0.5,10,2.2,14.6,4.4
						c9.3,4.4,17.5,10.6,25.1,17.3c7.6,6.8,14.6,14.2,21.1,22c6.5,7.8,12.6,16,18.1,24.6c2.8,4.3,5.4,8.7,7.9,13.1
						c1.3,2.2,2.4,4.5,3.5,6.8c1.2,2.3,2.2,4.6,3.2,7c4.1,9.4,7.6,19,10.7,28.6c6.3,19.3,11.5,38.9,19,57.5
						c3.7,9.3,8.1,18.3,13.4,26.7c2.7,4.2,5.6,8.2,8.8,12c1.6,1.9,3.2,3.8,5,5.5c0.9,0.9,1.7,1.8,2.6,2.6l2.7,2.5
						c3.7,3.3,7.6,6.4,11.7,9.2l1.5,1.1l1.6,1c1.1,0.7,2.1,1.3,3.2,2c2.2,1.2,4.3,2.5,6.5,3.6c2.2,1.2,4.5,2.2,6.7,3.3
						c1.1,0.5,2.3,1,3.4,1.5c1.1,0.5,2.3,1,3.5,1.4c4.6,1.9,9.4,3.5,14.2,4.9c4.8,1.4,9.7,2.6,14.6,3.7c4.9,1,9.8,1.7,14.8,2.3
						c10,1.2,20.1,1.6,30.1,1.7c10.1,0,20.2-0.4,30.2-1.6c5-0.6,10-1.3,15-2.3c5-1,9.9-2.1,14.7-3.7c-9.5,3.7-19.4,5.8-29.5,7.4
						c-10,1.5-20.2,2.4-30.3,2.7c-10.2,0.3-20.3,0.1-30.5-0.8c-5.1-0.4-10.2-1.1-15.2-2.1c-5-1-10-2.1-14.9-3.5
						c-9.9-2.7-19.5-6.3-28.7-11c-2.3-1.1-4.5-2.4-6.8-3.7c-1.1-0.6-2.2-1.3-3.3-2l-1.6-1l-1.6-1.1c-4.3-2.8-8.4-6-12.3-9.4
						l-2.9-2.6c-0.9-0.9-1.8-1.8-2.7-2.7c-1.9-1.8-3.5-3.8-5.2-5.7c-3.3-4-6.4-8.1-9.2-12.5c-5.6-8.7-10.1-18-13.9-27.4
						c-7.6-19-12.8-38.7-18.9-57.9c-3-9.6-6.3-19.1-10.3-28.3c-1-2.3-2-4.6-3.1-6.8c-1.1-2.3-2.2-4.5-3.3-6.7
						c-2.3-4.4-4.8-8.8-7.5-13c-5.3-8.5-11.1-16.7-17.4-24.6c-6.3-7.9-13-15.4-20.3-22.3c-7.3-6.9-15.2-13.3-24.1-17.9
						c-4.4-2.3-9.2-4.1-14.2-4.8c-2.5-0.4-5-0.4-7.5-0.1C273.4,49.4,270.9,50.2,268.6,51.3z"/>
				</g>
				<g>
					<path class="st19" d="M259.7,27.1c3.8-4.3,8.5-7.8,13.7-10.3c5.2-2.5,10.9-4.1,16.6-4.9c11.5-1.7,23.2-0.6,34.6,1.9
						c11.3,2.5,22.3,6.5,32.7,11.7c10.4,5.2,20,12,28.7,19.7c8.7,7.7,16.6,16.3,23.7,25.5c7.1,9.2,13.4,19,19,29.1
						c11.3,20.2,20.2,41.6,28.9,62.8c8.6,21.3,17.2,42.5,27.7,62.8c5.3,10.1,11,20,17.5,29.3c3.2,4.7,6.7,9.2,10.3,13.6
						c3.6,4.3,7.5,8.5,11.6,12.4c16.6,15.6,36.2,27.8,56.9,37.3c10.4,4.7,21.1,8.8,32.1,12.1c5.5,1.6,11,3.1,16.6,4.3
						c5.6,1.3,11.2,2.3,16.9,3.2c-5.7-0.6-11.4-1.4-17.1-2.5c-5.7-1.1-11.3-2.4-16.8-3.8c-11.1-3-22.1-6.7-32.7-11.2
						c-10.6-4.5-20.9-9.8-30.8-15.8c-9.8-6.1-19.2-13-27.8-20.8c-4.3-3.9-8.4-8.1-12.2-12.5c-1.9-2.2-3.7-4.5-5.5-6.7
						c-0.9-1.1-1.7-2.3-2.6-3.5c-0.9-1.2-1.7-2.3-2.6-3.5c-6.7-9.4-12.7-19.4-18.1-29.6c-10.8-20.4-19.5-41.9-28.2-63.1
						c-8.6-21.3-17.4-42.4-28.5-62.4c-10.9-20-24.4-38.7-41.1-54c-8.4-7.6-17.6-14.3-27.6-19.7c-10-5.3-20.7-9.4-31.8-12.2
						c-11-2.8-22.5-4.2-33.8-2.9c-5.6,0.6-11.2,2-16.5,4.3C268.5,19.7,263.7,23,259.7,27.1z"/>
				</g>
				<g>
					<path class="st19" d="M574.1,765.7c20.5-17.4,37.2-39.1,48.3-63.4c0.7-1.5,1.4-3.1,2-4.6c0.6-1.5,1.3-3.1,1.9-4.6
						c1.2-3.1,2.4-6.2,3.4-9.4c2.2-6.3,3.9-12.8,5.3-19.3l1-4.9c0.3-1.6,0.5-3.3,0.8-4.9c0.6-3.3,0.9-6.6,1.3-9.9
						c0.6-6.6,0.9-13.3,0.8-20c-0.1-13.3-2-26.6-5-39.5l-1.3-4.8l-0.6-2.4c-0.2-0.8-0.5-1.6-0.7-2.4l-1.5-4.8l-1.7-4.7l-0.8-2.3
						l-0.9-2.3l-1.9-4.6l-2-4.5l-1-2.3l-1.1-2.2c-5.9-11.9-13-23.2-20.1-34.7c-7-11.5-14-23.1-19.4-35.7l-0.2-0.4v-0.5v0l0.2,0.9
						c-3.8-9.2-6.5-18.8-7.8-28.6c-1.3-9.8-1.3-19.9,0.4-29.8c0.2-1.2,0.5-2.5,0.7-3.7c0.3-1.2,0.6-2.4,0.9-3.6l1-3.6l1.1-3.5
						c1.5-4.7,3.2-9.3,5-13.8c3.5-9.1,7.4-18,10.5-27.1c3.1-9,5.1-18.3,4.5-27.7c-0.3-4.7-1.1-9.3-2.4-13.8
						c-0.3-1.1-0.7-2.3-1.1-3.4c-0.4-1.1-0.7-2.3-1.1-3.4l-1.3-3.3l-0.6-1.7l-0.7-1.6l-1.5-3.3c-0.5-1.1-1.1-2.1-1.6-3.2
						c-1-2.1-2.3-4.2-3.5-6.3c-2.5-4.1-5.1-8.1-7.9-12c-5.6-7.8-11.9-15.1-18.2-22.6c-6.3-7.4-12.5-14.9-18.3-22.9
						c-5.8-7.9-10.9-16.2-16-24.6c-10-16.7-19.2-33.8-29.1-50.5c-4.9-8.3-10.1-16.5-15.6-24.5c-5.6-7.9-11.6-15.5-17.9-22.9
						c-3.1-3.7-6.3-7.3-9.7-10.8c-1.7-1.8-3.4-3.4-5.1-5.2c-1.8-1.6-3.5-3.3-5.4-4.9c-1.8-1.6-3.7-3.1-5.6-4.6c-2-1.4-3.9-2.8-6-4.1
						c-4.1-2.5-8.5-4.6-13.2-6c4.7,1.2,9.2,3.2,13.4,5.6c2.1,1.2,4.1,2.6,6.2,3.9c2,1.4,3.9,2.9,5.8,4.4c1.9,1.5,3.7,3.2,5.5,4.8
						c1.8,1.7,3.6,3.3,5.3,5.1c3.5,3.4,6.8,7,10,10.7c6.4,7.3,12.7,14.8,18.5,22.6c5.8,7.9,11.1,16,16.2,24.3
						c10.2,16.6,19.6,33.6,29.8,50.1c5.1,8.2,10.4,16.4,16.1,24.1c5.7,7.7,12.1,15,18.4,22.4c6.3,7.4,12.7,14.8,18.5,22.7
						c2.9,3.9,5.7,8,8.3,12.3c1.2,2.1,2.5,4.2,3.6,6.5c0.6,1.1,1.2,2.2,1.7,3.3l1.5,3.4l0.8,1.7l0.7,1.7l1.4,3.5
						c0.8,2.3,1.6,4.7,2.3,7.1c1.4,4.8,2.3,9.8,2.6,14.9c0.3,5,0,10.1-0.9,15.1c-0.9,4.9-2.2,9.8-3.8,14.4
						c-3.2,9.4-7.1,18.3-10.5,27.3c-1.7,4.5-3.4,9-4.9,13.6l-1.1,3.4l-1,3.4l-0.8,3.4c-0.2,1.2-0.5,2.3-0.7,3.5
						c-1.6,9.3-1.7,18.9-0.5,28.3c1.3,9.4,3.8,18.7,7.4,27.5l0.2,0.4v0.5l0,0l-0.2-0.9c1.4,3,2.6,6,4.1,9c1.5,3,3,5.9,4.6,8.8
						c3.2,5.8,6.6,11.6,10.1,17.3c6.9,11.5,14.1,23,20,35.2l1.1,2.3l1,2.3l2.1,4.7l1.9,4.7l0.9,2.4l0.8,2.4l1.6,4.8l1.4,4.9
						c0.2,0.8,0.5,1.6,0.7,2.4l0.6,2.5l1.2,4.9c2.9,13.3,4.6,26.8,4.5,40.4c0.2,27.1-6,54.2-17.9,78.5l-2.3,4.5
						c-0.8,1.5-1.6,3-2.4,4.4c-1.6,3-3.4,5.8-5.2,8.7c-3.7,5.7-7.5,11.2-11.8,16.5C594.3,747.9,584.6,757.3,574.1,765.7z"/>
				</g>
				<g>
					<path class="st19" d="M256.6,61.5c-3.1,0.3-6.1,1.3-8.7,2.9c-2.7,1.5-5,3.5-7,5.8c-1,1.1-1.9,2.4-2.9,3.6
						c-0.8,1.3-1.7,2.5-2.4,3.9c-0.8,1.3-1.4,2.7-2.1,4.1c-0.6,1.4-1.3,2.8-1.8,4.2c-2.3,5.7-4.1,11.6-5.4,17.6
						c-1.3,6-2.4,12.1-3.2,18.2c-1.5,12.3-2.3,24.6-2.4,37c-0.1,12.4,0.2,24.8,1.2,37.1c0.8,12.4,2.2,24.7,4,36.9
						c1.7,12.3,4,24.5,6.7,36.6c2.7,12.1,5.9,24.1,9.8,35.9c3.9,11.8,8.4,23.4,14.1,34.5c-6.6-10.6-11.9-22-16.4-33.6
						c-2.2-5.8-4.3-11.8-6.2-17.7c-1.9-6-3.5-12-5.1-18.1c-1.6-6.1-3-12.2-4.2-18.3c-1.2-6.1-2.4-12.3-3.4-18.5
						c-1.9-12.4-3.3-24.8-4.3-37.3c-1.7-25-1.6-50.2,2.4-75c2-12.4,4.9-24.7,10.2-36.3c0.6-1.4,1.4-2.8,2.1-4.2
						c0.8-1.4,1.5-2.8,2.4-4.1c0.8-1.3,1.8-2.6,2.7-3.9c1-1.2,2-2.4,3.2-3.5c2.3-2.2,4.8-4.2,7.7-5.5
						C250.3,62.3,253.5,61.6,256.6,61.5z"/>
				</g>
				<g>
					<path class="st19" d="M235.1,43.2c-6-0.8-12.1-0.5-17.9,0.9c-5.8,1.4-11.4,3.7-16.7,6.6c-10.4,5.9-19.4,14.2-27.2,23.3
						c-7.8,9.1-14.4,19.2-20,29.8c-5.5,10.6-10,21.8-12.8,33.4c-5.9,23.2-7.2,47.4-5.9,71.4c1.3,24,4.9,47.9,8.9,71.7
						c3.9,23.8,8.1,47.7,10.4,71.9c1.1,12.1,1.7,24.3,1.5,36.5c-0.2,12.2-1.2,24.4-3.3,36.4c-4.3,24-13.5,47.3-27.6,67.2
						c-7.1,9.9-15.5,18.9-25.2,26.3c-4.8,3.7-9.9,7-15.3,9.9c-5.4,2.8-11,5.1-16.8,6.9c5.7-2,11.2-4.6,16.4-7.6
						c5.2-3,10.2-6.4,14.8-10.3c9.3-7.6,17.3-16.8,24-26.7c6.7-9.9,12.2-20.7,16.5-31.8c4.3-11.2,7.4-22.8,9.3-34.6
						c1.9-11.8,2.7-23.8,2.8-35.8c0.1-12-0.6-24-1.8-36c-2.3-23.9-6.6-47.7-10.6-71.6c-3.9-23.9-7.6-47.9-8.6-72.2
						c-0.5-12.2-0.4-24.4,0.6-36.5c1-12.2,3-24.3,6.3-36c3.1-11.8,7.8-23.3,13.7-33.9c5.9-10.7,12.9-20.8,21-29.8
						c8.2-9,17.5-17.1,28.3-22.8c5.4-2.8,11.1-5,17.1-6.2C223,42.3,229.2,42.2,235.1,43.2z"/>
				</g>
				<g>
					<path class="st19" d="M96.1,613.6c11-7,21.3-15.2,30.6-24.3c9.3-9.1,17.6-19.3,24.7-30.1c14.4-21.7,24.4-46.1,30.8-71.3
						c3.2-12.6,5.5-25.4,7-38.3c1.5-12.9,2.3-25.9,2.3-38.9c0-13-0.8-26-2.1-38.9c-1.3-13-2.8-26-4.5-38.9
						c-3.4-25.9-7.1-51.9-9.8-78c-2.6-26.1-4.2-52.4-2.9-78.7c0.3-6.6,0.9-13.1,1.5-19.7c0.7-6.5,1.6-13.1,2.7-19.6
						c2.3-13,5.5-25.8,10.6-38.1c2.5-6.1,5.5-12,9-17.6c0.9-1.4,1.8-2.8,2.7-4.1c0.9-1.4,1.9-2.7,3-4c2.1-2.6,4.4-5,6.8-7.2
						c4.8-4.5,10.2-8.4,16-11.5c5.8-3,12.2-5.3,18.7-5.6c-6.5,0.5-12.8,3-18.4,6.2c-5.6,3.2-10.8,7.2-15.5,11.8
						c-2.3,2.3-4.5,4.7-6.4,7.3c-1,1.3-1.9,2.6-2.8,3.9c-0.9,1.4-1.7,2.8-2.5,4.2c-3.2,5.6-6,11.5-8.3,17.6
						c-4.7,12.1-7.6,24.9-9.6,37.7c-1,6.4-1.7,12.9-2.3,19.4c-0.5,6.5-1,13-1.2,19.5c-0.2,3.3-0.1,6.5-0.2,9.8c0,3.3,0,6.5,0,9.8
						c0,6.5,0.3,13,0.6,19.5c0.7,13,1.8,26,3.3,39c2.8,26,6.7,51.8,10,77.8c1.7,13,3.2,26,4.4,39.1c0.6,6.5,1.2,13.1,1.5,19.7
						c0.3,6.6,0.4,13.2,0.4,19.8c-0.2,26.3-3.4,52.7-10.2,78.2c-6.8,25.4-17.4,50-32.5,71.6c-7.6,10.8-16.2,20.8-25.8,29.8
						c-4.8,4.5-9.8,8.7-15.1,12.6C107.2,606.7,101.7,610.3,96.1,613.6z"/>
				</g>
				<g>
					<path class="st19" d="M137.9,243.3c-6.1,18.2-8.5,37.4-7.3,56.5c1.2,19.1,5.7,37.7,11.3,55.9c1.4,4.6,2.9,9.1,4.5,13.6
						c0.8,2.3,1.6,4.5,2.4,6.7l2.5,6.7l1.3,3.3l1.4,3.3l2.7,6.6l2.9,6.6c0.9,2.2,1.9,4.4,2.9,6.5c7.9,17.4,16.7,34.4,25.6,51.3
						c8.9,16.9,17.9,33.9,26.3,51.2c8.4,17.3,16.2,34.9,22.2,53.2c6.1,18.3,10.8,37.1,13.1,56.3c1.2,9.6,1.7,19.3,1.7,29
						c-0.2,9.7-1,19.4-2.7,29c-1.7,9.6-4.2,19-7.7,28.1c-1.7,4.6-3.7,9-5.8,13.4c-2.1,4.4-4.4,8.6-6.9,12.8
						c-9.7,16.8-21.5,32-32.8,47.4c-11.3,15.4-22.2,31.1-30.2,48.3c-8,17.1-12.6,35.8-13.6,54.7c-1,18.9,1.5,38,7.7,56
						c6.2,17.9,15.7,34.8,27.9,49.4c12.1,14.6,27,27.1,43.9,36c16.8,9,35.5,14.4,54.5,16.6c-9.5-0.9-19-2.6-28.2-5.2
						c-9.2-2.6-18.2-6.1-26.8-10.5c-17.2-8.7-32.4-21.1-44.9-35.7c-12.5-14.7-22.5-31.5-28.9-49.7c-6.5-18.2-9.3-37.7-8.5-57
						c0.8-19.3,5.2-38.6,13.3-56.3c8-17.7,19.1-33.7,30.3-49.2c11.2-15.5,22.8-30.8,32.3-47.2c2.4-4.1,4.6-8.3,6.7-12.5
						c2-4.3,4-8.6,5.6-13c3.4-8.8,5.7-18,7.4-27.2c3.3-18.6,3.3-37.7,1-56.5c-2.3-18.8-6.8-37.4-12.8-55.4
						c-6-18.1-13.5-35.6-21.7-52.8c-4.1-8.6-8.4-17.2-12.7-25.7l-13.1-25.6c-8.7-17.1-17.3-34.2-25.1-51.8c-1-2.2-1.9-4.4-2.9-6.6
						l-2.8-6.6l-2.6-6.7l-1.3-3.4l-1.2-3.4l-2.5-6.8c-0.8-2.3-1.6-4.5-2.3-6.8c-1.5-4.6-3-9.1-4.3-13.7c-2.8-9.2-5.1-18.5-6.9-28
						c-1.8-9.4-3-19-3.4-28.6c-0.4-9.6,0.1-19.3,1.5-28.7C132.1,261.6,134.6,252.3,137.9,243.3z"/>
				</g>
				<g>
					<path class="st19" d="M103.2,1030.1c2.1-8.3,3.4-16.8,4-25.4c0.6-8.6,0.5-17.1,0-25.7c-1.1-17.1-4-34.1-7-51
						c-3-16.9-6.1-33.9-7.9-51c-1.8-17.2-2.1-34.7,0.8-51.9c1.4-8.6,3.8-17,6.8-25.2c3-8.2,6.7-16,10.6-23.7
						c7.8-15.4,16.6-30.2,23.7-45.7c14.4-30.9,22.7-64.6,24.5-98.6c1.9-34-2.6-68.4-13.5-100.7c-5.4-16.2-11.9-32.1-18.1-48.1
						c-3.1-8-6.1-16.1-8.8-24.3c-2.7-8.2-5.1-16.5-7.1-24.9c-4-16.8-6.5-34-7.5-51.2c-1-17.2-0.6-34.6,1.2-51.7
						c1.9-17.1,5.3-34.1,10.2-50.6c2.4-8.3,5.2-16.4,8.4-24.4c3.2-8,6.8-15.8,10.7-23.5c-14.8,31-23.7,64.7-26.8,98.8
						c-3.1,34.1-0.8,68.7,7.6,101.8c4.1,16.6,10,32.6,16.3,48.6c6.3,16,13,31.8,18.5,48.2c11.3,32.8,15.9,67.8,14,102.4
						c-1.9,34.6-10.4,68.9-25.2,100.3c-7.4,15.7-16.3,30.5-24.1,45.7c-7.8,15.2-14.5,30.9-17.5,47.6c-3.1,16.7-3,33.9-1.5,50.9
						c1.5,17,4.4,34,7.1,50.9c2.7,17,5.2,34.1,5.9,51.3c0.4,8.6,0.3,17.2-0.6,25.8C107.1,1013.3,105.6,1021.8,103.2,1030.1z"/>
				</g>
				<g>
					<path class="st19" d="M3,998.4c8.6-10.8,14.7-23.3,18.5-36.5c1.9-6.6,3.3-13.3,4.3-20.1c1-6.8,1.5-13.6,1.8-20.5
						c0.6-13.7,0-27.4-1-41.1c-0.5-6.9-1.1-13.7-1.7-20.6c-0.6-6.9-1.1-13.8-1.5-20.7c-0.8-13.8-1.1-27.7,0.2-41.6
						c1.2-13.9,3.8-27.7,8.8-40.9c2.5-6.6,5.7-12.9,9.5-18.9c1.9-3,4-5.9,6.2-8.6c2.2-2.8,4.6-5.4,7-7.9
						c9.8-10.1,20.8-18.5,31.2-27.4c5.2-4.5,10.2-9,14.8-14c4.6-4.9,8.7-10.3,12-16.1c3.4-5.8,5.9-12,7.8-18.4
						c1.9-6.4,3.1-13.1,3.7-19.8c1.2-13.5,0.2-27.1-2.1-40.5c-2.3-13.4-6.2-26.6-10.3-39.7c-4.1-13.1-8.6-26.2-12.4-39.5
						c-1.9-6.7-3.6-13.4-5-20.2c-1.4-6.8-2.4-13.7-3.3-20.5c-0.9-6.8-1.7-13.7-2-20.7c-0.3-6.9-0.1-13.9,1.1-20.8
						c1.2-6.9,3.3-13.5,6.3-19.8c3-6.3,6.8-12.1,11-17.5c-4,5.6-7.5,11.6-10.2,17.9c-2.8,6.3-4.7,12.9-5.6,19.7
						c-0.9,6.8-0.9,13.6-0.4,20.4c0.5,6.8,1.5,13.6,2.5,20.4c3.5,27.3,13.3,53.1,21.9,79.3c4.3,13.1,8.3,26.4,10.8,40.1
						c2.5,13.7,3.7,27.7,2.5,41.7c-0.6,7-1.8,14-3.8,20.8c-2,6.8-4.7,13.4-8.2,19.5c-3.5,6.2-7.9,11.8-12.6,17
						c-4.8,5.2-9.9,9.9-15.2,14.4c-10.5,9-21.5,17.3-31,27c-2.4,2.4-4.6,4.9-6.7,7.6c-2.1,2.6-4,5.4-5.9,8.2
						c-3.6,5.7-6.6,11.7-9.1,18c-4.9,12.6-7.6,26-8.9,39.6c-1.3,13.6-1.3,27.3-0.7,41c0.3,6.9,0.7,13.7,1.2,20.6
						c0.5,6.9,1,13.7,1.4,20.6c0.8,13.8,1.1,27.6,0.3,41.5c-0.4,6.9-1.2,13.8-2.3,20.6c-1.2,6.8-2.7,13.6-4.8,20.2
						c-2.1,6.6-4.7,13-8,19.1C11.4,987.5,7.4,993.2,3,998.4z"/>
				</g>
				<g>
					<path class="st19" d="M216.4,948.4c2.8-4,5.3-8.2,7.5-12.6c2.2-4.3,4-8.9,5.3-13.5c2.7-9.3,3.3-19.1,2.1-28.7
						c-1.1-9.6-4-18.9-7.5-27.9c-3.4-9.1-7.4-18-11.5-26.9c-4.1-8.9-8.1-17.8-11.9-26.9c-3.7-9.1-7.1-18.4-9.6-28
						c-1.2-4.8-2.2-9.7-2.9-14.6c-0.7-4.9-1.1-9.9-1.2-14.9c-0.3-10,0.6-19.9,2.3-29.7c3.3-19.6,9.1-38.4,14.9-57
						c1.4-4.7,2.9-9.3,4.3-14l2-7c0.7-2.3,1.3-4.6,1.8-7c2.2-9.4,3.5-19,4-28.7c1.1-19.3-0.7-38.9-6.3-57.5
						c-2.8-9.3-6.7-18.3-11.7-26.6c-5.1-8.3-11.3-15.9-18.7-22.4c7.7,6.1,14.3,13.5,19.7,21.7c5.4,8.2,9.6,17.2,12.8,26.6
						c3.2,9.3,5.3,19,6.5,28.8c1.3,9.8,1.7,19.7,1.3,29.6c-0.4,9.9-1.6,19.7-3.6,29.4c-1,4.9-2.4,9.6-3.7,14.3
						c-1.3,4.7-2.7,9.4-4.1,14.1c-5.5,18.8-11.3,37.4-14.4,56.5c-1.5,9.5-2.4,19.2-2.2,28.8c0.1,4.8,0.5,9.6,1.1,14.3
						c0.7,4.7,1.6,9.5,2.8,14.1c2.3,9.3,5.5,18.5,9.1,27.5c3.6,9,7.6,18,11.4,27c3.9,9,7.7,18.1,11,27.4c3.2,9.3,5.9,18.9,6.8,28.8
						c0.9,9.9-0.2,20-3.3,29.4c-1.6,4.7-3.6,9.2-6,13.5C222.1,940.4,219.4,944.5,216.4,948.4z"/>
				</g>
				<g>
					<path class="st19" d="M143.1,1202.7c6-2.6,11.4-6.6,15.6-11.6c4.3-4.9,7.5-10.7,9.9-16.7c4.8-12.1,6.4-25.3,5.7-38.3
						c-0.6-13-2.8-25.9-4.4-39c-0.8-6.5-1.4-13.1-1.5-19.8c-0.1-6.6,0.3-13.3,1.3-19.9c2-13.2,6.4-26,12.3-37.8
						c5.9-11.9,13.2-23,20.9-33.7c7.7-10.7,16-20.9,24.2-31.2c8.2-10.2,16.3-20.5,23.8-31.2c7.5-10.7,14.4-21.7,19.9-33.4
						c5.5-11.7,9.7-24,12.6-36.6c5.9-25.3,7-51.6,4.6-77.5c-0.6-6.5-1.4-13-2.4-19.4c-1-6.4-2.3-12.8-3.5-19.3
						c-2.6-12.8-5.3-25.6-8.7-38.3c-3.4-12.6-7.3-25.1-11.9-37.4c-2.2-6.2-4.7-12.2-7.1-18.3c-2.4-6.1-4.9-12.2-7.4-18.2
						c2.8,5.9,5.5,11.9,8.2,17.9c2.6,6,5.3,12,7.7,18.1c1.3,3,2.4,6.1,3.6,9.2c1.1,3.1,2.3,6.1,3.4,9.3c2.2,6.2,4.2,12.5,6.1,18.8
						c3.7,12.6,6.9,25.4,9.6,38.3c1.4,6.4,2.8,12.9,3.8,19.4c1.1,6.5,2,13,2.7,19.6c1.3,13.1,1.8,26.4,1.2,39.6
						c-0.6,13.2-2.3,26.4-5.3,39.4c-3,12.9-7.2,25.6-12.9,37.6c-5.6,12.1-12.7,23.4-20.3,34.2c-15.3,21.6-32.8,41.2-48.3,62.2
						c-7.7,10.5-14.9,21.4-20.8,32.9c-5.8,11.5-10.3,23.8-12.4,36.5c-1.1,6.4-1.5,12.8-1.5,19.3c0,6.5,0.5,13,1.1,19.5
						c1.3,13,3.3,26,3.6,39.3c0.4,13.2-1.7,26.6-6.9,38.8c-2.6,6.1-6.1,11.8-10.6,16.7C154.7,1196.5,149.2,1200.4,143.1,1202.7z"/>
				</g>
				<g>
					<path class="st19" d="M217.2,1169.9c-1.2-8.4-2-16.8-2.3-25.2c-0.3-8.5-0.1-16.9,0.6-25.4c1.3-16.9,4.4-33.7,9.1-50
						c9.6-32.6,26.3-63.1,48.7-88.8c5.6-6.4,11.4-12.6,17.3-18.7c5.9-6.1,11.8-12.1,17.7-18.2c11.6-12.1,22.8-24.8,31.6-38.9
						c8.9-14.1,15.4-29.6,19.6-45.7c4.2-16.1,6.3-32.8,6.4-49.5c0.1-16.7-1.6-33.4-5.1-49.8c-1.7-8.2-3.8-16.3-6.2-24.3
						c-2.5-8-5.2-15.9-8.2-23.8c-12.1-31.4-28.5-60.9-46.1-89.6c-8.9-14.4-18-28.5-27.1-42.8c-4.5-7.1-9.1-14.1-14.1-20.9
						c-4.9-6.8-10.1-13.5-15.1-20.3c-5-6.8-10-13.6-14.6-20.8c-4.4-7.3-7.4-15.5-9.2-23.7c-1.8-8.3-2.6-16.9-1.8-25.3
						c0.5-4.2,1.3-8.4,2.7-12.4c0.7-2,1.6-3.9,2.6-5.8c1-1.9,2.2-3.6,3.5-5.3c-1.3,1.7-2.4,3.5-3.4,5.3c-0.9,1.9-1.8,3.8-2.4,5.8
						c-1.3,4-2,8.2-2.3,12.4c-0.3,4.2-0.2,8.4,0.2,12.6c0.4,4.2,1.1,8.3,2.1,12.4c2,8.1,5.1,16,9.5,23.1c4.6,7,9.7,13.7,14.9,20.4
						c5.2,6.6,10.4,13.3,15.5,20.1c5.1,6.8,9.9,13.8,14.5,20.9c9.3,14.1,18.7,28.2,27.7,42.5c18.2,28.5,34.8,58.3,47.3,89.9
						c3.1,7.9,5.9,16,8.4,24.1c2.4,8.2,4.6,16.4,6.4,24.7c3.5,16.7,5.4,33.7,5.3,50.8c-0.1,17.1-2.2,34.2-6.6,50.7
						c-4.4,16.5-11.1,32.5-20.3,47c-9.2,14.5-20.7,27.2-32.5,39.4c-5.9,6.1-11.9,12-17.8,18c-5.9,6-11.8,12-17.4,18.3
						c-22.4,24.9-39.2,54.9-49.2,87c-5.1,16-8.5,32.6-10.2,49.4c-0.8,8.4-1.2,16.8-1.1,25.2C215.7,1153.1,216.2,1161.5,217.2,1169.9
						z"/>
				</g>
				<g>
					<path class="st19" d="M743.3,416.6l-17-14.8l-16.7-15.2c-5.5-5.1-10.9-10.3-16.4-15.5c-5.4-5.2-10.7-10.5-16.1-15.8
						c-21.2-21.3-41.6-43.5-61.2-66.3c-9.8-11.4-19.4-23-28.7-34.9c-4.7-5.9-9.3-11.9-13.8-17.9c-2.3-3-4.6-6-6.8-9l-6.7-9.1
						c-17.7-24.4-34.5-49.4-50.4-75c-8-12.8-15.5-25.8-23.2-38.7c-7.6-12.9-15.4-25.7-23.7-38.2c-8.4-12.4-17.3-24.4-27.2-35.5
						c-10-11-20.9-21.3-33-29.9c-12.1-8.7-25.3-15.8-39.4-20.6c-3.5-1.2-7.1-2.2-10.7-3.1c-3.6-0.9-7.3-1.5-10.9-2
						c-7.4-0.9-14.8-1.2-22.3-0.8c-7.4,0.4-14.9,1.4-22.1,3.1c-7.3,1.7-14.4,4.1-21,7.5c-6.7,3.3-12.9,7.5-18.3,12.8
						c-5.4,5.2-9.7,11.5-12.6,18.4c2.7-7,6.9-13.5,12.1-18.9c5.3-5.4,11.5-9.9,18.2-13.4c6.7-3.5,13.9-6.1,21.2-8
						c7.3-1.9,14.8-3.1,22.4-3.6c7.6-0.5,15.2-0.4,22.7,0.4c3.8,0.4,7.5,1,11.3,1.8c3.7,0.8,7.4,1.8,11,3
						C378.4-18,392-10.9,404.4-2.2c12.4,8.7,23.8,18.9,34,30.1c10.2,11.2,19.4,23.3,27.9,35.8c17.1,25,31.4,51.5,47.3,76.9
						c15.8,25.5,32.4,50.5,50,74.8l6.6,9.1c2.2,3,4.5,6,6.7,9c4.5,6,9,12,13.6,17.9c4.6,5.9,9.2,11.9,14,17.6
						c4.7,5.8,9.4,11.7,14.2,17.4c19.2,23.1,39.2,45.5,60,67.1c5.2,5.4,10.4,10.8,15.7,16.2c5.3,5.3,10.6,10.6,16,15.9l16.3,15.6
						L743.3,416.6z"/>
				</g>
				<g>
					<path class="st19" d="M687.8,418c4.2-13.1,5.3-27.1,3.6-40.6c-1.6-13.6-5.8-26.7-11.1-39.3c-5.3-12.6-12-24.6-19.2-36.2
						c-3.6-5.8-7.4-11.5-11.3-17.1c-3.9-5.6-7.9-11.2-11.9-16.8l-6.1-8.3l-6.2-8.2c-4.1-5.5-8.3-10.9-12.6-16.3
						c-8.5-10.8-17.2-21.3-26.2-31.7c-17.9-20.8-36.7-40.8-56.3-59.9c-39.2-38.3-81.8-73.2-127.1-104.2
						c-11.3-7.8-22.7-15.3-34.7-21.9c-12-6.5-24.7-11.8-38-14.7c-6.7-1.4-13.5-2.3-20.3-2.6C303.6,0,296.7,0.2,290,1.2
						c-6.7,1-13.4,2.9-19.5,5.9c-6.1,3-11.6,7.5-15.6,13.1c3.8-5.8,9.2-10.4,15.3-13.7c6.1-3.3,12.8-5.3,19.6-6.5
						c6.8-1.2,13.8-1.6,20.7-1.4c6.9,0.2,13.8,0.9,20.6,2.2c13.7,2.6,26.7,7.7,39,14.1c12.3,6.3,24,13.8,35.4,21.4
						c23,15.2,45.2,31.5,66.6,48.8c21.4,17.3,42,35.7,61.8,54.9c19.8,19.2,38.6,39.4,56.5,60.3c8.9,10.5,17.6,21.2,26.1,32.1
						c8.5,10.9,16.7,22,24.5,33.3c3.9,5.7,7.8,11.3,11.6,17.1c3.8,5.7,7.6,11.5,11.1,17.4c7.1,11.8,13.6,24.1,18.8,36.9
						c5.1,12.9,8.9,26.3,10.2,40.1c0.6,6.9,0.7,13.8-0.1,20.7C691.8,404.8,690.2,411.6,687.8,418z"/>
				</g>
				<g>
					<path class="st19" d="M228.9,23.2c-8.3-3.2-17.4-4.6-26.2-3.4c-8.8,1.1-17.2,4.7-24.5,9.7c-7.3,5-13.7,11.3-19.4,18.1
						c-5.7,6.8-10.7,14.2-15.3,21.8c-9.2,15.2-16.6,31.5-23.2,48c-6.5,16.6-12.1,33.5-17,50.7c-4.9,17.1-9.3,34.4-12.9,51.9
						l-1.3,6.5l-0.6,3.3l-0.6,3.3l-2.3,13.2l-1.2,6.6l-0.6,3.3c-0.2,1.1-0.4,2.2-0.5,3.3c-0.6,4.3-0.9,8.6-1,13
						c-0.2,8.8,0.3,17.7,1.3,26.4c0.5,4.4,1.1,8.8,1.8,13.1c0.4,2.2,0.8,4.3,1.2,6.5c0.4,2.2,0.9,4.5,1.2,6.7
						c0.7,4.5,1.1,9.1,1,13.8c-0.1,4.6-0.6,9.3-1.6,13.8c-2,9.1-5.5,17.5-9.3,25.7c-3.8,8.2-8.2,16.2-13,23.8
						c-4.8,7.6-9.9,15-15,22.4c-10.2,14.7-20.6,29.2-28.7,44.9c-4,7.9-7.4,16-10,24.4c-2.6,8.4-4.3,17.1-4.7,25.8
						c-0.5,8.7,0.5,17.5,3,25.9c2.5,8.3,6.7,16.2,11.8,23.3c5.1,7.1,11.2,13.6,17.6,19.8c6.4,6.2,13.1,12,19.8,18
						c3.3,3,6.7,6,9.9,9.1c3.3,3.1,6.4,6.4,9.3,9.8c5.8,6.9,10.9,14.3,15.3,22.2c4.4,7.9,8,16.2,10.6,24.8
						c2.6,8.6,4.1,17.6,4.2,26.6c0,4.5-0.3,9-1,13.4c-0.8,4.4-1.8,8.8-3.3,13c-3,8.5-7.5,16.4-12.9,23.4c5.3-7.2,9.6-15.1,12.4-23.6
						c2.8-8.5,4.1-17.4,3.9-26.3c-0.2-8.9-1.8-17.7-4.5-26.2c-2.7-8.5-6.4-16.6-10.8-24.3c-4.4-7.7-9.6-15-15.4-21.7
						c-5.7-6.8-12.6-12.4-19.3-18.4c-6.7-5.9-13.6-11.6-20.1-17.8c-6.6-6.1-12.8-12.7-18.3-20c-5.4-7.3-9.9-15.4-12.7-24.2
						c-2.8-8.8-3.9-18-3.5-27.1c0.3-9.1,2-18.2,4.6-26.9c2.6-8.7,6.1-17.1,10.1-25.2c4.1-8.1,8.8-15.8,13.7-23.4
						c4.9-7.5,10-14.9,15.1-22.2c10.2-14.7,20.1-29.4,27.5-45.5c3.7-8,7.1-16.2,8.9-24.6c0.9-4.2,1.4-8.5,1.5-12.8
						c0.1-4.3-0.3-8.6-0.9-13c-0.3-2.2-0.7-4.3-1.1-6.5c-0.4-2.2-0.9-4.4-1.3-6.7c-0.8-4.5-1.4-8.9-1.9-13.4c-1-9-1.5-18-1.3-27.1
						c0.1-4.5,0.4-9.1,1.2-13.7c0.2-1.2,0.4-2.3,0.6-3.4l0.6-3.3l1.2-6.6l2.4-13.2l0.6-3.3l0.7-3.3l1.4-6.6
						c3.8-17.5,8.3-34.9,13.5-52.1c5.2-17.2,11-34.1,17.8-50.8c6.8-16.6,14.6-32.9,24.1-48.1c4.8-7.6,10-15,16-21.7
						c5.9-6.8,12.6-13,20.1-17.9c7.6-4.9,16.2-8.4,25.2-9.3C211.5,18,220.6,19.8,228.9,23.2z"/>
				</g>
				<g>
					<path class="st19" d="M732.3,954.4c6.9-1.6,13.3-5.1,18.4-9.9c5.2-4.7,9.2-10.7,12-17c2.8-6.4,4.5-13.3,4.7-20.2
						c0.2-6.9-0.7-13.9-2.6-20.6c-3.7-13.4-10.8-25.8-19.3-36.8c-8.5-11.1-18.5-21.1-28.4-31.2c-9.9-10.1-19.8-20.4-28-32.2
						c-4.1-5.9-7.8-12.1-10.8-18.6c-3-6.6-5.4-13.5-6.7-20.7c-1.3-7.2-1.5-14.6-0.6-21.8c0.8-7.2,2.6-14.3,4.8-21.1
						c4.5-13.7,10.8-26.4,16.3-39.3c11.2-25.7,17.8-53.2,20.7-81.1c2.8-27.9,1.8-56.2-3-83.8c-4.9-27.6-13.6-54.7-26.6-79.6
						c-6.5-12.5-14-24.4-22.7-35.5c-4.3-5.6-8.9-10.9-13.8-16c-4.8-5.1-9.9-10-15.3-14.6c5.5,4.4,10.8,9.1,15.8,14.1
						c5,5,9.8,10.3,14.3,15.7c9,11,16.9,22.8,23.8,35.2c13.7,24.9,23,52.1,28.3,80c5.3,27.9,6.6,56.6,3.9,85
						c-2.7,28.3-9.5,56.4-20.7,82.6c-5.6,13.1-11.9,25.7-16.3,38.9c-2.2,6.6-3.9,13.3-4.7,20.1c-0.8,6.8-0.7,13.7,0.5,20.4
						c2.3,13.5,8.6,26.2,16.4,37.6c3.9,5.7,8.3,11.2,12.9,16.5c4.6,5.3,9.4,10.4,14.2,15.6c9.7,10.2,19.6,20.5,28.1,32
						c8.5,11.5,15.6,24.2,19.1,38.1c1.7,7,2.5,14.2,2.1,21.3c-0.5,7.2-2.4,14.2-5.4,20.7c-3.1,6.4-7.3,12.4-12.7,17
						C745.8,949.8,739.3,953.1,732.3,954.4z"/>
				</g>
				<g>
					<path class="st19" d="M659.8,1025.6l1.8-5.9l0.9-3c0.3-1,0.5-2,0.7-3l1.4-6c0.4-2,0.7-4.1,1-6.1l0.5-3c0.2-1,0.2-2,0.3-3.1
						l0.6-6.1c0.2-2,0.2-4.1,0.2-6.2c0-2.1,0.2-4.1,0.1-6.2c-0.3-16.4-3.1-32.8-8.7-48.1c-0.7-1.9-1.3-3.9-2.1-5.8l-2.4-5.6
						c-0.4-0.9-0.8-1.9-1.2-2.8l-1.4-2.7c-0.9-1.8-1.8-3.6-2.8-5.4l-3.1-5.3l-1.6-2.6l-1.7-2.5l-3.5-5l-3.8-4.8
						c-10.2-12.7-23.1-23.4-32.4-37.5c-2.3-3.5-4.4-7.3-5.9-11.3l-0.6-1.5l-0.5-1.5c-0.3-1-0.7-2-0.9-3.1l-0.7-3.1
						c-0.3-1-0.3-2.1-0.5-3.2c-1.1-8.6,0.3-17.2,2.6-25.3c2.4-8.1,5.7-15.8,9-23.3c3.4-7.6,6.8-15,10.4-22.5
						c7-14.9,14.2-29.8,20.7-44.8c3.3-7.5,6.3-15.1,9.2-22.8c2.9-7.7,5.5-15.4,7.7-23.3c2.2-7.9,4.2-15.8,5.6-23.8
						c1.4-8,2.4-16.1,2.9-24.2c0.4-8.1,0.3-16.3-0.4-24.3c-0.2-2-0.4-4-0.7-6l-0.9-6c-0.8-4-1.6-8-2.7-11.8
						c-4.1-15.7-12-30.1-19.5-44.8c-3.8-7.3-7.5-14.7-10.8-22.4c-3.2-7.7-6-15.6-7.7-23.9l-1.1-6.2c-0.2-2.1-0.5-4.2-0.6-6.3
						c-0.1-2.1-0.1-4.2-0.2-6.3c0.1-2.1,0.1-4.2,0.2-6.2c0.4-8.3,1.5-16.6,2.8-24.7c2.5-16.3,6.1-32.4,7.5-48.8
						c0.7-8.1,0.9-16.4,0.6-24.6c-0.3-8.2-1.1-16.4-2.6-24.5c-1.4-8.1-3.5-16.1-6.2-23.8c-2.7-7.8-6.2-15.3-10.3-22.4
						c4.4,7,8.1,14.4,11.1,22.1c3,7.7,5.2,15.7,6.8,23.8c1.7,8.1,2.6,16.3,3.2,24.6c0.5,8.3,0.6,16.6,0,24.8
						c-1.2,16.6-4.5,32.8-6.8,49c-1.2,8.1-2.1,16.3-2.4,24.4c-0.1,2-0.1,4.1-0.1,6.1l0.2,6c0.2,2,0.5,4,0.7,6l1.1,5.9
						c1.7,7.9,4.5,15.5,7.8,23c3.3,7.5,7,14.8,10.8,22c3.8,7.3,7.7,14.6,11.3,22.1c3.6,7.4,6.7,15.4,8.9,23.4c1.2,4,2,8.1,2.8,12.3
						l1,6.2c0.3,2.1,0.5,4.2,0.7,6.2c0.8,8.3,0.9,16.7,0.5,25c-0.9,16.7-3.9,33.2-8.5,49.2c-2.3,8-4.9,15.9-7.9,23.6
						c-2.9,7.8-6,15.4-9.4,23c-6.6,15.2-13.8,30-20.9,44.9c-3.6,7.4-7.1,14.9-10.5,22.3c-3.4,7.5-6.7,15-9,22.7
						c-2.3,7.7-3.6,15.7-2.7,23.6c0.1,1,0.2,2,0.4,2.9l0.6,2.9c0.2,1,0.6,1.9,0.8,2.8l0.4,1.4l0.5,1.4c1.4,3.7,3.3,7.2,5.4,10.6
						c4.3,6.8,9.7,13,15.2,19c5.5,6.1,11.3,12,16.4,18.6l3.8,4.9l3.5,5.2l1.7,2.6l1.6,2.7l3.1,5.4c1,1.8,1.9,3.7,2.8,5.6l1.4,2.8
						c0.5,0.9,0.8,1.9,1.2,2.9l2.4,5.8c0.8,1.9,1.4,3.9,2,5.9C671.5,959.6,671.4,994.6,659.8,1025.6z"/>
				</g>
				<g>
					<path class="st19" d="M515.7,313.6c8.1,3.2,16.1,6.7,23.8,10.9c7.7,4.1,15.1,8.7,22.2,13.8c7.1,5.1,13.8,10.7,20,16.9
						c3.1,3.1,6.1,6.3,8.9,9.7c2.8,3.3,5.5,6.8,8,10.5c5,7.2,9.2,15,12.6,23.2c3.3,8.1,6.2,16.4,8.5,24.9c2.3,8.5,3.8,17.2,4.6,26
						l0.2,3.3l0.1,1.7l0,1.7c0,2.2,0.1,4.4,0,6.6l-0.4,6.6c0,1.1-0.2,2.2-0.3,3.3l-0.4,3.3c-0.2,1.1-0.3,2.2-0.5,3.3l-0.7,3.3
						c-0.5,2.2-0.8,4.4-1.5,6.5c-0.6,2.1-1.2,4.3-1.9,6.4l-2.3,6.2l-0.6,1.6l-0.7,1.5l-1.4,3l-1.4,3c-0.4,1-1.1,1.9-1.6,2.9
						l-3.2,5.8l-3.6,5.6l-1.8,2.8l-1.8,2.7c-1.2,1.8-2.4,3.5-3.5,5.4c-1.1,1.9-2.2,3.7-3.3,5.6l-3,5.7c-3.8,7.7-6.9,15.7-9.4,23.9
						c-5,16.4-6.8,33.7-5.6,50.8c0.2,2.1,0.4,4.3,0.6,6.4l1,6.3c0.8,4.2,1.7,8.4,2.9,12.5c2.2,8.3,5,16.5,8.2,24.5
						c6.5,16,14.6,31.3,23.6,46.1c9,14.8,18.8,29.2,28.6,43.6c9.8,14.4,19.5,28.9,28.5,43.9c9,15,17.1,30.6,23.5,47l2.3,6.2
						c0.4,1,0.7,2.1,1.1,3.1l1,3.1l2,6.3c0.6,2.1,1.1,4.2,1.7,6.4l1.6,6.4l1.3,6.4c0.4,2.1,0.9,4.3,1.3,6.4l1,6.5
						c2.6,17.3,3.7,34.8,3.6,52.3c-0.1,17.5-1.3,34.9-3,52.3c-0.4,4.3-0.9,8.7-1.4,13l-1.5,13c-1.1,8.6-2.2,17.3-3.4,25.9
						c0.9-8.7,1.8-17.3,2.7-26l1.2-13c0.4-4.3,0.8-8.7,1.1-13c1.3-17.4,2.1-34.8,1.9-52.1c-0.2-17.4-1.4-34.7-4.3-51.8l-1.1-6.4
						c-0.4-2.1-0.9-4.2-1.4-6.3l-1.4-6.3l-1.7-6.3c-0.6-2.1-1.1-4.2-1.7-6.2l-2-6.2l-1-3.1c-0.3-1-0.7-2.1-1.1-3.1l-2.3-6.1
						c-3.2-8-6.9-15.9-10.9-23.5c-4-7.7-8.2-15.2-12.7-22.6c-9-14.8-18.8-29.2-28.7-43.5c-9.9-14.4-19.7-28.8-28.8-43.8
						c-9.1-14.9-17.4-30.5-24.1-46.8c-3.3-8.2-6.1-16.5-8.4-25.1c-1.2-4.2-2.1-8.6-2.9-13l-1-6.6c-0.3-2.2-0.4-4.4-0.6-6.6
						c-1.3-17.7,0.7-35.6,5.9-52.5c2.6-8.5,5.9-16.7,9.9-24.6l3.1-5.8c1.1-1.9,2.3-3.8,3.4-5.7c1.1-1.9,2.4-3.7,3.6-5.5l1.9-2.7
						l1.8-2.7l3.6-5.4l3.2-5.6c0.5-0.9,1.1-1.8,1.5-2.8l1.4-2.9l1.4-2.9l0.7-1.4l0.6-1.5l2.3-6c0.7-2,1.2-4.1,1.9-6.1
						c0.7-2,1.1-4.1,1.5-6.2l0.7-3.1c0.2-1,0.3-2.1,0.5-3.2l0.5-3.2c0.2-1.1,0.3-2.1,0.4-3.2l0.5-6.4c0-2.1,0-4.3,0-6.4l0-1.6
						l-0.1-1.6l-0.2-3.2c-0.6-8.6-2-17.1-4.2-25.5c-2.2-8.4-4.9-16.6-8.1-24.6c-3.2-8-7.3-15.6-12-22.9c-2.4-3.6-4.9-7.1-7.7-10.5
						c-2.7-3.4-5.6-6.6-8.6-9.8c-6-6.3-12.6-12-19.5-17.2C547.1,328.9,531.7,320.4,515.7,313.6z"/>
				</g>
				<g>
					<path class="st19" d="M774.6,970.7c2-3.4,4-6.8,5.8-10.3c1.8-3.5,3.5-7.1,5.1-10.7c3.2-7.2,5.9-14.6,8.1-22.2
						c4.4-15.1,6.9-30.8,7.3-46.5c0.4-15.7-1.1-31.4-4.8-46.7c-3.7-15.2-9.4-30-16.8-43.7c-7.5-13.8-16.7-26.5-27.4-37.9
						c-5.3-5.7-11.1-11-17.1-16c-6.1-4.9-12.4-9.6-18.9-14.1c-12.9-9-26.2-17.7-38.4-28.2c-6.1-5.2-11.8-10.9-16.9-17.1
						c-5.1-6.2-9.7-13-13.1-20.4c-3.5-7.4-5.9-15.3-6.7-23.5c-0.9-8.1-0.4-16.3,0.7-24.2c2.3-15.9,6.9-31.1,9.6-46.5
						c5.7-30.9,7.6-62.5,5.3-93.8c-1.1-15.7-3.1-31.3-6.3-46.7c-3.2-15.4-6.9-30.8-12.1-45.6c-1.3-3.7-2.7-7.4-4.2-11
						c-1.5-3.6-3.1-7.2-4.8-10.7c-1.7-3.5-3.6-7-5.6-10.4c-2-3.4-4.1-6.7-6.3-10c-4.4-6.5-9.3-12.8-14.3-18.8
						c-5-6.1-10.2-12-15.6-17.9c5.5,5.7,11,11.4,16.2,17.3c5.2,6,10.2,12.1,14.9,18.5c9.3,12.8,16.9,27.1,22.3,42
						c2.8,7.5,5.1,15.1,7.2,22.7c1,3.8,2.1,7.7,3,11.5c1,3.8,1.8,7.7,2.7,11.6c3.4,15.5,5.7,31.3,7,47.1c2.6,31.7,1,63.7-4.7,95
						c-2.7,15.7-7.3,30.9-9.5,46.3c-1.1,7.7-1.5,15.4-0.6,23c0.8,7.6,3,15,6.2,21.9c3.2,6.9,7.5,13.4,12.4,19.4
						c4.9,6,10.4,11.5,16.3,16.6c11.8,10.2,25,18.9,37.9,28.1c6.5,4.6,12.9,9.3,19,14.4c6.2,5.1,12,10.6,17.4,16.5
						c10.9,11.7,20.1,25,27.5,39.1c7.4,14.1,13,29.2,16.5,44.8c3.5,15.5,5,31.6,4.2,47.5c-0.8,15.9-3.6,31.7-8.4,46.8
						c-2.4,7.6-5.3,15-8.6,22.1c-1.7,3.6-3.5,7.1-5.4,10.6C778.8,964,776.8,967.4,774.6,970.7z"/>
				</g>
				<g>
					<path class="st19" d="M835.8,648.9c-14.2-5.3-28.3-11.2-42-17.8c-6.9-3.3-13.6-6.8-20.3-10.5c-6.6-3.8-13.2-7.8-19.5-12.1
						c-6.3-4.3-12.4-8.9-18.3-13.9c-5.8-5-11.5-10.2-16.6-16c-5.2-5.7-10-11.8-14.3-18.2c-1.1-1.6-2.2-3.2-3.1-4.9l-1.5-2.5
						c-0.5-0.8-1-1.7-1.4-2.5l-1.4-2.5l-1.3-2.6l-1.3-2.6l-1.2-2.6c-3.1-7.1-5.7-14.3-7.9-21.7c-2.2-7.4-4-14.8-5.4-22.4
						c-2.9-15-4.5-30.3-5.2-45.5c-0.7-15.2-0.5-30.5,0.5-45.7c1.1-15.2,3-30.3,6.2-45.2c-2.2,15-3.4,30.2-3.8,45.3
						c-0.5,15.1-0.2,30.3,0.9,45.4c0.5,7.5,1.3,15.1,2.3,22.5c1,7.5,2.2,14.9,3.7,22.3c3.1,14.7,7.2,29.3,13.3,42.9
						c6.1,13.6,14.5,26.1,24.6,37.2c5,5.5,10.3,10.8,16,15.8c5.6,5,11.6,9.6,17.7,14C780.9,622.7,808.3,636.1,835.8,648.9z"/>
				</g>
				<g>
					<path class="st19" d="M408.2,3.8l7.8,1.4l7.8,1.7l7.7,2l7.6,2.3c10.1,3.3,19.9,7.5,29.3,12.4c18.8,9.9,36.1,22.9,50.6,38.5
						c14.6,15.6,26.3,33.8,35,53.3c4.4,9.8,7.8,19.9,10.5,30.2c1.3,5.2,2.5,10.4,3.4,15.7l1.3,7.8l0.7,3.8c0.2,1.3,0.5,2.5,0.8,3.8
						c4.3,20.4,12.3,40,23.6,57.4c5.6,8.7,12.1,17,19.3,24.5c7.2,7.5,15.2,14.2,23.7,20.4c16.8,12.4,35.3,22.8,54.8,30.5
						c9.8,3.9,19.8,7.1,30,9.5c5.1,1.2,10.3,2.2,15.5,3.1c2.6,0.4,5.2,0.8,7.8,1.1l7.9,0.8l-7.9-0.4c-2.6-0.2-5.3-0.5-7.9-0.7
						c-5.2-0.7-10.5-1.5-15.7-2.5c-10.4-2.1-20.6-4.9-30.6-8.5c-10-3.6-19.7-7.9-29.1-12.9c-9.4-5-18.4-10.6-27.1-16.8l-3.3-2.3
						l-3.2-2.4l-3.2-2.4c-1.1-0.8-2.1-1.7-3.1-2.5l-3.1-2.6c-1-0.9-2-1.8-3-2.7l-2.9-2.7c-1-0.9-1.9-1.9-2.8-2.8
						c-7.5-7.6-14.3-16-20.2-24.9c-11.8-17.9-20-38.1-24.5-59c-0.3-1.3-0.6-2.6-0.8-3.9l-0.7-4l-1.3-7.8c-0.8-5.1-2-10.2-3.2-15.3
						c-0.6-2.5-1.4-5-2.1-7.5c-0.7-2.5-1.6-5-2.4-7.5c-0.9-2.4-1.8-4.9-2.7-7.3c-1-2.4-1.9-4.9-3-7.2c-8.2-19.2-19.6-37-33.6-52.6
						c-14-15.5-30.6-28.7-48.9-39c-9.1-5.2-18.7-9.6-28.6-13.3l-7.5-2.6l-7.6-2.3l-7.6-2L408.2,3.8z"/>
				</g>
				<g>
					<path class="st19" d="M584.4,475.6l-1.7,2l0,0l0,0l0,0l0,0c-3.1,4-5.8,8.3-8.2,12.7c-2.4,4.4-4.6,9-6.7,13.6
						c-2.1,4.6-4.1,9.2-6.1,13.9c-2,4.6-3.8,9.3-5.4,14.1l0.1-0.4l0,0l0,0.2l-0.1,0.2c-6.7,19.6-10.6,40.1-12.5,60.7
						c-0.5,5.2-0.8,10.3-1,15.5c-0.1,2.6-0.1,5.2-0.1,7.7l0.1,3.9c0,1.3,0.1,2.6,0.2,3.9c0.2,5.1,0.8,10.2,1.5,15.3l0.7,3.8l0.3,1.9
						l0.4,1.9l0.8,3.8l1,3.7c0.3,1.2,0.7,2.5,1,3.7c0.4,1.2,0.7,2.5,1.1,3.7c0.8,2.4,1.6,4.9,2.6,7.2c1.8,4.8,4,9.4,6.3,14
						c1.2,2.3,2.4,4.5,3.7,6.7c1.3,2.2,2.7,4.4,4.1,6.5c1.4,2.1,3,4.3,4.4,6.4c1.5,2.1,3,4.2,4.5,6.3c6.2,8.3,12.6,16.5,19.1,24.6
						c6.4,8.2,12.9,16.5,18.9,25c6.1,8.6,11.7,17.5,16.6,26.8c4.9,9.3,9.1,19,12.6,28.9c3.5,9.9,6.3,20.1,8.4,30.4
						c2.1,10.3,3.5,20.7,4.2,31.2c2.8,41.9-5.8,84.6-25.7,121.3c9.1-18.8,15.6-38.7,19.2-59.1c1.8-10.2,3-20.5,3.5-30.9
						c0.5-10.3,0.3-20.7-0.6-31c-0.9-10.3-2.4-20.5-4.6-30.6c-2.2-10.1-5.1-20-8.6-29.7c-3.5-9.7-7.7-19.1-12.6-28.2
						c-4.8-9.1-10.4-17.8-16.4-26.2c-6-8.4-12.4-16.6-18.9-24.8c-6.4-8.2-12.9-16.4-19.1-24.8c-1.6-2.1-3.1-4.3-4.6-6.4
						c-1.5-2.2-3-4.3-4.5-6.5c-1.4-2.2-2.9-4.4-4.2-6.8c-1.4-2.3-2.6-4.6-3.8-7c-2.4-4.7-4.6-9.6-6.4-14.5c-1-2.5-1.8-5-2.6-7.5
						c-0.4-1.3-0.7-2.5-1.1-3.8c-0.4-1.3-0.7-2.5-1-3.8l-0.9-3.9l-0.8-3.9l-0.4-1.9l-0.3-2l-0.6-3.9c-0.3-2.6-0.7-5.2-0.9-7.9
						l-0.3-3.9l-0.2-4c-0.1-1.3-0.1-2.6-0.1-4l0-4c0.1-2.6,0.1-5.3,0.3-7.9c0.3-5.2,0.7-10.5,1.2-15.7c0.6-5.2,1.3-10.4,2.1-15.6
						c0.9-5.2,1.9-10.3,3-15.4c1.2-5.1,2.5-10.2,3.9-15.2c1.5-5,3.2-10,5-14.9l-0.1,0.4l0,0l0-0.2l0.1-0.2c1.8-4.8,3.8-9.4,5.9-14
						c2.1-4.6,4.3-9.1,6.5-13.7c2.2-4.5,4.6-9,7.2-13.4c2.6-4.4,5.4-8.6,8.7-12.4l0,0l0,0l0,0l0,0L584.4,475.6z"/>
				</g>
				<g>
					<path class="st19" d="M266.4,38.4c3.5-2.4,7.3-4.3,11.4-5.6c4.1-1.2,8.4-1.8,12.7-1.9c4.3,0,8.6,0.5,12.8,1.5
						c4.2,1,8.3,2.3,12.2,3.9c7.9,3.3,15.3,7.7,22.3,12.6c7,4.9,13.4,10.6,19.4,16.8c5.9,6.2,11.2,13,16.1,20
						c4.8,7.1,9.2,14.4,13.3,21.8c4.1,7.4,7.9,15,11.7,22.6l11.3,22.7l22.5,45.5c3.7,7.6,7.4,15.2,11.3,22.6
						c4,7.4,8.3,14.6,13.2,21.3c5,6.7,10.6,12.8,17.2,17.8c3.3,2.5,6.8,4.6,10.6,6.4c3.7,1.7,7.7,3,11.7,3.9
						c8.1,1.9,16.6,2.4,24.8,1.1c8.3-1.3,16.3-4.5,23-9.6c-3.2,2.7-6.8,5.1-10.7,6.9c-3.8,1.8-7.9,3.2-12.1,4
						c-8.4,1.7-17.1,1.6-25.6-0.1c-4.2-0.8-8.4-2-12.4-3.7c-4-1.7-7.8-3.8-11.3-6.3c-7.1-5-13.1-11.3-18.4-18.1
						c-10.6-13.6-18.1-29.1-25.7-44.1l-22.7-45.4l-11.2-22.7c-3.7-7.6-7.5-15.1-11.5-22.5c-8-14.8-16.9-29.1-28.1-41.5
						c-2.8-3.1-5.7-6-8.8-8.8c-3.1-2.8-6.3-5.5-9.6-8c-6.6-5.1-13.8-9.5-21.4-13c-7.6-3.5-15.7-5.9-24.1-6.3
						c-4.2-0.2-8.4,0.2-12.4,1.2C273.9,34.5,270,36.2,266.4,38.4z"/>
				</g>
				<g>
					<path class="st19" d="M233,849.9c11.3-0.7,22.7-2.2,33.5-5.5c10.8-3.3,21.3-7.8,31.3-13.1c10-5.3,19.5-11.5,28.4-18.5
						c8.9-7,16.9-15,24.1-23.7c7.1-8.7,13.1-18.4,17.4-28.7c2.2-5.2,4-10.5,5.3-15.9l0.9-4.1c0.3-1.4,0.5-2.8,0.7-4.1
						c0.4-2.8,0.8-5.6,1.1-8.4c2.6-22.4,3-45.2,0.9-67.6c-1.1-11.2-2.7-22.4-5-33.4c-2.4-11-5.4-21.9-9.1-32.5
						c-0.9-2.7-2-5.3-2.9-7.9c-1.1-2.6-2.1-5.2-3.2-7.8c-1.2-2.6-2.3-5.1-3.5-7.7c-0.6-1.3-1.2-2.6-1.8-3.8l-1.9-3.7
						c-5.2-10-11.1-19.5-17.8-28.6c-6.7-9-14.1-17.5-22.1-25.4c-8-7.8-16.8-14.8-26-21.5c-9.1-6.7-18.5-13.1-27.7-19.9
						c-9.2-6.8-18.1-14.1-26.3-22.2l-0.3-0.3l-0.2-0.4l0,0l0.5,0.6c-3.1-3.3-6.3-6.5-9.2-10c-2.9-3.5-5.7-7.1-8.3-10.8l-7.5-11.2
						c-1.2-1.9-2.5-3.7-3.7-5.6l-3.5-5.8l-3.5-5.8l-1.7-2.9c-0.6-1-1.1-2-1.6-3l-6.4-11.8l-5.9-12.1c-0.5-1-1-2-1.4-3l-1.3-3.1
						l-2.7-6.2c-6.9-16.6-12.3-33.9-15.9-51.5l-0.7-3.3l-0.6-3.3l-1.1-6.7c-0.4-2.2-0.6-4.5-0.9-6.7l-0.9-6.7l-0.7-6.7
						c-0.2-2.2-0.5-4.5-0.6-6.7c-0.3-4.5-0.7-8.9-0.9-13.4c-0.5-8.9-0.8-17.9-1.2-26.8c-0.3-9-0.6-17.9-0.3-26.9
						c0.1-9,0.7-17.9,1.5-26.9c1-8.9,2.2-17.8,4.2-26.6c1.9-8.8,4.3-17.4,7.5-25.9c3.2-8.4,7.1-16.5,11.9-24.1
						c2.3-3.8,5.1-7.4,7.8-10.9c2.8-3.5,5.7-6.9,8.7-10.2c6-6.6,12.7-12.8,20.6-17.1c-7.8,4.5-14.2,10.8-20.1,17.5
						c-5.8,6.8-11.4,13.7-16,21.3c-4.6,7.6-8.3,15.7-11.3,24.1c-3,8.4-5.2,17-6.9,25.7l-1.2,6.6c-0.4,2.2-0.6,4.4-1,6.6
						c-0.7,4.4-1,8.8-1.5,13.2c-0.7,8.9-1.2,17.8-1.2,26.7c-0.1,8.9,0.2,17.8,0.6,26.7c0.5,8.9,0.9,17.9,1.5,26.7
						c0.3,4.5,0.7,8.9,1,13.3c0.2,2.2,0.4,4.4,0.7,6.6l0.7,6.6l0.9,6.6c0.3,2.2,0.6,4.4,1,6.6l1.2,6.5l0.6,3.3l0.7,3.2
						c3.7,17.3,9.1,34.3,16,50.6l2.6,6.1l1.3,3.1c0.4,1,1,2,1.4,3l5.9,11.9l6.4,11.7c0.5,1,1.1,1.9,1.6,2.9l1.7,2.8l3.5,5.7l3.5,5.7
						c1.2,1.9,2.5,3.7,3.7,5.6l7.4,11.1c2.5,3.6,5.2,7.1,8,10.4c2.8,3.4,5.9,6.5,8.9,9.7l0.3,0.3l0.2,0.3l0,0l-0.5-0.6
						c7.9,7.9,16.7,15,25.8,21.7c9.1,6.7,18.5,13.1,27.7,19.9c4.6,3.4,9.2,6.9,13.6,10.5c4.4,3.6,8.8,7.5,12.9,11.5
						c8.2,8,15.8,16.8,22.6,26c13.6,18.5,24.2,39.2,31.7,60.8c3.7,10.8,6.8,21.9,9.1,33.1c2.3,11.2,3.9,22.6,4.9,34
						c1.9,22.8,1.2,45.8-1.7,68.4c-0.4,2.8-0.7,5.6-1.2,8.5c-0.3,1.4-0.5,2.8-0.8,4.3l-1,4.2c-1.4,5.6-3.3,11.1-5.6,16.3
						c-4.6,10.6-10.8,20.4-18.2,29.2c-7.3,8.8-15.7,16.7-24.8,23.6c-9.1,7-18.8,13-29,18.1c-10.2,5.1-20.8,9.5-31.7,12.6
						C255.7,848.3,244.3,849.5,233,849.9z"/>
				</g>
				<g>
					<path class="st19" d="M264.9,69.2c-3.7,0.2-7.2,1.6-10,3.9c-2.8,2.3-5,5.3-6.8,8.5c-3.5,6.4-5.5,13.5-7,20.7
						c-2.9,14.4-3.9,29.1-4.4,43.7c-0.2,7.3-0.2,14.7,0.1,22c0.3,7.3,0.8,14.6,1.7,21.9c0.9,7.3,2,14.5,3.4,21.7
						c1.4,7.2,3,14.4,4.9,21.5c3.7,14.2,8,28.2,13.1,42c5.1,13.8,10.9,27.2,17.4,40.4c3.2,6.6,6.7,13.1,10.3,19.5
						c3.6,6.4,7.3,12.8,11.2,19c7.8,12.5,16.3,24.5,25.3,36.2c-19.7-22-36.6-46.6-50.4-72.9c-3.5-6.6-6.7-13.2-9.8-20
						c-3-6.8-5.9-13.6-8.6-20.5c-5.3-13.9-9.8-28-13.4-42.4c-1.8-7.2-3.4-14.5-4.8-21.7c-0.7-3.6-1.3-7.3-1.9-11
						c-0.5-3.7-1-7.4-1.3-11.1c-0.8-7.4-1.2-14.8-1.3-22.3c-0.1-7.4,0-14.9,0.5-22.3c0.4-7.4,1.1-14.8,2-22.2
						c0.9-7.4,2.1-14.7,3.9-21.9c0.9-3.6,2-7.2,3.3-10.7c1.3-3.5,2.8-6.9,4.8-10.1c2-3.2,4.4-6.2,7.4-8.4
						C257.5,70.4,261.2,69.2,264.9,69.2z"/>
				</g>
			</g>
		</g>
	</g>
</g>
</svg>
