<svg id="Layer_2" data-name="Layer 2" xmlns="http://www.w3.org/2000/svg" xmlns:xlink="http://www.w3.org/1999/xlink" viewBox="0 0 720 720"><defs><style>.cls-1{fill:none;}.cls-2{clip-path:url(#clip-path);}.cls-3{fill:#010d3f;}.cls-4{fill:#a0a0a0;}.cls-5{fill:#d8c6b8;}.cls-6{fill:#c9a993;}.cls-7{fill:#bc9582;}.cls-8{fill:#edd4ca;}.cls-9{fill:#ddbab1;}.cls-10{fill:#e8c9bf;}.cls-11{fill:#66493a;}.cls-12{fill:#b5b3c4;}.cls-13{fill:#8980ff;}.cls-14{fill:#181413;}.cls-15{fill:#f7efed;}.cls-16{fill:#6e4c35;}.cls-17{fill:#cd818b;}.cls-18{fill:#8b3a3d;}.cls-19{fill:#0b009e;}</style><clipPath id="clip-path"><rect class="cls-1" width="720" height="720"/></clipPath></defs><title>navy</title><g class="cls-2"><rect width="720" height="720"/><path class="cls-3" d="M685.33-44.14s-115,81.26-108,309.7,16.5,425.64-34,474.44-55,112-259,6-356-143.83-356-143.83l265,490.83,453-205,232-247.76-50-625.12Z"/><path class="cls-4" d="M845.46-11a110.33,110.33,0,0,0-39.75-35.65,116,116,0,0,0-51-13.88,118.57,118.57,0,0,0-13.2.4,115.82,115.82,0,0,0-13,2l-3.19.77c-1.06.27-2.11.59-3.16.89-2.12.56-4.18,1.33-6.26,2a113.74,113.74,0,0,0-12.08,5.14A125.93,125.93,0,0,0,681.7-35.16a155.57,155.57,0,0,0-19.11,18.09A195,195,0,0,0,646.36,3.78a231,231,0,0,0-13.58,22.77c-4.12,7.83-7.82,15.89-11.19,24.08q-1.26,3.07-2.44,6.18l-2.24,6.3c-1.48,4.2-3,8.38-4.45,12.59a497.17,497.17,0,0,0-21.18,104.67c-3.65,35.56-4.11,71.48-3.44,107.43,0,4.49.21,9,.34,13.49s.24,9,.42,13.5c.38,9,.68,18,1.12,27,.79,18,1.77,36.09,2.67,54.17.44,9,.94,18.09,1.3,27.16l.57,13.6.48,13.62.23,6.81.17,6.82.32,13.65.14,13.67.07,6.84,0,6.84-.11,13.7-.4,13.71-.2,6.85-.35,6.86-.74,13.72-1.08,13.72-.55,6.85-.75,6.86L589.93,601l-2,13.66-1,6.83-1.25,6.8-2.52,13.6-3.06,13.51c-.52,2.25-1,4.51-1.55,6.75l-1.82,6.69c-1.23,4.46-2.41,8.93-3.67,13.38l-4.26,13.21c-.72,2.2-1.4,4.41-2.16,6.61l-2.39,6.58c-1.7,4.37-3.39,8.73-5.31,13a236.14,236.14,0,0,1-12.84,25.27,173,173,0,0,1-16.72,23.42,137.47,137.47,0,0,1-10,10.6l-5.5,4.9L508,790.33a107.75,107.75,0,0,1-12.63,7.89c-1.1.58-2.17,1.21-3.3,1.74l-3.42,1.52-3.43,1.5c-1.14.51-2.33.88-3.5,1.32a107.7,107.7,0,0,1-29,6,130.12,130.12,0,0,1-14.64.13c-4.85-.25-9.65-.73-14.4-1.41-19-2.8-36.9-8.77-54.05-15.6-8.58-3.44-17-7.13-25.29-10.91l-24.7-11.36-49.27-22.79q-98.49-45.66-196.72-91.94C57.3,648.7,40.93,641.25,24.13,635A258.92,258.92,0,0,0-27.56,621.2a165.25,165.25,0,0,0-53.35.54,128,128,0,0,0-25.82,7.4,112,112,0,0,0-23.6,13.11c13.94-11.63,31-19.3,48.8-23.47a168.6,168.6,0,0,1,54.66-3.08c18.28,1.83,36.19,6.3,53.55,12s34.27,12.63,51,19.72Q177.45,690.31,276.82,734l49.7,21.83,24.8,10.93c8.23,3.59,16.45,7,24.72,10.21,16.51,6.32,33.31,11.52,50.19,13.83q6.33.84,12.62,1.1a112.86,112.86,0,0,0,12.49-.24,88.7,88.7,0,0,0,23.92-5.18,91.13,91.13,0,0,0,21.38-11.63l4.85-3.8,4.61-4.16a121.53,121.53,0,0,0,8.55-9.14,153.06,153.06,0,0,0,14.62-20.81,214.83,214.83,0,0,0,11.58-23.17c1.74-4,3.32-8,4.89-12.13l2.23-6.17c.71-2.08,1.36-4.2,2-6.3l4-12.63c1.2-4.25,2.32-8.54,3.48-12.8l1.73-6.41c.52-2.15,1-4.32,1.47-6.48l2.91-13,2.4-13.1,1.19-6.54,1-6.6,1.94-13.2,1.5-13.27.74-6.64.54-6.67L574,558.51l.74-13.39.36-6.69.22-6.71.42-13.42.17-13.45.08-6.72,0-6.74-.05-13.47-.23-13.49-.12-6.74-.19-6.76-.38-13.5-.49-13.53-1-27.07c-1.41-36.13-3.1-72.39-3.23-108.81l0-13.66c0-4.55.12-9.11.17-13.67.07-9.11.47-18.24.81-27.36,1-18.25,2.16-36.5,4.48-54.69.94-9.11,2.5-18.16,3.87-27.22.31-2.27.82-4.51,1.23-6.77l1.3-6.76,1.3-6.75c.41-2.26,1-4.48,1.51-6.72L588.05,111c1.14-4.45,2.45-8.86,3.67-13.29l1.86-6.63c.65-2.2,1.43-4.37,2.14-6.55l4.35-13.08c1.61-4.31,3.31-8.58,5-12.87l2.49-6.42c.88-2.13,1.79-4.26,2.72-6.37A275.5,275.5,0,0,1,622.66,21a243,243,0,0,1,15-23.37,195.28,195.28,0,0,1,17.81-21.37,164.81,164.81,0,0,1,21-18.41,133.87,133.87,0,0,1,24.14-14.08,123.12,123.12,0,0,1,13.08-5c2.24-.64,4.46-1.37,6.74-1.88,1.13-.27,2.26-.57,3.4-.82l3.44-.69a110.08,110.08,0,0,1,13.88-1.61A122,122,0,0,1,755-66,119.9,119.9,0,0,1,807.2-49.22C822.85-39.73,836.35-26.64,845.46-11Z"/><path class="cls-5" d="M452.34,673.39c1.65,6.8,3.59,13.66,3.36,20.65s-3.09,14.33-9,18c-6.73,4.18-16.37,3.19-21.6,9.13-5.44,6.17-2.84,16.06-6.33,23.5-4.81,10.24-18.42,11.89-29.72,12.14l-62.26,1.32c-11.45.25-23.43.38-33.68-4.73-7.08-3.54-12.75-9.3-18.9-14.29a102.1,102.1,0,0,0-33.65-18c-4.81-1.5-9.82-2.69-14-5.49s-7.43-7.71-6.57-12.66c2-11.6,2.61-13.27,6.4-24.41,1.52-4.48-.21-9.5-3.06-13.26s-5.61-4.9-5.81-9.61c-1.22-30.16,3.86-36.81.16-63.92-1.81-13.26-4.63-32.12-9.9-46.4-3.55-9.6,7.13-4.34,17.1-2.06s18.56,8.62,26,15.69,14,15,21.81,21.6a85.7,85.7,0,0,0,53.55,19.94c23,.31,45-8.67,66.29-17.5,14.34-6,28.58-12.64,43.18-17.92,17.32-6.27,12.82,8.31,11.43,20.23A251,251,0,0,0,452.34,673.39Z"/><path class="cls-6" d="M287.54,652.09c1.94,9.64,3.88,19.29,6.57,28.75A185.94,185.94,0,0,0,306,711.74c5.08,10.34,12.65,21.26,24.06,22.74,12.68,1.65,23.66-9.1,36.3-11,7.42-1.09,15.07.94,22.44-.47C401.41,720.63,410,709,416,697.58a180.1,180.1,0,0,0,20.52-87.68c-.15-6.11-.79-12.67-4.75-17.32-4.08-4.8-10.92-6.47-17.2-5.93s-12.22,3-18.14,5.08a221.4,221.4,0,0,1-93,12.28c-4.55-.38-9.17-.9-13.66,0-11.16,2.1-10.22,8.16-8.39,17.3Q284.44,636.68,287.54,652.09Z"/><path class="cls-7" d="M321.76,627c-8.54.53-18.9,1.77-22.31,9.62-2.67,6.14.54,13.11,3.7,19,4.33,8.11,9,16.58,16.75,21.51,9.47,6,21.51,5.49,32.7,4.78,12.5-.8,25.56-1.76,36.25-8.29s17.84-18.28,21.41-30.47c2.29-7.79,7.61-26,4.05-33.76-3.83-8.35-19.17,2-25.64,4.26A255.27,255.27,0,0,1,321.76,627Z"/><path class="cls-8" d="M368.33,127.67s64.56-31.7,114,29.64c52.45,65.09,56.07,209.92,19.35,301.1s-76.61,180-147.7,181.73c-63.22,1.56-88.79-11.43-137.07-94.74C168.89,462.58,133,376.9,157,293,179.5,214.5,227.68,55,368.33,127.67Z"/><path class="cls-9" d="M210.42,273.34a139.5,139.5,0,0,1,42.21-2.47c24.44,2.34,60.74,8.85,72.42,26.93,18.16,28.14,7.82,52.53-9.77,62.2s-54.5,28.42-95.95,10c-24.74-11-30.64-32.53-40-5s29.3,81.17,29.59,107.25,13.48,77.36,42.79,64.47,23.15,22.86,16.11,33.7-3.94,27.08,15.11,40.85,86.28,21.56,112.36,1.35c23.11-17.92,28.11-44.84,2.93-36.63-38.68,12.6-96.41,11.72-103.44-4.69s.59-23.74,31.06-12.9,83.23-16.7,77.95-23.73-1.76-25.79,13.48-22.57,16.14.63,24.62-11.42c7.82-11.14,15.27-25.35,27-46.61,12.5-22.76,23.75-48.53,31.64-63.28,15.83-29.59,23.14-22.82,19.64,1.17-7.19,49.23-47.16,142.89-63.89,167.32s-33.4,62.42-75.6,77.36C361.83,643.28,303,651,267.7,617.46c-32.18-30.58-60.55-82.23-75.2-118.27s-24.61-55.38-30.77-90.84-14.36-111.65,5.86-123.08C172,282.76,193.81,276.86,210.42,273.34Z"/><path class="cls-10" d="M478.81,367.18c-11.69,7.61-26.34,9.58-40.23,8.19s-27.24-5.89-40.46-10.35c-7.94-2.69-16.34-5.68-21.52-12.27a29.79,29.79,0,0,1-5.48-13.37,46.5,46.5,0,0,1,2.27-24.17c4.46-11.87,13.72-21.51,24.44-28.3s22.85-11,35.07-14.41A329.49,329.49,0,0,1,466.33,265c7-1.2,14.38-2.13,21,.38,8.8,3.33,14.39,12,18,20.73A91.51,91.51,0,0,1,512,325.7c-.3,5.47,0,11.1-4.4,14.75a158.94,158.94,0,0,0-13.22,12.74C489.59,358.26,484.7,363.35,478.81,367.18Z"/><path class="cls-11" d="M448.91,361.17s32.23-2.34,39.85-12.31,24.91-12.89,24.32-22,5-38.38-7-41.9-97.1-3.22-104.37,10.55-9.62,24.91,2.1,21.68-21.1,15.54-10.84,16.71,42.78,6.7,34.58,17.27S448.91,361.17,448.91,361.17Z"/><path class="cls-11" d="M314.41,343s21.39-17.7,3.51-36.54S216.82,256,210.67,266.52s63.22,39.24,50.4,39c-14.06-.29-43.37-.58-59.19,10.26-13.11,9-16.12-1.76-19.63-11.72s-10.85-5.57-9.67,7.62,6.74,21.68,18.16,24,21.9,24.07,39,30.47c14.06,5.28,46.17,2.47,61.83-6.74C306.49,350.62,314.41,343,314.41,343Z"/><path class="cls-12" d="M215.72,344.46a68.76,68.76,0,0,0,34.06,8.17c7.59-.17,15.08-1.6,22.53-3L291.14,346c1.75-.33,3.76-.86,4.5-2.48.83-1.81-.41-3.86-1.66-5.41a65.57,65.57,0,0,0-28.31-20.42,63.41,63.41,0,0,0-33.93-2.43,64.89,64.89,0,0,0-16.53,5.65c-3.72,1.87-11.43,5.13-11.88,9.94C202.77,336.86,211.31,342.08,215.72,344.46Z"/><ellipse class="cls-13" cx="250.33" cy="326.25" rx="15.24" ry="16.07"/><path class="cls-14" d="M290.71,345a2.94,2.94,0,0,0,1.35-5.14c-11-9.2-21.5-16.57-36-19.66-6-1.28-16.55-1.34-22.44.44-9,2.71-15.57,10.79-24.51,13.69a23.17,23.17,0,0,1-27.7-11.3,1.46,1.46,0,0,1,1.43-2.15,61.89,61.89,0,0,0,29.45-3.76c4.22-1.64,8.24-3.75,12.47-5.38a61.32,61.32,0,0,1,50.68,3.28,55.91,55.91,0,0,1,22,21.33,20,20,0,0,1,1.79,4.27c1.44,5.06,2.06,5.87-.31,6.54-3.31.95-5,.65-8.45.44-.42,0-3.25-.28-3.43-.67a.81.81,0,0,1,.27-.92,2.4,2.4,0,0,1,.93-.43C289.07,345.38,289.89,345.2,290.71,345Z"/><path class="cls-14" d="M244.48,349.89a9.36,9.36,0,0,1,3.21.52,2.9,2.9,0,0,1,1.87,2.46,2.84,2.84,0,0,1-2.05,2.46,7.7,7.7,0,0,1-3.38.11,80.67,80.67,0,0,1-20.21-5.14c-1.62-.65-5.83-2.79-4.24-5.21,1.33-2,5.33.58,6.84,1.13A62,62,0,0,0,244.48,349.89Z"/><path class="cls-14" d="M273.4,285.52A428,428,0,0,0,214,271.11c-6.06-1-12.2-1.91-18.32-1.4s-12.29,2.56-16.78,6.76-7,10.75-5.4,16.68c3.34-4.5,8.85-6.82,14.28-8.19,19.68-4.94,40.41.26,59.64,6.76,13,4.39,25.78,9.38,39.16,12.39,3.52.79,14.63,4.73,16.56.23s-6.8-8.9-9.81-10.62C287.1,290.14,280.25,287.71,273.4,285.52Z"/><path class="cls-12" d="M461.57,348.32a49.66,49.66,0,0,0,12.07-3.73c2.91-1.32,5.79-3,7.56-5.66,2.6-3.91,2.14-9.35-.37-13.33s-6.74-6.61-11.2-8.08-9.19-1.91-13.87-2.33c-8.18-.73-16.57-1.45-24.5.7-6.15,1.67-11.7,5-17.16,8.27-4,2.38-8.37,5.47-8.65,10.08a7.32,7.32,0,0,0,3.26,6.46c3,1.93,6.22.45,9.44.95,4.72.74,9.47,3,14.1,4.27C441.77,348.45,451.76,350,461.57,348.32Z"/><path class="cls-13" d="M458.33,323c0,8.87-6.82,16.06-15.23,16.06S427.86,331.9,427.86,323s6.82-11,15.24-11S458.33,314.15,458.33,323Z"/><path class="cls-14" d="M402.61,344.79a2.66,2.66,0,0,1-2.57-3.5,16.12,16.12,0,0,1,1.89-4.05c1.48-1.59,3.23-.91,5.4-1.09a15,15,0,0,1,6.4,1,22.48,22.48,0,0,1,5.28,2.86c.78.58,4.21,2.89,3.6,4.06-.52,1-5.65.44-6.78.46l-7.41.12Z"/><path class="cls-14" d="M420.06,316.66c9.51-5.75,20.74-8.28,31.85-8.39a80.16,80.16,0,0,1,31.88,6.28c4.23,1.79,8.31,3.94,12.69,5.29a23.79,23.79,0,0,0,10.73,1,.76.76,0,0,1,.65,1.31c-8.05,7.64-16.3,15.18-25.88,20.77-9.39,5.47-20.31,9-31.07,8.1a.65.65,0,0,1-.1-1.28c5.54-1.39,11-3,16.4-5,3.31-1.17,6.67-2.49,9-5.24a8.24,8.24,0,0,0,2.11-5.87c-.28-4.23-3.66-7.9-7.47-9.76-11.5-5.6-25.61-6.22-38-3a54.06,54.06,0,0,0-15.57,6.8,54.9,54.9,0,0,0-7,5.31c-1.56,1.38-3.64,4.72-5.63,5.22-6.22,1.54,1.18-8.46,2.4-10A47,47,0,0,1,420.06,316.66Z"/><path class="cls-14" d="M401.73,310.57s7-17.09,33.11-25,52.75-22.27,69.45-8.21,9.09,23.77-2.63,13.64-35.76,4.53-53.34,9.51S400.26,318.29,401.73,310.57Z"/><path class="cls-15" d="M315.94,442.87a4.54,4.54,0,0,1-3.7-7.22c2.77-3.75,6.25-7.13,8.89-11C333.18,407,326.51,382,336.19,362.9a26,26,0,0,1,8.4-10,15.51,15.51,0,0,1,12.59-2.37c4.32,1.21,7.73,4.66,9.89,8.59s3.26,8.34,4.33,12.69l14.54,59.34a13.2,13.2,0,0,1-.23,7.37c-2.2,6.44-7,4.67-11.54,4-7-.95-14.88.09-21.94.13Z"/><path class="cls-16" d="M383.18,455a16.76,16.76,0,0,1,4-3.28,5.64,5.64,0,0,1,5-.32c2.64,1.29,3.13,5.09,1.79,7.7s-3.93,4.31-6.4,5.89L378,471.09a73.9,73.9,0,0,1-13.23,7.23c-4.7,1.8-9.91,2.62-14.8,1.4a21.05,21.05,0,0,1-11.2-7.41,2.75,2.75,0,0,1-.77-1.69,2,2,0,0,1,1.7-1.72,5.8,5.8,0,0,1,2.57.28,54,54,0,0,0,11.28,2.27,25.93,25.93,0,0,0,16.59-5.05A109.36,109.36,0,0,0,383.18,455Z"/><path class="cls-16" d="M326.55,468.06c-1.5.81-3.07,1.85-4.76,1.63a5.89,5.89,0,0,1-3.69-2.63c-1.45-1.93-2.55-4.32-2.19-6.71a7.43,7.43,0,0,1,4.95-5.58,12.23,12.23,0,0,1,7.68.13,36.49,36.49,0,0,1,7,3.39,13.83,13.83,0,0,1,3.89,2.87c.7.83,2,3,1.14,4.14s-3.11.24-4.23.25A21.17,21.17,0,0,0,326.55,468.06Z"/><path class="cls-14" d="M381.14,460.25a14.58,14.58,0,0,1,7-5.85,5.43,5.43,0,0,1,4.49-.14c1.71.93,2.24,3.28,1.61,5.12a9.34,9.34,0,0,1-3.74,4.35c-1.81,1.27-4,2.31-6.16,2s-4.15-2.59-3.46-4.69"/><path class="cls-14" d="M325.45,454.26a5.07,5.07,0,0,0-3.52,1.95,3.78,3.78,0,0,0,.33,4.13,6.21,6.21,0,0,0,3.73,2.18,18.38,18.38,0,0,0,4.39.21l6.7-.21c5.37-.16.45-4.82-1.66-6.18A14,14,0,0,0,325.45,454.26Z"/><path class="cls-17" d="M306.78,520.89c5.58-3.47,10.72-7.92,17-9.74,10.24-3,21.22,1.61,31.8.29,4.78-.6,9.38-2.4,14.19-2.69,6.51-.39,12.83,2,18.92,4.33l23.7,9.1c2.09.8,4.46,1.92,4.91,4.1s-1.37,4.26-3.06,5.83L398.21,547c-4.82,4.46-9.7,9-15.4,12.2-9.08,5.17-19.8,6.86-30.24,6.54s-20.72-2.53-30.93-4.74c-13.08-2.82-27-6.11-36.19-15.85a20.69,20.69,0,0,1-5.5-9.82c-.89-4.44,0-5.39,4.1-6A60.2,60.2,0,0,0,306.78,520.89Z"/><path class="cls-18" d="M370.11,538.5c-10.81,2.13-21.76,4.7-32.71,3.55-11.31-1.2-22.25-6.34-33.56-5.24a6.54,6.54,0,0,1,3.26-4.33,18.15,18.15,0,0,1,5.26-1.83,199.79,199.79,0,0,1,87.06-.55,11.16,11.16,0,0,1,3.71,1.3c2.27,1.48,2.67,5.24-.47,5.91-1.26.27-3.08-.5-4.32-.7a50.2,50.2,0,0,0-5.74-.54C385,535.79,377.5,537.05,370.11,538.5Z"/><path class="cls-14" d="M278.61,529.33l94.76-1.91c13.26-.27,26.63-.55,39.52-3.64a8.38,8.38,0,0,1,3.43-.36,2.72,2.72,0,0,1,2.33,2.24c.11,1.74-1.94,2.73-3.63,3.18a157.46,157.46,0,0,1-27.32,4.49c-16.82,1.48-33.74,1.5-50.63,1.51s-33.65.06-50.44.3A8.1,8.1,0,0,1,278.61,529.33Z"/><path class="cls-19" d="M368.33,127.67a122.45,122.45,0,0,0-21.76-10.49,127.78,127.78,0,0,0-23.24-6.37c-15.8-2.76-32.26-2.11-47.44,2.82S247,127.36,235.63,138.57A182.78,182.78,0,0,0,220,156.72q-7.37,9.54-13.95,19.63T193.61,197c-3.88,7-7.53,14.17-10.89,21.46a339.25,339.25,0,0,0-17,45,315.26,315.26,0,0,0-13.59,94.82,257.67,257.67,0,0,0,5,47.67,230.65,230.65,0,0,0,6,23.19,208.8,208.8,0,0,0,8.54,22.36c3.2,7.33,7.12,14.22,11,21.38s7.53,14.36,11.08,21.65a426.14,426.14,0,0,1,18.91,44.84,300,300,0,0,1,12.7,47,199.8,199.8,0,0,1,3.07,48.58,161.68,161.68,0,0,1-10.51,47.4,199,199,0,0,1-10.14,22.06c-3.81,7.14-7.95,14.08-12.05,21,7.81-14.12,15.57-28.36,21-43.54A159.92,159.92,0,0,0,226,634.78a199.68,199.68,0,0,0-3.73-47.86,298.21,298.21,0,0,0-13.21-46.28q-4.19-11.29-9-22.34c-3.23-7.36-6.6-14.67-10.18-21.87s-7.3-14.34-11.16-21.4-8-14.14-11.33-21.6a215.84,215.84,0,0,1-15-46.53,262.65,262.65,0,0,1-5.2-48.57,318.26,318.26,0,0,1,14.06-96.26,329.7,329.7,0,0,1,41.6-87.84q6.81-10.11,14.4-19.67c2.54-3.17,5.11-6.3,7.79-9.37s5.52-6,8.45-8.88c11.76-11.33,26-20.35,41.73-25a94.59,94.59,0,0,1,24.13-3.84,108.43,108.43,0,0,1,24.27,2,128.58,128.58,0,0,1,23.27,7A123.15,123.15,0,0,1,368.33,127.67Z"/><path class="cls-19" d="M372,124.12A27.25,27.25,0,0,1,379.37,113,34.27,34.27,0,0,1,391,106.21a46.2,46.2,0,0,1,26.76-.74,43.39,43.39,0,0,1,12.4,5.56,67.66,67.66,0,0,1,10.62,8.46,85.78,85.78,0,0,1,8.93,10.22c2.72,3.61,5.23,7.37,7.58,11.21,4.68,7.71,8.77,15.71,12.93,23.63s8.29,15.87,12.35,23.86c8.12,16,15.93,32.16,22.85,48.75,14.05,33.15,23.08,68.27,29,103.68a737.26,737.26,0,0,1,9.48,107.27c.3,18-.17,35.94-1.22,53.87s-2.71,35.82-5.05,53.63-5.42,35.52-9.07,53.1c-.92,4.39-1.8,8.8-2.85,13.16s-2,8.76-3.05,13.11l-3.27,13L516,661,502,712.9c-4.58,17.29-8.85,34.66-12.5,52.15-7.6,34.91-11.58,70.73-9.51,106.51l-.89-13.4c-.06-1.12-.18-2.23-.19-3.35l0-3.36-.09-6.72,0-3.36c0-1.13,0-2.25,0-3.37l.27-6.71.26-6.72c0-1.13.12-2.24.22-3.36l.28-3.35.56-6.7c.18-2.24.35-4.48.66-6.7l1.63-13.35,2.07-13.3c.33-2.22.74-4.42,1.15-6.62l1.23-6.62c6.78-35.24,16.43-69.81,25.14-104.5,4.39-17.35,8.49-34.74,12-52.24S530.7,572.71,533,555a759.74,759.74,0,0,0,6-106.81,743.09,743.09,0,0,0-9.15-106.58,528.79,528.79,0,0,0-11-52.31,435.26,435.26,0,0,0-16.89-50.69c-6.65-16.55-14.21-32.75-22.11-48.79-3.95-8-8-16-12-24s-8.05-16-12.53-23.66c-2.24-3.84-4.64-7.58-7.23-11.18a83.57,83.57,0,0,0-8.51-10.16,66.39,66.39,0,0,0-10.17-8.46,42,42,0,0,0-11.89-5.64,45.47,45.47,0,0,0-26.17.19,33.49,33.49,0,0,0-11.6,6.35A26.9,26.9,0,0,0,372,124.12Z"/><path class="cls-19" d="M368.33,127.67a4.29,4.29,0,0,0,1.29-.55l1.26-.66c.83-.44,1.68-.87,2.53-1.29q2.55-1.26,5.21-2.31a62.72,62.72,0,0,1,11-3.23,51.45,51.45,0,0,1,22.92.59A55.2,55.2,0,0,1,433,130.79a82.74,82.74,0,0,1,15.7,16.94,144.28,144.28,0,0,1,11.62,19.81q5.14,10.14,10.14,20.36c3.35,6.8,6.55,13.68,9.66,20.61s6.11,13.91,9,21,5.49,14.19,8,21.39,4.75,14.47,6.78,21.81a372.57,372.57,0,0,1,9.38,44.66c4.43,30.11,5.31,60.58,4,90.82-.88-30.26-2.87-60.48-8-90.19a418.27,418.27,0,0,0-24.81-86.64c-5.54-14-11.81-27.74-18.18-41.43q-4.81-10.26-9.78-20.45c-1.66-3.42-3.26-6.77-5.07-10s-3.73-6.46-5.81-9.54a84.33,84.33,0,0,0-14.6-16.69,53.76,53.76,0,0,0-19.19-10.74,50.73,50.73,0,0,0-22.07-1.53,63.56,63.56,0,0,0-10.94,2.61q-2.69.87-5.31,2c-.87.36-1.73.74-2.6,1.13l-1.29.58A4.41,4.41,0,0,1,368.33,127.67Z"/><path class="cls-19" d="M369,121.5a61.63,61.63,0,0,1,10.1-7.79,62.43,62.43,0,0,1,11.48-5.65A48.83,48.83,0,0,1,416,105.61a54.94,54.94,0,0,1,23.33,10.65,83.54,83.54,0,0,1,9.6,8.62,103.78,103.78,0,0,1,8.33,9.83,158.59,158.59,0,0,1,13.63,21.79c4,7.57,7.55,15.37,10.77,23.28a433,433,0,0,1,16.15,48.6Q504.58,253,510.19,278t10,50.17a888.54,888.54,0,0,1,11.69,101.63,695,695,0,0,1-1.68,102.33,496.07,496.07,0,0,1-7.44,50.71c-.41,2.1-.87,4.19-1.33,6.28s-.94,4.17-1.44,6.25c-1,4.18-2,8.23-2.87,12.38-1.81,8.27-3.33,16.6-4.64,25-2.59,16.75-4.39,33.64-5.47,50.57s-1.53,33.92-1.35,50.91a585.24,585.24,0,0,0,9.31,101.42q-2.72-12.48-4.77-25.08c-1.37-8.41-2.47-16.85-3.42-25.32-1.92-16.92-3.05-33.94-3.58-51s-.23-34.1.65-51.13,2.43-34,4.82-51c1.21-8.45,2.63-16.88,4.34-25.26.84-4.18,1.86-8.39,2.8-12.5.48-2.06,1-4.12,1.38-6.19S518,584,518.43,582a491.24,491.24,0,0,0,7-50.29c1.52-16.88,2.34-33.82,2.56-50.77s-.22-33.92-1.15-50.85a899.33,899.33,0,0,0-11.35-101.12q-4.2-25.11-9.57-50c-.89-4.15-1.87-8.28-2.79-12.43l-1.42-6.21-1.49-6.19c-1-4.12-1.93-8.27-3-12.38l-3.15-12.34A428.92,428.92,0,0,0,478.71,181a252.47,252.47,0,0,0-10.34-23.16,162.11,162.11,0,0,0-13.09-21.64,102.46,102.46,0,0,0-7.95-9.8,81.22,81.22,0,0,0-9.18-8.61,53.15,53.15,0,0,0-22.44-10.84,47.92,47.92,0,0,0-24.88,1.86A63.76,63.76,0,0,0,369,121.5Z"/><path class="cls-19" d="M353.18,111.21c-2.85-1.63-5.78-3.1-8.74-4.5s-6-2.71-9-3.94a184.61,184.61,0,0,0-18.52-6.48A152.63,152.63,0,0,0,297.83,92a129.32,129.32,0,0,0-19.43-1.74A109.18,109.18,0,0,0,259,91.53l-2.4.35-2.37.51c-1.58.35-3.17.65-4.73,1-3.09.93-6.24,1.69-9.23,2.91a95.84,95.84,0,0,0-17.35,8.42l-4,2.68c-.67.45-1.36.87-2,1.35l-1.9,1.5-3.79,3c-1.22,1-2.38,2.17-3.57,3.25l-1.77,1.64a21.25,21.25,0,0,0-1.73,1.69l-3.29,3.55c-2.27,2.29-4.15,4.93-6.2,7.42l-1.51,1.89-1.5,2-3,3.93c-2,2.64-4.07,5.18-6.09,7.77-8.19,10.3-16.6,20.38-24.89,30.54s-16.54,20.32-24.4,30.76-15.37,21.13-22.39,32.12a332.3,332.3,0,0,0-34.47,69.93L73.3,319l-2.71,9.38c-.44,1.57-.92,3.12-1.33,4.7l-1.12,4.75c-.73,3.17-1.53,6.33-2.2,9.52L64.17,357c-.28,1.61-.62,3.2-.85,4.81l-.65,4.85-1.31,9.68L60.53,386l-.42,4.87c-.14,1.63-.14,3.26-.22,4.89l-.35,9.78L59.45,408l0,2.45.07,4.9.12,9.79.56,9.78.28,4.9.15,2.44.25,2.44,1,9.75c.34,3.26.64,6.51,1.17,9.74l1.42,9.71.71,4.86c.24,1.62.6,3.22.89,4.83L68,493.26c.61,3.22,1.19,6.44,2,9.62l2.25,9.57,1.12,4.79.56,2.39.65,2.37,5.15,19L73.8,522.2l-.72-2.35-.63-2.38-1.26-4.76-2.53-9.53c-.89-3.16-1.56-6.37-2.27-9.58L64.26,484c-.33-1.61-.74-3.21-1-4.83l-.86-4.85-1.7-9.72c-.64-3.23-1-6.51-1.4-9.77L58.05,445l-.3-2.45-.2-2.46-.38-4.93-.78-9.85-.3-9.89L56,410.48,55.88,408l0-2.47.21-9.9c0-1.65,0-3.3.15-4.94l.35-4.94.69-9.88L58.52,366l.6-4.91c.22-1.64.55-3.26.82-4.89l1.71-9.76c.65-3.24,1.43-6.45,2.14-9.68l1.1-4.84c.4-1.6.87-3.19,1.3-4.78l2.67-9.55L72,308.2a299.81,299.81,0,0,1,15.26-36.57c.74-1.48,1.4-3,2.19-4.45l2.33-4.38c1.57-2.9,3.05-5.86,4.75-8.69l5-8.57,5.24-8.41c7.14-11.1,14.76-21.87,22.71-32.38s16.25-20.71,24.65-30.81,16.88-20.1,25.12-30.27c2-2.56,4.13-5.07,6.11-7.67l3-3.87,1.5-1.93,1.59-1.93c2.15-2.55,4.13-5.24,6.52-7.58l3.46-3.62a22.59,22.59,0,0,1,1.81-1.72l1.87-1.67c1.25-1.11,2.46-2.26,3.75-3.32l4-3,2-1.52c.67-.49,1.4-.91,2.09-1.38l4.21-2.71a23.49,23.49,0,0,1,2.18-1.24l2.21-1.19c1.48-.77,2.91-1.64,4.46-2.26l4.59-2a22.06,22.06,0,0,1,2.34-.89l2.36-.83c3.12-1.2,6.38-1.92,9.59-2.82,1.62-.37,3.27-.65,4.9-1l2.45-.47,2.47-.31a110,110,0,0,1,19.86-.9,131.28,131.28,0,0,1,19.69,2.33A155.81,155.81,0,0,1,317.31,95,169.28,169.28,0,0,1,353.18,111.21Z"/><path class="cls-19" d="M354.38,117.46c-3.88-1.24-7.81-2.29-11.76-3.26s-7.91-1.88-11.89-2.66A236,236,0,0,0,306.68,108a177.84,177.84,0,0,0-24.19-.76,124.44,124.44,0,0,0-23.84,3,89.57,89.57,0,0,0-22.28,8.25,68.63,68.63,0,0,0-25.58,23.94c-1.08,1.65-2,3.39-3,5.11s-1.79,3.52-2.54,5.35-1.5,3.66-2.21,5.51-1.27,3.73-1.85,5.69c-1.17,3.88-2.34,7.75-3.41,11.66-2.17,7.8-4.18,15.65-5.91,23.56s-3.29,15.86-4.71,23.85c-2.88,16-5.12,32.28-10.19,48-4.9,15.76-12.5,30.49-21.22,44.29q-6.56,10.37-13.83,20.21c-2.39,3.3-4.87,6.53-7.36,9.76s-5.06,6.39-7.59,9.58c4.71-6.65,9.4-13.3,13.89-20.09,2.27-3.37,4.43-6.81,6.63-10.23s4.29-6.9,6.28-10.43A237.68,237.68,0,0,0,165,292.72a175.56,175.56,0,0,0,8.41-22.65,211.46,211.46,0,0,0,5.31-23.6c1.42-8,2.6-16,3.93-24.08a440,440,0,0,1,10.39-48c1.06-4,2.23-7.87,3.4-11.8.27-1,.59-2,.93-2.95s.66-2,1-3c.76-2,1.47-3.91,2.36-5.81s1.79-3.79,2.73-5.66,2-3.68,3.19-5.43a75.06,75.06,0,0,1,7.65-10,72.76,72.76,0,0,1,19.92-15.27,90,90,0,0,1,23.54-8.24c16.29-3.35,33-3,49.2-.87a222.43,222.43,0,0,1,24.07,4.7A198.63,198.63,0,0,1,354.38,117.46Z"/><path class="cls-19" d="M363.34,104.37a74,74,0,0,1,24.75-19.11,60.35,60.35,0,0,1,15.05-4.93,61.41,61.41,0,0,1,15.91-.71,69.67,69.67,0,0,1,29.77,11l3.31,2.23a35.28,35.28,0,0,1,3.23,2.33l3.11,2.48c1,.84,2.1,1.63,3,2.56,1.94,1.8,3.92,3.57,5.82,5.41l5.48,5.74c.94.93,1.74,2,2.61,3l2.56,3c.84,1,1.73,2,2.53,3l2.39,3.16,2.39,3.15c.78,1.06,1.61,2.1,2.33,3.2l4.43,6.55c1.52,2.15,2.86,4.42,4.24,6.66l4.14,6.72,8,13.47q16,26.9,32.72,53.43c11,17.77,22.11,35.48,32.7,53.56,5.28,9,10.43,18.18,15.31,27.47s9.52,18.7,13.76,28.31a326.71,326.71,0,0,1,19.88,59.69q3.38,15.38,5.34,31c.58,5.21,1.21,10.41,1.57,15.63s.61,10.44.89,15.66c-.53-5.2-.93-10.41-1.64-15.59s-1.37-10.35-2.13-15.51c-1.7-10.29-3.81-20.51-6.41-30.59s-5.68-20-9.21-29.81-7.48-19.4-11.85-28.84a600,600,0,0,0-29.59-55c-10.66-17.92-21.8-35.59-32.87-53.32s-22-35.61-32.53-53.67L496.5,152.1l-4-6.67c-1.33-2.22-2.63-4.47-4.1-6.61l-4.29-6.48c-1.43-2.16-3-4.18-4.53-6.29l-2.29-3.14c-.77-1-1.62-2-2.43-3l-2.45-3c-.83-1-1.59-2-2.49-3A119.68,119.68,0,0,0,447,93.31a67.07,67.07,0,0,0-28.27-11.26,56.56,56.56,0,0,0-30.14,4.41,73.31,73.31,0,0,0-13.52,7.65c-1.07.74-2.09,1.55-3.14,2.32s-2,1.62-3,2.49A62.83,62.83,0,0,0,363.34,104.37Z"/><path class="cls-19" d="M378.19,102.61a94.69,94.69,0,0,1,31.93-5.71c1.36-.06,2.72,0,4.08,0s2.73,0,4.09.13l4.08.26,4.07.45c1.36.12,2.7.34,4.05.56s2.7.43,4,.67l4,.86,2,.43,2,.53A136.14,136.14,0,0,1,472.9,113a164.41,164.41,0,0,1,27,18.65l3.11,2.68c1,.91,2.1,1.76,3.07,2.73l5.92,5.67c1,.92,1.91,2,2.86,2.94l2.8,3,2.8,3,2.66,3.12c1.76,2.09,3.56,4.15,5.29,6.26l5,6.48c.83,1.08,1.68,2.15,2.49,3.25l2.35,3.34,4.72,6.7c3,4.57,5.92,9.17,8.77,13.78l8.49,13.84,17.1,27.6c11.35,18.45,22.81,36.85,33.5,55.77,5.31,9.48,10.39,19.11,15,29A258.78,258.78,0,0,1,638,351.14a209.39,209.39,0,0,1,7.77,31.79,233.6,233.6,0,0,1,2.89,32.53c.2,10.87-.23,21.73-1,32.55-.48,5.4-.93,10.8-1.6,16.18s-1.42,10.74-2.14,16.11c.47-5.4,1.06-10.78,1.39-16.18s.74-10.79,1-16.19c.44-10.81.5-21.62-.08-32.38a222.21,222.21,0,0,0-11.91-63.16c-7.07-20.29-16.89-39.54-27.64-58.24S584.46,257.07,573,238.68L556,211l-8.45-13.89c-1.39-2.33-2.85-4.56-4.28-6.85l-4.3-6.81-4.57-6.64-2.28-3.32c-.78-1.1-1.61-2.15-2.42-3.22l-4.85-6.43c-1.68-2.09-3.42-4.13-5.13-6.2a207.45,207.45,0,0,0-22.43-23,166.52,166.52,0,0,0-26-18.76,134.47,134.47,0,0,0-29.43-12.71l-1.92-.59-1.95-.49-3.91-1c-1.31-.28-2.63-.52-3.94-.79s-2.64-.53-4-.69l-4-.58-4-.4c-1.34-.15-2.68-.2-4-.27s-2.68-.16-4-.14a107.5,107.5,0,0,0-16.13.9c-2.67.37-5.34.78-8,1.36A65.94,65.94,0,0,0,378.19,102.61Z"/><path class="cls-19" d="M362.17,77.61A90.12,90.12,0,0,1,387.4,65.3a101.87,101.87,0,0,1,27.94-4.67A107.07,107.07,0,0,1,470,74.55a140.53,140.53,0,0,1,23.31,16.22c3.68,3,7,6.34,10.41,9.59,1.75,1.59,3.27,3.4,4.89,5.11l4.75,5.23a250.19,250.19,0,0,1,31.23,46.61c-10.46-15.47-21.56-30.43-34.14-44l-4.87-4.93c-1.64-1.62-3.16-3.36-4.91-4.87-3.42-3.09-6.73-6.3-10.39-9.09l-2.67-2.18c-.89-.73-1.77-1.47-2.72-2.12l-5.59-4c-.47-.32-.92-.68-1.4-1l-1.46-.9-2.92-1.82-2.91-1.82c-1-.57-2-1.08-3-1.63l-3-1.63c-1-.55-2-1.11-3.05-1.56l-6.24-2.84-6.41-2.4c-1.05-.44-2.17-.69-3.26-1l-3.27-1a106.77,106.77,0,0,0-27-4c-2.29,0-4.57.07-6.87.1l-3.42.28c-1.15.11-2.3.14-3.43.32-2.28.3-4.57.55-6.82,1-1.13.22-2.27.37-3.39.65l-3.37.77A103.87,103.87,0,0,0,362.17,77.61Z"/><path class="cls-19" d="M362.17,50.26a98.85,98.85,0,0,1,23.26-9,119.64,119.64,0,0,1,24.87-3.64,117.59,117.59,0,0,1,25.19,1.68,124,124,0,0,1,24.31,7,144.85,144.85,0,0,1,22.33,11.83c1.75,1.18,3.43,2.44,5.15,3.65l2.56,1.84c.84.64,1.64,1.32,2.46,2l4.88,4c1.57,1.4,3.08,2.85,4.62,4.28a178.6,178.6,0,0,1,31.11,39A249.29,249.29,0,0,0,499.19,76.7c-1.57-1.32-3.11-2.67-4.69-4L489.63,69c-.82-.62-1.61-1.26-2.44-1.85l-2.54-1.72c-1.7-1.12-3.36-2.3-5.09-3.39a145.36,145.36,0,0,0-21.65-11.18,123.66,123.66,0,0,0-23.29-7,126.31,126.31,0,0,0-24.25-2.43h-3.06c-1,0-2,.09-3.06.13s-2,.08-3.06.15l-3.06.25c-4.08.31-8.13.91-12.18,1.62A122.08,122.08,0,0,0,362.17,50.26Z"/><path class="cls-19" d="M358.65,28.38a89.66,89.66,0,0,1,18.44-9,111.14,111.14,0,0,1,61.41-4.11,111.45,111.45,0,0,1,19.82,6.38l2.4,1,2.33,1.15c1.55.77,3.11,1.52,4.65,2.32,3,1.74,6.07,3.33,8.89,5.33a136.43,136.43,0,0,1,30.54,27.43,199.89,199.89,0,0,0-32.58-24.1l-2.17-1.27c-.73-.42-1.49-.77-2.23-1.16L465.7,30c-1.51-.72-3.05-1.39-4.56-2.08l-2.29-1L456.51,26a111.92,111.92,0,0,0-19.08-5.88c-3.24-.79-6.53-1.29-9.82-1.81l-5-.55c-1.66-.15-3.33-.2-5-.34a126.43,126.43,0,0,0-20,.58c-3.33.33-6.64.89-9.95,1.47-1.66.28-3.3.66-4.95,1s-3.28.77-4.91,1.22A119.82,119.82,0,0,0,358.65,28.38Z"/><path class="cls-19" d="M353.18,1.81a112,112,0,0,1,28.59-13.6,110.25,110.25,0,0,1,31.48-5.47,86.65,86.65,0,0,1,16.07,1.11c1.32.25,2.66.4,4,.73l3.93.93A72.86,72.86,0,0,1,444.87-12,70.06,70.06,0,0,1,471.18,5.72c-8.59-6.09-17.75-11.08-27.58-14-1.22-.38-2.44-.77-3.69-1s-2.48-.64-3.72-.91l-3.77-.7c-1.24-.27-2.52-.36-3.78-.55l-1.9-.26-1.91-.16c-1.27-.08-2.54-.25-3.82-.27l-3.83-.14-3.83,0A142.07,142.07,0,0,0,382.83-8,199.74,199.74,0,0,0,353.18,1.81Z"/><path class="cls-19" d="M342.24,84.64c-2.62-1.33-5.31-2.53-8-3.6S328.73,78.91,326,78a163.5,163.5,0,0,0-16.89-4.74c-1.41-.36-2.86-.6-4.29-.9s-2.85-.61-4.29-.81c-2.89-.41-5.76-1-8.66-1.19l-4.34-.46-4.36-.27c-1.45-.07-2.9-.22-4.35-.22l-4.35,0a141.74,141.74,0,0,0-66.68,16.79l-7.59,4.21-7.29,4.74L191,96.29c-.61.38-1.16.86-1.75,1.28l-3.47,2.63c-2.3,1.77-4.68,3.43-6.84,5.39l-6.61,5.68c-1.14.92-2.11,2-3.17,3l-3.11,3.06c-4.27,4-8,8.44-12,12.73-2,2.1-3.76,4.46-5.61,6.72L143,143.61c-1.75,2.34-3.44,4.73-5.16,7.1s-3.47,4.73-5.12,7.15c-3.19,4.91-6.44,9.8-9.59,14.76q-4.47,7.6-9,15.17,3.86-7.93,7.83-15.86c1.35-2.62,2.89-5.14,4.33-7.71l4.4-7.7c1.53-2.52,3.21-5,4.81-7.44s3.22-5,4.89-7.41l5.32-7.12c1.8-2.35,3.48-4.8,5.46-7,3.87-4.5,7.57-9.16,11.87-13.29l3.12-3.19c1.06-1,2-2.17,3.17-3.13l6.66-6c2.16-2.06,4.62-3.77,7-5.61l3.56-2.72c.6-.44,1.16-.93,1.79-1.34l1.87-1.23,7.48-4.94,7.81-4.4a146,146,0,0,1,33.5-12.66,136.18,136.18,0,0,1,35.57-3.6,146.58,146.58,0,0,1,35.19,5.39l4.26,1.27c1.42.43,2.81.94,4.22,1.4s2.8,1,4.18,1.51,2.76,1,4.12,1.64A112.33,112.33,0,0,1,342.24,84.64Z"/><path class="cls-19" d="M339.51,64.32c-2.42-1.24-4.91-2.34-7.41-3.41s-5-2.08-7.55-3c-5.07-1.91-10.2-3.66-15.4-5.15a198.78,198.78,0,0,0-31.65-6.56,166.89,166.89,0,0,0-32.14-.87,147.07,147.07,0,0,0-46.6,11.05c-4.92,2.1-9.71,4.49-14.4,7.06s-9.2,5.48-13.6,8.55l-3.25,2.37-1.63,1.19-1.58,1.25-3.17,2.48L158,81.84c-16.38,14-30.23,30.88-42.41,48.91a213.51,213.51,0,0,1,17.72-27.5,180,180,0,0,1,22.11-24.33A156.51,156.51,0,0,1,168.19,68.4q6.69-4.87,13.83-9.1a150.82,150.82,0,0,1,14.82-7.44,146.6,146.6,0,0,1,15.59-5.67,144.22,144.22,0,0,1,32.64-5.6,157.24,157.24,0,0,1,33,1.73,177.47,177.47,0,0,1,31.87,8.09c5.15,1.85,10.23,3.89,15.19,6.2A129.41,129.41,0,0,1,339.51,64.32Z"/><path class="cls-19" d="M333.65,44.79a197.14,197.14,0,0,0-24.42-11A206.56,206.56,0,0,0,283.74,26a171.13,171.13,0,0,0-26.18-4,134.06,134.06,0,0,0-52.06,6,143.21,143.21,0,0,0-24.06,10.8c-15.21,9-28.77,20.77-40.81,34.08A144.13,144.13,0,0,1,179.42,35.5c3.94-2.25,7.77-4.77,12-6.59l3.08-1.48,1.54-.74,1.6-.63,6.37-2.5a132.62,132.62,0,0,1,26.67-6.06,143.6,143.6,0,0,1,54.06,4.76,174,174,0,0,1,25.47,9.26A146.87,146.87,0,0,1,333.65,44.79Z"/><path class="cls-19" d="M332.87,27.6c-1.69-1.21-3.43-2.33-5.2-3.42S324.15,22,322.36,21Q317,17.9,311.44,15.2a177.48,177.48,0,0,0-22.78-9.29A148.07,148.07,0,0,0,264.89.24a127.41,127.41,0,0,0-24.28-1.39,121.47,121.47,0,0,0-46.93,11.82C179,17.8,165.5,27.47,153.14,38.54A139.28,139.28,0,0,1,191.92,7.19a29.75,29.75,0,0,1,2.81-1.44l2.85-1.36,2.87-1.34c.94-.47,2-.77,2.93-1.17l5.93-2.25,6.07-1.82a119.49,119.49,0,0,1,25-4,127.58,127.58,0,0,1,25.24,1.73A133.5,133.5,0,0,1,290,2.25a148.27,148.27,0,0,1,22.64,10.8c3.59,2.14,7.13,4.35,10.51,6.79A103,103,0,0,1,332.87,27.6Z"/><path class="cls-19" d="M332.08,5.72c-1.18-1.23-2.42-2.39-3.7-3.51S325.84,0,324.53-1.11c-2.62-2.15-5.28-4.23-8.06-6.14a122.37,122.37,0,0,0-17.31-10.23,99.61,99.61,0,0,0-38.28-10.1,90.18,90.18,0,0,0-19.83.88l-2.47.33-2.45.49c-1.62.35-3.27.62-4.89,1l-4.82,1.32c-1.63.38-3.21.95-4.79,1.48A176,176,0,0,0,185.18-4.54,125.22,125.22,0,0,1,220.3-25.73a96.69,96.69,0,0,1,9.84-3.37c1.66-.47,3.37-.82,5.06-1.24l2.54-.6,2.57-.43a91,91,0,0,1,20.85-1.2A93.37,93.37,0,0,1,281.76-29a98.38,98.38,0,0,1,19.18,8.08c1.52.83,3,1.75,4.49,2.61s2.91,1.87,4.34,2.84c2.81,2,5.58,4.06,8.19,6.3a100.28,100.28,0,0,1,7.51,7.06A71.58,71.58,0,0,1,332.08,5.72Z"/><path class="cls-19" d="M369.59,123.71a68.22,68.22,0,0,1,42-11.58,71,71,0,0,1,21.7,4.71,87.83,87.83,0,0,1,19.57,10.61,100.59,100.59,0,0,1,8.75,6.91q4.2,3.67,8.05,7.69a166,166,0,0,1,14.32,17c4.4,6,8.48,12.15,12.3,18.49a188.18,188.18,0,0,1,10.4,19.66,216.61,216.61,0,0,1,14.11,42.15,326,326,0,0,1,6.76,43.88c2.59,29.49,2.09,59.07.77,88.49s-3.8,58.78-6.13,88.1l-3.55,44c-1.16,14.66-2.15,29.28-2.71,43.95s-.75,29.34-.53,44,.85,29.34,2.08,44,2.84,29.22,5.28,43.71q1.82,10.86,4.27,21.61a198.05,198.05,0,0,0,5.88,21.23c-5.24-13.76-8.62-28.17-11.47-42.6S516.54,650.62,515,636a690.88,690.88,0,0,1-3-88.33c.17-7.37.49-14.73.84-22.09s.88-14.72,1.41-22l3.19-44c2.23-29.32,4.52-58.64,5.9-88s1.9-58.7-.46-87.86a320.28,320.28,0,0,0-6.32-43.32,223.93,223.93,0,0,0-13.31-41.57,181.62,181.62,0,0,0-9.92-19.46c-3.67-6.32-7.6-12.48-11.85-18.41-8.48-11.86-18.35-22.81-30-31.52a86.34,86.34,0,0,0-18.85-10.83,69.57,69.57,0,0,0-21.12-5.13,68.3,68.3,0,0,0-21.73,1.79,69.84,69.84,0,0,0-10.43,3.41A57.25,57.25,0,0,0,369.59,123.71Z"/><path class="cls-19" d="M379.51,103.2a41.39,41.39,0,0,1,15.09-8.15A55.85,55.85,0,0,1,411.76,93c11.6.32,23,3.3,33.7,7.58a197.81,197.81,0,0,1,30.6,16.16,212.17,212.17,0,0,1,27.29,21.36,215.11,215.11,0,0,1,23.19,25.81l5.09,7c1.66,2.38,3.16,4.86,4.75,7.28.76,1.24,1.61,2.41,2.31,3.69l2.15,3.78c1.41,2.53,2.92,5,4.15,7.63s2.62,5.18,3.85,7.81l3.4,8c.28.67.58,1.33.84,2l.73,2,1.48,4.09,1.47,4.1,1.23,4.18c3.49,11.1,5.6,22.5,7.6,33.81s3.65,22.63,6.11,33.72a160.73,160.73,0,0,0,10.35,32.21c4.61,10.32,10.29,20.22,16,30.16s11.5,19.94,16.16,30.56a188.49,188.49,0,0,1,16.06,67.07,192.89,192.89,0,0,1-1.38,34.49c-.44,2.84-.83,5.69-1.31,8.52s-1.1,5.65-1.7,8.45l-2.13,8.35-2.52,8.22,2.15-8.32,1.76-8.4,1.41-8.46c.38-2.83.68-5.68,1-8.51a194.46,194.46,0,0,0-16.92-99.79c-9.57-20.58-23.18-39.25-32.92-60.39a141.56,141.56,0,0,1-6.29-16.29c-.92-2.76-1.67-5.57-2.46-8.36s-1.44-5.62-2.05-8.45c-2.54-11.29-4.3-22.67-6.26-33.93s-4-22.46-7.36-33.26a185.84,185.84,0,0,0-12.53-31.51c-1.17-2.58-2.62-5-4-7.5l-2.06-3.71c-.67-1.26-1.49-2.42-2.22-3.63-1.53-2.38-3-4.82-4.57-7.16L523,166.48a225,225,0,0,0-22.37-25.61,217.78,217.78,0,0,0-26.41-21.47,197.76,197.76,0,0,0-29.75-16.62c-10.38-4.54-21.44-7.83-32.8-8.51a55,55,0,0,0-16.9,1.5A41,41,0,0,0,379.51,103.2Z"/><path class="cls-19" d="M356,120l-3.92-2.25c-1.31-.75-2.59-1.54-4-2.17-2.71-1.3-5.37-2.72-8.19-3.79l-4.16-1.73-4.26-1.47c-2.82-1.06-5.75-1.75-8.63-2.58-1.43-.44-2.92-.69-4.38-1l-4.4-.93-4.45-.66c-1.48-.22-2.95-.48-4.45-.57-3-.25-6-.6-8.95-.6l-4.49-.12-4.48.15c-3,0-5.95.39-8.93.63-1.49.09-2.95.39-4.43.59l-4.42.68a121.4,121.4,0,0,0-17.24,4.63,119.61,119.61,0,0,0-31.42,16.59,158.73,158.73,0,0,0-26.15,24.22,219.46,219.46,0,0,0-21.08,28.91c-1.53,2.57-3.11,5.1-4.57,7.72l-2.22,3.9-2.13,4c-1.45,2.62-2.75,5.32-4.09,8s-2.73,5.34-3.93,8.09l-3.72,8.17-3.45,8.3c-.56,1.39-1.18,2.75-1.69,4.16L146.21,235l-1.57,4.21-.79,2.1-.71,2.13L140.26,252c-.92,2.84-1.73,5.73-2.61,8.59l-1.27,4.31-1.14,4.35c-.74,2.9-1.58,5.78-2.23,8.7-2.81,11.66-4.88,23.47-6.58,35.33s-2.57,23.84-3.05,35.82c-.09,6-.28,12-.09,18,0,6,.43,12,.71,18,1.65,23.95,5.71,47.73,10.95,71.24,2.58,11.76,5.46,23.47,8.49,35.14l4.65,17.49,4.67,17.49-5.4-17.28q-2.64-8.65-5.19-17.34c-3.4-11.59-6.66-23.22-9.61-34.94-5.83-23.45-10.44-47.31-12.45-71.5-1-12.1-1.36-24.24-1.11-36.38s1.22-24.26,2.73-36.32c.37-3,.87-6,1.31-9l.69-4.51.83-4.47c.58-3,1.06-6,1.72-8.95l2-8.89c.65-3,1.49-5.89,2.22-8.84l1.15-4.41,1.28-4.37c.87-2.91,1.69-5.84,2.62-8.73l2.89-8.64.73-2.16.8-2.13,1.61-4.26,1.61-4.27c.52-1.42,1.15-2.81,1.72-4.22l3.53-8.4,3.8-8.28c1.23-2.78,2.66-5.46,4-8.18s2.7-5.45,4.18-8.1l2.18-4,2.27-4c1.48-2.65,3.14-5.21,4.72-7.81a223,223,0,0,1,21.8-29.31,155.45,155.45,0,0,1,27.18-24.49,119.52,119.52,0,0,1,68.63-22.4C311.54,99.6,335.94,106.5,356,120Z"/><path class="cls-19" d="M351.82,118.34c-8.06-2.63-16.15-5.18-24.32-7.43a249.86,249.86,0,0,0-24.72-5.69A142.74,142.74,0,0,0,277.62,103a92.82,92.82,0,0,0-24.85,3.28A83.22,83.22,0,0,0,241,110.5a77.92,77.92,0,0,0-10.87,6.13,86.94,86.94,0,0,0-18.34,16.87c-10.62,12.95-18.14,28.2-24.41,43.8-3.15,7.81-6,15.77-8.71,23.78s-5.49,16-8.15,24.06c-5.33,16.07-10.36,32.22-14.59,48.56a381.62,381.62,0,0,0-9.75,49.55,235.75,235.75,0,0,0-1.06,50.23,190.15,190.15,0,0,0,11.05,48.85c5.7,15.8,13,31.06,20.48,46.23s15.3,30.26,22.3,45.8c3.48,7.77,6.79,15.64,9.65,23.7a225.08,225.08,0,0,1,7.13,24.64,216.73,216.73,0,0,1,5.39,50.87,220.56,220.56,0,0,1-6.41,50.67A225,225,0,0,1,169,754.46a228.46,228.46,0,0,0,14.57-20.82,229.27,229.27,0,0,0,12.23-22.21,225.72,225.72,0,0,0,16.58-47.75A219.79,219.79,0,0,0,218,613.56a213.4,213.4,0,0,0-6-50,222.16,222.16,0,0,0-7.33-24.09c-2.89-7.89-6.2-15.65-9.7-23.32-7-15.34-14.92-30.33-22.55-45.5s-15-30.59-20.84-46.68a194.62,194.62,0,0,1-11.42-50.06,239.4,239.4,0,0,1,1.19-51.27,375.09,375.09,0,0,1,10-50.16c4.39-16.46,9.56-32.67,15-48.75q4.09-12.06,8.35-24.05c2.86-8,5.81-16,9.1-23.86,6.57-15.69,14.43-31.16,25.55-44.36a90.07,90.07,0,0,1,19.2-17.19,80.82,80.82,0,0,1,11.34-6.19,79.2,79.2,0,0,1,12.2-4.2,95,95,0,0,1,25.49-2.81A145,145,0,0,1,303,103.92a248.57,248.57,0,0,1,24.69,6.27C335.83,112.68,343.84,115.47,351.82,118.34Z"/></g></svg>