<svg id="Layer_2" data-name="Layer 2" xmlns="http://www.w3.org/2000/svg" xmlns:xlink="http://www.w3.org/1999/xlink" viewBox="0 0 720 720"><defs><style>.cls-1{fill:none;}.cls-2{clip-path:url(#clip-path);}.cls-3{fill:#29282d;}.cls-4{fill:#111;}.cls-5{fill:#d1bfba;}.cls-6{fill:#c9b1a9;}.cls-7{fill:#937372;}.cls-8{fill:#4c3838;}.cls-9{fill:#f2f2f2;}.cls-10{fill:#ca8dff;}.cls-11{fill:#7f6563;}.cls-12{fill:#a25c6c;}.cls-13{fill:#704852;}.cls-14{fill:#590099;}</style><clipPath id="clip-path"><rect class="cls-1" width="720" height="720"/></clipPath></defs><title>16-01</title><rect width="720" height="720"/><g class="cls-2"><path class="cls-3" d="M593,733.41c-2.17,30.36-4.68,61.88-19.78,88.3-10.39,18.19-26.21,32.8-43.6,44.48a207.78,207.78,0,0,1-109.4,35c-24.5.67-48.95-3-72.85-8.47a501.84,501.84,0,0,1-176.61-78.52c-9.35-6.57-19.29-14.88-20.17-26.27-.94-12.16,8.81-22.31,12.39-34,4.05-13.2,0-26.3-5.06-39.54,6.36-32.25,7.12-67,5.38-102.35-.44-9-1-18.08-1.75-27.15,8.87,3.5,15.71,11.48,21,19.58,6.07,9.27,10.41,19.61,16.84,28.63,11.11,15.59,27.95,26.42,45.91,33.06s37.09,9.36,56.14,11.24c91.9,9.08,189.44-5.24,277.44-33.21C596.63,669.29,595.16,702.74,593,733.41Z"/><path class="cls-3" d="M576.43,696.46c-5.48,18.25-15.7,36.06-32.25,45.51-19,10.87-42.58,8.84-64.25,5.49A722.49,722.49,0,0,1,200,641.15c-13.11-8.44-26.27-17.68-36.69-29.1-.72-14.82-1.88-29.76-3.26-44.66,30.49-14,45.22-43.3,48.45-66.32.43-3.06.74-6.13.92-9.18,0-.32,0-.65,0-1,1.88-34.72-8.25-68.85-13.86-103.19-.19-1.21-.39-2.42-.57-3.63a21.18,21.18,0,0,1,10.89,4.5c12.63,9.76,14.92,34.75,19.31,49.15,11,35.93,22.24,72.56,43.93,103.24s55.93,55,93.5,54.87c29-.07,55.75-14.16,82.48-25.36,22.66-9.49,47.92-37,71.41-38.44a98.65,98.65,0,0,0,7.38,18.43c9,17,23.56,30.35,36.14,45a225.27,225.27,0,0,1,14.46,18.71c.2.63.41,1.24.61,1.83A133.51,133.51,0,0,1,576.43,696.46Z"/><path class="cls-4" d="M454,605.61a122.48,122.48,0,0,0-9.58,22.3,119.75,119.75,0,0,0-5,23.61c-.2,2-.32,4-.34,6a48.76,48.76,0,0,0,.24,5.93,32.55,32.55,0,0,0,3.08,11.22,27.86,27.86,0,0,0,3.15,4.81,34.43,34.43,0,0,0,4.12,4.16c3,2.6,6.31,4.88,9.58,7.39a81.24,81.24,0,0,1,16.92,18,85.19,85.19,0,0,1,14.73,46.45,76.62,76.62,0,0,1-3.53,24.15,81.6,81.6,0,0,0,2.06-24.1A87.93,87.93,0,0,0,484.76,732a83.35,83.35,0,0,0-27.31-38.61c-3.16-2.46-6.53-4.8-9.67-7.56a31.22,31.22,0,0,1-7.88-9.92,35.32,35.32,0,0,1-3.15-12.22,57.84,57.84,0,0,1,.4-12.42A110.74,110.74,0,0,1,454,605.61Z"/><path class="cls-4" d="M416.31,622.79a37.26,37.26,0,0,0-6.66,21.44,54.53,54.53,0,0,0,1.06,11.26,67.89,67.89,0,0,0,3.23,10.84A88.23,88.23,0,0,0,425.19,686c4.47,6.16,9.39,12,14.27,18a185.58,185.58,0,0,1,13.72,18.7,118,118,0,0,1,10.27,20.85,120,120,0,0,1,6,22.39c.58,3.82,1.06,7.65,1.28,11.5a105.62,105.62,0,0,1,.17,11.53,131.63,131.63,0,0,0-9.65-44.56,124.78,124.78,0,0,0-10.49-20.2,192.14,192.14,0,0,0-13.65-18.32c-4.81-6-9.76-11.88-14.24-18.21a112.62,112.62,0,0,1-6.25-9.83,67.34,67.34,0,0,1-7.86-21.95,55.59,55.59,0,0,1-.59-11.67A36.55,36.55,0,0,1,416.31,622.79Z"/><path class="cls-4" d="M379.23,624.87a56.4,56.4,0,0,0-1.47,9.71,57.6,57.6,0,0,0,.47,9.74,70.12,70.12,0,0,0,2,9.52,89.88,89.88,0,0,0,3.3,9.15c1.31,3,2.77,5.87,4.32,8.72s3.33,5.58,5.14,8.28c3.64,5.41,7.6,10.62,11.67,15.77s8.15,10.34,12.06,15.67c1.94,2.69,3.83,5.41,5.64,8.19s3.48,5.67,5,8.61,3,6,4.19,9a81.46,81.46,0,0,1,3.06,9.5,68.17,68.17,0,0,1,1.56,9.83,52.67,52.67,0,0,1-.24,9.89,64.19,64.19,0,0,0-.55-9.81,65.68,65.68,0,0,0-2.19-9.52,83,83,0,0,0-3.45-9.13q-2-4.44-4.43-8.69c-1.63-2.81-3.37-5.57-5.18-8.28s-3.75-5.34-5.72-8c-3.94-5.22-8.06-10.34-12.14-15.51s-8-10.49-11.67-16.06c-1.79-2.8-3.5-5.65-5.08-8.59a91,91,0,0,1-4.17-9.09,79.38,79.38,0,0,1-3-9.53,68.67,68.67,0,0,1-1.6-9.86,58.21,58.21,0,0,1,.19-10A46.61,46.61,0,0,1,379.23,624.87Z"/><path class="cls-4" d="M355.5,626.71c.25,11.63,3,22.93,7,33.71q3,8.1,6.67,16c2.39,5.25,4.9,10.46,7.45,15.67s5,10.47,7.39,15.79,4.59,10.72,6.45,16.26c3.77,11,6.22,22.73,5.6,34.37-.64-11.62-3.68-22.83-7.8-33.57q-3.13-8-6.83-15.89c-2.43-5.24-5-10.44-7.51-15.65-5-10.46-10-21-13.62-32.17S354.5,638.32,355.5,626.71Z"/><path class="cls-4" d="M365.44,737.69c-2-12-6.52-23.33-11.91-34.12q-4.08-8.09-8.57-16c-2.95-5.3-5.92-10.6-8.79-16-5.66-10.8-10.62-22.15-13.31-34.17a75.68,75.68,0,0,1-2-18.3,54.52,54.52,0,0,1,3.33-18,61.29,61.29,0,0,0-1.86,18,82.73,82.73,0,0,0,2.76,17.76,126.42,126.42,0,0,0,5.9,17c2.32,5.55,5,11,7.79,16.31s5.76,10.66,8.63,16,5.68,10.78,8.19,16.36C360.69,713.65,364.7,725.49,365.44,737.69Z"/><path class="cls-4" d="M317.25,716.12c-5.42-10.8-10.57-21.74-15.18-32.94a259.78,259.78,0,0,1-11.72-34.42,169.84,169.84,0,0,1-5.45-36,152.76,152.76,0,0,1,2.82-36.18,210.83,210.83,0,0,0-.48,36c.5,6,1.14,11.94,2.22,17.83s2.27,11.77,3.79,17.57,3.17,11.57,5.05,17.28,3.86,11.38,5.94,17C308.42,693.63,313,704.81,317.25,716.12Z"/><path class="cls-4" d="M273.52,700.33a313.27,313.27,0,0,1-10.65-37.75l-2-9.62-1.69-9.68-1.4-9.72-1.16-9.76-.87-9.79-.61-9.81-.32-9.82c0-3.27-.06-6.55-.06-9.82a312.07,312.07,0,0,1,2.73-39.13q-.86,19.59-.39,39.11c.13,3.26.25,6.51.34,9.76l.53,9.75.71,9.73.92,9.71,1.08,9.7,1.3,9.67,1.47,9.65,1.66,9.62Q268.71,681.33,273.52,700.33Z"/><path class="cls-4" d="M231,671.63c-1.9-11.77-3.12-23.66-3.84-35.58l-.44-8.95-.26-9,0-9,.11-9,.33-9,.49-8.95.7-8.93q.42-4.46.89-8.91a354.1,354.1,0,0,1,5.6-35.35c-1.25,11.86-2.41,23.7-3.27,35.56q-.27,4.45-.6,8.9l-.48,8.9-.4,8.9-.26,8.91-.19,8.9,0,8.92,0,8.91.15,8.91C229.77,647.84,230.33,659.72,231,671.63Z"/><path class="cls-4" d="M115.73,950.23a138.78,138.78,0,0,0,30.19-17.59,161.29,161.29,0,0,0,25.34-23.93,201.77,201.77,0,0,0,20.26-28.34A225,225,0,0,0,207,849.12c8.75-21.6,14.54-44.3,19-67.22,2.23-11.46,4.07-23,5.74-34.59s3.23-23.18,4.89-34.78c-1,11.67-2.16,23.32-3.43,35s-3,23.25-4.93,34.82-4.42,23.06-7.41,34.43a295.62,295.62,0,0,1-11.07,33.49c-8.86,21.81-21,42.43-36.76,60a162,162,0,0,1-26.19,23.59A131.82,131.82,0,0,1,115.73,950.23Z"/><path class="cls-4" d="M470,648.09a33,33,0,0,0-1.34,4.27,20.13,20.13,0,0,0-.47,2.18l-.31,2.19a35.08,35.08,0,0,0,.3,8.81,34.25,34.25,0,0,0,2.44,8.39,33.06,33.06,0,0,0,4.37,7.5,14.66,14.66,0,0,0,1.37,1.67l1.46,1.59a32.13,32.13,0,0,0,3.28,2.78,29.74,29.74,0,0,0,7.54,4.1c5.42,2.13,11.31,3.3,17.09,5.39a36,36,0,0,1,8.32,4.21,31.08,31.08,0,0,1,6.78,6.47,41.35,41.35,0,0,1,7.43,16.83,63.38,63.38,0,0,1,.71,18.17,160.62,160.62,0,0,1-2.89,17.78c.57-6,1.26-11.92,1.42-17.87A66.93,66.93,0,0,0,526,725a40.63,40.63,0,0,0-7.38-15.58,29.28,29.28,0,0,0-6.21-5.82,33.7,33.7,0,0,0-7.7-3.81c-5.46-2-11.39-3.23-17.11-5.57a32.52,32.52,0,0,1-8.07-4.64,33.25,33.25,0,0,1-3.48-3.12c-.52-.58-1-1.18-1.52-1.77a18.08,18.08,0,0,1-1.4-1.86,35.66,35.66,0,0,1-6.39-17.09l-.15-2.28c0-.76,0-1.53,0-2.29l0-1.14.13-1.13c.1-.76.15-1.52.31-2.26A31.33,31.33,0,0,1,470,648.09Z"/><path class="cls-4" d="M503.75,690.12a38.12,38.12,0,0,1,17.29.2,42.24,42.24,0,0,1,8.31,2.91A40.79,40.79,0,0,1,543.26,704a42.7,42.7,0,0,1,4.9,7.32A38,38,0,0,1,552.68,728a53.29,53.29,0,0,0-6.55-15.52,48.51,48.51,0,0,0-5-6.63,43.55,43.55,0,0,0-6.05-5.63,42.92,42.92,0,0,0-7-4.45,49.64,49.64,0,0,0-7.67-3.2A53,53,0,0,0,503.75,690.12Z"/><path class="cls-4" d="M501.32,675.9a65.64,65.64,0,0,1,1.57-28.54,70.08,70.08,0,0,1,5.27-13.51,72.58,72.58,0,0,1,8-12.13,140.69,140.69,0,0,0,8.71-11.1,31.68,31.68,0,0,0,3.21-6,22.7,22.7,0,0,0,1.5-6.54A24.94,24.94,0,0,0,516.88,575a23.12,23.12,0,0,1,11,9.13,25.19,25.19,0,0,1,4,14,23.12,23.12,0,0,1-1.38,7.36,35.05,35.05,0,0,1-3.28,6.64,134.2,134.2,0,0,1-8.76,11.44A74.56,74.56,0,0,0,505.13,648,79.51,79.51,0,0,0,501.32,675.9Z"/><path class="cls-4" d="M485,660.75a247,247,0,0,1-2.67-28.21c-.08-2.37-.16-4.73-.2-7.09l0-7.1.15-7.09.3-7.09.5-7.08.63-7.07.83-7q.47-3.53,1-7a244.69,244.69,0,0,1,5.81-27.73c-1.28,9.36-2.5,18.69-3.49,28q-.33,3.51-.7,7l-.61,7-.54,7-.42,7-.37,7-.25,7-.18,7c0,2.35-.05,4.7-.09,7C484.59,641.9,484.76,651.3,485,660.75Z"/><path class="cls-4" d="M515.4,680A97.07,97.07,0,0,0,524,666.31c.57-1.21,1.14-2.41,1.75-3.6l1.57-3.67c.45-1.25.94-2.49,1.41-3.73l1.22-3.8,1.06-3.84.86-3.89.69-3.93c.15-1.33.33-2.65.51-4a97.53,97.53,0,0,0,.27-16.14A52.46,52.46,0,0,1,535.44,636q-.09,2.07-.24,4.14l-.51,4.12-.8,4.07-1,4-1.33,3.93c-.52,1.29-1,2.58-1.57,3.85l-1.82,3.72c-.68,1.21-1.37,2.41-2.08,3.59A52.37,52.37,0,0,1,515.4,680Z"/><path class="cls-4" d="M536,683.57a26.84,26.84,0,0,1,14-2.89,29.76,29.76,0,0,1,7.23,1.29,28.69,28.69,0,0,1,12.46,7.72,30.3,30.3,0,0,1,4.38,5.9,26.89,26.89,0,0,1,3.64,13.85,37.44,37.44,0,0,0-5.63-12.6,33.9,33.9,0,0,0-4.4-5.15,31.94,31.94,0,0,0-11.34-7,34.92,34.92,0,0,0-6.57-1.65A37.38,37.38,0,0,0,536,683.57Z"/><path class="cls-4" d="M540.09,668.32A13.57,13.57,0,0,0,551.31,666a19.71,19.71,0,0,0,4.19-3.91,17.45,17.45,0,0,0,2.82-4.91,33.79,33.79,0,0,0,1.91-11.58c0-4-.31-8.13-.43-12.29a53.41,53.41,0,0,1,2.77,12.19,28.1,28.1,0,0,1-1.45,12.74,18.89,18.89,0,0,1-8.61,9.76,14.94,14.94,0,0,1-6.28,1.82A10.55,10.55,0,0,1,540.09,668.32Z"/><path class="cls-4" d="M209.39,643.44a69.63,69.63,0,0,1-4.64-18.14,100.3,100.3,0,0,1-.38-18.82c.83-12.55,3.51-24.85,6.41-37,1.49-6,3-12.08,4.31-18.13s2.54-12.12,3.44-18.24c1.75-12.21,2.11-24.72-.52-36.93a75,75,0,0,1,3.38,18.42,111.36,111.36,0,0,1-.54,18.8c-.63,6.24-1.75,12.42-3,18.55s-2.74,12.18-4.18,18.24-2.9,12.07-4.12,18.14-2.22,12.17-2.88,18.31C205.42,618.93,205.79,631.47,209.39,643.44Z"/><path class="cls-4" d="M180.58,615.35a138.63,138.63,0,0,0,5.15-16.14c.3-1.37.6-2.74.94-4.1l.78-4.12c.19-1.39.42-2.76.64-4.14l.46-4.17.34-4.17.16-4.19,0-4.2c-.07-1.4-.11-2.8-.14-4.2a136.14,136.14,0,0,0-2-16.82,65.22,65.22,0,0,1,4.31,16.61c.16,1.43.3,2.86.43,4.3l.19,4.32-.07,4.32-.28,4.32-.55,4.29c-.26,1.42-.49,2.85-.76,4.26l-1,4.2c-.4,1.39-.82,2.77-1.25,4.14A65.45,65.45,0,0,1,180.58,615.35Z"/><path class="cls-4" d="M121.5,895.82c2.1-1,4.25-2,6.27-3.15,1-.57,2.07-1.07,3-1.7l3-1.84a95.69,95.69,0,0,0,11.12-8.41,107.4,107.4,0,0,0,9.92-9.75c1.59-1.69,3-3.52,4.53-5.28s2.89-3.63,4.21-5.54a152.19,152.19,0,0,0,14.07-24q3-6.3,5.56-12.78c1.68-4.33,3.29-8.69,4.75-13.11,3-8.82,5.55-17.79,8-26.81s4.73-18.09,7.17-27.12q7.14-27.15,14.86-54.15-6,27.43-12.59,54.72c-4.39,18.18-8.62,36.46-14.57,54.31-1.5,4.46-3.14,8.87-4.87,13.25s-3.65,8.69-5.73,12.92a144.87,144.87,0,0,1-14.75,24.12c-1.39,1.9-2.93,3.69-4.41,5.53s-3.08,3.57-4.76,5.23a105.89,105.89,0,0,1-10.43,9.55,98.89,98.89,0,0,1-11.64,8A87.26,87.26,0,0,1,121.5,895.82Z"/><path class="cls-4" d="M198.6,640.3c2.86,7.49,5.36,15.19,6.38,23.29a48.66,48.66,0,0,1,.08,12.3,36.32,36.32,0,0,1-3.69,11.88,34.29,34.29,0,0,1-7.81,9.73,32.4,32.4,0,0,1-10.8,6.14,31.68,31.68,0,0,1-23.89-1.48,34.85,34.85,0,0,0,23.09-.72,32.87,32.87,0,0,0,16.76-15.07c3.61-6.77,4.5-14.74,3.94-22.55S200.27,648.15,198.6,640.3Z"/><path class="cls-4" d="M163.8,674.56c1.57-1.23,3.13-2.44,4.62-3.72s2.93-2.59,4.33-3.93,2.71-2.76,4-4.22,2.48-2.94,3.61-4.5l-.26.56c.94-4.45,2.06-8.85,3.25-13.24l.94-3.28,1-3.26c.7-2.17,1.4-4.34,2.25-6.48-.15,2.3-.45,4.56-.75,6.82l-.49,3.38-.57,3.36c-.8,4.47-1.68,8.93-2.74,13.35l-.08.32-.18.23a46.22,46.22,0,0,1-8.5,8.65,42.9,42.9,0,0,1-5,3.37A36.77,36.77,0,0,1,163.8,674.56Z"/><path class="cls-4" d="M131.88,855.43a43.51,43.51,0,0,1,6.25-8.88,72.94,72.94,0,0,1,7.92-7.5c5.65-4.58,11.68-8.61,17.39-12.94s11.05-9.11,14.81-15,5.6-12.76,6.37-19.79.83-14.29,1.16-21.51.57-14.43.94-21.64q1-21.64,2.57-43.27.18,21.68-.23,43.34c-.09,7.23-.29,14.44-.44,21.67l-.31,10.83c-.12,3.62-.3,7.27-.71,10.92a60.06,60.06,0,0,1-2.21,10.87,41.45,41.45,0,0,1-2,5.23,48.06,48.06,0,0,1-2.76,4.9c-.49.8-1.11,1.5-1.65,2.26a23,23,0,0,1-1.75,2.17,52,52,0,0,1-3.86,4,82.66,82.66,0,0,1-8.53,6.92c-5.92,4.23-12.09,8-17.89,12.21A57.57,57.57,0,0,0,131.88,855.43Z"/><path class="cls-5" d="M529,349.59c0,.32,0,.63,0,1q-.08,9.9-.24,19.8c-.38,24.35-1.06,48.71-1.74,73.05-.21,7.35-.17,14.78-.36,22.2-.36,14.28-1.54,28.47-6.78,41.67q-2.26,5.69-4.88,11.12-2.07,4.32-4.36,8.47c-10.61,19.32-24.59,36.28-41,51.6-17.88,16.71-33.84,24.07-45.47,29.08a75.28,75.28,0,0,1-7.64,2.87l-.05,0-1.12.34a55,55,0,0,1-5.83,1.4c-1.49.27-2.94.47-4.35.59a.11.11,0,0,1-.08,0c-3.07.29-9.21,1.46-15.83,1.75-9.36.4-16.56.74-20.48.84h-.23c-4.1-.07-12.72-.57-16.54-1.48-16.63-4-36.93-13.49-50.67-23.35-5.05-3.62-10.49-7.54-15.81-11.65a178.16,178.16,0,0,1-17.85-15.45c-16.14-16.41-27.55-34.36-41-52.87-7.92-10.9-12.79-23-16.85-35.62-.12-.39-.25-.81-.38-1.19l0-.05a.66.66,0,0,1,0-.14v-.06c1.83-33.25-8.27-65.94-13.87-98.82-.21-1.26-.42-2.51-.62-3.76s-.4-2.52-.58-3.77l-.15-1.05c-.14-.9-.26-1.81-.39-2.73-.09-.63-.18-1.26-.26-1.89v0l-.24-1.87c-.23-1.78-.44-3.58-.64-5.37-.06-.52-.12-1-.17-1.55-.12-1.12-.24-2.25-.35-3.38s-.22-2.3-.32-3.45-.2-2.27-.29-3.41v-.08c-.07-.85-.14-1.72-.2-2.58,0-.69-.1-1.39-.14-2.08-.14-2-.25-4.07-.35-6.12-.05-.92-.1-1.84-.13-2.75,0-1.29-.1-2.56-.14-3.85s-.08-2.88-.11-4.33c0-.23,0-.45,0-.68,0-.42,0-.84,0-1.27,0,0,0,0,0-.06,0-.45,0-.9,0-1.35,0-1.1,0-2.19,0-3.3,0-1.32,0-2.65,0-4,0-.77,0-1.53,0-2.29,0-2.31.09-4.63.17-6.93,0-.43,0-.86,0-1.3s0-.82.05-1.24,0-.68,0-1c0-.68.06-1.36.1-2,.1-2.05.22-4.08.35-6.12,0-.84.12-1.69.17-2.53a1.79,1.79,0,0,0,0-.23c.16-2.16.34-4.33.53-6.48q.27-2.9.57-5.78a.88.88,0,0,0,0-.17c.11-1,.22-2,.34-3,.16-1.39.33-2.78.51-4.16.07-.64.15-1.26.24-1.89.22-1.73.46-3.45.72-5.18.14-1,.28-1.92.43-2.88l.3-1.94c.11-.69.22-1.39.34-2.07s.19-1.16.29-1.73.22-1.29.33-1.94c0-.06,0-.13,0-.18.29-1.63.58-3.24.89-4.85a2.33,2.33,0,0,1,.05-.28c.27-1.45.56-2.9.85-4.35,0-.13,0-.26.08-.4l.63-3c.26-1.26.53-2.52.82-3.78.19-.88.39-1.75.59-2.61s.41-1.8.63-2.69.43-1.8.65-2.69.43-1.76.66-2.65.45-1.76.68-2.64c.17-.68.35-1.35.53-2,.06-.21.11-.42.17-.63.35-1.31.71-2.61,1.08-3.91.06-.25.13-.49.21-.73.37-1.34.76-2.68,1.16-4,.31-1.06.63-2.14,1-3.2l.39-1.27c.06-.21.13-.43.2-.65s.23-.72.34-1.09.27-.88.42-1.32l.42-1.34.09-.25c.43-1.34.87-2.66,1.31-4l.6-1.76c.42-1.25.86-2.5,1.29-3.74.27-.76.54-1.52.82-2.28l.63-1.74c.24-.65.48-1.31.73-2,.42-1.13.84-2.26,1.27-3.38l0-.09c.29-.76.59-1.53.9-2.3s.61-1.57.92-2.35q1.08-2.7,2.2-5.36c.41-1,.83-2,1.25-3,.05-.12.11-.26.17-.38.54-1.28,1.1-2.56,1.66-3.82l0-.11c.33-.76.67-1.51,1-2.27s.6-1.35.91-2l.11-.24c.66-1.43,1.32-2.86,2-4.28.6-1.26,1.2-2.53,1.82-3.79.41-.84.83-1.7,1.26-2.54s.79-1.58,1.19-2.38,1-1.86,1.49-2.82c.23-.44.47-.88.71-1.32.67-1.18,1.36-2.37,2.09-3.59l1.13-1.87c.7-1.13,1.42-2.27,2.18-3.43a185.76,185.76,0,0,1,27.49-33l-.09-.11c1-.92,2-1.81,3.05-2.69s2.26-1.87,3.38-2.76c2.15-1.77,4.32-3.42,6.49-4.92,2.33-1.71,4.68-3.42,7.14-5.28C293.57,77,301,71.2,308.65,65.33l1.5-1.16a24.72,24.72,0,0,1,6.16,3.8,39.82,39.82,0,0,1,5.23,5.32c7.48,9,21.91,33.24,5.06,39.59l-.62.22c1.85,3,3.53,6.1,5,9.2,11.1,23,19.84,48,38.7,65.75,23.43,22,57.89,28.58,86.32,44.26l.12.07h0a75.1,75.1,0,0,0,13,11.67c.22.17.45.32.68.48,17.61,12,30.05,31.56,41,49.89,3.84,6.45,7.7,12.93,10.59,19.85,1,2.48,2,5,2.74,7.56a248.38,248.38,0,0,1,4.71,26.65C528.88,348.86,528.92,349.22,529,349.59Z"/><path class="cls-6" d="M471,249.38c-1.06-.8-2.13-1.59-3.2-2.37l.32.23a18,18,0,0,0,1-3.18c-16-11.22-26.39-28.81-34.55-46.6-8.28-18-14.88-37-25.82-53.57C395.14,123.24,366,99.39,347.5,83a350.71,350.71,0,0,0-30.6-24.21c-2.28,1.8-4.52,3.59-6.75,5.38-3.95,3.16-7.83,6.3-11.74,9.44.8.53,1.69,1.17,2.6,1.84-2.39,2.08-5.11,6.37-7.14,5a0,0,0,0,1,0,0l-.07,0-2,1c-2.48,1.28-6.08,3.2-7.73,4.14l-.51.31-.37.23-.61.38C264.52,98,246,121,235,140.05c-.73,1.27-1.42,2.51-2.09,3.74l-.71,1.37c-.53,1-1,2-1.49,2.94q-2.19,4.52-4.27,9.08c-.68,1.48-1.34,3-2,4.46,0,.08-.07.16-.11.25-.65,1.48-1.3,3-1.93,4.47s-1.15,2.72-1.71,4.09q-1.86,4.52-3.62,9.09c-.31.81-.62,1.63-.92,2.45s-.63,1.66-.93,2.49c-.43,1.17-.85,2.34-1.27,3.52-.25.68-.49,1.37-.73,2.05l-.63,1.81c-.28.79-.55,1.58-.82,2.37-.43,1.3-.87,2.6-1.29,3.9l-.6,1.84q-1.34,4.16-2.58,8.33c-.07.23-.14.46-.2.68-.47,1.55-.92,3.11-1.35,4.66s-.79,2.8-1.16,4.2c-.08.25-.15.5-.21.76-.37,1.35-.73,2.71-1.08,4.07-.06.22-.11.44-.17.66-.18.7-.36,1.4-.53,2.1-.23.92-.46,1.84-.68,2.76s-.45,1.84-.66,2.76-.44,1.86-.65,2.8-.43,1.87-.63,2.8-.4,1.82-.59,2.72c-.29,1.32-.56,2.63-.82,3.94-.22,1-.42,2.08-.63,3.12q-1,5.23-1.9,10.48l-.33,2c-.1.6-.2,1.2-.29,1.81s-.23,1.43-.34,2.15l-.3,2c-.15,1-.29,2-.43,3-.21,1.48-.41,2.95-.6,4.44a47.26,47.26,0,0,0,10.45,8.66c10.19,6.18,33.32,12.93,41.24-.19,3.46-5.73,2.49-13.14,2.35-19.47-.22-10,.63-20.18,4.58-29.5,6.43-15.14,23.83-27,39.29-21.37,9.77,3.55,17,13.2,27.33,14.45,5.52.67,11-1.24,16.59-1.33,9.09-.14,17.47,4.52,25.35,9l43.53,25c13.19,7.57,27.08,15.35,42.28,15.89,12.93.46,27-6.22,32.27-17.48Q475.14,252.5,471,249.38Zm-7.85-5.57c-.82-.54-1.65-1.07-2.48-1.6C461.53,242.74,462.36,243.27,463.18,243.81Zm3.43,2.34c-.76-.54-1.53-1.07-2.3-1.59C465.08,245.08,465.85,245.61,466.61,246.15ZM456,239.39c-28.43-16.34-62.89-23.17-86.32-46.12-18.86-18.48-27.6-44.57-38.7-68.52-1.5-3.24-3.18-6.45-5-9.6A30.93,30.93,0,0,1,323.1,108c2.58,5.66,5.23,11,7.91,16.78,11.1,23.95,19.84,50,38.7,68.52,23.43,22.95,57.89,29.78,86.32,46.12l.12.07c1.19.68,2.36,1.39,3.52,2.11-1.16-.72-2.33-1.43-3.52-2.11Z"/><path class="cls-6" d="M389.65,570.36c-6.25,9.69-19.51,9.86-30.79,10.6a44.23,44.23,0,0,0-14.37,3.29c-6.35,2.78-2.25,17.53,3.81,20.9a189.1,189.1,0,0,0,20.24,10.19c-4.1-.07-12.72-.57-16.54-1.48-16.63-4-36.93-13.49-50.67-23.35-11.13-8-24.13-17.41-33.66-27.1-16.14-16.41-27.55-34.36-41-52.87-7.92-10.9-12.79-23-16.85-35.62q-.21-.72-.39-1.44c-5.87-21.93-2.21-46.6-8.49-68.42-4-14-7.92-29.26-7.38-43.6v0c.35-9.1,2.48-17.82,7.49-25.61,13-20.27,39.93-25.4,63.83-28.45,25.05-3.2,51.57-8.85,76.82-9,21.69-.11,17,28.3,13.11,42.95q-2.87,10.63-5.71,21.27l-6.51,24.24c-3,11.1.3,19.8-5.55,29.7-4.67,7.89-11.28,15.5-9.73,25.11.68,4.22,0,5.66,3.35,8.32,7.74,6.11,17.07,3.37,25.93,3.61,7.77.21,17.76-1.4,18.91,6.89.83,6-.71,7.57-4.33,9.25-7.18,3.34-15.52,1.44-22.92,1.5-9.83.08-20.82-.68-29.07-6.88S304.71,448.26,305.75,438c1.15-11.42,4.39-18,6-29.39,1.73-12.54-7-24.65-18.11-30.8-12.7-7.05-27.92-7.94-42.18-9.57a18.22,18.22,0,0,0-9.29,1.27c-11.89,5.11-9,18.44-5,28.36,10.1,25.24,19.7,56.23,34.94,78.75,5.1,7.54,10.48,14.9,16.24,21.94,7.1,8.68,14.84,16.92,23.87,23.56s22.39,4.72,33.17,7.5c8.8,2.27,18,3.1,26.5,6.31s16.57,9.19,19.55,18.22A19,19,0,0,1,389.65,570.36Z"/><path class="cls-7" d="M367.18,324.63c-1.29,2.89-3.6,5.48-6.62,5.21-3.44-.31-5.41-4.16-5.79-7.6s.14-7.06-1.25-10.22-6-5.23-8.31-2.67c-1.47,1.62-1.21,4.16-.43,6.2s2,4,2.2,6.14c.29,3.06-1.54,6-4,7.89s-5.41,2.87-8.32,3.84l-27,9c-12.59,4.19-25.47,8.43-38.74,8.38-13.45,0-26.44-4.47-39.69-6.74-6.92-1.19-14.84-1.52-20.09,3.13-4.6,4.08-5.73,10.76-6,16.91a98.57,98.57,0,0,0,7.13,41.15c3,7.48,6.87,13.75,8.09,21.74s1.91,16.26,5.56,23.47c2.71,5.36,6.94,9.84,9.68,15.2,4.7,9.17,4.62,20,6.94,30,4.1,17.71,15.51,32.69,26.63,47.08,4.59,5.93,13.62,9.17,15.8,16.35,1.2,4,.51,8.23.83,12.36a27.27,27.27,0,0,0,1.67,7.42,178.16,178.16,0,0,1-17.85-15.45c-16.14-16.41-27.55-34.36-41-52.87-7.92-10.9-12.79-23-16.85-35.62-.12-.39-.25-.81-.38-1.19a1.21,1.21,0,0,0,0-.19v-.06c-1.4-28.75-9.21-57.18-13.87-85.75-.21-1.31-.42-2.61-.62-3.92s-.4-2.62-.58-3.93l-.15-1.09c-.14-.94-.26-1.89-.39-2.84-.18-1.32-.34-2.63-.5-3.94q-.34-2.79-.64-5.6c-.06-.54-.12-1.07-.17-1.61-.12-1.17-.24-2.35-.35-3.53s-.22-2.39-.32-3.59-.2-2.37-.29-3.56V354c-.07-.89-.14-1.79-.2-2.69,0-.72-.1-1.45-.14-2.17-.14-2.12-.25-4.24-.35-6.37-.05-1-.1-1.92-.13-2.87,0-1.34-.1-2.67-.14-4q-.08-2.61-.12-5.22c0-.92,0-1.86,0-2.79,0-1.15,0-2.29,0-3.44,0-1.38,0-2.77,0-4.15,0-.56,0-1.11,0-1.66,0,0,0,0,0-.06,0-.23,0-.45,0-.67q0-3.62.17-7.22l.09-2.65c.05-1.06.09-2.13.14-3.19q.15-3.19.35-6.37c0-.88.12-1.76.17-2.64a1.94,1.94,0,0,0,0-.24c.16-2.25.34-4.51.53-6.75q.27-3,.57-6a.88.88,0,0,0,0-.17c.11-1.05.22-2.1.34-3.16.16-1.45.33-2.9.51-4.34.07-.66.15-1.31.24-2,.22-1.81.46-3.6.72-5.4.14-1,.28-2,.43-3l.3-2c.11-.72.22-1.44.34-2.15s.19-1.21.29-1.81l.33-2,0-.19c.29-1.69.58-3.37.89-5.05a2.5,2.5,0,0,1,.05-.29c.27-1.51.56-3,.85-4.53,0-.14,0-.28.08-.42l.63-3.12c.26-1.31.53-2.62.82-3.94.19-.91.39-1.82.59-2.72s.41-1.87.63-2.8.43-1.87.65-2.8.43-1.84.66-2.76.45-1.84.68-2.76c.17-.7.35-1.4.53-2.1a8.33,8.33,0,0,1,.37-1.24,8.82,8.82,0,0,1,.71-2.48,8.38,8.38,0,0,1,.38-1.77c.37-1.4.76-2.8,1.16-4.2.31-1.11.63-2.23,1-3.34l.39-1.32c.06-.22.13-.45.2-.68.11-.38.23-.75.34-1.13s.27-.92.42-1.38.34-1.11.51-1.66c.43-1.39.87-2.77,1.31-4.16l.6-1.84c.42-1.3.86-2.6,1.29-3.9.27-.79.54-1.58.82-2.37l.63-1.81c.29-.83.59-1.68.9-2.51s.63-1.64.9-2.47l.23-.68q.44-1.2.9-2.4c.3-.82.61-1.64.92-2.45.72-1.87,1.45-3.74,2.2-5.59.47-1.17.94-2.34,1.42-3.5.54-1.33,1.1-2.66,1.66-4l0-.11q.5-1.19,1-2.37c.3-.7.6-1.4.91-2.1,0-.09.07-.17.11-.25.66-1.49,1.32-3,2-4.46.6-1.32,1.2-2.64,1.82-4,.41-.88.83-1.77,1.26-2.65s.79-1.65,1.19-2.48,1-1.94,1.49-2.94c.23-.46.47-.91.71-1.37.67-1.23,1.36-2.47,2.09-3.74.37-.65.75-1.3,1.13-2,.7-1.18,1.42-2.37,2.18-3.58C249.2,117,265.42,97.67,281.52,87.24c.35-.24.7-.46,1.05-.68.19-.14.38-.25.57-.37h0a1.68,1.68,0,0,0,.84-.5l0,0c.37-.21,13.44-11.08,24.59-20.31l8.07-6.67c2.24,1.57,4.48,3.18,6.69,4.82a62.08,62.08,0,0,0-7.1,4.49A227.34,227.34,0,0,0,297.75,83.2L296,84.8c-3.18,2.37-15.71,13.3-18.44,15.86-11,10.37-18.92,23.71-24.67,37.71s-9.48,28.73-13.2,43.41c-3.2,12.67-11,23.73-15.2,36.09s-6.59,25.58-5,38.55c.64,5.07,2.47,10.78,7.21,12.67a16.38,16.38,0,0,0,5.92.79l28.21.21c11.83.09,24.67-2.38,36.21.2l24.26,5.42c5.43,1.21,11,2.48,16.28,4.21A255.81,255.81,0,0,0,367.18,324.63Z"/><path class="cls-7" d="M529.65,439.72a351.94,351.94,0,0,1-2.7,40.45c-.1.77-.21,1.55-.33,2.32q-1,7.22-2.44,14.37c-.87,4.3-2.53,16.57-3.25,20.91-1.51,9.12-8.84,4.94-9.68-.4-4.37-27.68-4.67-64.75-18.89-88.28l-.07-4.89a20.26,20.26,0,0,1,5.87-5.83c3-2.12,6.24-4.07,8.34-7.07A9.38,9.38,0,0,0,507,402a5.13,5.13,0,0,1-.57-3.41,66.88,66.88,0,0,0-5-39.26c-2.44-5.31-6.57-10.91-12.42-11-4.5-.09-8.38,3.18-12.81,3.94-9.55,1.65-17.64-8.39-27.32-8.47-3.9,0-7.7,1.58-11.59,1.32-5.07-.34-9.4-3.79-12.71-7.65s-6-8.27-9.73-11.69a19.28,19.28,0,0,0-6.69-4,4.8,4.8,0,0,1-3-6.15c1.55-4.68.58-10.31-3.07-13.71-1.61-1.5-3.64-2.62-4.79-4.5-2-3.37-.5-7.68,1.07-11.29,2-4.7,4.5-9.82,9.23-11.8,9.32-3.89,20.12,7.06,29.37,3,9.64-4.21,20.91-4.08,31.37-5.15,6.31-.65,12.7-1.31,18.64-3.55l.26-.1a4.94,4.94,0,0,1,5.53,1.37l0,0c1.51,1.75,3,3.55,4.4,5.37a3.24,3.24,0,0,1,.24.31c.67.85,1.31,1.7,1.95,2.57l.19.27a216.17,216.17,0,0,1,13.86,23.88c11.91,25,14.33,53.09,15.31,80.92.16,4.29.28,8.58.39,12.85l0,1.12C529.37,406.46,529.58,422,529.65,439.72Z"/><path class="cls-8" d="M340.18,317.71a9.08,9.08,0,0,1-5.24,4.29c-3.2,1.07-6.75,1.11-9.73,2.69-1.42.75-1.39,2.94-.73,5.3a3.66,3.66,0,0,1-4.57,4.48c-15.59-4.54-27.66-18.22-48.84-12.54-4.84,1.3-10.26-1.42-14.76.8-3.37,1.66-4.56,6.9-3.66,11.1a3.07,3.07,0,0,1-2.92,3.78,126.49,126.49,0,0,1-42.11-7c-3.12-1.13-7.09-6.06-9.57-9.26a3.77,3.77,0,0,0-6.37.49c-.43.85-.85,1.73-1.27,2.63a405.56,405.56,0,0,1,12.7-101.15c6.18,9.63,14.63,36.55,13,46.95-.4,2.57,1.68,5.19,4.24,4.73,36.52-6.64,68.74.9,101,14.81,2.83,1.22,5.74,2.58,7.64,5,2.51,3.22,2.71,7.6,3.71,11.57.85,3.35,2.93,6.94,6,8A2.45,2.45,0,0,1,340.18,317.71Z"/><path class="cls-9" d="M309.34,327.74c-1,.77-2.83.87-4,1.14-1.72.38-3.46.74-5.19,1.07-4.18.79-8.4,1.41-12.63,1.88q-4.12.45-8.26.7-5.66.35-11.33.28h-.18c-4.33,0-8.82-.3-12.67-2.29s-6.88-6.18-6.23-10.46c.53-3.49,3.28-6.22,6.17-8.24a37.82,37.82,0,0,1,9.68-4.84,40.39,40.39,0,0,1,10.49-2,43.12,43.12,0,0,1,12.8,1.24,46,46,0,0,1,8.17,2.85c5.28,2.41,10.33,6,12.72,11.32C309.65,322.18,311.36,326.22,309.34,327.74Z"/><path class="cls-10" d="M295,318.87a15.47,15.47,0,0,1-7.52,13q-4.12.45-8.26.7-5.66.35-11.33.28c-5.53-2.74-9.27-7.95-9.27-13.94a14.12,14.12,0,0,1,1.16-5.61,15.84,15.84,0,0,1,4.88-6.28,19,19,0,0,1,9-3.87q5.44.36,10.83,1.26a18.49,18.49,0,0,1,3.46,1.85,16.47,16.47,0,0,1,5.38,6A14.29,14.29,0,0,1,295,318.87Z"/><path class="cls-4" d="M319.26,332.37c-4.36-.45-9.11-.66-13.11-2.05-5.09-1.76,1.91-2.61,2.13-5.79a5.47,5.47,0,0,0-1.57-3.64,28.35,28.35,0,0,0-13.38-8.71,36.66,36.66,0,0,0-6.43-1.45c-7.53-1-15.18,0-22.64,1.47-1.5.3-3,.62-4.48,1.06a18.31,18.31,0,0,0-5,2.26c-2.11,1.41-3.79,3.37-5.84,4.85-5.56,4-13,4.07-19.81,4-2.05,0-4.74-.59-4.59-2.92a3,3,0,0,1,1.37-2.23l9.45-6.37a.72.72,0,0,1,1.09.82,9.66,9.66,0,0,0-.47,2.32,4.82,4.82,0,0,0,1.6,4.11c1.79,1.38,4.4.76,6.39-.31a18.13,18.13,0,0,0,9.21-13.9,2.79,2.79,0,0,1,2.52-2.51,111.53,111.53,0,0,1,18-.23q5.44.36,10.83,1.26a112.46,112.46,0,0,1,24.92,7.11.86.86,0,0,1-.08,1.62,3.11,3.11,0,0,0-2.11,1.84,3.46,3.46,0,0,0,.79,3.45c1.59,1.79,3.93,2.19,6,3.12a13.14,13.14,0,0,1,7.19,8.68A1.78,1.78,0,0,1,319.26,332.37Z"/><path class="cls-4" d="M302.42,271.86c-15.2-7.65-32.79-8.48-49.79-9.16-6.35-.26-12.8-.5-19,1s-12.17,4.94-15.27,10.48a3.25,3.25,0,0,0-.45,3c.65,1.19,2.31,1.22,3.64,1.06,6.39-.77,12.63-2.52,19-3.44s13.07-1,19,1.48c3.75,1.55,7,4,10.58,6,8.8,4.83,19,6.24,29,7.57l24.46,3.26c2.13.28,8.84.56,8.08-3.45-.4-2.11-5-5.59-6.67-6.53C317.68,279,309.93,275.65,302.42,271.86Z"/><path class="cls-7" d="M232.46,282.62l-.84,2.42a3,3,0,0,1-2.89,2,20.75,20.75,0,0,0-9.51,2.2,6.25,6.25,0,0,0-1.72,10,11.89,11.89,0,0,0,3.17,2.34A19,19,0,0,0,232,302.88a94.81,94.81,0,0,0,11.2-2.87,90.71,90.71,0,0,1,27.4-3.18c1.7.06,5.46,1.16,6.82-.14,6.12-5.82-20.61-12.46-23.56-13.18a127.06,127.06,0,0,0-18.08-3A3.19,3.19,0,0,0,232.46,282.62Z"/><path class="cls-8" d="M460,321.69c2.8.82,5.81,1.44,8,3.4s2.91,5.84.63,7.66-6.79.57-8.44,3.19a3.89,3.89,0,0,0,.93,4.7,9.62,9.62,0,0,0,4.68,2.1,42.09,42.09,0,0,0,25.67-2.41A21.07,21.07,0,0,1,489.1,333c-.71-5.48.72-11,1.95-16.36,1.7-7.39,7.56-18.28,8.54-25.79.72-5.49,1.13-11.5-1.91-16.12s-13.33-3.21-18.77-4.27A72.93,72.93,0,0,0,441.67,273c-4.69,1.59-12,4.89-13.36,10.3-1.18,4.76,2.64,12.2,4.82,16.23A45.88,45.88,0,0,0,460,321.69Z"/><path class="cls-9" d="M495.52,321.71a21.54,21.54,0,0,1-7.84,3.7,70.76,70.76,0,0,1-12,2.39,73.43,73.43,0,0,1-20.51-.58c-1.57-.27-3.14-.58-4.69-1-4.62-1.09-13.42-2.67-16.48-6.73-3.51-4.66,2.72-9.61,6.32-12a48,48,0,0,1,16.05-6.76,51.05,51.05,0,0,1,17.47-.87A48.22,48.22,0,0,1,492,305.82c3.27,1.86,6.6,4.55,7,8.29A9,9,0,0,1,495.52,321.71Z"/><path class="cls-10" d="M482.33,314.45a16.72,16.72,0,0,1-6.61,13.35,73.43,73.43,0,0,1-20.51-.58,16.77,16.77,0,0,1,1.2-26.44,51.05,51.05,0,0,1,17.47-.87A16.66,16.66,0,0,1,482.33,314.45Z"/><path class="cls-4" d="M497.82,310.83c-5.17-5.51-15.36-8.51-23.09-8.82s-15.53,2.12-23,4.51c-5,1.59-10.51,3.71-12.44,8.54-1.29,3.23-.72,7.27-4.73,9.09a7.89,7.89,0,0,1-5,.39c-3-.7-5.35-2.49-7.76-4.2-.73-2.54-1.46-5.07-2.18-7.61,5.71-1.45,10.6-5.35,15.9-8.1,11.42-6,21.64-7.84,34.51-8.34,5.13-.2,13.65.9,18.23,3.21C490.83,300.81,502.43,308.52,497.82,310.83Z"/><path class="cls-4" d="M500,282.37c1.08-6.35-10.22-14.12-14.84-18.61-3.63-3.53-7.78-7.28-12.84-7.38-2.62-.06-5.14.9-7.59,1.84l-30.4,11.72c-3.38,1.31-6.83,2.65-9.57,5-4.28,3.69-5.9,9.88-1.32,14,4.07,3.64,7.83,1.4,12.22-.44a116.2,116.2,0,0,1,36.94-8.8C474.23,279.58,500.1,281.79,500,282.37Z"/><path class="cls-11" d="M369.25,442.62a104.39,104.39,0,0,0-35.38-1.55,5.06,5.06,0,0,0-3.63,7.67,18.21,18.21,0,0,0,9,7.1c5.91,2.18,12.41,1.84,18.7,1.46A18,18,0,0,0,369.31,453a15.81,15.81,0,0,1,1.57-1A5.09,5.09,0,0,0,369.25,442.62Z"/><path class="cls-4" d="M397.58,439.73a12.12,12.12,0,0,1,7.27-1.82,7.4,7.4,0,0,1,6,4.09,6,6,0,0,1-4.5,8.36c-2.67.47-5.27-.87-7.73-2A12.28,12.28,0,0,0,393.2,447a1.85,1.85,0,0,1-1.17-3.34l0,0C393.92,442.34,395.64,440.85,397.58,439.73Z"/><path class="cls-4" d="M348.33,435.75c-3-1.13-6.4-.9-9.6-.4a16.33,16.33,0,0,0-5.07,1.45,6.65,6.65,0,0,0-3.43,3.84c-.81,2.72.89,5.73,3.33,7.18s5.44,1.63,8.28,1.42c3.21-.24,11.64-1,12.7-4.86C355.49,440.94,351.14,436.79,348.33,435.75Z"/><path class="cls-12" d="M435.91,518.31a128.1,128.1,0,0,1-12,16.67c-2.21,2.63-6.37,7.69-9.45,9.67-4.85,3.12-9.62,6.56-15.16,7.76a24.09,24.09,0,0,1-4,.54h-.39c-6.74.24-13.54.46-20.09.76-10,.44-20.35.8-29.42-3.32a36.58,36.58,0,0,1-7.16-4.37c-4.52-3.47-9.56-7.13-13.21-11.56s-6.26-9.65-10.42-13.63a5.56,5.56,0,0,1,1.24-8.91c3.38-1.82,6.68-3.81,10-5.8,1.46-.88,2.91-1.76,4.38-2.62,7.19-4.23,14.79-8.09,23-9.34s17.29.44,23.36,6.16c4.65-6.77,14-9,22-7.5s15.25,5.9,22.26,10.16a92.69,92.69,0,0,0,13.5,7.14C437.8,511.48,437.82,515.21,435.91,518.31Z"/><path class="cls-13" d="M404.26,516.24a111.7,111.7,0,0,1-29.38,1.37c-4.91-.42-9.82-1.17-14.76-1.18-7.61,0-15.11,1.73-22.7,2.37a79,79,0,0,1-13.32,0c-2.71-.24-9.57,0-11.1-2.8a5.52,5.52,0,0,1,2.88-4.05c3.38-1.82,6.68-3.81,10-5.8,1.56-.47,2.84-.78,3.57-.93a51.69,51.69,0,0,1,13.25-1c4.18.19,8.33.79,12.48,1.39L371.66,508c2.72.4,5.44.78,8.16,1.21C388.25,510.45,396.83,512.06,404.26,516.24Z"/><path class="cls-4" d="M438.27,519.42h3.65a2.83,2.83,0,0,0,2.83-2.19,2.69,2.69,0,0,0-2.82-3.18c-13.38.76-26.82-2.15-40.27-2.12-5.1,0-10.2.46-15.29.89L349.3,516c-4.41.39-9.09.72-13.06-1.26-2.08-1-3.85-2.67-6-3.46-3-1.08-6.33-.42-9.45.25L307,514.5A10.27,10.27,0,0,0,303,516a2.52,2.52,0,0,0-.35.3,2.75,2.75,0,0,0,.91,4.47c10,4.25,21.26,4.41,32.16,4.48l30.67.18a76.3,76.3,0,0,0,14.1-.78c5-.9,9.75-2.78,14.73-3.63,7.81-1.32,15.78-.08,23.67.64,2,.18,3.94.11,5.92.41a24.17,24.17,0,0,0,6,.4,10.45,10.45,0,0,0,5-2.14A3.93,3.93,0,0,1,438.27,519.42Z"/><path class="cls-13" d="M395.33,553h-.39c-6.74.24-13.54.46-20.09.76-10,.44-20.35.8-29.42-3.32a36.58,36.58,0,0,1-7.16-4.37c-.15-.74.18-1.5,1.23-2.23,4.29-3,13.68,0,17.66,2.19,3.25,1.81,6.32,4.47,10,4.49,4.3,0,8-3.53,12.27-3.6,3.35-.06,6.3,2,9.25,3.56A22.47,22.47,0,0,0,395.33,553Z"/><path class="cls-14" d="M610.75,805.29a226.76,226.76,0,0,0,4.4-27.13,236.88,236.88,0,0,0,1.24-27.41,240.68,240.68,0,0,0-6.93-54.27A236.93,236.93,0,0,0,561,599.54c-5.86-6.95-12.22-13.52-18.42-20.34a160,160,0,0,1-17.24-21.88A97.86,97.86,0,0,1,514,531.67a201.92,201.92,0,0,1-5.56-27.27c-1.34-9.12-2.36-18.24-3.7-27.25a180.72,180.72,0,0,0-5.65-26.53,87.06,87.06,0,0,0-11.38-24.12,92.41,92.41,0,0,0-18.44-19.31c-14.07-11.3-30.37-19.8-46-29.69a240,240,0,0,1-43.14-34.87,256.75,256.75,0,0,1-66-120.09,247.52,247.52,0,0,1-4.8-27.28,240.79,240.79,0,0,1-1.7-27.63c-.07-9.24.59-18.43,1.15-27.58s1.12-18.27.8-27.38a121.12,121.12,0,0,0-1.18-13.6,64.86,64.86,0,0,0-3.2-13.18A39.59,39.59,0,0,0,288.11,65.5c-7.84-4.66-17-6.88-26.11-7.5,9.14.35,18.4,2.27,26.51,6.8a41.34,41.34,0,0,1,10.79,8.7,41.77,41.77,0,0,1,7.26,11.86,65,65,0,0,1,3.56,13.44,122.69,122.69,0,0,1,1.49,13.78,273.27,273.27,0,0,1-.27,27.61c-.45,9.17-1,18.31-.8,27.42a236.53,236.53,0,0,0,2,27.25,244.52,244.52,0,0,0,5.07,26.84,254.45,254.45,0,0,0,8,26.09,262.85,262.85,0,0,0,10.77,25.08,252.43,252.43,0,0,0,47.16,66.42A236.78,236.78,0,0,0,426,373.37c15.37,9.73,31.85,18.21,46.47,29.93a97.58,97.58,0,0,1,19.38,20.41,91.9,91.9,0,0,1,12,25.48,185.61,185.61,0,0,1,5.76,27.25c1.34,9.14,2.33,18.26,3.59,27.3a198.4,198.4,0,0,0,5.25,26.65A93,93,0,0,0,529,555c4.73,7.63,10.58,14.59,16.62,21.42S558,590,563.92,597.11a233.64,233.64,0,0,1,29.71,46.66,242.1,242.1,0,0,1,18.19,52.16C619.84,731.89,619.85,769.7,610.75,805.29Z"/><path class="cls-14" d="M589,595.9c-1.08-14-4-28-9.62-40.79a94,94,0,0,0-10.5-18.06,96.54,96.54,0,0,0-14.24-15.24,136.64,136.64,0,0,0-16.94-12.27c-5.91-3.79-11.9-7.48-17.86-11.23-11.91-7.52-23.8-15.32-34.5-24.76a125.34,125.34,0,0,1-14.86-15.43,121.76,121.76,0,0,1-11.82-17.9c-6.87-12.56-11.82-26-16.12-39.43-2.16-6.74-4.1-13.53-6.06-20.29l-5.84-20.29L419,319.63l-23.08-81.24c-3.82-13.55-7.62-27.08-11.74-40.51s-8.47-26.76-13.52-39.84q-3.75-9.82-8-19.42c-1.39-3.21-2.92-6.36-4.4-9.54s-3.14-6.23-4.83-9.3a293.92,293.92,0,0,0-22.88-35.22c-4.23-5.58-8.69-11-13.42-16.17a151.86,151.86,0,0,0-15.13-14.56,83.45,83.45,0,0,0-17.54-11.44C278.08,39.45,271,37.61,264,38.5c7-1.11,14.19.51,20.66,3.28a82.29,82.29,0,0,1,18,11.13,152.48,152.48,0,0,1,15.62,14.33c4.89,5.1,9.51,10.46,13.91,16A280.06,280.06,0,0,1,356,118.33q2.64,4.61,5.06,9.35c1.56,3.17,3.17,6.32,4.64,9.54,3,6.4,5.78,12.91,8.41,19.47s5.1,13.18,7.45,19.84,4.58,13.35,6.71,20.08c4.26,13.45,8.19,27,12.13,40.5l23.41,81.15,11.57,40.6c3.89,13.53,7.62,27.13,11.72,40.51s8.88,26.53,15.43,38.77a123.72,123.72,0,0,0,11.24,17.41,121.45,121.45,0,0,0,14.13,15.19c10.28,9.38,21.88,17.3,33.63,25,5.88,3.85,11.82,7.64,17.69,11.55,2.93,2,5.88,3.91,8.74,6s5.6,4.39,8.24,6.78A98.6,98.6,0,0,1,570.31,536a95.8,95.8,0,0,1,10.22,18.62,107.55,107.55,0,0,1,6.05,20.29A141,141,0,0,1,589,595.9Z"/><path class="cls-14" d="M271.25,75.5a13.69,13.69,0,0,1,6.16-4.82,18.21,18.21,0,0,1,7.81-1.17A25.65,25.65,0,0,1,293,71.22,30.11,30.11,0,0,1,300,75l-.07,0a29.17,29.17,0,0,1,7.24,4.81,42.49,42.49,0,0,1,5.75,6.53,92,92,0,0,1,8.33,15.15c2.36,5.22,4.86,10.32,7.42,15.45s5,10.32,7.39,15.54c4.74,10.44,9.28,20.93,14.61,30.94s11.58,19.51,19.51,27.4,17.41,14.1,27.48,19.2,20.67,9.33,31.24,13.78,21.18,9.11,31.18,15.13a141.7,141.7,0,0,1,27.38,21.57,144.27,144.27,0,0,1,35.61,59.28,215.78,215.78,0,0,1,7.06,33.93c1.56,11.42,2.46,22.86,3.53,34.24s2.25,22.73,4.2,33.91A165.58,165.58,0,0,0,547,454.58,110.33,110.33,0,0,0,564,484a75.42,75.42,0,0,0,26.72,20.85,70.92,70.92,0,0,1-15-8.34A79.79,79.79,0,0,1,563,484.82a112.39,112.39,0,0,1-18.13-29.32,164.6,164.6,0,0,1-10.12-33.05c-2.28-11.32-3.61-22.74-4.87-34.13s-2.39-22.76-4-34a210.72,210.72,0,0,0-7.23-33.15,141.92,141.92,0,0,0-61.09-78c-9.61-5.84-20-10.46-30.5-14.92s-21.17-8.83-31.45-14.2-20.15-11.87-28.33-20.3-14.48-18.38-19.74-28.64-9.55-20.95-14.06-31.45-9.57-20.74-13.94-31.37a90.18,90.18,0,0,0-7.71-15.14,41.46,41.46,0,0,0-5.38-6.51,28.33,28.33,0,0,0-6.85-4.87l0,0,0,0a27.8,27.8,0,0,0-14.3-5.76,17.9,17.9,0,0,0-7.71.95A13.61,13.61,0,0,0,271.25,75.5Z"/><path class="cls-14" d="M129,788a182.2,182.2,0,0,0,11.2-20.53,196.69,196.69,0,0,0,8.62-21.7,250.09,250.09,0,0,0,10.23-45.47,375.07,375.07,0,0,0,3.32-46.53c.11-7.78,0-15.56-.2-23.35s-.54-15.56-1.15-23.33c-1.81-31.1-5.68-62.12-8.84-93.18l-2.42-23.3-1.95-23.41c-.42-7.82-.88-15.64-1.25-23.46-.18-7.83-.45-15.66-.56-23.49a839.43,839.43,0,0,1,4.64-93.8,860.48,860.48,0,0,1,15-92.66,871.67,871.67,0,0,1,24.93-90.44c2.54-7.39,4.89-14.85,7.88-22.12a141.65,141.65,0,0,1,10.53-21c.52-.83,1-1.67,1.57-2.49l1.67-2.42c1.08-1.65,2.35-3.15,3.54-4.72s2.57-3,3.85-4.45l2.1-2.07a29.35,29.35,0,0,1,2.16-2,53.61,53.61,0,0,1,20.36-11.34,53.28,53.28,0,0,0-19.86,11.9c-.74.62-1.39,1.35-2.07,2l-2,2.09c-1.23,1.5-2.55,2.93-3.7,4.49s-2.36,3.08-3.38,4.74l-1.6,2.43c-.52.82-1,1.67-1.49,2.5a140.28,140.28,0,0,0-9.9,21c-2.78,7.25-4.95,14.75-7.31,22.18a933.19,933.19,0,0,0-23.44,90.5,905.55,905.55,0,0,0-14.15,92.34A847,847,0,0,0,151,420.21c.09,7.78.34,15.56.5,23.34l1.17,23.32,1.89,23.28,2.32,23.31,4.57,46.63c.81,7.76,1.39,15.57,2,23.36s.91,15.62,1.37,23.43.68,15.64.81,23.47.08,15.66-.14,23.49a372.53,372.53,0,0,1-4.06,46.81,251.18,251.18,0,0,1-11.4,45.55,191.8,191.8,0,0,1-9.19,21.6A182.27,182.27,0,0,1,129,788Z"/><path class="cls-14" d="M-17.19,724.06c8.11-2.31,16.15-4.86,24-7.82a199.2,199.2,0,0,0,23.06-10.17,146.3,146.3,0,0,0,21.2-13.5,136.62,136.62,0,0,0,18.39-17,153.35,153.35,0,0,0,15.31-19.82,169.63,169.63,0,0,0,11.9-22.05,212.94,212.94,0,0,0,14.93-47.79,192.39,192.39,0,0,0,3-24.83c.23-4.16.33-8.33.22-12.49a113.91,113.91,0,0,0-1-12.36,156,156,0,0,0-5.42-24.32c-2.37-8-5.28-15.86-8.35-23.66-6.2-15.6-13.25-30.91-19.76-46.52C77.14,433.89,74,426,71.23,418a186.18,186.18,0,0,1-6.79-24.69,221.15,221.15,0,0,1-4-50.88,280.85,280.85,0,0,1,6.45-50.56,349.25,349.25,0,0,1,14.6-48.73,485.56,485.56,0,0,1,20.39-46.51c15.11-30.29,32.4-59.3,49.57-88.34a248.44,248.44,0,0,1,14-21.16,112.76,112.76,0,0,1,17.32-18.62A74.81,74.81,0,0,1,204.7,55.66a53.33,53.33,0,0,1,25-3A52.83,52.83,0,0,0,205,56.39,73.54,73.54,0,0,0,183.7,69.5a111.11,111.11,0,0,0-16.65,18.73,247.7,247.7,0,0,0-13.42,21.3C136.87,138.78,120,168,105.42,198.31S78.48,260,71.59,292.84a275.87,275.87,0,0,0-6.22,49.7,229.29,229.29,0,0,0,.56,25,214.31,214.31,0,0,0,3.39,24.75,179.73,179.73,0,0,0,6.57,24.07c2.67,7.91,5.77,15.71,9,23.47,6.43,15.52,13.48,30.88,19.61,46.69,3,7.9,6,15.9,8.32,24.09a159.65,159.65,0,0,1,5.38,25,114.79,114.79,0,0,1,.93,12.84c.06,4.28-.1,8.55-.38,12.8a197.32,197.32,0,0,1-3.41,25.31A216,216,0,0,1,99.55,635a171.92,171.92,0,0,1-12.37,22.29,152.64,152.64,0,0,1-15.85,20,139.51,139.51,0,0,1-19.07,16.87,148.9,148.9,0,0,1-21.73,13.16A201.53,201.53,0,0,1,7.11,717C-.89,719.69-9,722-17.19,724.06Z"/><path class="cls-14" d="M69.06,511.65l-3.22-8.35c-1.06-2.79-2.19-5.56-3.12-8.39-1.91-5.66-3.93-11.28-5.57-17l-2.59-8.58-2.3-8.67c-1.62-5.75-2.84-11.61-4.2-17.43a423.61,423.61,0,0,1-9.12-71.16c-.37-6-.35-12-.45-18-.09-3,0-6,.09-9l.22-9,.51-9c.19-3,.29-6,.61-9,.58-6,1-11.95,1.85-17.89l1.15-8.92,1.46-8.88c.9-5.93,2.18-11.79,3.36-17.67.55-2.95,1.28-5.86,2-8.78l2.1-8.75,2.38-8.67c.81-2.89,1.54-5.8,2.48-8.65a450.52,450.52,0,0,1,26.47-66.83,440.13,440.13,0,0,1,37.22-61.43c1.7-2.47,3.54-4.83,5.36-7.21l5.46-7.13,5.69-7c1.92-2.3,3.76-4.66,5.79-6.87l6-6.72c2-2.24,4-4.46,6.09-6.61,4.18-4.31,8.53-8.47,13.12-12.35,9.19-7.7,19.31-14.53,30.55-18.9a63.52,63.52,0,0,1,17.47-4.2,55.07,55.07,0,0,1,9,0,56.83,56.83,0,0,1,8.81,1.57,56.22,56.22,0,0,0-8.84-1.19,54.85,54.85,0,0,0-8.88.36,62.81,62.81,0,0,0-17.06,4.68c-10.9,4.63-20.63,11.65-29.43,19.52-4.42,3.94-8.62,8.12-12.64,12.47-2,2.17-4,4.4-5.88,6.68l-5.76,6.8c-2,2.23-3.73,4.63-5.6,6.93l-5.53,7-5.3,7.17c-1.76,2.38-3.55,4.75-5.2,7.22a458,458,0,0,0-36.14,61.26,453.16,453.16,0,0,0-25.94,66.19c-.94,2.81-1.66,5.69-2.48,8.54l-2.38,8.57-2.1,8.64c-.69,2.88-1.43,5.76-2,8.67-1.18,5.81-2.47,11.6-3.37,17.46l-1.48,8.78-1.21,8.81c-.89,5.86-1.37,11.78-2,17.68-.35,2.95-.48,5.91-.7,8.87l-.59,8.88c-.45,11.86-.75,23.73-.33,35.6A456.14,456.14,0,0,0,69.06,511.65Z"/><path class="cls-14" d="M636,258.26a70.52,70.52,0,0,0,11.45-14.78,77.38,77.38,0,0,0,7.28-17.16,96,96,0,0,0,2.8-36.91,113.59,113.59,0,0,0-9.91-35.62,151.68,151.68,0,0,0-20.17-31.07,246.05,246.05,0,0,0-26.23-26.43C591.86,88.11,582,80.46,572,73c-20.13-14.87-40.3-29.81-60.82-44.1a691.58,691.58,0,0,0-63.36-40c-2.7-1.56-5.49-3-8.24-4.42s-5.51-2.93-8.33-4.27-5.58-2.77-8.4-4.1l-8.52-3.86c-1.41-.66-2.84-1.27-4.29-1.86l-4.31-1.78-4.32-1.79c-1.45-.58-2.92-1.1-4.37-1.66-2.92-1.08-5.82-2.23-8.75-3.26s-5.89-2-8.86-2.95A171.37,171.37,0,0,0,343-48.55a100.83,100.83,0,0,0-36.73,3.21,76.53,76.53,0,0,0-31.7,18.65,62.53,62.53,0,0,0-11.16,14.84,52.54,52.54,0,0,0-5.89,17.69,53.15,53.15,0,0,1,5.21-18,63.25,63.25,0,0,1,10.9-15.43,78.34,78.34,0,0,1,31.91-20.06c12.16-3.88,25-4.93,37.7-4.13a170,170,0,0,1,37.26,7c3,.9,6.05,1.84,9,2.85s5.94,2.11,8.91,3.16c1.48.54,3,1.06,4.44,1.63l4.39,1.77,4.39,1.77c1.46.58,2.92,1.18,4.35,1.83l8.65,3.83c2.86,1.32,5.69,2.71,8.53,4.06s5.66,2.79,8.46,4.23,5.62,2.84,8.36,4.39c22.16,12,43.32,25.7,63.95,40,10.32,7.18,20.46,14.58,30.58,22l15.14,11.17c5,3.73,10.09,7.47,15.09,11.27,10,7.62,19.89,15.43,29.32,23.81a234.81,234.81,0,0,1,26.35,27.25L633.4,124l1.45,1.88,1.38,1.94,2.74,3.88c.9,1.31,1.72,2.67,2.58,4,1.76,2.64,3.27,5.43,4.84,8.19s2.93,5.65,4.24,8.54a121.1,121.1,0,0,1,6.2,18A117.93,117.93,0,0,1,660,189.18a98.16,98.16,0,0,1-4,37.53,78,78,0,0,1-7.89,17.15A70.88,70.88,0,0,1,636,258.26Z"/><path class="cls-14" d="M627.26,434.7c1.26-2.95,2.56-5.88,3.79-8.85s2.37-6,3.43-9c2.17-6,4.17-12.12,5.85-18.29a226.79,226.79,0,0,0,7.08-37.64,209.16,209.16,0,0,0,.51-38.19c-.31-3.16-.65-6.33-1-9.49s-.9-6.3-1.47-9.42l-.93-4.68c-.31-1.56-.6-3.12-1-4.65-.79-3.08-1.53-6.17-2.36-9.24-7.07-24.46-18.6-47.43-32.27-68.94s-29.39-41.8-45.42-61.81-32-40.14-48.85-59.37-34.77-37.57-54.52-53.74A286.76,286.76,0,0,0,429,19.22a241,241,0,0,0-34-17.49A199.84,199.84,0,0,0,358.43-9.72c-1.55-.38-3.14-.61-4.71-.89L349-11.42c-3.16-.49-6.35-.77-9.53-1.18s-6.39-.44-9.59-.67c-3.2-.07-6.41-.07-9.62-.11,3.21-.09,6.42-.21,9.63-.27,3.21.11,6.43.13,9.64.3l4.8.42,2.41.21c.8.06,1.6.14,2.4.27l4.78.67c1.59.24,3.19.42,4.77.76A202,202,0,0,1,395.86-.55c24.07,9.38,46.44,22.87,66.66,38.92S501,72.82,518.15,92s33.1,39.39,49.21,59.38,31.78,40.52,45.51,62.41a321.64,321.64,0,0,1,18.56,34,223.21,223.21,0,0,1,13.45,36.4,193.46,193.46,0,0,1,6.29,38.29,209.24,209.24,0,0,1-1.34,38.69A230,230,0,0,1,641.6,399c-1.88,6.15-4.06,12.21-6.42,18.19-1.18,3-2.53,5.91-3.79,8.86S628.63,431.8,627.26,434.7Z"/><path class="cls-14" d="M266.91,26.55a152.76,152.76,0,0,1,33.29,1.72,176.2,176.2,0,0,1,32.29,8.53,217.62,217.62,0,0,1,58.19,32.66,310.39,310.39,0,0,1,47.47,47.09c14.2,17.24,26.91,35.63,38.88,54.41,3,4.7,6,9.41,8.82,14.19l8.66,14.3c5.55,9.66,11.16,19.28,16.4,29.12,2.66,4.89,5.35,9.77,7.86,14.74l7.66,14.86c4.9,10,9.89,20,14.51,30.1,4.79,10.06,9.16,20.31,13.66,30.5,4.29,10.28,8.66,20.53,12.69,30.91,4.19,10.33,8,20.79,12,31.21,3.73,10.49,7.56,20.95,11.07,31.53s6.93,21.16,10.33,31.76c3.22,10.66,6.53,21.3,9.54,32s6,21.44,8.93,32.19a158.27,158.27,0,0,1,5.19,33.39,161.13,161.13,0,0,1-2.13,33.71,253.29,253.29,0,0,1-8,32.66c-3.27,10.69-6.93,21.2-10.4,31.74l-2.58,7.9c-.87,2.64-1.73,5.35-2.73,8-2,5.28-4.17,10.45-6.62,15.5a233,233,0,0,1-17,29c-6.26,9.26-13,18.18-19.83,27l-20.69,26.16c-3.42,4.38-6.8,8.77-10.1,13.23s-6.57,8.91-9.41,13.61A114.5,114.5,0,0,0,502,810.52a124.09,124.09,0,0,0-4,32.8,143.22,143.22,0,0,0,4.28,32.88,167.47,167.47,0,0,0,11.16,31.33,167,167,0,0,1-11.89-31.14,142.9,142.9,0,0,1-4.87-33,125.3,125.3,0,0,1,3.47-33.28A116.53,116.53,0,0,1,512.77,779c2.83-4.86,6.13-9.42,9.38-13.92s6.63-9,10-13.38l20.41-26.38c6.75-8.81,13.33-17.73,19.43-27a231.69,231.69,0,0,0,16.4-28.7c2.35-5,4.47-10.05,6.32-15.22.95-2.58,1.75-5.18,2.59-7.83l2.51-8c3.41-10.61,7-21.11,10.2-31.71a250.81,250.81,0,0,0,7.65-32.13,153,153,0,0,0-3.22-65.13c-3-10.69-5.81-21.43-9-32.07s-6.34-21.27-9.57-31.89c-3.41-10.56-6.72-21.16-10.35-31.64-28.32-84.11-64.88-165.61-111.77-241-11.73-18.82-24.17-37.22-38.08-54.46a310.37,310.37,0,0,0-46.55-47.17A215.29,215.29,0,0,0,332,38a175,175,0,0,0-31.95-9A152.19,152.19,0,0,0,266.91,26.55Z"/><path class="cls-14" d="M524.68,950a116.1,116.1,0,0,1-9.94-32.14,143.27,143.27,0,0,1-1-33.75,190.85,190.85,0,0,1,6.09-33.26,244.9,244.9,0,0,1,11.28-31.89c2.24-5.19,4.67-10.28,7.22-15.32l2-3.76,2-3.71c1.35-2.48,2.68-5,4.1-7.4,5.55-9.81,11.45-19.41,17.48-28.91,12-19,24.56-37.67,35.66-57.12,5.55-9.71,10.76-19.61,15.39-29.76l3.36-7.66,3-7.8,1.52-3.89c.24-.65.51-1.3.74-2l.65-2,2.58-7.95,1.29-4,1.08-4,2.15-8.08.54-2,.43-2,.86-4.09,1.73-8.19,1.32-8.26.66-4.13.33-2.06.23-2.08.92-8.31.47-4.16.27-4.18a368.8,368.8,0,0,0-1.31-66.86c-.23-2.79-.63-5.55-1-8.32l-1.13-8.3c-.38-2.77-.92-5.51-1.38-8.27s-.93-5.5-1.43-8.25l-1.71-8.21c-.59-2.73-1.08-5.48-1.78-8.19l-2-8.14-1-4.08-1.12-4c-11.61-43.21-29-84.75-48.89-124.91s-42.15-79.27-64-118.54c-11-19.58-22.26-39-34.57-57.74a436.36,436.36,0,0,0-40.72-53.38,280.71,280.71,0,0,0-50.33-44.29,223,223,0,0,0-29.13-16.74,191.23,191.23,0,0,0-31.47-11.87A193.14,193.14,0,0,1,358,27.12a222.47,222.47,0,0,1,29.54,16.33,281.77,281.77,0,0,1,51.4,43.74c15.35,16.54,29,34.59,41.55,53.29s24.07,38.08,35.28,57.57,22.34,39,33.24,58.7,21.58,39.5,31.64,59.65c20.12,40.27,37.66,82.08,49.48,125.72l1.12,4.08,1,4.12,2,8.24c.71,2.74,1.2,5.52,1.79,8.29l1.71,8.3c.51,2.77,1,5.56,1.44,8.35s1,5.56,1.38,8.36l1.12,8.4c.38,2.8.78,5.6,1,8.42a367.83,367.83,0,0,1,1.17,67.76l-.3,4.23-.49,4.22-1,8.43-.25,2.11-.35,2.1-.69,4.18-1.38,8.38-1.8,8.3-.9,4.15-.45,2.08-.55,2-2.23,8.2-1.12,4.1L631,643l-2.67,8.07-.67,2c-.23.67-.51,1.32-.76,2l-1.56,4-3.12,7.9c-1.13,2.6-2.31,5.17-3.47,7.75-4.8,10.25-10.17,20.21-15.87,29.94-11.39,19.49-24.13,38-36.32,56.9-6.11,9.42-12.09,18.91-17.7,28.6-1.44,2.41-2.78,4.86-4.14,7.31l-2,3.67-2,3.71c-2.59,5-5,10-7.33,15.09a243.57,243.57,0,0,0-11.71,31.43,188.53,188.53,0,0,0-6.57,32.87,142.29,142.29,0,0,0,.38,33.51A116.11,116.11,0,0,0,524.68,950Z"/><path class="cls-14" d="M660.66,575.59l2.78-4.63,1.39-2.32,1.22-2.4,2.45-4.81,2.1-5,1.06-2.48.89-2.54,1.78-5.07,1.45-5.19.71-2.59.56-2.63,1.09-5.26.76-5.31.38-2.66.2-2.68.42-5.35.07-5.36,0-2.68-.14-2.67-.27-5.35-.62-5.32-.3-2.66-.47-2.63-.94-5.26L676,477.59l-.65-2.59-.81-2.55-1.63-5.08-2-5-1-2.47-1.16-2.4-2.32-4.8c-6.68-12.59-15.5-24-23.73-35.86a188.45,188.45,0,0,1-11.54-18.53c-.83-1.64-1.67-3.27-2.46-4.93s-1.52-3.35-2.18-5.07l-1-2.59-.49-1.29c-.15-.44-.27-.88-.41-1.32l-1.59-5.3a115.18,115.18,0,0,1-3.27-21.79,183.53,183.53,0,0,1,.42-21.89c1.14-14.51,3.54-28.77,5.28-43,.88-7.11,1.55-14.22,1.85-21.33,0-3.55.15-7.1.15-10.66l-.47-10.65C625,220.13,616.51,192.34,603.5,167a251.66,251.66,0,0,0-51.31-68.11,319.35,319.35,0,0,0-70-49.48A388.06,388.06,0,0,0,443,31.33c-3.36-1.28-6.68-2.67-10.08-3.86S426.2,25,422.79,23.86l-10.25-3.41-10.33-3.17,10.44,2.81L423,23.14c3.45,1.05,6.86,2.23,10.29,3.34s6.8,2.41,10.2,3.61a389.93,389.93,0,0,1,39.78,17.12c25.82,13,50.2,29.14,71.56,48.8a251.62,251.62,0,0,1,52.86,68.8C621.1,190.61,629.84,219,632,248.17l.46,10.94c0,3.65-.13,7.3-.19,10.95-.33,7.28-1,14.53-1.94,21.71-1.81,14.36-4.17,28.56-5.41,42.78a178.23,178.23,0,0,0-.59,21.29,111.26,111.26,0,0,0,3,20.91l1.47,5.06c.13.42.24.84.38,1.26l.46,1.24.91,2.47c.62,1.64,1.37,3.24,2.05,4.87s1.54,3.18,2.3,4.77a188.24,188.24,0,0,0,11,18.31c8,11.91,16.7,23.54,23.35,36.56l2.31,5,1.15,2.49,1,2.55,1.94,5.12,1.59,5.23.78,2.62.62,2.66,1.22,5.32.87,5.39.44,2.7.25,2.72.48,5.43.14,5.45.06,2.72-.1,2.72-.22,5.44-.56,5.42-.28,2.7-.45,2.68-.91,5.36-1.24,5.29-.63,2.64-.79,2.6-1.59,5.19-1.93,5.07-1,2.53-1.14,2.47L669,561.68l-2.62,4.74-1.3,2.36-1.48,2.27Z"/><path class="cls-14" d="M664.53,365.58a140.56,140.56,0,0,0,5.23-19.6,131.93,131.93,0,0,0,1.2-40.31,142.21,142.21,0,0,0-4-19.75A139.74,139.74,0,0,0,660,267.05c-1.48-3-2.9-6-4.57-9s-3.36-5.83-5.12-8.73c-3.49-5.79-7.1-11.58-10.22-17.71a95.56,95.56,0,0,1-4.25-9.45c-.59-1.63-1.19-3.27-1.66-4.94l-.73-2.51-.6-2.53a111.6,111.6,0,0,1-2.56-20.51c-.32-6.84-.24-13.65-.29-20.41s-.19-13.47-.89-20.08a121.75,121.75,0,0,0-3.77-19.58,146.4,146.4,0,0,0-16-36.52A215.06,215.06,0,0,0,585.22,63c-17.91-20.09-38.57-37.63-59.7-54.51C515,.05,504.25-8.21,493.14-15.84c-2.79-1.88-5.56-3.81-8.41-5.6-1.42-.91-2.82-1.83-4.25-2.72l-4.32-2.63c-1.42-.89-2.88-1.73-4.34-2.56l-4.38-2.5L463-34.22l-2.23-1.18-2.26-1.11L454-38.72c-1.52-.71-3.07-1.37-4.6-2.06-3.05-1.41-6.21-2.56-9.32-3.82-1.56-.61-3.16-1.12-4.74-1.68s-3.16-1.15-4.78-1.59c-3.22-1-6.42-2-9.67-2.75A142.67,142.67,0,0,0,401-54a139.3,139.3,0,0,0-20.12-.46,117.44,117.44,0,0,0-39.24,8.53,92.2,92.2,0,0,0-33,22.91,87.76,87.76,0,0,1,14.84-13.91,95.81,95.81,0,0,1,17.66-10.22,119,119,0,0,1,39.62-9.75,140.94,140.94,0,0,1,40.84,3.07c3.35.75,6.64,1.69,9.93,2.63,1.66.43,3.27,1,4.9,1.55s3.26,1,4.86,1.65c3.19,1.23,6.43,2.36,9.55,3.75,1.57.68,3.15,1.33,4.72,2L460.21-40a275.3,275.3,0,0,1,35.4,20.56c11.31,7.63,22.16,15.85,32.86,24.25C549.76,21.62,570.66,39.28,589,59.67A220.27,220.27,0,0,1,613.49,92.6a148.29,148.29,0,0,1,16.41,37.8,126.74,126.74,0,0,1,3.74,20.35c.67,6.88.75,13.74.74,20.54s-.12,13.56.08,20.26a108.35,108.35,0,0,0,2.14,19.84l.53,2.43.66,2.38c.41,1.6,1,3.16,1.49,4.73a90.79,90.79,0,0,0,3.93,9.16c2.94,6,6.41,11.8,9.82,17.67,1.71,2.93,3.41,5.88,5,8.9s3.06,6.13,4.51,9.24a134.39,134.39,0,0,1,6.74,19.39,143.93,143.93,0,0,1,3.53,20.18,146.83,146.83,0,0,1,.4,20.44,144.38,144.38,0,0,1-2.74,20.21A141.07,141.07,0,0,1,664.53,365.58Z"/><path class="cls-14" d="M629,729.8a59.05,59.05,0,0,0,10.2-20.46A77.74,77.74,0,0,0,642,686.68c-.32-15.29-4.23-30.34-10.29-44.32s-13.65-27.4-21-40.92S596.24,574,591.62,559.12a189.84,189.84,0,0,1-8.2-45.79,331.29,331.29,0,0,1,.84-46.42c2.6-30.82,8-61.17,11.2-91.65A387.45,387.45,0,0,0,598,329.51a212.09,212.09,0,0,0-5-45.26c-.21-.93-.38-1.86-.62-2.78l-.75-2.74-1.49-5.49c-1.15-3.62-2.28-7.24-3.65-10.78a200.59,200.59,0,0,0-9.2-20.87,347.57,347.57,0,0,0-23.82-39.15c-8.69-12.63-17.95-24.91-27-37.36L499.2,127.82,472.09,90.47,458.54,71.8,445.07,53.06l14.08,18.29,14,18.33,28,36.68,27.88,36.77L543,181.55c4.62,6.16,9.2,12.35,13.66,18.66s8.82,12.67,12.94,19.23,8,13.26,11.58,20.15a205.89,205.89,0,0,1,9.56,21.26c1.43,3.62,2.63,7.33,3.84,11l1.57,5.63.79,2.81c.25.94.44,1.9.66,2.85a212.86,212.86,0,0,1,5.31,46.26,387.17,387.17,0,0,1-2.44,46.35c-3.31,30.7-8.74,61-11.46,91.52a325.46,325.46,0,0,0-1.19,45.76c.3,3.8.43,7.62.93,11.39l.64,5.67.88,5.64.43,2.82c.16.94.37,1.86.56,2.79l1.14,5.59c.4,1.86.94,3.68,1.4,5.53s.89,3.7,1.52,5.49c4.29,14.6,11,28.38,18.17,42s14.66,27.1,20.48,41.47,9.41,29.73,9.36,45.24a78.11,78.11,0,0,1-3.36,22.89A59.06,59.06,0,0,1,629,729.8Z"/><path class="cls-14" d="M261,75.91a79.23,79.23,0,0,0-12.43,7.47,84.87,84.87,0,0,0-10.91,9.47,104.94,104.94,0,0,0-16.85,23.3,148.37,148.37,0,0,0-11.12,26.54,196.66,196.66,0,0,0-6.55,28.06c-2.89,19-3.84,38.37-5.13,57.75s-3.21,38.92-8.11,58a161,161,0,0,1-24.77,53.27,159.55,159.55,0,0,1-42.19,40.75,158,158,0,0,1-54,22.43,163.32,163.32,0,0,1-29,3.38c-2.43.11-4.87,0-7.3,0s-4.86-.21-7.29-.31-4.84-.47-7.25-.7l-7.21-1,7.24.65c2.42.11,4.84.27,7.26.32s4.84.09,7.25,0,4.84-.11,7.24-.31a160.64,160.64,0,0,0,28.55-4.44,160.12,160.12,0,0,0,52.35-23.28A161.84,161.84,0,0,0,142.79,359a159.5,159.5,0,0,0,18.42-22A157.42,157.42,0,0,0,185,285.24c4.86-18.54,6.73-37.8,8.24-57.08s2.61-38.78,6-58.06,9.5-38.19,19.38-55.15a106.64,106.64,0,0,1,18-23,85,85,0,0,1,11.41-9.14A79,79,0,0,1,261,75.91Z"/><path class="cls-14" d="M238.85,55.23A244.08,244.08,0,0,0,214,79.47Q208.28,86,203,92.85t-10.08,14.08q-4.82,7.2-9.23,14.64t-8.36,15.15c-2.62,5.14-5.17,10.31-7.56,15.56s-4.65,10.55-6.79,15.91q-6.37,16.08-11.44,32.64c-1.66,5.52-3.31,11.06-4.69,16.65-.69,2.8-1.49,5.57-2.1,8.38l-1.91,8.43q-3.59,16.91-5.69,34.08c-1.42,11.44-2.39,22.95-3.29,34.49s-1.63,23.12-2.59,34.7-2.13,23.15-3.69,34.69c-.37,2.91-.74,5.7-1,8.55s-.48,5.72-.64,8.6c-.34,5.75-.56,11.53-.79,17.32-.43,11.58-.79,23.18-1.51,34.79s-1.72,23.25-4,34.75a79.52,79.52,0,0,1-5.1,16.94,128.82,128.82,0,0,1-8.44,15.38A119,119,0,0,1,81.23,535,94.28,94.28,0,0,1,67,545a83.9,83.9,0,0,1-16,7,83.42,83.42,0,0,0,15.58-7.58,95.79,95.79,0,0,0,13.81-10.37,116.57,116.57,0,0,0,21.67-26.71A135.57,135.57,0,0,0,110,492.06a76.87,76.87,0,0,0,4.6-16.39c1-5.63,1.71-11.35,2.23-17.09s.91-11.5,1.19-17.27c.56-11.54.77-23.12,1.05-34.72.14-5.8.3-11.6.61-17.43.14-2.91.34-5.82.58-8.74s.61-5.89.94-8.73c2.77-22.94,4.13-46,5.76-69.19s4.24-46.42,9.23-69.23a408.66,408.66,0,0,1,21.17-66.57c4.52-10.74,9.5-21.29,15.07-31.53q4.2-7.66,8.8-15.1t9.67-14.55q5.12-7.09,10.62-13.86T213,78.57q6-6.31,12.44-12.21T238.85,55.23Z"/><path class="cls-14" d="M-32.67,229.78a217.59,217.59,0,0,0,95-21.08,205.45,205.45,0,0,0,75-60.89,210.22,210.22,0,0,0,25.06-41.69c1.57-3.74,3.3-7.43,4.67-11.25.71-1.91,1.5-3.79,2.13-5.72l1.92-5.79c.34-1,.63-1.93.9-2.91l.83-2.93c.56-2,1.14-3.91,1.62-5.89,1-3.95,1.95-7.94,2.9-11.95,1.91-8,3.88-16.1,6.91-23.9a79.59,79.59,0,0,1,5.47-11.31c.54-.91,1.07-1.81,1.68-2.67s1.14-1.76,1.8-2.6a40.54,40.54,0,0,1,4.18-4.78,46.59,46.59,0,0,1,10.11-7.51,41.59,41.59,0,0,1,11.73-4.4,31.5,31.5,0,0,1,12.46-.2,25,25,0,0,1,11.12,5.27,24.59,24.59,0,0,0-11.24-4.52,30.44,30.44,0,0,0-12,.8,43.54,43.54,0,0,0-20.41,12.28,41.54,41.54,0,0,0-3.77,4.62c-.59.8-1.08,1.69-1.63,2.53s-1,1.72-1.51,2.6a75.67,75.67,0,0,0-4.9,11,189.4,189.4,0,0,0-6.18,23.61c-.85,4-1.69,8.05-2.62,12.09-.45,2-1,4-1.56,6l-.81,3c-.26,1-.54,2-.87,3l-1.88,5.94c-.62,2-1.4,3.91-2.09,5.87-1.35,3.94-3.06,7.73-4.62,11.58a212.28,212.28,0,0,1-25.41,42.81c-2.47,3.35-5.24,6.46-7.88,9.67l-4.19,4.62c-.7.77-1.39,1.55-2.11,2.3l-2.19,2.22a199.37,199.37,0,0,1-18.5,16.72l-5,3.8c-1.64,1.27-3.38,2.41-5.07,3.62-3.36,2.46-6.94,4.58-10.42,6.84a207.46,207.46,0,0,1-22,11.57A201.86,201.86,0,0,1-32.67,229.78Z"/><path class="cls-14" d="M1.62,381.65a174.78,174.78,0,0,0,46.24-31.08,239.74,239.74,0,0,0,35.91-42.52A364.18,364.18,0,0,0,111,259.42c8-16.83,14.74-34.22,21.25-51.73S145,172.53,151.61,155s13.57-35,21.67-52l1.5-3.19,1.58-3.15,3.16-6.3q3.27-6.25,6.71-12.41l3.59-6.07c1.2-2,2.38-4.06,3.68-6,2.58-3.94,5-7.95,7.78-11.78a73.11,73.11,0,0,1,9.24-10.82,36.64,36.64,0,0,1,12-7.76,26.94,26.94,0,0,1,14.1-1.26,18.76,18.76,0,0,1,11.88,7.09,18.4,18.4,0,0,0-12-6.35A25.93,25.93,0,0,0,223,36.81a35.93,35.93,0,0,0-11.13,7.86A69.9,69.9,0,0,0,203.3,55.5a358.21,358.21,0,0,0-26.48,49.15c-7.61,17-14.4,34.41-20.77,52S143.48,191.85,137,209.44q-4.91,13.17-10.24,26.22c-3.56,8.69-7.32,17.32-11.43,25.79s-8.47,16.81-13.16,25S92.41,302.56,87,310.26a261.09,261.09,0,0,1-17.44,22.23,216.31,216.31,0,0,1-20,19.9A164.72,164.72,0,0,1,1.62,381.65Z"/><path class="cls-14" d="M116,575.59a103.28,103.28,0,0,0,34.25-5.07,81.06,81.06,0,0,0,29.48-17.47c1.08-.95,2.06-2,3.09-3s2-2.07,2.89-3.17c1.92-2.14,3.65-4.42,5.35-6.73a89.85,89.85,0,0,0,8.53-14.87,88.72,88.72,0,0,0,5.56-16.19c.65-2.77,1.19-5.57,1.56-8.39l.79-8.55c.11-1.4.11-2.86.15-4.3s.11-2.88.08-4.32c0-2.87,0-5.75-.23-8.62-.24-5.75-.85-11.49-1.55-17.22-1.46-11.45-3.6-22.84-5.91-34.22s-4.73-22.78-6.68-34.33S190,366,189.1,354.31v-.05c-.26-3-.42-6-.59-9s-.29-6-.4-9c-.17-6-.27-12-.16-17.93s.31-11.95.66-17.92.87-11.93,1.45-17.86l0-.24a1.63,1.63,0,0,0,0,.31l0-.25c1.19-11.07,2.73-22.15,4.86-33.1.5-2.75,1-5.47,1.64-8.2s1.18-5.43,1.81-8.16c1.27-5.43,2.63-10.79,4.16-16.23a386.54,386.54,0,0,1,23.28-62.56c1.21-2.51,2.39-5,3.64-7.52.64-1.25,1.28-2.5,1.95-3.73l2.09-3.66c2.85-4.81,5.87-9.51,9.11-14.06a166.87,166.87,0,0,1,21.78-25.4,140.48,140.48,0,0,1,12.92-10.63l6.67-5c2.2-1.67,4.38-3.39,6.57-5.09,8.75-6.8,17.5-13.63,26.32-20.34-8.55,7.06-17,14.23-25.59,21.26-8.41,7.24-17.67,13.5-25.41,21.3a154.39,154.39,0,0,0-11,12.27c-3.48,4.27-6.75,8.71-9.83,13.26s-6,9.25-8.68,14l-2,3.61-1.84,3.67c-1.19,2.47-2.32,5-3.48,7.5A401.54,401.54,0,0,0,206.84,218c-1.42,5.24-2.74,10.65-4,16-.59,2.67-1.18,5.39-1.72,8.09s-1.08,5.41-1.54,8.12c-2,10.84-3.55,21.75-4.69,32.72l0-.25a4.78,4.78,0,0,1-.07.65l0-.24c-.57,5.9-1.06,11.75-1.39,17.67s-.53,11.79-.6,17.7,0,11.8.14,17.71c.1,2.94.2,5.89.37,8.84s.32,5.93.54,8.81v.11c.87,11.51,2.22,23,4.11,34.44s4.16,22.79,6.37,34.23,4.28,22.95,5.63,34.59c.63,5.83,1.16,11.68,1.32,17.55.14,2.94.1,5.88.1,8.82,0,1.47-.1,2.93-.14,4.4s-.09,2.92-.23,4.42l-.95,8.81a85.73,85.73,0,0,1-1.76,8.72,92.48,92.48,0,0,1-6.11,16.65,87.11,87.11,0,0,1-21.12,28.14,82.68,82.68,0,0,1-30.6,17,93.47,93.47,0,0,1-17.16,3.5A113.17,113.17,0,0,1,116,575.59Z"/><path class="cls-14" d="M485.49,681.79l-4.13-10.48c-.66-1.76-1.43-3.48-2-5.27l-1.74-5.35-1.73-5.37c-.57-1.79-1.2-3.57-1.62-5.4L471.44,639l-.7-2.74-.54-2.76L469.1,628c-.71-3.69-1.54-7.37-2-11.12l-1.56-11.19c-.39-3.74-.64-7.5-1-11.26-.15-1.87-.31-3.75-.43-5.63l-.13-5.65-.12-5.66-.06-2.83c0-.94-.05-1.88,0-2.82.29-7.54.34-15.09,1.19-22.59l.5-5.64c.1-.94.15-1.88.27-2.82l.41-2.8,1.62-11.21c.22-1.87.7-3.7,1-5.56l1.12-5.55,1.13-5.56c.42-1.84.94-3.65,1.4-5.48,1-3.66,1.89-7.32,2.89-11l3.48-10.79.88-2.7.44-1.35.51-1.32,2.07-5.28,2.07-5.28,1-2.64c.35-.88.78-1.73,1.16-2.59l4.76-10.31c.41-.85.76-1.73,1.21-2.56l1.34-2.5,2.68-5c3.45-6.75,7.44-13.18,11.35-19.59s7.8-12.76,11.29-19.3a121,121,0,0,0,8.75-20.22,99.52,99.52,0,0,0,4.07-21.51,119.79,119.79,0,0,0-.61-22,164.91,164.91,0,0,0-4.31-21.7q-3-10.69-7-21.1t-8.94-20.46c-3.2-6.73-6.76-13.31-10.21-19.94-1.68-3.34-3.57-6.56-5.39-9.83s-3.64-6.53-5.52-9.75l-5.79-9.61-2.9-4.8-3-4.71-6.08-9.42c-2.09-3.1-4.24-6.16-6.35-9.25-4.14-6.23-8.67-12.18-13.06-18.24-1.08-1.52-2.23-3-3.38-4.47L446.46,171,443,166.56c-1.15-1.48-2.29-3-3.5-4.39-4.8-5.74-9.46-11.6-14.46-17.17l-7.4-8.43L410,128.34l-3.82-4.11-3.94-4-7.89-8A621.93,621.93,0,0,0,326,53.89c12.31,8.58,24.52,17.36,36.11,26.93l4.38,3.54,2.19,1.77L370.81,88l8.55,7.34c2.89,2.41,5.61,5,8.4,7.53s5.58,5,8.31,7.63a586.76,586.76,0,0,1,60.33,67.06c4.5,6,9.14,12,13.39,18.2,2.16,3.08,4.34,6.15,6.47,9.26l6.2,9.44,3.1,4.73,3,4.81,5.91,9.63c1.93,3.24,3.76,6.53,5.65,9.79s3.78,6.51,5.51,9.87c3.54,6.65,7.12,13.27,10.39,20.09s6.33,13.73,9.14,20.77,5.19,14.26,7.26,21.57a168.37,168.37,0,0,1,4.5,22.41,125.74,125.74,0,0,1,.58,23,104.56,104.56,0,0,1-4.35,22.62,126.08,126.08,0,0,1-9.15,21c-3.6,6.69-7.55,13.13-11.52,19.5s-7.94,12.69-11.38,19.28l-2.67,4.9-1.34,2.45c-.45.81-.81,1.68-1.21,2.51l-4.76,10.1c-.39.85-.81,1.68-1.17,2.54l-1,2.59-2.08,5.18-2.08,5.19-.52,1.29-.45,1.33-.89,2.64-3.6,10.58c-1,3.58-2,7.18-3,10.76-.49,1.8-1,3.59-1.47,5.4l-1.19,5.46-1.19,5.47c-.37,1.82-.87,3.63-1.11,5.48l-1.78,11-.44,2.76c-.13.92-.2,1.85-.31,2.78l-.58,5.57c-.95,7.41-1.12,14.88-1.51,22.34-.07.93-.06,1.86-.05,2.8l0,2.8,0,5.6,0,5.6.33,5.6c.23,3.72.38,7.46.68,11.19L469,616.58c.33,3.73,1.06,7.4,1.68,11.09l.95,5.54.48,2.76.63,2.74,2.53,10.94c.38,1.84,1,3.62,1.48,5.42l1.58,5.39,1.57,5.4c.52,1.81,1.22,3.55,1.83,5.32Z"/><path class="cls-14" d="M573.67,655.58A100.89,100.89,0,0,1,561,648.76a106.42,106.42,0,0,1-11.56-8.62,110.88,110.88,0,0,1-38.32-75.91,102.1,102.1,0,0,1,2.26-29.12c2.07-9.49,5-18.63,6.84-27.85.47-2.3.83-4.61,1.15-6.91.17-1.16.25-2.31.38-3.47s.25-2.49.43-3.7c.73-4.92,1.91-9.52,2.44-14.11,1.19-9.41,1.87-18.9,2.23-28.41.78-19,.26-38.13-.19-57.28s-1.06-38.2-4.41-56.87a146.89,146.89,0,0,0-7.6-27.29c-3.4-8.82-8.08-17.12-13-25.27-1.24-2-2.49-4.08-3.76-6.1s-2.52-4.11-3.84-6c-2.67-3.84-6.15-7.11-9.58-10.47s-6.7-6.84-10.25-10a43.93,43.93,0,0,0-11.77-8,44.22,44.22,0,0,1,12.26,7.47c3.71,3.06,7.15,6.43,10.67,9.64s7.22,6.39,10.19,10.31c1.49,2,2.76,4,4.14,5.94s2.69,4,4,6a160.36,160.36,0,0,1,14,25.34,144.72,144.72,0,0,1,8.4,27.79,234.07,234.07,0,0,1,3.86,28.7c.76,9.6,1.13,19.21,1.45,28.78.59,19.14,1.16,38.35.45,57.61-.4,9.62-1.13,19.25-2.38,28.84-.6,4.92-1.82,9.63-2.51,14.18-.17,1.15-.3,2.26-.41,3.43s-.24,2.45-.42,3.67q-.5,3.66-1.28,7.23c-2,9.55-5.08,18.66-7.19,27.86A102.2,102.2,0,0,0,515,564a112.19,112.19,0,0,0,35.31,75.14,105.33,105.33,0,0,0,11.11,9A99.63,99.63,0,0,0,573.67,655.58Z"/><path class="cls-14" d="M529.18,379.9c-.09-8.33-.18-16.65-.69-24.94a144.94,144.94,0,0,0-3.38-24.54,96.81,96.81,0,0,0-3.56-11.77,90.52,90.52,0,0,0-5.17-11.13c-2-3.61-4.1-7.15-6.26-10.7s-4.33-7.08-6.57-10.57a221.87,221.87,0,0,0-14.32-20.14A102.79,102.79,0,0,0,471.91,249c-1.63-1.2-3.27-2.34-5-3.59s-3.43-2.6-5.06-4a83.6,83.6,0,0,1-9-9.14,123.64,123.64,0,0,1-14.2-21.11c-8-14.9-13.66-30.67-20.64-45.62A153.82,153.82,0,0,0,406.16,144l-1.73-2.52c-.6-.82-1.23-1.63-1.84-2.44-1.21-1.65-2.55-3.21-3.84-4.8s-2.68-3.12-4-4.69L390.55,125c-5.66-6-11.64-11.76-17.69-17.44S360.62,96.28,354.44,90.7l-9.23-8.42c-3.06-2.79-6.19-5.53-9.34-8.24-6.3-5.42-12.82-10.58-19.47-15.6,3.45,2.33,6.93,4.62,10.32,7s6.73,4.92,10,7.47c6.62,5.08,12.9,10.59,19.3,15.89,12.74,10.72,25.52,21.47,37.31,33.41a149.48,149.48,0,0,1,16.42,19.24,158.5,158.5,0,0,1,12.48,22c7.22,15.16,12.87,30.85,20.74,45.25a119.64,119.64,0,0,0,13.52,20.32,78.68,78.68,0,0,0,8.46,8.66c1.52,1.33,3.09,2.58,4.72,3.77s3.38,2.43,5.09,3.73a107.46,107.46,0,0,1,17.85,18.14,200.76,200.76,0,0,1,14.21,20.82c2.18,3.57,4.27,7.18,6.36,10.78s4.17,7.25,6.06,11a91.64,91.64,0,0,1,5,11.67,93.32,93.32,0,0,1,3.26,12.22,140.54,140.54,0,0,1,2.37,25C530,363.26,529.61,371.59,529.18,379.9Z"/><path class="cls-14" d="M264.14,47.21a45.79,45.79,0,0,1,16.32-5.63,56.92,56.92,0,0,1,17.38.29,71.88,71.88,0,0,1,31.76,14c9.27,7.17,17,16.15,23.57,25.72a284.4,284.4,0,0,1,17.44,30.1q15.92,30.78,29.5,62.7c9,21.29,17.32,42.86,24.72,64.75,3.72,10.94,7.19,22,10.54,33s6.33,22.22,9.46,33.29,6.41,22.08,10.21,32.88a227,227,0,0,0,13.56,31.47c1.38,2.49,2.71,5,4.2,7.43s3.06,4.78,4.75,7.08a142.61,142.61,0,0,0,10.83,13.23,164.36,164.36,0,0,0,25.72,22.63,133.45,133.45,0,0,0,30.23,16.18A102.34,102.34,0,0,0,578,443a99.37,99.37,0,0,1-34-5.61,134.34,134.34,0,0,1-31-15.56,158.1,158.1,0,0,1-26.62-22.37A145,145,0,0,1,475,386.17c-1.77-2.32-3.41-4.74-5-7.19s-3-5-4.47-7.52a229.42,229.42,0,0,1-14.35-31.73c-4.08-10.86-7.43-22-10.71-33s-6.4-22.15-9.75-33.14-6.86-21.95-10.6-32.82c-.92-2.73-1.9-5.43-2.84-8.14s-1.91-5.42-2.9-8.12l-2.94-8.11-3-8.08c-4.09-10.74-8.32-21.43-12.77-32s-9-21.16-13.81-31.61S372.1,123.83,367,113.52a281.52,281.52,0,0,0-16.67-30C344.11,74,336.83,65.06,328,57.88a70.45,70.45,0,0,0-30.42-14.65,55.94,55.94,0,0,0-17-.86A45.45,45.45,0,0,0,264.14,47.21Z"/><path class="cls-14" d="M33.45,774.25a208.82,208.82,0,0,0,29.51-32,330.43,330.43,0,0,0,23.39-36.64c7-12.7,13.53-25.7,19.85-38.81s12.81-26.18,18.69-39.43a293.81,293.81,0,0,0,15.23-40.56l.74-2.6.66-2.62,1.31-5.25c.73-3.53,1.58-7,2.16-10.6.3-1.78.65-3.55.92-5.34l.78-5.36c.29-1.79.48-3.59.7-5.38s.46-3.59.61-5.4c2.9-28.85,1.77-58,1.12-87.2,1.4,14.52,2.59,29.06,3.22,43.66.33,7.29.44,14.61.43,21.92,0,3.66-.09,7.33-.27,11s-.37,7.31-.61,11c-.59,7.32-1.32,14.63-2.59,21.88-.52,3.64-1.33,7.24-2,10.86L146,582.73l-.64,2.69-.71,2.67a289.61,289.61,0,0,1-15.23,41.33c-6,13.36-12.53,26.41-19,39.48S97.21,695,89.72,707.55a296.1,296.1,0,0,1-24.84,36.22A184.6,184.6,0,0,1,33.45,774.25Z"/></g></svg>