<svg width="70" height="41" viewBox="0 0 70 41" fill="none" xmlns="http://www.w3.org/2000/svg">
<path fill-rule="evenodd" clip-rule="evenodd" d="M0.0485071 20.247C0.0322989 20.2688 0.0161298 20.2905 0 20.3123L0.218793 20.4745C5.77544 27.8559 15.7639 36.9306 28.072 39.6728C34.3328 41.0678 41.179 40.8188 48.2981 37.8869C55.3538 34.981 62.6191 29.4643 69.8351 20.416L70 20.2853C69.9899 20.2725 69.9797 20.2597 69.9696 20.247C69.9797 20.2342 69.9899 20.2214 70 20.2086L69.8351 20.0779C62.6191 11.0297 55.3538 5.51294 48.2981 2.60706C41.179 -0.32491 34.3328 -0.573845 28.072 0.821082C15.7639 3.56337 5.77544 12.638 0.218793 20.0194L0 20.1817C0.0161298 20.2034 0.0322989 20.2252 0.0485071 20.247ZM2.70721 20.247C8.21632 13.3128 17.4501 5.34699 28.5304 2.87827C34.4009 1.57029 40.8043 1.80015 47.4955 4.55588C53.8532 7.1743 60.5241 12.0956 67.258 20.247C60.5241 28.3983 53.8532 33.3196 47.4955 35.938C40.8043 38.6938 34.4009 38.9236 28.5304 37.6157C17.4501 35.1469 8.21632 27.1811 2.70721 20.247Z" fill="#F2F2F2"/>
<path fill-rule="evenodd" clip-rule="evenodd" d="M34.9868 34.1437C42.6693 34.1437 48.8972 27.9158 48.8972 20.2333C48.8972 12.5508 42.6693 6.3229 34.9868 6.3229C27.3043 6.3229 21.0764 12.5508 21.0764 20.2333C21.0764 27.9158 27.3043 34.1437 34.9868 34.1437ZM34.9868 25.7131C38.0132 25.7131 40.4666 23.2597 40.4666 20.2333C40.4666 17.2068 38.0132 14.7534 34.9868 14.7534C31.9604 14.7534 29.5069 17.2068 29.5069 20.2333C29.5069 23.2597 31.9604 25.7131 34.9868 25.7131Z" fill="#F2F2F2"/>
</svg>
