<svg width="1936" height="162" viewBox="0 0 1936 162" fill="none" xmlns="http://www.w3.org/2000/svg">
<path d="M271.385 6.80673C169.385 32.8067 80.8043 161.608 0.80427 161.608L1935.38 161.807C1805.38 159.188 1787.38 111.807 1741.38 137.807C1647.36 190.949 1591.38 85.8067 1553.38 101.807C1515.38 117.807 1513.38 137.807 1415.38 137.807C1355.38 137.807 1303.38 111.807 1221.38 68.8067C1189.38 97.8067 1133.38 137.807 1031.38 137.807C953.385 126.807 937.385 96.8067 896.385 85.8067C865.385 102.807 821.385 112.14 811.385 111.807L751.385 85.8067L751.097 86.0192C728.284 102.882 716.21 111.807 674.385 111.807C618.842 111.807 590.385 62.8067 576.385 68.8067C553.351 78.6783 540.385 104.807 488.385 111.807C465.051 112.807 419.924 105.403 393.385 90.8067C353.385 68.8067 271.385 6.80673 271.385 6.80673Z" fill="black"/>
<path d="M1740.01 151.035V102.675M1740.01 102.675L1727.77 84.1838M1740.01 102.675L1743.42 77.641M1727.77 84.1838L1720.38 83.6908L1702.17 82.477M1727.77 84.1838L1727.06 75.7919M1727.77 84.1838L1721.23 74.3696M1714.69 64.5553V54.0298M1714.69 64.5553L1702.17 55.1677M1714.69 64.5553H1703.59M1714.69 64.5553L1721.23 74.3696M1743.42 77.641L1748.82 72.5205M1743.42 77.641L1740.01 65.8354M1743.42 77.641L1733.18 42.2242M1754.23 67.4L1755.08 63.1329M1754.23 67.4L1768.74 64.5553M1754.23 67.4L1748.82 72.5205M1758.78 44.6422L1755.94 58.8658L1755.08 63.1329M1755.08 63.1329L1747.12 55.1677M1748.82 72.5205H1750.7C1755.92 72.5205 1760.99 74.3296 1765.04 77.641V77.641M1771.87 82.477L1765.04 77.641M1765.04 77.641L1779.83 73.9429M1729.77 30.4186L1733.18 42.2242M1736.59 54.0298L1740.01 39.2373M1736.59 54.0298L1740.01 65.8354M1736.59 54.0298L1733.18 42.2242M1745.13 17.0485L1742.04 30.4186L1740.01 39.2373M1740.01 39.2373L1736.59 23.3068M1740.01 65.8354L1727.77 60.5727M1733.18 42.2242L1723.22 39.2373M1733.18 42.2242H1727.77M1726.35 67.4L1727.06 75.7919M1727.06 75.7919L1731.19 72.5205M1714.69 48.3404V54.0298M1714.69 54.0298L1720.38 52.0385M1714.69 54.0298L1707.01 44.6422M1721.23 74.3696L1711.27 73.9429" stroke="black" stroke-width="4" stroke-linecap="round"/>
<path d="M1773.9 72.7686C1773.35 73.5881 1771.83 74.0967 1771.03 74.6173C1771.21 75.3473 1770.99 76.5477 1771.58 77.1732C1771.91 77.5165 1771.57 77.9938 1771.81 78.4064C1771.95 78.6368 1772.87 78.2124 1773.03 78.1073C1773.46 77.8202 1775.99 76.7127 1775.42 77.6745C1775.19 78.0658 1775.01 78.6337 1774.89 79.1028C1774.82 79.3505 1776.37 78.6823 1776.5 78.6296C1776.59 78.5932 1777.74 77.8319 1777.3 78.4173C1777.06 78.7306 1776.83 79.1717 1776.64 79.5254C1776.44 79.8938 1774.06 82.5368 1775.91 82.4803C1776.87 82.451 1778.07 81.5905 1778.33 80.6553C1778.45 80.2158 1778.72 79.7413 1778.71 79.2665C1778.71 79.1227 1778.88 77.796 1779.23 78.3994C1779.46 78.7848 1779.8 81.3575 1779.96 81.2315C1780.3 80.9796 1782.02 79.1309 1782.11 79.4247C1782.45 80.4938 1782.56 81.7191 1783.7 80.5501C1784.08 80.163 1784.3 79.2703 1784.82 79.1071C1785.53 78.8868 1785.74 80.5446 1785.88 81.0705C1786.23 82.4756 1787.14 80.7181 1787.14 80.1906C1787.14 79.5021 1788.05 80.4839 1788.17 80.5701C1788.64 80.9045 1788.75 81.9259 1789.6 81.7983C1790.9 81.6023 1791.37 80.7123 1791.07 79.5618C1790.75 78.2785 1793.32 79.8929 1793.57 79.8574C1794.14 79.774 1795.06 79.634 1795.57 79.3388C1795.9 79.1466 1794.91 78.5268 1794.78 78.4335C1794.23 78.0593 1793.18 77.6174 1793.01 76.9396C1792.87 76.3985 1793.93 75.9517 1794.27 75.6686C1794.55 75.4324 1796.02 74.6571 1795.38 74.1965C1794.95 73.8829 1794.44 73.8691 1793.94 73.9961C1793.19 74.1874 1796.29 72.2476 1795.55 71.9122L1795.53 71.9062C1794.85 71.5976 1794.5 71.4355 1793.69 71.6406C1793.29 71.7413 1791.67 72.3953 1791.5 71.7324C1791.38 71.2562 1791.54 70.7268 1791.82 70.3584C1792 70.1279 1792.39 70.1414 1792.63 70.0076C1793.27 69.6597 1793.81 69.1792 1794.46 68.8411C1794.9 68.6118 1796.2 68.1598 1795.8 67.4847C1795.59 67.1178 1793.5 68.2247 1793.4 68.2625C1792.68 68.5414 1790.1 69.8728 1789.64 68.7642C1789.5 68.4183 1789.64 67.8225 1789.51 67.5986C1789.37 67.3688 1787.86 67.9043 1787.72 67.9925C1786.69 68.6104 1786.04 68.6588 1784.84 68.6411C1784.41 68.6346 1782.56 68.0679 1782.41 68.7436C1782.28 69.3214 1782.45 70.5356 1782.6 71.114C1782.84 72.0603 1782.46 73.6224 1781.13 73.3892C1780.91 73.3509 1779.63 73.2266 1780.06 72.835C1780.44 72.4927 1781.44 72.382 1781.68 72.0507C1781.97 71.6546 1781.09 71.0303 1780.87 70.8929C1780.23 70.4911 1779.96 69.502 1779.1 69.7731C1778.7 69.8961 1777.53 72.4004 1776.85 71.7504C1776.71 71.6198 1776.41 71.4668 1776.33 71.3031C1776.25 71.1174 1776.24 70.4728 1776.01 70.4129C1775.37 70.2441 1775.02 70.7852 1774.77 71.2052C1774.47 71.702 1774.24 72.2684 1773.9 72.7686Z" fill="black"/>
<path d="M1754.67 68.7394C1754.12 69.5589 1752.59 70.0675 1751.79 70.5881C1751.98 71.3181 1751.76 72.5185 1752.35 73.144C1752.67 73.4873 1752.34 73.9646 1752.58 74.3771C1752.72 74.6076 1753.64 74.1832 1753.8 74.0781C1754.22 73.791 1756.76 72.6835 1756.19 73.6453C1755.96 74.0365 1755.78 74.6045 1755.65 75.0736C1755.59 75.3213 1757.13 74.6531 1757.27 74.6003C1757.36 74.564 1758.5 73.8027 1758.06 74.3881C1757.83 74.7014 1757.59 75.1425 1757.4 75.4962C1757.21 75.8646 1754.82 78.5076 1756.68 78.451C1757.64 78.4218 1758.84 77.5613 1759.1 76.6261C1759.22 76.1866 1759.49 75.7121 1759.48 75.2373C1759.47 75.0935 1759.65 73.7668 1760 74.3702C1760.23 74.7556 1760.56 77.3283 1760.73 77.2023C1761.07 76.9504 1762.78 75.1017 1762.88 75.3954C1763.22 76.4646 1763.33 77.6899 1764.47 76.5209C1764.84 76.1338 1765.06 75.2411 1765.59 75.0779C1766.29 74.8576 1766.51 76.5154 1766.64 77.0413C1767 78.4464 1767.91 76.6889 1767.91 76.1614C1767.91 75.4729 1768.82 76.4547 1768.94 76.5409C1769.4 76.8753 1769.52 77.8967 1770.36 77.769C1771.67 77.5731 1772.14 76.6831 1771.84 75.5326C1771.52 74.2493 1774.09 75.8637 1774.34 75.8282C1774.91 75.7447 1775.83 75.6048 1776.33 75.3096C1776.66 75.1174 1775.68 74.4976 1775.54 74.4043C1775 74.0301 1773.95 73.5882 1773.78 72.9104C1773.64 72.3693 1774.7 71.9225 1775.04 71.6394C1775.32 71.4031 1776.79 70.6278 1776.15 70.1673C1775.72 69.8537 1775.2 69.8399 1774.7 69.9669C1773.95 70.1582 1777.05 68.2184 1776.31 67.883L1776.3 67.877C1775.62 67.5684 1775.26 67.4063 1774.46 67.6114C1774.06 67.7121 1772.44 68.3661 1772.27 67.7032C1772.15 67.227 1772.3 66.6976 1772.59 66.3292C1772.77 66.0987 1773.16 66.1122 1773.4 65.9784C1774.04 65.6305 1774.57 65.15 1775.22 64.8119C1775.66 64.5826 1776.97 64.1306 1776.57 63.4555C1776.36 63.0886 1774.26 64.1955 1774.17 64.2333C1773.45 64.5122 1770.86 65.8436 1770.41 64.735C1770.26 64.3891 1770.41 63.7933 1770.28 63.5694C1770.14 63.3396 1768.63 63.8751 1768.48 63.9633C1767.46 64.5812 1766.81 64.6296 1765.61 64.6119C1765.17 64.6054 1763.32 64.0387 1763.18 64.7144C1763.05 65.2922 1763.22 66.5064 1763.37 67.0848C1763.61 68.0311 1763.23 69.5932 1761.9 69.36C1761.68 69.3217 1760.4 69.1974 1760.83 68.8058C1761.21 68.4635 1762.2 68.3528 1762.45 68.0215C1762.74 67.6254 1761.85 67.0011 1761.64 66.8637C1761 66.4619 1760.72 65.4728 1759.86 65.7439C1759.47 65.8669 1758.3 68.3712 1757.62 67.7212C1757.48 67.5906 1757.17 67.4376 1757.1 67.2739C1757.01 67.0882 1757.01 66.4436 1756.78 66.3837C1756.14 66.2149 1755.78 66.756 1755.53 67.176C1755.24 67.6728 1755.01 68.2391 1754.67 68.7394Z" fill="black"/>
<path d="M1739.12 81.1825C1739.76 81.2574 1740.5 81.9865 1741.04 82.2932C1741.4 81.9706 1742.16 81.7417 1742.35 81.2172C1742.45 80.9293 1742.82 80.98 1742.99 80.7198C1743.08 80.5744 1742.56 80.1671 1742.46 80.1082C1742.16 79.9474 1740.78 78.8146 1741.5 78.8595C1741.79 78.8777 1742.17 78.8133 1742.48 78.7459C1742.64 78.7103 1741.8 78.0173 1741.73 77.9554C1741.68 77.9127 1740.91 77.4797 1741.37 77.5613C1741.62 77.6049 1741.95 77.6082 1742.21 77.613C1742.48 77.618 1744.7 78.2082 1744.12 77.1579C1743.82 76.6154 1742.97 76.1771 1742.36 76.3044C1742.07 76.3643 1741.71 76.3471 1741.44 76.4958C1741.36 76.5408 1740.55 76.8312 1740.79 76.4506C1740.95 76.2074 1742.33 75.2532 1742.2 75.1929C1741.96 75.0725 1740.39 74.6326 1740.53 74.492C1741.05 73.9803 1741.72 73.5561 1740.71 73.2449C1740.38 73.1419 1739.8 73.2793 1739.55 73.0258C1739.21 72.6834 1740.1 72.0691 1740.37 71.8367C1741.07 71.2157 1739.79 71.2116 1739.49 71.3688C1739.09 71.5739 1739.39 70.7603 1739.4 70.6655C1739.45 70.298 1740.01 69.9302 1739.69 69.4801C1739.19 68.7892 1738.54 68.7819 1737.96 69.2904C1737.32 69.8576 1737.49 67.8976 1737.39 67.7674C1737.18 67.4614 1736.83 66.9753 1736.51 66.7708C1736.3 66.6377 1736.23 67.3867 1736.22 67.4923C1736.16 67.9159 1736.22 68.6503 1735.88 68.9499C1735.61 69.189 1735.04 68.713 1734.78 68.6013C1734.56 68.5081 1733.68 67.8929 1733.6 68.395C1733.55 68.737 1733.69 69.0372 1733.91 69.2869C1734.24 69.6631 1732.21 68.451 1732.24 68.9762L1732.24 68.9855C1732.26 69.4686 1732.27 69.7224 1732.63 70.1256C1732.8 70.3237 1733.66 71.0654 1733.33 71.3584C1733.09 71.5689 1732.74 71.6348 1732.44 71.5789C1732.26 71.5439 1732.15 71.3174 1732 71.2163C1731.61 70.9532 1731.18 70.7858 1730.79 70.5121C1730.53 70.3264 1729.88 69.7098 1729.61 70.1357C1729.46 70.3672 1730.72 71.2464 1730.77 71.2914C1731.14 71.6238 1732.67 72.7162 1732.17 73.3069C1732.01 73.4912 1731.63 73.5857 1731.54 73.7269C1731.44 73.8719 1732.2 74.5832 1732.29 74.6417C1732.95 75.0517 1733.17 75.4093 1733.52 76.1044C1733.64 76.3574 1733.86 77.5902 1734.29 77.4753C1734.66 77.377 1735.31 76.9213 1735.6 76.6656C1736.08 76.2474 1737.09 76.004 1737.35 76.8382C1737.39 76.9753 1737.7 77.7518 1737.34 77.6187C1737.03 77.5023 1736.68 76.9609 1736.41 76.918C1736.1 76.8668 1736 77.5614 1735.99 77.7273C1735.94 78.2123 1735.45 78.663 1735.87 79.079C1736.05 79.2679 1737.84 79.2045 1737.67 79.7879C1737.63 79.9051 1737.63 80.1262 1737.56 80.2176C1737.48 80.3214 1737.11 80.5162 1737.14 80.6647C1737.24 81.0829 1737.65 81.1279 1737.97 81.1475C1738.34 81.1707 1738.74 81.1367 1739.12 81.1825Z" fill="black"/>
<path d="M1770.27 80.5032C1769.53 81.1603 1767.93 81.2737 1767.02 81.5793C1767.02 82.3325 1766.51 83.4411 1766.93 84.1935C1767.16 84.6065 1766.71 84.9862 1766.84 85.4455C1766.92 85.702 1767.92 85.5207 1768.1 85.4577C1768.58 85.2856 1771.31 84.8425 1770.52 85.6322C1770.2 85.9535 1769.88 86.459 1769.65 86.8828C1769.52 87.1065 1771.19 86.8433 1771.33 86.8256C1771.43 86.8134 1772.72 86.3598 1772.15 86.817C1771.84 87.0618 1771.51 87.4314 1771.24 87.727C1770.95 88.0347 1767.99 90.0035 1769.8 90.4089C1770.74 90.6184 1772.11 90.0835 1772.6 89.2419C1772.82 88.8463 1773.21 88.4545 1773.31 87.991C1773.34 87.8506 1773.84 86.6094 1774.03 87.2811C1774.16 87.7102 1773.84 90.286 1774.04 90.206C1774.43 90.046 1776.55 88.6806 1776.56 88.9884C1776.63 90.1085 1776.43 91.3223 1777.82 90.4731C1778.29 90.1919 1778.72 89.3816 1779.27 89.3537C1780.01 89.3161 1779.81 90.9756 1779.81 91.5183C1779.8 92.9682 1781.12 91.4914 1781.25 90.9799C1781.42 90.3123 1782.05 91.4891 1782.15 91.6025C1782.52 92.0424 1782.38 93.0602 1783.23 93.147C1784.54 93.2802 1785.21 92.5346 1785.22 91.3474C1785.22 90.0232 1787.31 92.2268 1787.56 92.2531C1788.13 92.3148 1789.06 92.4067 1789.62 92.2467C1789.99 92.1424 1789.19 91.2979 1789.08 91.1739C1788.65 90.6764 1787.74 89.9878 1787.74 89.2884C1787.74 88.7301 1788.88 88.5596 1789.28 88.3696C1789.61 88.2111 1791.22 87.8242 1790.72 87.2202C1790.38 86.8089 1789.88 86.6678 1789.37 86.6669C1788.59 86.6656 1792.08 85.5566 1791.45 85.0478L1791.44 85.0388C1790.85 84.5709 1790.55 84.3251 1789.71 84.3236C1789.31 84.3229 1787.57 84.5531 1787.57 83.8691C1787.57 83.3777 1787.86 82.9039 1788.23 82.6182C1788.46 82.4393 1788.83 82.5483 1789.1 82.4795C1789.8 82.3003 1790.44 81.9683 1791.15 81.8019C1791.63 81.6891 1793.01 81.5748 1792.8 80.8232C1792.68 80.4147 1790.38 80.9667 1790.27 80.979C1789.5 81.0702 1786.67 81.7191 1786.51 80.5317C1786.45 80.1612 1786.74 79.6192 1786.67 79.37C1786.6 79.1141 1785 79.2578 1784.84 79.3067C1783.68 79.6497 1783.05 79.5362 1781.89 79.2214C1781.47 79.1069 1779.82 78.0984 1779.51 78.7164C1779.24 79.2448 1779.1 80.4628 1779.1 81.0596C1779.1 82.0362 1778.35 83.4552 1777.12 82.8992C1776.91 82.8078 1775.7 82.3683 1776.22 82.0963C1776.67 81.8586 1777.66 81.9989 1777.98 81.7388C1778.36 81.4277 1777.66 80.6029 1777.48 80.4157C1776.96 79.8685 1776.94 78.8421 1776.04 78.8906C1775.63 78.9127 1773.87 81.0467 1773.37 80.2482C1773.27 80.0878 1773.02 79.8637 1772.99 79.6866C1772.95 79.4856 1773.1 78.8593 1772.9 78.7449C1772.32 78.4225 1771.84 78.8583 1771.49 79.2032C1771.08 79.6111 1770.72 80.1021 1770.27 80.5032Z" fill="black"/>
<path d="M1762.58 63.047C1762.34 64.0197 1761.05 65.0309 1760.47 65.8035C1760.89 66.4375 1761.1 67.6602 1761.88 68.0554C1762.3 68.2723 1762.15 68.8431 1762.52 69.1549C1762.73 69.3291 1763.47 68.6054 1763.58 68.4512C1763.89 68.0302 1765.93 66.0999 1765.72 67.2158C1765.63 67.6698 1765.65 68.2744 1765.7 68.7654C1765.72 69.0247 1766.97 67.8544 1767.08 67.7577C1767.16 67.691 1767.99 66.5705 1767.77 67.2821C1767.65 67.6629 1767.58 68.1643 1767.52 68.5678C1767.45 68.9879 1766.09 72.3331 1767.84 71.6422C1768.74 71.2852 1769.6 70.0491 1769.52 69.0661C1769.49 68.6042 1769.59 68.0566 1769.41 67.6077C1769.36 67.4717 1769.07 66.1428 1769.61 66.5988C1769.96 66.8901 1771.17 69.2339 1771.28 69.0551C1771.52 68.698 1772.52 66.342 1772.71 66.5908C1773.41 67.4961 1773.93 68.6303 1774.62 67.1208C1774.85 66.621 1774.75 65.6921 1775.2 65.3561C1775.8 64.9022 1776.57 66.4128 1776.88 66.8696C1777.71 68.0901 1777.97 66.0975 1777.79 65.5939C1777.55 64.9367 1778.76 65.5628 1778.9 65.6039C1779.46 65.7632 1779.92 66.7003 1780.69 66.2871C1781.86 65.6528 1782.01 64.6406 1781.33 63.6413C1780.58 62.5266 1783.6 63.1849 1783.82 63.067C1784.34 62.7898 1785.17 62.3412 1785.55 61.8849C1785.8 61.5878 1784.65 61.333 1784.48 61.2904C1783.84 61.1195 1782.68 61.0574 1782.28 60.4687C1781.97 59.9987 1782.82 59.2087 1783.05 58.8213C1783.24 58.4982 1784.37 57.2531 1783.61 57.0313C1783.09 56.8802 1782.59 57.0439 1782.16 57.3367C1781.5 57.7779 1783.8 54.8578 1782.98 54.7914L1782.96 54.7903C1782.21 54.7292 1781.81 54.6971 1781.11 55.17C1780.77 55.4023 1779.44 56.5856 1779.05 56.0098C1778.77 55.5962 1778.74 55.0361 1778.89 54.5855C1778.98 54.3036 1779.35 54.1837 1779.54 53.9718C1780.03 53.4209 1780.38 52.7768 1780.88 52.2306C1781.22 51.8601 1782.31 50.9802 1781.7 50.4699C1781.37 50.1926 1779.75 51.9709 1779.67 52.0405C1779.08 52.5547 1777.07 54.7145 1776.25 53.8117C1775.99 53.53 1775.93 52.9117 1775.72 52.7425C1775.52 52.5688 1774.26 53.5997 1774.15 53.7345C1773.38 54.679 1772.77 54.9472 1771.62 55.3421C1771.2 55.4858 1769.24 55.5799 1769.33 56.2764C1769.41 56.872 1769.99 57.975 1770.33 58.4773C1770.88 59.2993 1771.06 60.9229 1769.71 61.1568C1769.48 61.1952 1768.21 61.5179 1768.49 60.995C1768.73 60.538 1769.65 60.0894 1769.77 59.6887C1769.91 59.2096 1768.85 58.9172 1768.6 58.8606C1767.85 58.6952 1767.25 57.8442 1766.52 58.3995C1766.18 58.6515 1765.92 61.4494 1765.05 61.0616C1764.87 60.9837 1764.53 60.9424 1764.4 60.8116C1764.26 60.6633 1764.03 60.0496 1763.79 60.0704C1763.12 60.1289 1762.96 60.7684 1762.87 61.2558C1762.76 61.8321 1762.73 62.4533 1762.58 63.047Z" fill="black"/>
<path d="M1754.71 51.2289C1755.06 52.1679 1754.58 53.7314 1754.54 54.7001C1755.26 54.9772 1756.12 55.8662 1756.98 55.7473C1757.46 55.682 1757.66 56.2391 1758.14 56.2838C1758.41 56.3088 1758.61 55.2932 1758.61 55.1019C1758.63 54.5797 1759.21 51.8289 1759.66 52.8691C1759.85 53.2923 1760.21 53.7758 1760.53 54.155C1760.7 54.3552 1761.06 52.6818 1761.09 52.5394C1761.12 52.4412 1761.16 51.0469 1761.38 51.7579C1761.5 52.1384 1761.73 52.5906 1761.91 52.9564C1762.1 53.3373 1762.88 56.8665 1763.93 55.3004C1764.47 54.4914 1764.47 52.9887 1763.84 52.2229C1763.55 51.863 1763.32 51.357 1762.92 51.0888C1762.8 51.0076 1761.81 50.0788 1762.51 50.1442C1762.96 50.1859 1765.29 51.4253 1765.29 51.2108C1765.28 50.7823 1764.76 48.2749 1765.06 48.3709C1766.14 48.7206 1767.22 49.3542 1766.93 47.7212C1766.83 47.1806 1766.22 46.4723 1766.39 45.9426C1766.63 45.2273 1768.13 46.0268 1768.64 46.2264C1770.01 46.7599 1769.1 44.971 1768.66 44.6616C1768.09 44.2577 1769.44 44.085 1769.58 44.0364C1770.13 43.8477 1771.04 44.3557 1771.44 43.5795C1772.04 42.3883 1771.59 41.4749 1770.46 41.0381C1769.21 40.5509 1772.06 39.3733 1772.18 39.1502C1772.45 38.626 1772.87 37.7857 1772.93 37.1926C1772.96 36.8063 1771.87 37.2535 1771.71 37.3105C1771.08 37.5393 1770.1 38.146 1769.44 37.8887C1768.91 37.6833 1769.16 36.5462 1769.13 36.0984C1769.1 35.7249 1769.32 34.0547 1768.57 34.3087C1768.05 34.4817 1767.74 34.899 1767.55 35.3865C1767.26 36.121 1767.49 32.412 1766.77 32.8261L1766.76 32.8334C1766.1 33.2143 1765.76 33.4144 1765.45 34.2017C1765.3 34.5884 1764.89 36.3173 1764.24 36.0657C1763.77 35.8849 1763.43 35.4426 1763.29 34.9885C1763.21 34.7043 1763.45 34.3927 1763.48 34.1117C1763.57 33.3809 1763.49 32.6528 1763.59 31.9166C1763.66 31.4173 1764.06 30.073 1763.27 29.9999C1762.84 29.9602 1762.51 32.3462 1762.49 32.4491C1762.29 33.2096 1761.87 36.1296 1760.69 35.8534C1760.32 35.7672 1759.91 35.2984 1759.64 35.2741C1759.37 35.2492 1758.93 36.8143 1758.91 36.9878C1758.82 38.2037 1758.48 38.7664 1757.75 39.747C1757.49 40.1038 1755.93 41.2998 1756.4 41.8202C1756.81 42.2652 1757.91 42.8424 1758.47 43.0619C1759.4 43.4212 1760.47 44.6564 1759.49 45.6181C1759.33 45.7762 1758.47 46.7655 1758.4 46.1769C1758.34 45.6626 1758.84 44.7725 1758.71 44.3749C1758.55 43.8993 1757.51 44.2638 1757.27 44.3627C1756.56 44.6518 1755.58 44.2957 1755.3 45.1684C1755.17 45.5645 1756.55 48.0141 1755.61 48.1926C1755.42 48.2285 1755.11 48.3908 1754.93 48.3562C1754.73 48.3169 1754.19 47.9427 1754.01 48.0951C1753.49 48.5247 1753.73 49.1383 1753.93 49.5926C1754.16 50.1298 1754.5 50.6557 1754.71 51.2289Z" fill="black"/>
<path d="M1747.48 59.2089C1748.18 59.3703 1748.93 60.2816 1749.5 60.6919C1749.95 60.3731 1750.83 60.2072 1751.1 59.6394C1751.25 59.3277 1751.66 59.4301 1751.88 59.1573C1752 59.005 1751.47 58.4836 1751.36 58.4043C1751.05 58.1879 1749.63 56.7443 1750.43 56.8826C1750.76 56.9388 1751.2 56.9124 1751.55 56.8738C1751.74 56.8534 1750.87 55.9711 1750.8 55.8929C1750.75 55.839 1749.93 55.2573 1750.45 55.4059C1750.73 55.4854 1751.09 55.5282 1751.38 55.5652C1751.68 55.6037 1754.12 56.5384 1753.59 55.2857C1753.32 54.6385 1752.42 54.0417 1751.71 54.1104C1751.38 54.1427 1750.98 54.0804 1750.66 54.215C1750.56 54.2558 1749.61 54.4836 1749.93 54.0847C1750.13 53.8299 1751.8 52.9235 1751.67 52.8408C1751.41 52.6755 1749.7 51.9895 1749.87 51.8484C1750.52 51.335 1751.33 50.9392 1750.23 50.4662C1749.86 50.3096 1749.19 50.394 1748.94 50.0784C1748.61 49.6522 1749.68 49.0689 1750.01 48.8392C1750.88 48.2256 1749.44 48.0655 1749.08 48.2055C1748.61 48.3884 1749.04 47.5086 1749.07 47.4036C1749.17 46.9965 1749.84 46.6498 1749.53 46.1037C1749.05 45.2656 1748.32 45.1783 1747.61 45.6808C1746.82 46.2412 1747.25 44.0553 1747.16 43.8975C1746.95 43.5266 1746.62 42.9367 1746.28 42.6677C1746.06 42.4925 1745.9 43.3276 1745.87 43.4448C1745.75 43.915 1745.73 44.7485 1745.31 45.0445C1744.98 45.2808 1744.39 44.6758 1744.11 44.518C1743.87 44.3864 1742.96 43.5871 1742.81 44.1429C1742.71 44.5215 1742.84 44.8769 1743.05 45.1848C1743.38 45.6487 1741.24 44.0372 1741.21 44.6316L1741.21 44.6421C1741.17 45.1888 1741.16 45.4759 1741.51 45.9732C1741.68 46.2174 1742.55 47.1564 1742.15 47.4459C1741.85 47.6538 1741.45 47.6854 1741.12 47.5864C1740.92 47.5245 1740.82 47.2566 1740.67 47.1246C1740.26 46.7814 1739.79 46.54 1739.39 46.1849C1739.12 45.9441 1738.47 45.1716 1738.11 45.6179C1737.91 45.8605 1739.22 47.0029 1739.27 47.0597C1739.65 47.4792 1741.24 48.8947 1740.6 49.4986C1740.41 49.687 1739.96 49.7465 1739.84 49.8945C1739.72 50.0465 1740.48 50.9389 1740.58 51.0162C1741.27 51.5579 1741.48 51.9869 1741.78 52.8113C1741.89 53.1112 1741.99 54.5258 1742.49 54.4489C1742.92 54.3832 1743.7 53.9491 1744.06 53.6965C1744.64 53.2832 1745.81 53.1321 1746 54.1025C1746.03 54.2621 1746.29 55.1736 1745.9 54.9808C1745.57 54.8124 1745.23 54.1594 1744.94 54.0791C1744.6 53.9832 1744.4 54.7533 1744.36 54.9383C1744.26 55.479 1743.65 55.927 1744.06 56.4453C1744.25 56.6805 1746.27 56.8265 1746.01 57.4621C1745.95 57.5899 1745.93 57.839 1745.84 57.9332C1745.73 58.0401 1745.29 58.2145 1745.31 58.3856C1745.36 58.8676 1745.83 58.9688 1746.18 59.0292C1746.6 59.1006 1747.05 59.1104 1747.48 59.2089Z" fill="black"/>
<path d="M1708.2 80.3919C1708.92 81.5285 1710.9 82.1326 1711.94 82.8161C1711.71 83.8862 1712 85.6013 1711.24 86.5552C1710.83 87.0787 1711.26 87.7397 1710.96 88.356C1710.79 88.7003 1709.59 88.1665 1709.38 88.028C1708.83 87.6499 1705.54 86.2671 1706.29 87.6073C1706.59 88.1526 1706.83 88.9575 1706.99 89.6245C1707.08 89.9767 1705.08 89.1438 1704.9 89.0791C1704.78 89.0345 1703.3 88.0327 1703.87 88.8404C1704.18 89.2726 1704.49 89.8899 1704.74 90.3846C1705 90.8997 1708.1 94.5135 1705.7 94.5902C1704.46 94.6299 1702.9 93.4898 1702.56 92.1612C1702.4 91.5368 1702.04 90.8749 1702.05 90.1879C1702.06 89.9798 1701.82 88.0788 1701.37 88.9803C1701.08 89.5561 1700.67 93.3008 1700.45 93.1332C1700.01 92.7983 1697.78 90.2747 1697.66 90.707C1697.23 92.2803 1697.11 94.0592 1695.62 92.4682C1695.13 91.9415 1694.84 90.6709 1694.16 90.48C1693.24 90.2223 1692.98 92.6352 1692.81 93.4062C1692.36 95.4662 1691.17 93.0055 1691.17 92.2434C1691.16 91.2488 1690 92.7445 1689.84 92.8794C1689.24 93.4023 1689.11 94.8873 1688.01 94.7753C1686.33 94.6035 1685.71 93.3583 1686.08 91.6715C1686.49 89.79 1683.18 92.3421 1682.86 92.3117C1682.12 92.2402 1680.93 92.1164 1680.27 91.7334C1679.85 91.484 1681.11 90.5047 1681.28 90.3585C1681.98 89.7714 1683.33 89.0435 1683.55 88.0498C1683.72 87.2565 1682.35 86.7016 1681.91 86.3216C1681.55 86.0046 1679.64 85.0102 1680.46 84.2907C1681.02 83.8007 1681.68 83.7368 1682.33 83.8776C1683.3 84.0896 1679.28 81.5531 1680.23 81.0053L1680.25 80.9956C1681.12 80.4917 1681.58 80.227 1682.63 80.4543C1683.14 80.5659 1685.24 81.3716 1685.45 80.3998C1685.61 79.7016 1685.4 78.9505 1685.03 78.4429C1684.79 78.1252 1684.29 78.1777 1683.98 78.0054C1683.15 77.5573 1682.45 76.9092 1681.61 76.4764C1681.04 76.1828 1679.35 75.6413 1679.85 74.6326C1680.13 74.0845 1682.84 75.5041 1682.97 75.5503C1683.9 75.8915 1687.25 77.5939 1687.83 75.9536C1688.01 75.4419 1687.82 74.5934 1687.99 74.2589C1688.16 73.9155 1690.12 74.5598 1690.31 74.6746C1691.64 75.4791 1692.48 75.4938 1694.03 75.3657C1694.59 75.3191 1696.98 74.3425 1697.17 75.3058C1697.34 76.1295 1697.14 77.8976 1696.95 78.7455C1696.65 80.133 1697.15 82.3567 1698.87 81.9063C1699.15 81.8322 1700.81 81.5428 1700.25 81.0142C1699.76 80.5522 1698.47 80.4775 1698.15 80.0199C1697.77 79.4728 1698.91 78.4953 1699.19 78.2783C1700 77.6436 1700.35 76.1915 1701.47 76.5093C1701.97 76.6536 1703.52 80.1701 1704.39 79.1731C1704.56 78.9728 1704.96 78.7257 1705.05 78.4829C1705.16 78.2074 1705.16 77.2758 1705.46 77.1698C1706.28 76.8713 1706.75 77.6224 1707.07 78.2078C1707.46 78.9 1707.76 79.6982 1708.2 80.3919Z" fill="black"/>
<path d="M1705.51 52.4506C1705.94 53.1307 1707.12 53.4921 1707.74 53.901C1707.6 54.5413 1707.78 55.5675 1707.33 56.1382C1707.08 56.4514 1707.34 56.8468 1707.16 57.2156C1707.05 57.4216 1706.34 57.1022 1706.21 57.0194C1705.88 56.7931 1703.92 55.9658 1704.36 56.7677C1704.55 57.0939 1704.69 57.5755 1704.79 57.9746C1704.84 58.1853 1703.64 57.687 1703.53 57.6483C1703.46 57.6216 1702.57 57.0222 1702.92 57.5054C1703.1 57.764 1703.29 58.1334 1703.43 58.4294C1703.59 58.7375 1705.45 60.8997 1704.01 60.9456C1703.27 60.9693 1702.34 60.2872 1702.13 59.4923C1702.03 59.1187 1701.82 58.7227 1701.83 58.3116C1701.83 58.1871 1701.69 57.0498 1701.42 57.5891C1701.25 57.9336 1701 60.1741 1700.87 60.0739C1700.61 59.8735 1699.27 58.3636 1699.2 58.6222C1698.95 59.5635 1698.87 60.6279 1697.98 59.676C1697.69 59.3608 1697.51 58.6006 1697.11 58.4864C1696.56 58.3323 1696.4 59.7759 1696.3 60.2372C1696.03 61.4697 1695.32 59.9975 1695.32 59.5415C1695.31 58.9464 1694.62 59.8413 1694.52 59.922C1694.17 60.2349 1694.08 61.1233 1693.43 61.0564C1692.42 60.9536 1692.05 60.2085 1692.27 59.1993C1692.52 58.0736 1690.53 59.6005 1690.35 59.5823C1689.9 59.5396 1689.19 59.4655 1688.8 59.2363C1688.54 59.0871 1689.3 58.5012 1689.4 58.4137C1689.82 58.0625 1690.63 57.6269 1690.76 57.0324C1690.86 56.5578 1690.04 56.2257 1689.78 55.9984C1689.56 55.8088 1688.42 55.2138 1688.91 54.7833C1689.24 54.4901 1689.64 54.4519 1690.03 54.5361C1690.61 54.663 1688.2 53.1454 1688.77 52.8176L1688.78 52.8118C1689.31 52.5103 1689.58 52.352 1690.21 52.4879C1690.51 52.5547 1691.77 53.0368 1691.9 52.4553C1691.99 52.0376 1691.86 51.5882 1691.64 51.2845C1691.5 51.0944 1691.2 51.1258 1691.01 51.0228C1690.52 50.7546 1690.1 50.3669 1689.6 50.1079C1689.26 49.9323 1688.25 49.6083 1688.55 49.0048C1688.71 48.6768 1690.34 49.5262 1690.41 49.5538C1690.97 49.758 1692.97 50.7765 1693.32 49.7951C1693.43 49.489 1693.32 48.9813 1693.42 48.7812C1693.52 48.5757 1694.69 48.9612 1694.8 49.0299C1695.6 49.5112 1696.1 49.52 1697.03 49.4434C1697.36 49.4155 1698.79 48.8312 1698.91 49.4075C1699.01 49.9004 1698.89 50.9583 1698.78 51.4656C1698.6 52.2957 1698.9 53.6262 1699.92 53.3567C1700.09 53.3124 1701.09 53.1392 1700.75 52.8229C1700.46 52.5465 1699.68 52.5018 1699.49 52.2281C1699.26 51.9007 1699.95 51.3159 1700.11 51.186C1700.6 50.8063 1700.81 49.9375 1701.48 50.1276C1701.78 50.2139 1702.7 52.3179 1703.23 51.7214C1703.33 51.6015 1703.57 51.4537 1703.62 51.3085C1703.69 51.1436 1703.69 50.5862 1703.87 50.5228C1704.36 50.3442 1704.64 50.7936 1704.83 51.1438C1705.06 51.558 1705.25 52.0356 1705.51 52.4506Z" fill="black"/>
<path d="M1706.06 62.7661C1706.66 63.302 1707.9 63.3249 1708.61 63.5477C1708.65 64.2017 1709.1 65.1404 1708.82 65.8133C1708.67 66.1827 1709.03 66.4916 1708.95 66.8966C1708.91 67.1227 1708.13 67.0125 1707.99 66.9661C1707.61 66.8395 1705.49 66.5833 1706.14 67.2318C1706.41 67.4956 1706.67 67.9197 1706.88 68.2766C1706.99 68.4649 1705.7 68.3148 1705.58 68.3062C1705.51 68.3002 1704.49 67.9673 1704.95 68.3374C1705.2 68.5354 1705.48 68.8407 1705.7 69.0845C1705.94 69.3384 1708.32 70.9085 1706.95 71.3458C1706.24 71.5716 1705.16 71.1721 1704.74 70.464C1704.55 70.1312 1704.23 69.809 1704.13 69.4114C1704.1 69.291 1703.65 68.2367 1703.54 68.829C1703.47 69.2073 1703.84 71.4294 1703.69 71.369C1703.38 71.2485 1701.68 70.1626 1701.69 70.4306C1701.7 71.4063 1701.92 72.4509 1700.8 71.7792C1700.43 71.5568 1700.05 70.8736 1699.63 70.8752C1699.06 70.8773 1699.31 72.3089 1699.34 72.7801C1699.42 74.039 1698.33 72.8186 1698.2 72.3805C1698.04 71.8087 1697.61 72.8605 1697.54 72.9635C1697.29 73.3629 1697.45 74.24 1696.8 74.3555C1695.8 74.5327 1695.25 73.9172 1695.18 72.8864C1695.11 71.7366 1693.62 73.7486 1693.43 73.783C1692.99 73.8638 1692.29 73.9871 1691.85 73.8746C1691.56 73.8014 1692.13 73.0305 1692.21 72.9177C1692.51 72.4652 1693.17 71.8247 1693.13 71.2174C1693.1 70.7326 1692.22 70.638 1691.91 70.4917C1691.64 70.3698 1690.38 70.1098 1690.74 69.5617C1690.98 69.1884 1691.35 69.0426 1691.74 69.0176C1692.34 68.9799 1689.61 68.181 1690.06 67.7094L1690.07 67.7011C1690.49 67.2672 1690.72 67.0394 1691.35 66.999C1691.67 66.9792 1693.01 67.0973 1692.97 66.5035C1692.94 66.0768 1692.7 65.6787 1692.4 65.4479C1692.22 65.3035 1691.94 65.4156 1691.73 65.3685C1691.18 65.246 1690.67 64.9878 1690.12 64.8769C1689.74 64.8017 1688.68 64.7671 1688.8 64.1044C1688.87 63.7443 1690.67 64.1151 1690.75 64.1209C1691.34 64.164 1693.54 64.5942 1693.61 63.5552C1693.63 63.231 1693.38 62.7738 1693.42 62.5541C1693.46 62.3285 1694.7 62.3781 1694.82 62.4128C1695.73 62.6565 1696.21 62.5279 1697.08 62.2001C1697.4 62.0809 1698.61 61.1274 1698.88 61.6494C1699.11 62.0958 1699.28 63.1469 1699.31 63.6651C1699.37 64.513 1700.02 65.7097 1700.94 65.169C1701.09 65.0801 1701.99 64.6413 1701.58 64.4294C1701.23 64.2442 1700.47 64.4129 1700.21 64.202C1699.9 63.9498 1700.4 63.2005 1700.52 63.0296C1700.89 62.5302 1700.85 61.6379 1701.55 61.6376C1701.86 61.6374 1703.33 63.4076 1703.66 62.6909C1703.73 62.5469 1703.92 62.3402 1703.93 62.1849C1703.95 62.0086 1703.8 61.472 1703.95 61.3629C1704.38 61.0557 1704.77 61.4116 1705.05 61.6949C1705.39 62.0298 1705.69 62.439 1706.06 62.7661Z" fill="black"/>
<path d="M1713.88 70.5891C1714.48 71.125 1715.72 71.1478 1716.43 71.3707C1716.47 72.0247 1716.92 72.9633 1716.64 73.6363C1716.49 74.0056 1716.85 74.3146 1716.77 74.7195C1716.73 74.9457 1715.95 74.8355 1715.81 74.7891C1715.43 74.6624 1713.31 74.4063 1713.96 75.0547C1714.23 75.3185 1714.5 75.7427 1714.7 76.0995C1714.81 76.2879 1713.52 76.1377 1713.41 76.1291C1713.33 76.1232 1712.31 75.7903 1712.78 76.1603C1713.03 76.3584 1713.3 76.6637 1713.53 76.9075C1713.76 77.1614 1716.14 78.7315 1714.77 79.1687C1714.07 79.3946 1712.98 78.9951 1712.57 78.287C1712.37 77.9542 1712.06 77.632 1711.95 77.2344C1711.92 77.114 1711.47 76.0596 1711.36 76.6519C1711.29 77.0302 1711.67 79.2523 1711.51 79.192C1711.2 79.0715 1709.51 77.9855 1709.51 78.2536C1709.52 79.2293 1709.74 80.2739 1708.62 79.6021C1708.25 79.3797 1707.88 78.6966 1707.46 78.6981C1706.89 78.7003 1707.13 80.1319 1707.16 80.603C1707.24 81.8619 1706.15 80.6416 1706.02 80.2035C1705.86 79.6317 1705.43 80.6835 1705.37 80.7865C1705.11 81.1858 1705.27 82.063 1704.62 82.1785C1703.63 82.3557 1703.07 81.7401 1703 80.7093C1702.93 79.5595 1701.44 81.5716 1701.26 81.606C1700.82 81.6868 1700.11 81.81 1699.67 81.6976C1699.39 81.6243 1699.95 80.8534 1700.03 80.7407C1700.33 80.2882 1700.99 79.6476 1700.95 79.0404C1700.92 78.5556 1700.04 78.4609 1699.73 78.3147C1699.46 78.1927 1698.21 77.9327 1698.56 77.3846C1698.8 77.0114 1699.17 76.8656 1699.57 76.8406C1700.16 76.8029 1697.43 76.004 1697.89 75.5324L1697.89 75.524C1698.32 75.0902 1698.54 74.8624 1699.18 74.822C1699.49 74.8021 1700.83 74.9203 1700.79 74.3264C1700.77 73.8998 1700.52 73.5017 1700.23 73.2709C1700.04 73.1265 1699.76 73.2386 1699.55 73.1915C1699 73.0689 1698.49 72.8108 1697.94 72.6999C1697.56 72.6246 1696.5 72.5901 1696.62 71.9274C1696.69 71.5672 1698.49 71.938 1698.57 71.9439C1699.16 71.987 1701.37 72.4171 1701.43 71.3782C1701.45 71.054 1701.2 70.5968 1701.25 70.3771C1701.29 70.1515 1702.52 70.201 1702.65 70.2358C1703.55 70.4795 1704.03 70.3509 1704.9 70.0231C1705.22 69.9038 1706.43 68.9504 1706.7 69.4724C1706.93 69.9187 1707.11 70.9699 1707.14 71.4881C1707.19 72.336 1707.85 73.5327 1708.76 72.992C1708.91 72.9031 1709.82 72.4643 1709.41 72.2524C1709.05 72.0672 1708.29 72.2359 1708.04 72.025C1707.73 71.7728 1708.22 71.0234 1708.35 70.8526C1708.71 70.3531 1708.67 69.4608 1709.37 69.4605C1709.68 69.4604 1711.15 71.2306 1711.49 70.5139C1711.55 70.3698 1711.74 70.1631 1711.76 70.0078C1711.77 69.8316 1711.62 69.2949 1711.77 69.1859C1712.2 68.8787 1712.59 69.2346 1712.87 69.5178C1713.21 69.8527 1713.52 70.262 1713.88 70.5891Z" fill="black"/>
<path d="M1710.37 45.6583C1710.18 46.44 1710.74 47.5436 1710.88 48.2749C1710.32 48.6185 1709.7 49.4567 1708.98 49.5263C1708.58 49.5645 1708.48 50.0263 1708.08 50.1498C1707.86 50.2188 1707.6 49.4802 1707.57 49.3352C1707.51 48.9395 1706.74 46.9487 1706.47 47.827C1706.36 48.1844 1706.11 48.6206 1705.89 48.9682C1705.78 49.1518 1705.3 47.9419 1705.26 47.8399C1705.23 47.7696 1705.05 46.7142 1704.94 47.298C1704.88 47.6104 1704.74 47.9975 1704.63 48.31C1704.51 48.6354 1704.24 51.4723 1703.22 50.4715C1702.69 49.9545 1702.53 48.8079 1702.96 48.1087C1703.16 47.7801 1703.3 47.3512 1703.6 47.0723C1703.69 46.9878 1704.41 46.0954 1703.84 46.2761C1703.47 46.3915 1701.68 47.768 1701.67 47.6036C1701.63 47.2751 1701.79 45.2663 1701.55 45.3948C1700.7 45.8626 1699.88 46.5455 1699.95 45.2453C1699.97 44.8148 1700.4 44.1617 1700.2 43.7899C1699.93 43.2879 1698.78 44.1754 1698.38 44.4229C1697.3 45.0842 1697.87 43.5496 1698.2 43.2325C1698.62 42.8186 1697.5 42.9367 1697.37 42.926C1696.9 42.8843 1696.2 43.4408 1695.8 42.9218C1695.17 42.1252 1695.45 41.3434 1696.33 40.8019C1697.31 40.1979 1694.84 39.8285 1694.72 39.6796C1694.44 39.3297 1694 38.7674 1693.9 38.3251C1693.83 38.037 1694.77 38.1757 1694.91 38.1901C1695.45 38.2479 1696.33 38.5283 1696.84 38.2094C1697.26 37.9547 1696.93 37.1343 1696.91 36.7864C1696.89 36.4962 1696.53 35.2636 1697.18 35.3174C1697.62 35.354 1697.93 35.614 1698.14 35.9508C1698.45 36.4582 1697.87 33.6705 1698.5 33.8541L1698.51 33.8574C1699.09 34.0263 1699.4 34.115 1699.73 34.6589C1699.9 34.9261 1700.43 36.1677 1700.93 35.8557C1701.3 35.6316 1701.53 35.2302 1701.6 34.8587C1701.64 34.6261 1701.41 34.4327 1701.35 34.2246C1701.2 33.6833 1701.19 33.113 1701.03 32.5705C1700.92 32.2026 1700.45 31.2503 1701.09 31.0481C1701.44 30.9382 1701.96 32.6989 1701.99 32.7726C1702.23 33.3166 1702.89 35.466 1703.83 35.0356C1704.13 34.9012 1704.42 34.4678 1704.63 34.4007C1704.85 34.3319 1705.38 35.4427 1705.41 35.5726C1705.62 36.4822 1705.96 36.8483 1706.66 37.4627C1706.91 37.6862 1708.32 38.3095 1707.99 38.7939C1707.71 39.2081 1706.86 39.8529 1706.42 40.1251C1705.69 40.5705 1704.94 41.7106 1705.85 42.2632C1706 42.3541 1706.81 42.9492 1706.81 42.4875C1706.8 42.084 1706.3 41.4971 1706.36 41.1697C1706.44 40.7782 1707.33 40.8637 1707.54 40.8943C1708.16 40.9837 1708.93 40.5305 1709.25 41.1435C1709.4 41.4218 1708.52 43.5457 1709.32 43.508C1709.48 43.5005 1709.75 43.5674 1709.89 43.5078C1710.05 43.44 1710.46 43.055 1710.62 43.1373C1711.09 43.3692 1710.96 43.8812 1710.85 44.2649C1710.71 44.7185 1710.49 45.1812 1710.37 45.6583Z" fill="black"/>
<path d="M1716.33 48.3197C1715.65 48.7447 1715.28 49.9258 1714.86 50.5439C1714.22 50.3992 1713.2 50.5667 1712.63 50.1094C1712.32 49.8585 1711.92 50.1155 1711.55 49.9291C1711.35 49.825 1711.67 49.1097 1711.76 48.9889C1711.99 48.6593 1712.83 46.699 1712.02 47.1399C1711.7 47.3192 1711.21 47.4573 1710.81 47.5525C1710.6 47.6027 1711.11 46.4071 1711.15 46.303C1711.18 46.2313 1711.78 45.3483 1711.3 45.6895C1711.04 45.8721 1710.67 46.051 1710.37 46.1975C1710.06 46.35 1707.88 48.189 1707.85 46.7554C1707.83 46.0148 1708.52 45.0853 1709.32 44.8863C1709.69 44.7928 1710.09 44.582 1710.5 44.5938C1710.63 44.5974 1711.76 44.4626 1711.23 44.19C1710.88 44.0158 1708.64 43.7517 1708.75 43.6208C1708.95 43.3594 1710.47 42.0367 1710.21 41.9641C1709.27 41.6996 1708.21 41.6144 1709.17 40.7337C1709.48 40.4421 1710.25 40.2735 1710.36 39.8683C1710.52 39.3211 1709.08 39.1517 1708.62 39.0475C1707.39 38.7691 1708.87 38.0682 1709.32 38.0706C1709.92 38.0737 1709.03 37.369 1708.95 37.2758C1708.64 36.9143 1707.75 36.8244 1707.82 36.169C1707.93 35.1631 1708.68 34.8011 1709.69 35.0291C1710.81 35.2833 1709.3 33.2887 1709.32 33.0997C1709.37 32.6555 1709.45 31.9469 1709.68 31.5554C1709.83 31.3004 1710.41 32.0616 1710.5 32.1665C1710.85 32.5876 1711.27 33.3996 1711.87 33.5338C1712.34 33.641 1712.68 32.8246 1712.91 32.5624C1713.1 32.3437 1713.71 31.2103 1714.13 31.7028C1714.42 32.0381 1714.46 32.436 1714.37 32.8218C1714.24 33.403 1715.78 31.0067 1716.1 31.5797L1716.1 31.5898C1716.4 32.1169 1716.56 32.3937 1716.42 33.0167C1716.35 33.3227 1715.86 34.5781 1716.44 34.7094C1716.85 34.8038 1717.3 34.6829 1717.61 34.462C1717.8 34.3237 1717.77 34.0247 1717.88 33.8359C1718.15 33.3448 1718.54 32.9296 1718.8 32.428C1718.98 32.0878 1719.31 31.0805 1719.91 31.3856C1720.24 31.5514 1719.38 33.1708 1719.35 33.2462C1719.14 33.8032 1718.11 35.798 1719.08 36.153C1719.39 36.2638 1719.9 36.1549 1720.1 36.256C1720.3 36.3599 1719.91 37.5276 1719.84 37.6411C1719.35 38.4365 1719.34 38.9361 1719.41 39.8632C1719.43 40.2005 1720.01 41.6327 1719.43 41.7457C1718.93 41.8423 1717.88 41.7104 1717.37 41.5959C1716.54 41.4083 1715.21 41.6995 1715.47 42.7281C1715.51 42.8972 1715.68 43.8913 1716 43.5575C1716.28 43.2657 1716.33 42.4944 1716.6 42.3057C1716.93 42.08 1717.51 42.7663 1717.64 42.9349C1718.02 43.4275 1718.88 43.6417 1718.69 44.308C1718.6 44.6105 1716.49 45.5163 1717.08 46.043C1717.2 46.1488 1717.34 46.3853 1717.49 46.4434C1717.65 46.5094 1718.21 46.516 1718.27 46.6917C1718.45 47.187 1718 47.4615 1717.64 47.6541C1717.23 47.8818 1716.75 48.0603 1716.33 48.3197Z" fill="black"/>
<path d="M1747.91 20.157C1747.22 20.582 1746.85 21.763 1746.44 22.3811C1745.8 22.2365 1744.77 22.4039 1744.21 21.9467C1743.9 21.6957 1743.5 21.9528 1743.13 21.7663C1742.93 21.6622 1743.25 20.947 1743.33 20.8262C1743.56 20.4965 1744.41 18.5362 1743.6 18.9771C1743.27 19.1565 1742.79 19.2946 1742.39 19.3897C1742.18 19.4399 1742.69 18.2443 1742.73 18.1403C1742.75 18.0686 1743.36 17.1855 1742.87 17.5267C1742.61 17.7094 1742.24 17.8883 1741.95 18.0347C1741.64 18.1873 1739.46 20.0262 1739.43 18.5926C1739.41 17.852 1740.1 16.9225 1740.89 16.7236C1741.27 16.63 1741.67 16.4192 1742.08 16.4311C1742.2 16.4346 1743.34 16.2999 1742.8 16.0272C1742.46 15.853 1740.22 15.589 1740.32 15.4581C1740.52 15.1966 1742.05 13.874 1741.79 13.8013C1740.85 13.5369 1739.78 13.4517 1740.74 12.5709C1741.06 12.2793 1741.82 12.1107 1741.94 11.7055C1742.1 11.1583 1740.66 10.989 1740.2 10.8848C1738.97 10.6064 1740.44 9.90543 1740.9 9.90783C1741.49 9.91095 1740.61 9.2063 1740.53 9.11307C1740.22 8.75159 1739.33 8.66163 1739.4 8.00627C1739.51 7.00039 1740.26 6.63838 1741.27 6.86633C1742.39 7.12059 1740.88 5.1259 1740.9 4.9369C1740.94 4.49273 1741.02 3.78416 1741.26 3.39265C1741.41 3.13765 1741.99 3.89882 1742.07 4.00375C1742.42 4.42487 1742.85 5.2368 1743.44 5.37109C1743.92 5.4783 1744.26 4.66185 1744.49 4.39966C1744.68 4.18095 1745.28 3.0476 1745.71 3.54002C1746 3.87536 1746.03 4.2733 1745.95 4.65907C1745.82 5.24028 1747.35 2.84399 1747.68 3.41696L1747.68 3.42709C1747.98 3.95412 1748.13 4.23091 1747.99 4.85392C1747.92 5.1599 1747.43 6.41535 1748.01 6.54669C1748.43 6.64103 1748.88 6.52018 1749.19 6.29922C1749.38 6.16094 1749.35 5.86198 1749.45 5.67315C1749.72 5.18204 1750.12 4.76685 1750.38 4.26527C1750.56 3.92508 1750.89 2.91773 1751.49 3.22282C1751.82 3.38861 1750.95 5.00809 1750.93 5.08348C1750.72 5.64048 1749.68 7.63524 1750.66 7.99025C1750.97 8.10101 1751.48 7.9921 1751.67 8.09326C1751.88 8.19712 1751.48 9.36481 1751.41 9.47834C1750.93 10.2738 1750.91 10.7734 1750.98 11.7004C1751.01 12.0378 1751.58 13.4699 1751 13.5829C1750.51 13.6795 1749.45 13.5477 1748.95 13.4331C1748.12 13.2456 1746.79 13.5368 1747.05 14.5653C1747.09 14.7344 1747.26 15.7286 1747.57 15.3947C1747.85 15.1029 1747.9 14.3317 1748.18 14.143C1748.51 13.9173 1749.09 14.6036 1749.22 14.7721C1749.59 15.2648 1750.46 15.4789 1750.26 16.1453C1750.17 16.4477 1748.06 17.3536 1748.66 17.8802C1748.77 17.9861 1748.92 18.2225 1749.07 18.2807C1749.23 18.3466 1749.79 18.3532 1749.85 18.529C1750.02 19.0242 1749.57 19.2987 1749.22 19.4913C1748.8 19.719 1748.33 19.8976 1747.91 20.157Z" fill="black"/>
<path d="M1746.46 27.3158C1745.73 26.9956 1744.54 27.3626 1743.8 27.3739C1743.56 26.766 1742.83 26.0162 1742.89 25.2898C1742.92 24.891 1742.48 24.7104 1742.42 24.3023C1742.39 24.0743 1743.16 23.9347 1743.31 23.9349C1743.71 23.9356 1745.8 23.5135 1744.98 23.102C1744.65 22.9346 1744.26 22.6162 1743.96 22.3415C1743.79 22.1965 1745.07 21.9339 1745.17 21.9072C1745.25 21.8888 1746.32 21.8851 1745.76 21.6796C1745.46 21.5696 1745.11 21.3665 1744.82 21.2055C1744.52 21.0378 1741.76 20.2939 1742.92 19.4499C1743.52 19.0139 1744.68 19.0521 1745.3 19.5939C1745.59 19.8486 1745.99 20.0557 1746.21 20.4004C1746.28 20.5048 1747.04 21.3644 1746.96 20.7675C1746.9 20.3862 1745.85 18.3951 1746.01 18.404C1746.34 18.4217 1748.3 18.9196 1748.21 18.666C1747.89 17.7432 1747.36 16.82 1748.63 17.1075C1749.05 17.2027 1749.62 17.733 1750.02 17.5991C1750.56 17.4181 1749.88 16.1356 1749.7 15.6977C1749.23 14.5275 1750.65 15.3441 1750.9 15.7204C1751.24 16.2115 1751.31 15.0793 1751.35 14.9605C1751.47 14.4999 1751.04 13.7187 1751.62 13.4052C1752.51 12.924 1753.23 13.3331 1753.61 14.2913C1754.04 15.36 1754.83 12.9825 1754.99 12.8912C1755.38 12.6766 1756.01 12.339 1756.47 12.3072C1756.76 12.2866 1756.47 13.1965 1756.43 13.3274C1756.28 13.8531 1755.86 14.6679 1756.08 15.2324C1756.27 15.683 1757.13 15.4969 1757.48 15.5364C1757.76 15.5694 1759.04 15.4213 1758.88 16.0522C1758.77 16.4819 1758.46 16.7371 1758.09 16.8848C1757.54 17.1074 1760.39 17.0078 1760.1 17.5996L1760.09 17.61C1759.83 18.1544 1759.69 18.4403 1759.1 18.6788C1758.81 18.796 1757.49 19.1056 1757.72 19.6576C1757.88 20.0542 1758.23 20.3558 1758.59 20.4813C1758.81 20.5599 1759.04 20.3659 1759.25 20.3445C1759.81 20.2888 1760.38 20.3741 1760.94 20.305C1761.32 20.2582 1762.34 19.9581 1762.43 20.626C1762.48 20.9889 1760.65 21.2012 1760.58 21.2208C1760 21.3662 1757.77 21.6504 1758.04 22.6571C1758.12 22.9712 1758.5 23.3275 1758.53 23.5489C1758.56 23.7763 1757.37 24.116 1757.24 24.1234C1756.31 24.1749 1755.89 24.4486 1755.17 25.033C1754.9 25.2456 1754.05 26.5316 1753.63 26.1212C1753.27 25.7702 1752.78 24.8261 1752.58 24.3444C1752.27 23.5563 1751.27 22.6259 1750.57 23.426C1750.46 23.5575 1749.73 24.259 1750.19 24.3314C1750.59 24.3946 1751.25 23.9976 1751.56 24.1166C1751.94 24.2589 1751.7 25.1258 1751.64 25.3274C1751.45 25.9168 1751.76 26.7517 1751.1 26.97C1750.8 27.0692 1748.86 25.8484 1748.76 26.6351C1748.74 26.7932 1748.63 27.0477 1748.67 27.1999C1748.7 27.3725 1749.02 27.8346 1748.91 27.9856C1748.6 28.411 1748.12 28.1959 1747.76 28.0161C1747.33 27.8036 1746.91 27.5113 1746.46 27.3158Z" fill="black"/>
<path d="M1735.99 29.0315C1736.77 29.209 1737.51 30.2032 1738.1 30.6515C1738.66 30.3053 1739.68 30.1267 1740.07 29.5088C1740.28 29.1697 1740.74 29.2822 1741.03 28.9857C1741.19 28.8201 1740.65 28.2509 1740.53 28.1643C1740.2 27.9279 1738.76 26.3523 1739.67 26.5048C1740.04 26.5668 1740.54 26.539 1740.95 26.4978C1741.16 26.4761 1740.29 25.513 1740.22 25.4277C1740.17 25.3689 1739.31 24.7334 1739.88 24.8965C1740.19 24.9838 1740.59 25.0312 1740.92 25.0722C1741.27 25.1149 1743.93 26.1386 1743.49 24.7729C1743.26 24.0674 1742.31 23.4153 1741.49 23.4884C1741.1 23.5228 1740.66 23.454 1740.27 23.5999C1740.16 23.6441 1739.04 23.89 1739.46 23.4563C1739.72 23.1793 1741.75 22.196 1741.61 22.1056C1741.34 21.9249 1739.47 21.1738 1739.69 21.0206C1740.49 20.4629 1741.46 20.0337 1740.27 19.516C1739.87 19.3446 1739.1 19.4349 1738.85 19.0906C1738.53 18.6256 1739.83 17.9928 1740.23 17.7434C1741.3 17.0771 1739.68 16.8994 1739.25 17.0511C1738.69 17.2491 1739.3 16.2919 1739.34 16.1776C1739.52 15.7345 1740.32 15.3585 1740.04 14.763C1739.61 13.849 1738.78 13.7522 1737.91 14.2978C1736.93 14.9064 1737.7 12.5266 1737.62 12.3545C1737.43 11.9501 1737.12 11.3068 1736.78 11.013C1736.55 10.8217 1736.25 11.7309 1736.2 11.8585C1736.01 12.3703 1735.87 13.2781 1735.36 13.5995C1734.94 13.8561 1734.36 13.1957 1734.05 13.0232C1733.8 12.8793 1732.86 12.0066 1732.62 12.6117C1732.45 13.0237 1732.55 13.4111 1732.76 13.747C1733.07 14.253 1730.84 12.4929 1730.72 13.1401L1730.72 13.1516C1730.61 13.7469 1730.55 14.0596 1730.89 14.602C1731.06 14.8684 1731.93 15.8931 1731.43 16.2075C1731.06 16.4333 1730.6 16.4667 1730.24 16.3581C1730.01 16.2902 1729.94 15.9982 1729.78 15.8541C1729.36 15.4793 1728.86 15.2153 1728.44 14.8276C1728.16 14.5647 1727.52 13.7219 1727.05 14.2071C1726.8 14.4708 1728.14 15.7181 1728.19 15.7801C1728.57 16.2379 1730.21 17.7833 1729.4 18.4395C1729.15 18.6442 1728.63 18.7081 1728.47 18.869C1728.31 19.0342 1729.07 20.0079 1729.17 20.0923C1729.89 20.6839 1730.07 21.1517 1730.31 22.0502C1730.4 22.3772 1730.32 23.9181 1730.91 23.8355C1731.4 23.765 1732.36 23.294 1732.8 23.0197C1733.52 22.571 1734.88 22.4091 1734.97 23.4665C1734.98 23.6404 1735.15 24.6337 1734.74 24.4229C1734.38 24.2386 1734.08 23.5266 1733.76 23.4386C1733.37 23.3333 1733.05 24.1716 1732.99 24.3729C1732.79 24.9616 1732.04 25.4481 1732.45 26.0135C1732.63 26.2702 1734.92 26.4339 1734.53 27.1256C1734.46 27.2646 1734.4 27.5359 1734.28 27.6382C1734.14 27.7544 1733.62 27.9434 1733.62 28.1297C1733.62 28.6549 1734.13 28.7662 1734.53 28.8328C1735 28.9115 1735.51 28.9232 1735.99 29.0315Z" fill="black"/>
<path d="M1727.88 35.8589C1728.66 36.0363 1729.4 37.0305 1730 37.4788C1730.55 37.1327 1731.58 36.954 1731.96 36.3361C1732.17 35.997 1732.63 36.1095 1732.92 35.813C1733.08 35.6474 1732.54 35.0782 1732.42 34.9916C1732.1 34.7552 1730.66 33.1796 1731.56 33.3321C1731.93 33.3941 1732.43 33.3664 1732.84 33.3252C1733.06 33.3034 1732.18 32.3403 1732.11 32.255C1732.06 32.1962 1731.2 31.5607 1731.77 31.7238C1732.08 31.8111 1732.49 31.8586 1732.82 31.8995C1733.16 31.9422 1735.82 32.9659 1735.38 31.6002C1735.15 30.8948 1734.2 30.2426 1733.38 30.3158C1733 30.3501 1732.55 30.2814 1732.17 30.4273C1732.05 30.4714 1730.93 30.7173 1731.35 30.2836C1731.62 30.0066 1733.64 29.0234 1733.51 28.9329C1733.23 28.7523 1731.36 28.0011 1731.58 27.8479C1732.38 27.2902 1733.36 26.861 1732.16 26.3433C1731.77 26.1719 1730.99 26.2623 1730.75 25.9179C1730.42 25.453 1731.73 24.8202 1732.13 24.5708C1733.2 23.9045 1731.57 23.7267 1731.14 23.8784C1730.58 24.0764 1731.19 23.1192 1731.23 23.0049C1731.41 22.5618 1732.22 22.1858 1731.93 21.5903C1731.5 20.6764 1730.67 20.5796 1729.8 21.1251C1728.82 21.7337 1729.59 19.3539 1729.51 19.1818C1729.32 18.7774 1729.02 18.1341 1728.67 17.8404C1728.44 17.6491 1728.14 18.5582 1728.1 18.6858C1727.9 19.1977 1727.77 20.1054 1727.25 20.4268C1726.84 20.6834 1726.25 20.023 1725.95 19.8506C1725.69 19.7067 1724.75 18.834 1724.51 19.439C1724.35 19.8511 1724.44 20.2385 1724.65 20.5743C1724.97 21.0803 1722.73 19.3202 1722.61 19.9674L1722.61 19.9789C1722.5 20.5743 1722.44 20.8869 1722.78 21.4293C1722.95 21.6957 1723.82 22.7205 1723.32 23.0348C1722.96 23.2606 1722.49 23.2941 1722.13 23.1855C1721.9 23.1175 1721.83 22.8255 1721.67 22.6814C1721.25 22.3066 1720.75 22.0426 1720.34 21.6549C1720.06 21.392 1719.41 20.5492 1718.94 21.0345C1718.69 21.2982 1720.04 22.5455 1720.09 22.6074C1720.47 23.0653 1722.1 24.6107 1721.29 25.2668C1721.04 25.4716 1720.52 25.5354 1720.37 25.6963C1720.21 25.8615 1720.96 26.8352 1721.07 26.9197C1721.79 27.5113 1721.96 27.9791 1722.2 28.8776C1722.29 29.2046 1722.22 30.7454 1722.8 30.6629C1723.3 30.5923 1724.25 30.1213 1724.69 29.8471C1725.41 29.3983 1726.77 29.2364 1726.86 30.2939C1726.87 30.4677 1727.04 31.4611 1726.63 31.2502C1726.27 31.0659 1725.97 30.3539 1725.65 30.2659C1725.27 30.1606 1724.94 30.9989 1724.88 31.2002C1724.68 31.7889 1723.94 32.2754 1724.34 32.8409C1724.52 33.0975 1726.81 33.2612 1726.43 33.9529C1726.35 34.0919 1726.29 34.3632 1726.17 34.4656C1726.04 34.5817 1725.51 34.7707 1725.51 34.9571C1725.51 35.4822 1726.03 35.5935 1726.42 35.6601C1726.89 35.7389 1727.4 35.7506 1727.88 35.8589Z" fill="black"/>
<path d="M1725.89 73.9781C1726.67 74.1555 1727.41 75.1498 1728 75.598C1728.56 75.2519 1729.59 75.0732 1729.97 74.4554C1730.18 74.1163 1730.64 74.2288 1730.93 73.9322C1731.09 73.7666 1730.55 73.1975 1730.43 73.1109C1730.1 72.8744 1728.67 71.2988 1729.57 71.4513C1729.94 71.5134 1730.44 71.4856 1730.85 71.4444C1731.07 71.4226 1730.19 70.4596 1730.12 70.3743C1730.07 70.3154 1729.21 69.68 1729.78 69.843C1730.09 69.9303 1730.5 69.9778 1730.82 70.0188C1731.17 70.0614 1733.83 71.0851 1733.39 69.7195C1733.16 69.014 1732.21 68.3619 1731.39 68.435C1731 68.4694 1730.56 68.4006 1730.18 68.5465C1730.06 68.5907 1728.94 68.8365 1729.36 68.4029C1729.62 68.1258 1731.65 67.1426 1731.51 67.0522C1731.24 66.8715 1729.37 66.1204 1729.59 65.9671C1730.39 65.4094 1731.36 64.9803 1730.17 64.4625C1729.77 64.2911 1729 64.3815 1728.76 64.0372C1728.43 63.5722 1729.73 62.9394 1730.13 62.69C1731.21 62.0237 1729.58 61.8459 1729.15 61.9977C1728.59 62.1957 1729.2 61.2385 1729.24 61.1242C1729.42 60.681 1730.23 60.305 1729.94 59.7096C1729.51 58.7956 1728.68 58.6988 1727.81 59.2444C1726.83 59.8529 1727.6 57.4732 1727.52 57.3011C1727.33 56.8966 1727.02 56.2534 1726.68 55.9596C1726.45 55.7683 1726.15 56.6775 1726.1 56.805C1725.91 57.3169 1725.77 58.2246 1725.26 58.546C1724.85 58.8026 1724.26 58.1423 1723.96 57.9698C1723.7 57.8259 1722.76 56.9532 1722.52 57.5582C1722.35 57.9703 1722.45 58.3577 1722.66 58.6935C1722.98 59.1995 1720.74 57.4394 1720.62 58.0867L1720.62 58.0981C1720.51 58.6935 1720.45 59.0062 1720.79 59.5485C1720.96 59.8149 1721.83 60.8397 1721.33 61.154C1720.96 61.3798 1720.5 61.4133 1720.14 61.3047C1719.91 61.2367 1719.84 60.9448 1719.68 60.8007C1719.26 60.4259 1718.76 60.1618 1718.34 59.7742C1718.06 59.5113 1717.42 58.6684 1716.95 59.1537C1716.7 59.4174 1718.04 60.6647 1718.1 60.7267C1718.48 61.1845 1720.11 62.7299 1719.3 63.3861C1719.05 63.5908 1718.53 63.6546 1718.38 63.8155C1718.22 63.9807 1718.97 64.9545 1719.07 65.0389C1719.8 65.6305 1719.97 66.0983 1720.21 66.9968C1720.3 67.3238 1720.23 68.8646 1720.81 68.7821C1721.31 68.7116 1722.26 68.2406 1722.7 67.9663C1723.42 67.5175 1724.78 67.3557 1724.87 68.4131C1724.88 68.5869 1725.05 69.5803 1724.64 69.3694C1724.28 69.1852 1723.98 68.4732 1723.66 68.3851C1723.28 68.2798 1722.95 69.1181 1722.89 69.3195C1722.69 69.9081 1721.94 70.3946 1722.35 70.9601C1722.53 71.2168 1724.82 71.3805 1724.44 72.0722C1724.36 72.2112 1724.3 72.4824 1724.18 72.5848C1724.05 72.701 1723.52 72.8899 1723.52 73.0763C1723.52 73.6014 1724.03 73.7127 1724.43 73.7793C1724.9 73.8581 1725.41 73.8698 1725.89 73.9781Z" fill="black"/>
<path d="M1731.32 64.6112C1732.05 64.259 1733.24 64.574 1733.99 64.5527C1734.2 63.9347 1734.89 63.1541 1734.81 62.4307C1734.76 62.0336 1735.19 61.8339 1735.23 61.4238C1735.25 61.1947 1734.47 61.089 1734.32 61.0957C1733.92 61.1139 1731.81 60.7837 1732.62 60.3367C1732.94 60.1549 1733.32 59.8198 1733.61 59.532C1733.77 59.38 1732.48 59.1733 1732.37 59.1514C1732.3 59.1363 1731.23 59.1795 1731.78 58.9498C1732.07 58.8269 1732.42 58.6083 1732.7 58.4347C1732.99 58.254 1735.71 57.3905 1734.51 56.5981C1733.9 56.1887 1732.74 56.2774 1732.15 56.8457C1731.87 57.1128 1731.48 57.3372 1731.27 57.6914C1731.21 57.7986 1730.49 58.6905 1730.54 58.0906C1730.58 57.7075 1731.55 55.6721 1731.38 55.6882C1731.05 55.7204 1729.13 56.3032 1729.2 56.046C1729.48 55.1102 1729.97 54.1645 1728.72 54.5072C1728.3 54.6207 1727.75 55.1756 1727.35 55.0593C1726.8 54.9021 1727.42 53.5911 1727.58 53.1458C1728 51.9562 1726.62 52.8339 1726.38 53.2211C1726.06 53.7265 1725.94 52.5986 1725.9 52.4813C1725.76 52.0264 1726.16 51.227 1725.57 50.9392C1724.66 50.4975 1723.95 50.9378 1723.61 51.9119C1723.23 52.9985 1722.34 50.6574 1722.17 50.5734C1721.77 50.3761 1721.13 50.0664 1720.67 50.0545C1720.38 50.0468 1720.71 50.9429 1720.76 51.0721C1720.93 51.5908 1721.39 52.3863 1721.18 52.9601C1721.02 53.4183 1720.15 53.2701 1719.81 53.3247C1719.52 53.3703 1718.24 53.2781 1718.43 53.9014C1718.56 54.3259 1718.87 54.5674 1719.25 54.6989C1719.81 54.8971 1716.96 54.922 1717.28 55.5006L1717.28 55.5109C1717.57 56.0431 1717.72 56.3227 1718.32 56.5351C1718.62 56.6394 1719.94 56.8913 1719.75 57.4525C1719.6 57.8557 1719.26 58.1726 1718.91 58.3136C1718.69 58.4018 1718.46 58.218 1718.24 58.206C1717.68 58.1748 1717.12 58.2847 1716.55 58.2403C1716.17 58.2101 1715.14 57.9548 1715.08 58.6261C1715.05 58.9908 1716.88 59.1232 1716.96 59.1394C1717.54 59.2594 1719.78 59.4459 1719.56 60.4632C1719.49 60.7806 1719.13 61.1531 1719.1 61.3756C1719.08 61.6041 1720.28 61.8917 1720.42 61.8932C1721.35 61.9039 1721.78 62.1591 1722.53 62.7113C1722.8 62.9123 1723.71 64.1598 1724.11 63.7313C1724.45 63.3649 1724.9 62.4001 1725.08 61.9104C1725.36 61.1092 1726.32 60.136 1727.05 60.9049C1727.17 61.0313 1727.92 61.7004 1727.47 61.7927C1727.07 61.8733 1726.39 61.5057 1726.09 61.6382C1725.72 61.7966 1725.99 62.6525 1726.07 62.851C1726.28 63.4314 1726 64.2794 1726.67 64.4687C1726.98 64.5547 1728.87 63.2499 1729 64.0317C1729.02 64.1888 1729.15 64.4382 1729.12 64.5917C1729.09 64.7659 1728.79 65.2412 1728.91 65.3873C1729.24 65.7988 1729.71 65.5627 1730.06 65.3675C1730.47 65.1366 1730.88 64.8262 1731.32 64.6112Z" fill="black"/>
<path d="M1745.74 26.7477C1745.1 27.3953 1744.38 27.9586 1743.68 28.5316C1743.49 28.6241 1743.07 28.159 1743.07 28.3772C1743.07 28.67 1742.46 28.7203 1743.41 28.7203C1743.26 28.866 1743.37 29.5625 1743.37 29.7666C1743.37 31.2532 1743.59 32.8187 1744.36 34.1234C1744.74 34.7548 1745.78 32.7737 1745.88 32.6225C1746.43 31.7062 1746.64 30.653 1747.33 31.8764C1747.97 33.0126 1748.9 34.5522 1750.37 34.5522C1750.79 34.5522 1751.12 34.4511 1751.37 34.7837C1752.18 35.8405 1753.1 36.8039 1754.09 37.6911C1754.38 37.9431 1757.49 39.4228 1757.67 38.7889C1757.75 38.5091 1757.66 38.0973 1757.61 37.8283C1757.41 36.7179 1757.09 35.5071 1757.09 34.3721C1757.09 34.0484 1757.69 34.6641 1757.75 34.7066C1758.34 35.1129 1759.06 35.6274 1759.78 35.7529C1761.47 36.0486 1761.6 33.1598 1761.94 32.0393C1762.07 31.6201 1763.26 32.2001 1763.48 32.3138C1764.68 32.921 1766.11 32.3764 1767.13 31.6877C1767.53 31.4234 1767.9 30.5679 1767.15 30.5385C1765.72 30.4827 1763.91 29.9314 1763.01 28.7203C1762.54 28.0953 1764.5 28.3835 1764.75 28.3772C1766.08 28.3439 1768.29 27.9416 1768.71 26.3789C1768.99 25.3037 1768.14 25.5707 1767.38 25.77C1766.14 26.0966 1764.11 26.8895 1762.89 26.0616C1761.67 25.2372 1760.69 23.2469 1759.12 23.1285C1758.15 23.0562 1758.08 24.2708 1757.79 24.9724C1757.54 25.5828 1756.83 27.6766 1756.01 27.7597C1755.77 27.7835 1755.77 27.5396 1755.62 27.451C1755.34 27.2911 1755.3 27.1286 1755.21 26.8335C1755.04 26.2712 1754.43 25.7314 1754.04 25.3155C1752.47 23.604 1751.8 27.0064 1750.53 27.1422C1749.51 27.2509 1748.94 25.5985 1748.07 25.5985C1747.43 25.5985 1746.69 25.4931 1746.2 25.993C1746 26.194 1745.96 26.5268 1745.74 26.7477Z" fill="black" stroke="black" stroke-linecap="round" stroke-linejoin="round"/>
<path d="M1750.22 75.1689C1749.34 75.3904 1748.43 75.4964 1747.53 75.621C1747.33 75.6053 1747.21 74.9864 1747.09 75.1728C1746.94 75.423 1746.39 75.1496 1747.2 75.6416C1747.01 75.6915 1746.74 76.3437 1746.63 76.5181C1745.86 77.7883 1745.23 79.2389 1745.21 80.7546C1745.2 81.4882 1747.13 80.3407 1747.29 80.2587C1748.23 79.762 1748.96 78.9734 1748.92 80.3769C1748.87 81.6803 1748.87 83.4811 1750.13 84.2448C1750.48 84.4608 1750.81 84.5444 1750.86 84.9611C1751 86.285 1751.29 87.5847 1751.67 88.8599C1751.79 89.2222 1753.68 92.1052 1754.16 91.6564C1754.37 91.4582 1754.51 91.0604 1754.61 90.8049C1755.01 89.7499 1755.37 88.5491 1755.96 87.5794C1756.13 87.3028 1756.32 88.1392 1756.35 88.2079C1756.64 88.8645 1756.99 89.6753 1757.54 90.1563C1758.83 91.2905 1760.44 88.8888 1761.32 88.1081C1761.64 87.816 1762.36 88.9286 1762.49 89.1422C1763.2 90.2833 1764.7 90.5595 1765.94 90.5053C1766.41 90.4845 1767.18 89.949 1766.55 89.5322C1765.35 88.7418 1764.1 87.3313 1763.95 85.8259C1763.88 85.049 1765.4 86.312 1765.62 86.4378C1766.78 87.1032 1768.87 87.9063 1770.04 86.7866C1770.84 86.0162 1769.97 85.8001 1769.22 85.5765C1767.99 85.2103 1765.85 84.8362 1765.23 83.4927C1764.62 82.1548 1764.82 79.9468 1763.53 79.0271C1762.75 78.4648 1762.05 79.4635 1761.44 79.9128C1760.91 80.3036 1759.21 81.7222 1758.47 81.3673C1758.26 81.2661 1758.38 81.0566 1758.3 80.9014C1758.14 80.6215 1758.19 80.4626 1758.27 80.1629C1758.41 79.5919 1758.17 78.8138 1758.06 78.2596C1757.61 75.9789 1755.26 78.5377 1754.11 77.9927C1753.18 77.5568 1753.55 75.8501 1752.81 75.3952C1752.26 75.0635 1751.69 74.5903 1751 74.7613C1750.73 74.83 1750.52 75.0933 1750.22 75.1689Z" fill="black" stroke="black" stroke-linecap="round" stroke-linejoin="round"/>
<path d="M1714.48 87.6456C1714.04 86.847 1713.71 85.9924 1713.37 85.1542C1713.33 84.9528 1713.9 84.6793 1713.69 84.6162C1713.41 84.5314 1713.54 83.9341 1713.26 84.8406C1713.17 84.6609 1712.47 84.5644 1712.27 84.5053C1710.85 84.0748 1709.29 83.8298 1707.82 84.1907C1707.1 84.3654 1708.7 85.9433 1708.81 86.0741C1709.53 86.8667 1710.48 87.3767 1709.11 87.6822C1707.83 87.966 1706.09 88.4143 1705.66 89.8212C1705.54 90.219 1705.55 90.5614 1705.15 90.7092C1703.91 91.1789 1702.72 91.7777 1701.58 92.4736C1701.26 92.6712 1698.94 95.2248 1699.5 95.5793C1699.74 95.7358 1700.16 95.7704 1700.43 95.8008C1701.55 95.9266 1702.81 95.9711 1703.89 96.2997C1704.2 96.3935 1703.44 96.7869 1703.38 96.8342C1702.82 97.2866 1702.12 97.8214 1701.79 98.4737C1701.02 100.012 1703.75 100.971 1704.72 101.621C1705.08 101.864 1704.19 102.833 1704.01 103.015C1703.08 103.985 1703.19 105.509 1703.55 106.692C1703.69 107.146 1704.4 107.754 1704.65 107.041C1705.12 105.689 1706.17 104.118 1707.59 103.602C1708.32 103.335 1707.48 105.125 1707.41 105.368C1707.06 106.656 1706.8 108.885 1708.18 109.735C1709.13 110.319 1709.12 109.424 1709.15 108.64C1709.19 107.357 1709.02 105.19 1710.17 104.258C1711.31 103.33 1713.5 102.971 1714.07 101.498C1714.41 100.597 1713.27 100.173 1712.69 99.6932C1712.17 99.2757 1710.38 97.9872 1710.53 97.1783C1710.58 96.9476 1710.81 97.0162 1710.94 96.8954C1711.18 96.6777 1711.34 96.6878 1711.65 96.6857C1712.24 96.6817 1712.93 96.2542 1713.44 96.0083C1715.54 94.9964 1712.47 93.3696 1712.71 92.1124C1712.9 91.107 1714.65 91.0422 1714.9 90.2041C1715.09 89.5932 1715.4 88.9176 1715.07 88.3012C1714.93 88.0534 1714.62 87.9181 1714.48 87.6456Z" fill="black" stroke="black" stroke-linecap="round" stroke-linejoin="round"/>
<path d="M1725.89 43.9584C1726.64 43.4502 1727.46 43.0413 1728.27 42.6188C1728.46 42.5643 1728.79 43.1047 1728.83 42.8908C1728.89 42.6038 1729.5 42.6752 1728.57 42.4875C1728.74 42.3732 1728.77 41.6687 1728.81 41.4687C1729.1 40.0115 1729.2 38.434 1728.7 37.0023C1728.46 36.3093 1727.04 38.0432 1726.92 38.1734C1726.2 38.9624 1725.78 39.9522 1725.35 38.6165C1724.95 37.3759 1724.34 35.6817 1722.89 35.3904C1722.49 35.3081 1722.15 35.3423 1721.96 34.9657C1721.38 33.7694 1720.67 32.6433 1719.87 31.5764C1719.64 31.2734 1716.88 29.2055 1716.58 29.7915C1716.45 30.0502 1716.45 30.4713 1716.45 30.7447C1716.43 31.8737 1716.5 33.1239 1716.28 34.2364C1716.21 34.5536 1715.75 33.8318 1715.7 33.7778C1715.2 33.2615 1714.6 32.6156 1713.92 32.35C1712.31 31.7239 1711.61 34.5301 1711.06 35.5609C1710.85 35.9466 1709.8 35.1428 1709.6 34.9869C1708.55 34.1544 1707.04 34.4054 1705.9 34.8766C1705.46 35.0574 1704.92 35.8215 1705.66 35.9997C1707.05 36.3376 1708.71 37.2364 1709.36 38.603C1709.69 39.3082 1707.83 38.6378 1707.58 38.594C1706.27 38.362 1704.02 38.3189 1703.31 39.7684C1702.81 40.7657 1703.7 40.6734 1704.49 40.6283C1705.77 40.5543 1707.91 40.1783 1708.95 41.2324C1709.98 42.2821 1710.54 44.4265 1712.06 44.8547C1712.99 45.1165 1713.31 43.9408 1713.73 43.3105C1714.1 42.762 1715.21 40.8511 1716.03 40.932C1716.26 40.9551 1716.22 41.1945 1716.35 41.3118C1716.59 41.5231 1716.59 41.69 1716.62 41.9974C1716.68 42.5831 1717.17 43.2331 1717.47 43.7166C1718.67 45.7063 1720 42.5042 1721.28 42.6232C1722.3 42.7184 1722.52 44.4505 1723.38 44.624C1724.01 44.7505 1724.71 45 1725.29 44.6077C1725.53 44.45 1725.63 44.1318 1725.89 43.9584Z" fill="black" stroke="black" stroke-linecap="round" stroke-linejoin="round"/>
<path d="M1741.44 123.079C1741.44 125.63 1741.84 128.182 1742.07 130.63C1742.27 132.86 1743.95 135.035 1743.95 137.281C1743.95 139.185 1743.27 141.536 1743.99 143.393C1744.46 144.608 1744.53 148.41 1746.47 148.966" stroke="black" stroke-width="3" stroke-linecap="round" stroke-linejoin="round"/>
<path d="M1735.33 153.281C1736.83 149.741 1737.99 146.262 1738.2 142.495C1738.39 139.04 1738.92 135.35 1738.92 131.708" stroke="black" stroke-width="3" stroke-linecap="round" stroke-linejoin="round"/>
<path d="M1738.92 131.708C1738.92 127.686 1738.56 123.878 1738.56 119.843" stroke="black" stroke-width="3" stroke-linecap="round" stroke-linejoin="round"/>
<path d="M1739.46 120.203C1739.46 126.475 1740 132.515 1740 138.773C1740 141.78 1738.93 143.445 1737.72 146.201C1737.39 146.945 1736.76 148.081 1735.92 148.512C1735.48 148.739 1735.28 150.34 1734.88 150.843C1734.44 151.389 1734.61 152.093 1734.61 152.7C1734.61 153.246 1733.85 153.55 1733.53 154" stroke="black" stroke-width="5" stroke-linecap="round" stroke-linejoin="round"/>
<path d="M1740.72 109.057C1740.82 109.627 1741.8 115.239 1741.8 112.473C1741.8 109.589 1741.8 112.757 1741.8 113.911C1741.8 114.704 1740.71 117.914 1739.84 117.666C1739.05 117.44 1738.64 115.937 1737.84 115.609C1737.33 115.399 1737.41 117.409 1737.66 117.706C1738.41 118.606 1738.5 121.241 1738.56 122.36C1738.63 123.617 1738.92 127.479 1738.92 124.158C1738.92 122.956 1739.35 120.797 1738.48 119.923C1737.69 119.132 1737.48 117.358 1737.48 116.248" stroke="black" stroke-width="3" stroke-linecap="round" stroke-linejoin="round"/>
<path d="M1737.84 98.2704C1737.58 96.9069 1737.48 95.686 1737.48 94.3154" stroke="black" stroke-width="2" stroke-linecap="round" stroke-linejoin="round"/>
<path d="M1736.76 94.7297C1735.69 93.2542 1734.63 91.5462 1733.89 89.8758C1733.71 89.4825 1733.53 87.9934 1733.53 88.7972C1733.53 89.9738 1733.97 90.6307 1734.97 91.2141C1735.74 91.6722 1736.4 92.6078 1736.4 93.5112C1736.4 94.3187 1735.68 94.7374 1735.68 95.6286C1735.68 96.8779 1735.19 96.2201 1734.25 96.1679C1733.73 96.1391 1732.99 95.2784 1732.45 95.0093C1732.35 94.9601 1730.16 94.3309 1731.21 94.0306C1731.74 93.8802 1735.55 93.9815 1734.89 94.6498C1733.65 95.8885 1733.27 93.495 1732.27 93.2715C1730.04 92.7754 1732.03 90.0556 1729.93 90.0556" stroke="black" stroke-width="2" stroke-linecap="round" stroke-linejoin="round"/>
<path d="M1741.08 102.225C1741.08 101.003 1740.75 98.9838 1741.1 97.7511C1741.37 96.7954 1741.8 96.1597 1741.8 95.0345C1741.8 94.3889 1742.58 92.8569 1743.06 92.3779C1743.58 91.8578 1742.95 90.4558 1743.31 89.6413C1743.82 88.4988 1744.31 87.1953 1744.31 85.926C1744.31 85.876 1744.36 86.7002 1744.29 86.9248C1744.1 87.5992 1743.98 87.1601 1743.95 86.765C1743.91 86.003 1743.08 84.7603 1742.7 84.0684C1742.21 83.1956 1741.82 82.2468 1741.36 81.3718C1740.51 79.7768 1741.08 80.6927 1741.08 82.0909C1741.08 83.316 1741.08 84.5411 1741.08 85.7662C1741.08 88.2624 1741.62 91.504 1740.8 93.876C1740.21 95.5695 1739.28 88.7955 1739.28 92.5177C1739.28 95.2742 1739.28 98.0307 1739.28 100.787" stroke="black" stroke-width="2" stroke-linecap="round" stroke-linejoin="round"/>
<path d="M1742.88 72.7427C1742.88 71.5823 1742.57 70.4642 1742.52 69.5068C1742.51 69.4333 1742.52 68.588 1742.52 68.588C1742.46 68.588 1742.16 69.4312 1742.16 69.2871C1742.16 68.2034 1741.86 67.0269 1741.8 65.9114C1741.76 65.3512 1741.08 66.6979 1741.08 65.0125C1741.08 63.1548 1741.08 61.2972 1741.08 59.4395C1741.08 58.6653 1740.27 57.8227 1740.02 58.9402C1739.95 59.2642 1740 61.535 1740 60.1586" stroke="black" stroke-width="2" stroke-linecap="round" stroke-linejoin="round"/>
<path d="M1735.32 53.3273C1734.62 52.8301 1733.72 52.4462 1733.17 51.8891" stroke="black" stroke-width="2" stroke-linecap="round" stroke-linejoin="round"/>
<path d="M1742.52 134.944C1742.52 137.601 1742.55 140.233 1742.7 142.854C1742.73 143.544 1743.34 144.326 1743.5 145.011C1743.77 146.141 1743.95 147.085 1743.95 148.247C1743.95 148.843 1743.99 149.451 1743.95 150.045C1743.94 150.292 1743.36 148.959 1743.31 148.847C1742.54 146.8 1742.2 145.007 1742.16 142.854C1742.13 141.711 1741.8 140.602 1741.8 139.448C1741.8 139.261 1741.77 137.758 1741.58 138.4C1741.33 139.213 1741.45 140.121 1741.44 140.956C1741.42 141.907 1741.08 142.798 1741.08 143.733C1741.08 144.192 1741.08 144.652 1741.08 145.111C1741.08 146.258 1741.32 147.499 1741.26 148.607C1741.24 149.032 1740.44 149.417 1740.09 149.496C1739.52 149.621 1739.47 149.826 1739.02 150.215C1738.69 150.495 1738.43 150.771 1738.02 150.984C1737.91 151.045 1736.43 151.475 1736.86 151.044C1737.7 150.206 1739.05 150.194 1739.92 149.326C1740.37 148.872 1740.68 148.263 1741.15 147.798C1741.44 147.507 1741.97 146.666 1741.98 146.27C1742 145.476 1741.93 144.487 1742.26 143.743C1742.5 143.186 1742.76 142.629 1742.87 142.035C1743.14 140.545 1742.23 138.683 1741.98 137.211C1741.85 136.485 1741.44 136.097 1741.44 135.304C1741.44 135.139 1741.25 134.82 1741.29 135.084C1741.45 136.283 1741.99 137.483 1742.2 138.699C1742.57 140.924 1742.58 143.114 1743.07 145.281C1743.24 146.049 1743.78 148.966 1742.7 148.966" stroke="black" stroke-width="4" stroke-linecap="round" stroke-linejoin="round"/>
</svg>
